/* XPM */
static char *d66c2677c21748b0c9acc588a7db69c5hieg8muzVJ4oC6wn[] = {
/* columns rows colors chars-per-pixel */
"64 64 241 2 ",
"   c #050506",
".  c #060807",
"X  c #060708",
"o  c #080708",
"O  c #070809",
"+  c #0A0B0C",
"@  c #110E0E",
"#  c #0D110E",
"$  c #11100F",
"%  c #19100E",
"&  c #0D0E11",
"*  c #070A10",
"=  c #100F11",
"-  c #0E1213",
";  c #0D161A",
":  c #0F1A1B",
">  c #0F1815",
",  c #121314",
"<  c #1A1514",
"1  c #141A16",
"2  c #131519",
"3  c #1A1719",
"4  c #141A1B",
"5  c #1A1C1D",
"6  c #221915",
"7  c #1C211E",
"8  c #17231E",
"9  c #23261D",
"0  c #36281C",
"q  c #0D1C21",
"w  c #0D1721",
"e  c #141D22",
"r  c #1A1E22",
"t  c #151D2A",
"y  c #091D32",
"u  c #221E28",
"i  c #0F222D",
"p  c #152124",
"a  c #1B2224",
"s  c #15242B",
"d  c #1A252C",
"f  c #1C292C",
"g  c #1E2924",
"h  c #0F2333",
"j  c #1B2B34",
"k  c #1C2C3A",
"l  c #172634",
"z  c #1B313C",
"x  c #222324",
"c  c #21262B",
"v  c #232A2D",
"b  c #2A2928",
"n  c #342A25",
"m  c #34332A",
"M  c #222D34",
"N  c #272E37",
"B  c #25323D",
"V  c #2A313A",
"C  c #273134",
"Z  c #333434",
"A  c #39363A",
"S  c #312E30",
"D  c #49362D",
"F  c #453A3B",
"G  c #483937",
"H  c #583C35",
"J  c #54372C",
"K  c #593627",
"L  c #544336",
"P  c #744D3A",
"I  c #1A3347",
"U  c #1C395A",
"Y  c #152D49",
"T  c #202F41",
"R  c #243443",
"E  c #2B3643",
"W  c #2D3B4C",
"Q  c #263749",
"!  c #333A43",
"~  c #323C4C",
"^  c #3B3C4D",
"/  c #363744",
"(  c #2B3D54",
")  c #263C59",
"_  c #393E54",
"`  c #233B63",
"'  c #453D48",
"]  c #4B3E4A",
"[  c #3A424D",
"{  c #3B4257",
"}  c #2B4255",
"|  c #1E4261",
" . c #2B4566",
".. c #3B496B",
"X. c #374666",
"o. c #3A4B72",
"O. c #2F4D79",
"+. c #4B4449",
"@. c #5A444C",
"#. c #584746",
"$. c #474558",
"%. c #564857",
"&. c #5B525C",
"*. c #654748",
"=. c #764B46",
"-. c #7C5249",
";. c #674B56",
":. c #744D57",
">. c #68535B",
",. c #7A5458",
"<. c #78615A",
"1. c #484A67",
"2. c #554C66",
"3. c #4B506C",
"4. c #57536B",
"5. c #4A4E72",
"6. c #424C75",
"7. c #4B5378",
"8. c #585678",
"9. c #554F70",
"0. c #685469",
"q. c #785869",
"w. c #675A79",
"e. c #7A5C77",
"r. c #604B61",
"t. c #7C626B",
"y. c #6B627A",
"u. c #7B657B",
"i. c #766679",
"p. c #6F616D",
"a. c #88553E",
"s. c #A05F20",
"d. c #B9742B",
"f. c #AE6A18",
"g. c #C37718",
"h. c #875956",
"j. c #895E4B",
"k. c #896759",
"l. c #976C5A",
"z. c #82604E",
"x. c #AC7752",
"c. c #865D68",
"v. c #815D73",
"b. c #886669",
"n. c #9B766D",
"m. c #876777",
"M. c #8B7478",
"N. c #99777B",
"B. c #936C71",
"V. c #A1776A",
"C. c #A87777",
"Z. c #CA8F34",
"A. c #A88378",
"S. c #B58A78",
"D. c #B88A6D",
"F. c #A9816D",
"G. c #C1854D",
"H. c #C49678",
"J. c #C59470",
"K. c #D2B473",
"L. c #395A9A",
"P. c #304F88",
"I. c #4B5A87",
"U. c #595B87",
"Y. c #475D94",
"T. c #4A578A",
"R. c #655D85",
"E. c #765D82",
"W. c #5A618B",
"Q. c #576295",
"!. c #4A639B",
"~. c #6B638C",
"^. c #676388",
"/. c #786788",
"(. c #7C7389",
"). c #696895",
"_. c #746C94",
"`. c #7A6B96",
"'. c #797298",
"]. c #4563A4",
"[. c #596DAE",
"{. c #6A6DA3",
"}. c #7A74A7",
"|. c #7376B2",
" X c #866B86",
".X c #84728C",
"XX c #8A7889",
"oX c #987A88",
"OX c #846E98",
"+X c #887798",
"@X c #947B99",
"#X c #A67D89",
"$X c #8877A6",
"%X c #957AA7",
"&X c #847CB3",
"*X c #9B828C",
"=X c #9D8395",
"-X c #9A869B",
";X c #A88688",
":X c #B68C88",
">X c #B9918A",
",X c #A78A97",
"<X c #AC929B",
"1X c #AD9095",
"2X c #BB9B9C",
"3X c #B79598",
"4X c #B18D8F",
"5X c #9984A8",
"6X c #9886B3",
"7X c #8A81AA",
"8X c #A48BA5",
"9X c #AC93A2",
"0X c #AB95A7",
"qX c #BA9DA4",
"wX c #B498A4",
"eX c #B099BB",
"rX c #BDA2A7",
"tX c #BBA1B0",
"yX c #C29D99",
"uX c #C1968C",
"iX c #C7A68C",
"pX c #C3A39C",
"aX c #C8AB99",
"sX c #CDB396",
"dX c #D1B88C",
"fX c #C499A4",
"gX c #C2A4AB",
"hX c #C7ACAC",
"jX c #C5A7A5",
"kX c #CCB4A6",
"lX c #D1BDA6",
"zX c #C8AAB3",
"xX c #CDB1B9",
"cX c #D4C496",
"vX c #D3C5A7",
"bX c #D5CEB9",
"nX c #AA9DC9",
"mX c #CEBAC8",
"MX c #D6D6D4",
"NX c #D7DBE2",
"BX c #F4F4F6",
/* pixels */
"O & , + o O O O o + + o + # o   + + + . +     o + o o O - + + , X     , 4 + , - 1 , 1 1 b : : 8 8 8 8 1 8 8 : > > p k w + 5 2 * ",
"O   < *   $ # + o     +   + + +   o + X $ # #   - + o O + # + + o # + - # - a 4 # 7 1 > C M 8 9 > 1 m 8 8 C 8 > # q e s * 2 = * ",
"X   X + o + # o + + o     o + + o o o X + o o o   O , 5 .   + o - , + - 1 - a v 1 7 5 p f c 7 7 g g 8 g f C 8 > q s f r , & & < ",
"r   * + +   o o + $ + o o #   + - # o O o o   + o O - < o   o X o , - 1 5 4 1 - a 7 x ( a 9 m n Z m 9 m [ g i 8 q i s r 3 + = u ",
"X + + + + + o $ #       +     # o o + + o + O + , O X X   X - - & , - 4 - ; e 5 7 7 %.! 9 Z F A m m m [ Z R I g s l u r & 2 * O ",
"+ o o + , + o , +   + o o +   , , -   # + + o O X O O X $ + # + & # 4 4 p g p v 5 v / n 0 A L m ! L &.[ [  .| f s T t O 2 2   O ",
"2 X + + 2 o X + o O , , + o   +     X X   - <   O   + + + O 3 + # ; 4 a d ! E x b m A G L #.G L +.+.+.7.!. .} z h T r o - = O O ",
"o o & o o o o + o +   + o o   . X o   # + + - + X   + 5 & - 1 - e c 4 M j M C S A L D L *.L #.>.&.L W.Q.y.7.I I h j e O & + * X ",
"& + o o O +     O o o X X + + O o O + ,   o X O + + + o + +   7 x d a M N u u n G D H H K :.:.0.&.^.{.W. . .| I l w - + + & + o ",
"+ o # # + + O O o # - o +   + - o O X X   o   O + , # - - & - 1 4 s M M / u n ] H J *.=.v.c.m.q.i.&XI.I.!.P. .| h 4 - + + X * + ",
"< + +   #   + o O o O , O O + + + O O O +   < # O - , + - 1 , 8 c k E E / A G G H H J :.c.B.5X6X(.^.{.[.!.]. .Y s > ; + O & o o ",
"4 X $ +   + O - O , - O X + , # O + & X O + + O # + + - - 1 1 a N / V S S ] D D *.*.-.h.B.oXnXnXL &.&X{.[.]. .j e - & + O X   X ",
"    < & . + O # o # + o X + < + + O + + , + X X + > * 4 > 4 8 f E ^ _ A ' ] D *.=.-.h.B.C.c.m.t.L >.&.$.!.].| } e & o + O + + + ",
"+ X * X +     + + + o +     X + & + + + a O X + - > > ; 4 a p C / 1.] F ] H *.:.:.-.h.oX#Xh.z.P <.M.+.Z O.P.I j 2 o + 2 O + X X ",
"X X o + o + +   o + + + , + X + & 3 2 + O o + & 1 4 : 4 4 d C ^ $.2.A H *.H v.h.h.B.#X#XN.l.k.<.*XM.;._.T.X.I w 2 + & + X   b 0.",
"= , + o   + $ + + o o $ , o + O - - - + O + - > - , 7 p f v { [ ^ ] ] q.h.v.:.h.#X#X#XC.N.N.z.k.*Xi.+.|.!.I s e * X X X X X u S ",
"O + + o o o o + < O X o O + & + O o + + # - ; 4 4 1 a d Z A ' / ' ] q.v.c.*.h.#X;X*X*XA.;X<.M.<.*Xp.L |.L.I p - . # 6   O X O O ",
"+ & o + + 3   3 r 4 o o X , - O O + + + - - - - a 4 p f ! ! b ' @.q.v.:.H j.4X4X<XA.n.n.M.b.*X*X'.#.$.[.O.j p >   # - O X O + + ",
"r = X   + 9 +   X & + O O + + - & + + & + ; 4 4 r d t Q [ A A @.:.v.=.v.j.#X3X<X;Xn.k.l.k.*X-X-X+X*.7.L.) i ; ; + O   + , o =   ",
"+ 3 o + 3 + o +     O + X +   o O - , - + - 4 d s d l _ A +.@.*. X:.=.C.fXuXS.C.n.A.A.F.P *X-X'.i.^.!. .k E e + + O O + 3 X X + ",
"X O < 6   o O X o + + ,     o + - + + & 4 e e a u T / ^ r.:.=.v.h.=.l.uXuXs.D.S.A.1X0X;XP *X7X(.^.).6.) k , + + O o * X + X O + ",
"+   % <         O O   + + X , + O # & 2 M e f a k T ^ %.] q.c.h.K l.fX:Xf.x.gXwXA.;X,XM.t.-X}.^.R.7.O.Q 2 + & o O O + X X + + O ",
"$ + +   + o + O O o O o + o + o + - & r s 4 p k Q ( 1.r.e.v.c.K l.fX:Xs.C.xXgX3X<X9XoXk.+X'._.U.].T.Q t ; & +   O     + & X & & ",
"o + + + + o o X + o & 3 + - o # + # - v : f p B _ ' ] @.c.:.=.a.zXuXd.J.xXgXgXqX3X*Xk.b. X/.R.Q.L.` h 2 - - o + O X X   & X 2 2 ",
"o + + o O + + + + o , + + + O - - > 1 : 2 s k V _ $.#.;.h.=.j.uXzXG.J.xXxXxXuX:X9XN.k. X(.^.T.L.P.U y ; 2 + O + o + = 0 o o   o ",
"o o o +   #   # - + O   X o + # - # 4 4 a l N V 2.%.q.q.=.a.:XJ.G.J.xXxXzXfX3XS.V.#XoXu._.U.Q.L.|.X.w + & + * o & * o = o + o   ",
"+ X o + .   + + + & + < <   + - 1 , r a s j W _ ] ] e.;.h.C.J.g.g.kXkXaXyXgXgX4X;X@X.Xe.w.W.Y.` [.X.; 2 3 & & o + O *   O o o & ",
", + ,   + +     o o O o + & , - , 4 r a M j X.' %.=.;.:.:XfXG.g.iXlXaXfXyXqX3Xl.#X%X.X/.^.I. .Y Y y & * O o + + < + X X X o @ o ",
"+ + +   - o + + o o       O 5 1 4 4 p M k ~ 5.2.*.:.;.oXfXD.g.K.vXlXsXhXyX3X1Xn.oX@XE.R.R.5.Q Y y t & - X + + & + + X o = 3 X & ",
"o o   , , O o # X X   < 6 a 1 - 4 e s j T { 5.q.*.;.v.#X:Xg.Z.dXMXvXsXhXyX2X,XN.oX X~.).U.1.T l y e & * + + + + o o O + 2 u O O ",
"o o + + # + o + o +   6 n b , 4 S B j %.E ] 2.@.0.OX#XwXD.g.K.bXMXcXlXhX2X0X,XoX%X@XOX|.7._ E t ; + 2 2 X X + o o o + X X X X X ",
"o X o O + o o + # o +   < 5 4 x s k z $.V $.%.;.E.oX#XuXd.Z.cXNXMXvXsXjXqX0XoX-XOXOX%XmX`.' N l ; + + l r + + O + +   * + X X X ",
"X + +   + O   o - X O & + > - > t t k T ( ] %.%.;.N.:XD.J.dXbXNXNXvXsX2X<X-X-X+Xm./.6XBX%X' d 2 ; X o + & o O + + & + & o + = o ",
"X + # +   o + O + + + - - : - q j l T ) _ ] 0.;.m.,X:XD.sXlXbXNXbXdXaXqX<X*X-X+X Xw.~.nX/.^ t ; e 2 o   O O o , + O * O X + + + ",
"+ @ + $ O     + O + , - - 4 f : v E E ' ] E.0.m.=XwXD.D.aXvXvXMXK.iXrX0X,X5X@X.X/.5.X.5.$.l w e r + + + + o o + + X + X + = o + ",
"o , + , + o     + + - + # p p i l E X.$.] E.e.m.,XqXD.H.J.K.vXcXdXiXrX<X,X8X.Xe.8.X.( j l w 3 & & X o + = X X   b 2 + O & o X * ",
"= + o + O O O   + 2 - 4 4 e i p k E / _ $.w.M.M.8XS.>XjXiXsXdXsXaXyXqX,X@Xm. Xw.$.Q j s - ; - + o o o O + * o + o + + X + + + O ",
"X o o O   O - + + v # 4 4 h Y s M N A ' p.>.t.=X1XD.uXpXhXaXsXlXaXfX,X<XoXe./. X~ I f q ; , & o + o o o + +     O O + + o o + + ",
"X + O O O   +   + , - 4 d l z s M V v 0.i.p.M.0X:X>XjXpXiXiXkXaXjX3X8X%Xm./.w.' Q s ; ; ; + + + + o & & o o , + +     O o + = O ",
"o O   o + + O 3 - + 2 : p f s p c M / 0.>.t.=X<X>XgXgXpXuXjXhXjXqX0XeX X XR.2.E j : - ; + + - - *   o = & + O + 2 O + , o o o X ",
"O   2 * + + & < - + 4 p ; N [ a c Z %.>.#.*X-X1X2XjXjXD.pXrXrXtX<X8X8X Xi.9.~ j s a 4 2 - + + O X   O & + * = + 3 o & + * o o + ",
"+   N , X O & & + ; - s 2 M ~ v v ^ 4.#.<.-X<X3X2XjXjXpXpX2XqX<X8X5X@XOXw.$.R M 2 5 b , + o & O & < X X o X = X O & O O o o O o ",
"+ o + +   o + , + > p 4 t Q a a / $.4.>.M.-X1X4X2XtXzXzX2X9X<X,X5X%XOXw.2.^ j p , + + O + +   + + o + o   o X X O O +   o + + & ",
"O + + , O # + + > ; > 8 k M > N ' 9.r.t.*X*X4X4XrXrX3X4X9X9X,X5X%X@XOX9.~ E v 4 - & & X o X   +   & + o X +   * ,   +   O X O + ",
"  , o + + # + - 4 S ; q [ v 8 C 3.W.&.(.-X*X>XrX<X2X:X1X9X@X%X%X6X`.w.{ Q f ; - X + * O O X   + + o O & + X 2 X   O = = , X o O ",
"+   o + + # - , 8 #.: I f 1 8 &.).y.y.(.i.*XS.1X1X;X;X0X#X8X%X$XOXR.9.E f 4 ; & - + O +   X   + + o   , 2   & 6 = O O & + + + o ",
"o + + + & + # 4 e ; s z 8 g 9 y.).4.y.*Xi.A.;X*X,X*X0X,X5X%X%XOXR.8.' j p > 2 - + 5 +       O         o X o X G 3 O O   + + + , ",
"+ + + + + + - a s # [ Q s Z [ W.3.y.y.XXXXA.<X1X<X,X8X@X6X%X$X/.9.$.Q l 4 , - + + + + + X o O o D O X O X O & + + o + O + o + + ",
"o o + + , , 1 t 4 4 Q g 8 A &X~.4.y.u.(.M.A.-X-X,X-X*X7X%X%XOXR.$.R s e - + O O   X     o o X   n + + X X   + + X + + & O & + & ",
"o + # -   4 3 e 8 s s 1 4 8.|.8.y.i.i.*XM.*X-XA.-X*X$X$XOXOX~.w.~ f a ; u & * +   + + o + , @ X       & O o o O + + + + + O * + ",
"o # + , 2 + = d a M p v / 8.{.i.u.u.(.(.(.*XA.7X+X@X5X%X`.~.8.Q j a p - - O O O o + 3 X   , & X K @     O o O + + + X + + * & o ",
"+ + + , 4 + 3 r 4 g v Z ' 5.R.w.i.i.(.(.XX(.(.+X+X$X$XOX_.R.y.B d d r +   3 + o + + o X o 4 X X P %   X & o O & o O X & + + + + ",
"+ + + - - # 4 a d a 8 +.1.}./.q.t.u.u./..XXX+X%X%X$X`.$XU.1.$.j e w 5 = 3 + +   + O O + o + + + o x = 2 + + o + O o o o + X X O ",
"+ + , & + a 4 e v 4 d 4.R._.0.0.u.u.i.i..X(.+X$X%X`.'.R.5.Q I s ; & + O + + & O + + o   X X o + o @ + & X X + & , = o + o + O + ",
"X < , & + 5 5 e 4 7 ! 8.R./.%./.(..X/._.+X&X'./._._.U.5.Q k k > 2 & & O   o o + O O +   + o X O o   o   X o o o o + * + X + + o ",
"+ o + - 1 4 p > a A W ~.8.4./.+X/./.+X$X$X%Xy.(.~.8.3.} M t e + & + + + + O O - O O + # o o o O + o X o * + O + + O + & + & + O ",
"o , , , 4 - 4 a a B ~ ).w.$.+X.X/./.'.$X}.$X7X^.7.3.W k d ; ; & + O O     & + o + &     o o & + & o + X + = = = + + X + + + o o ",
"X 3 , - $ 4 a x g E { R.R.0.OX`.'.`.~.)._.'.~.4...W l v j ; & + X X X     o + o o & X X O O O O + + * 2   X O   + , o + + + + O ",
"+ 2 - - , - 4 7 g } 6.T.8.9.~./.&X'.^.'.).8.9...[ l p s 3 & X + O X     & + o + +   + & + + o + o o O O o O o + X o & + + , + O ",
"- , # 4 - + 1 a z ( o...$.w.`.U.W.W.'.W.8.3.{ Q z p t ; * + X +   + O X O X X < + + + & X o o o + + o O O O + + + + + + o o + O ",
"3 , , r , 5 1 k ( Q ) 5.6.U.).).7.8.Q.8.{ } B l a q ; + + + + O X A <   O + O O & X + o + X o X = X & X + * = + o X + X +   + + ",
"2 - , # - 3 4 s N Q ) ` X.7.6...7.o.7...} B B p p > - , o o o = + & X + O   O O = +   + + X + + X + X b < X + o o o * + o + * & ",
"+ & - $ 2 4 - e t Q ) ) _ X.1...o.X.} I B z f s : - O + o + + & o X & & * + o   = * o + + X X X o + X * + & X   + o + + , u O X ",
"& - - < < 3 a w e N Q Q T ( ` X.| ) I Q C j q Z a - + O + O X   O o + + + & o O & o o * * X X = o * + X O + o o   + + * n 3   O "
};
