/* XPM */
static char *d47aa915aa3a47dca8f401c352fde873LV1jn6hlrrvAFdai[] = {
/* columns rows colors chars-per-pixel */
"128 128 69 1 ",
"  c None",
". c #373737",
"X c #383737",
"o c #3B3738",
"O c #3C3A3A",
"+ c #413A3B",
"@ c #4B3C3E",
"# c #42403E",
"$ c #443F40",
"% c #553E41",
"& c #593F43",
"* c #474141",
"= c #494142",
"- c #4E4B45",
"; c #504547",
": c #5F4045",
"> c #534649",
", c #55494B",
"< c #5C4C4F",
"1 c #555149",
"2 c #59544C",
"3 c #5E4D50",
"4 c #634146",
"5 c #674248",
"6 c #6C4349",
"7 c #73454C",
"8 c #7C474F",
"9 c #614E52",
"0 c #7F4850",
"q c #655155",
"w c #695357",
"e c #645E52",
"r c #6A5458",
"t c #70575C",
"y c #73595E",
"u c #775B60",
"i c #7C5E64",
"p c #7F6066",
"a c #677177",
"s c #687278",
"d c #804750",
"f c #864953",
"g c #8E4A55",
"h c #914B56",
"j c #964D58",
"k c #9A4D59",
"l c #A24F5C",
"z c #A5505D",
"x c #AA515F",
"c c #AD5260",
"v c #B45362",
"b c #BB5565",
"n c #816067",
"m c #856369",
"M c #8B676D",
"N c #C25667",
"B c #C65768",
"V c #C85768",
"C c #C65869",
"Z c #CC596A",
"A c #A6977A",
"S c #A9997C",
"D c #79868E",
"F c #7B8890",
"G c #92A3AE",
"H c #94A6B1",
"J c #DEC69C",
"K c #E2CA9F",
"L c #B4CDDC",
/* pixels */
"                                                              ....                                                              ",
"                                                            ........                                                            ",
"                                                           ...........                                                          ",
"                                                         ............OO                                                         ",
"                                                        ......=it$......                                                        ",
"                                                      .......,MMMm<.......                                                      ",
"                                                    .......OtMMMMMMtO.......                                                    ",
"                                                   .......>mMMMMMMMMm;......O                                                   ",
"                                                 .......+rMMMMMMMMMMMMu$.......                                                 ",
"                                               ........3MMMMMMMMMMMMMMmM3O.......                                               ",
"                                             .......X;mMMMMMMMMMMMMMmMMMmp>........                                             ",
"                                           ........$uMMMMMMMMMMMMMmMMMMMMMMu$........                                           ",
"                                         ........OwMMMMMMMMMMMMMMMMMMMMMMMMMMwO........                                         ",
"                                       ........O<MMMMMMMMMMMMMMMMMmMMMMMMMMMMMmwO........                                       ",
"                                     ........O3mMMMMMMMMMMMMMMMMMMMMMMMMMMMMMMMMm3O........                                     ",
"                                  .........O<nMMMMMMMMMMMMMMMMMMMmMMMMMMMMMMMMMMMMm9O.........                                  ",
"                                .........OqmMMMMMMMMMMMMMMMMMMMmMmMMMMMMMMMMMMMMMMMMm9+X........                                ",
"                              .........+qmMMMMMMMMMMMMMMMMMMmMMMMMMMMMMMMMMMMMMMMMMMMMMq$.........                              ",
"                           ..........=rmmMMmMMMMMMMMMMMMMMMMMMMMMMMMMMMMMMMMMMMMMMMMMMMMMu=O.........                           ",
"                        ...........>uMMMMMMMMMMMMMMMMMMMMMMMmMMMMMMMMMMMMMMMMMMMMMMMMMMMMMMi,...........                        ",
"                      ..........+9mMMMMMMMMMMMMMMMMMMMMMMMMmMmMMMMMMMMMMMMMMmMMmMMMMMMMMMMMMMm9O..X.......                      ",
"                    .........X;tMMMMMMmMmMMMMMMMMMMMMMMMMMMMMMMMMMMMMMMMMMMMMMMMMMMMMMMMMMMMMMMmr>X.........                    ",
"                    .......+9mMMMMMMMmmMMMMMMMMMMMMMMMMMMMMmMMMMMMMMMMMMMMMMMMmMMMMMMMMMMMMMMMMMMMm3+.......                    ",
"                   .......=33333<<<<<<33<<33q<q<9qwr<<<<<<<<33333q33999w<<<<<<333<339399339333<<<<3<3*.......                   ",
"                   .................................................X.......XXX..............................                   ",
"                    ................................................XX......XX..............................                    ",
"                    ....................X.XX..............O+...O....XX..XX..XXOO....X.XO....................                    ",
"                      ................%&4&4&4&44::::::::::48:::::4::::&&&::&:::6:4::::45&%................                      ",
"                                  ....jZZZZZZZZZZZZBCZZZZZZZZZZZZZZZZZZZZZZZZZZZZZZZZZZZZg....                                  ",
"                                  ....jZZZZZZZZZCCVZZZZZZZZZZZZZZZZZCCZZZZZZZZZZZZZZZZZZZh....                                  ",
"                                  ....jZZZZZZZZZZBZZZZZZZZZZZZZZZZZZCZCCZZZZZZZZZZZZZZZZBg....                                  ",
"                                  ....kZZZZZZZZVBZZZZZZZZZZZZZZZZZZZZCZZZZZZZZZZZZZZZZZZZg....                                  ",
"                                  ....hZZZZZZZZBZZZZZZZZZZZZZZZZZZZCZZZZZZZZZZZZZZZZZZCZZg....                                  ",
"                                  ....hZZZZZZZBZZZZZZZZZZZZZZZZZCCVZZZZZZZZZZZZZZZZZZBZBZh....                                  ",
"                                  ....jZZZZZBZZBZZZZZZZZZZZZZZZZZBCZZZZZZZZZZZZZZZZZBZBZZg....                                  ",
"                                  ....hZZZZZZBZZZZZZZZZZZZZZZZCCVZZZZZZZZZZZZZZZZZCZVBZZZh....                                  ",
"                                  ....@:4&4&&&::::::::::76:::::::::::::474::::::4::::::::@XX..                                  ",
"                                  ..........XXXX........OO..............+o......XX.........X..                                  ",
"                                ..........X...XX................................................                                ",
"                               ........................o................................X.........                              ",
"                             .......*39w<<<9<93399<9<9<<<33333qr<<q333339933<3<<<<<93333qq<*.......                             ",
"                           .......O3MMMMMMMMMMMMMMMMMMMMMMmMMMMMMMMMMMMMMMMMMMMmMMMMMMMMMMMMqO.......                           ",
"                         .....X..=iMMMMMMMMMMMMMMMMMMMMMmMMMMMMMMMMMMMMMMMMMMmMMMMMMMMMMMMMMMn;........                         ",
"                       .......XOrMMMMmMMMMMMMMMMMMMMMMMMMMMMMMMMMMMMMMMMMMMMMMMMMMMMMMMMMMMMMMMrO........                       ",
"                     .......XO<MMMMMMMMMMMMMMMMMMMMMMMmMmMMMMMMMMMMMMMMMMMMMMMMMMMMMMMMMMMMMMMmMM9O........                     ",
"                   ........O,mMMMMMMMMMMMMMMMMMMMMMMMMMMMMMMMMMMMMMMMMMMMMMMMMMMMMMMMMMMMMMMMMMMMMm9O........                   ",
"                .........O>nMMMmMmmMMMMMMMMMMMMMMMMMmMMMMMMMMMMMMMMMMMMMMMMMMMMMMMMMMMMMMMMMmMmMMMMMi,X.........                ",
"             ...........,nMMMMMMMMMMMMMMMMMMMMMMMMMmMMMMMMMMMMMMMMMMMMMMMMMMMMMMMMMMMMMMMMmmMMMMMMMMMMm<O..........             ",
"           ..........O9mMMMMMMMMmMMMMMMMMMMMMMMMMMMmMMMMMMMMMMMMMMMMmMMMMmMMMMMMMMMMMMMMMMMMMMMMMMMMMMMMm9O..........           ",
"         .........O=rMMMMMMMMMmMmMMMMMMMMMMMMMMMMMMMMMMMMMMMMMMMMMMMMMMmMMMMMMMMMMMMMMMMMmMmMMMMMMMMMMMMMMMr=..........         ",
"         .......+3pMMMMMMMMMMMMMMMMMMMMMMMMMMMMMMMMMMMMMMMMMMMMMMMMMMMmMMMMMMMMMMMMMMMMMmMMMMMMMMMMMMMMMMMMMMnq+.......         ",
"         ......X*=*=======$*$=**#======;========**#*===#==========;>**==*==*========;===****=====;====*==*******X......         ",
"         ...........O..........X.o..o...............X.X...X.................O..........X........O......................         ",
"         ......................X....oo......................................O..........X...............................         ",
"          ....................XX........X.....O...XX.X..X..X..............O.....X.....OX.O............................          ",
"                         ....+ffffffffffffdfffgjfffffffffffffffdfffffffffffffffffdffffhlffffffffff+....                         ",
"                          ...@ZZZZZZZZZZZZZVZZZZZZZZZZZZZZZZZZBZZZZZZZZZZZZZZZZZZZZZZZZZZZZZZZZZZZ%...                          ",
"                          ...%ZZZZZZZZZZZZVZZZZZZZZZZZZZZZZZZZZBZZZZZZZZZZZZZZZZZZZZZZZZZZZZZZZZZZ$X..                          ",
"                          ..X$ZZZZZZZZZZCVZCZZZZZZZZZZZZZZZZZZZZZZZZZZZZZZZZZZZZZZZZZZZZZZZZZZZZZZ%X..                          ",
"                          ..X%ZZZZZZZZCVZVZZZZZZZZZZZZZZZZZZZZZZZZZZZZZZZZZZZZZZZZZZZZZZZZZZZZZZZZ$X..                          ",
"                          ...$ZZZZZZZZCZVZZZZZZZZZZZZZZZZZZZZZZZZZZZZZZZZZZZZZZZZZZZZZZZZZZZZZZZZC@...                          ",
"                          ...%ZZZZZZZZZCCZZZZZZZZZZZZZZZZZZZZZZZZZZZZZZZZZZZZZZZZZZZZZZZZZZZZZZZZZ@...                          ",
"                          ...@ZZZZZZZZZZZZZZZZZZZZZZZZZZZZZZZZZZZZZZZZZZZZZCCZZCZZZZZZZZZZZZZZZZBZ@...                          ",
"                          ...@ZZZZZZZZCZZZZZZZZZZZZZZZZZZZZZZZZZZZZZZZZZZZZCZCZZZZZZZZZZZZZZZZBBZC@...                          ",
"                          ..X@ZZZZZVVZZZZZZZZZZZZZZZZCCVVVZZZZZZZZZZZZZZZZBZBBZZZZZZZZZZZZZZZZBZBZ@...                          ",
"                          ..X%ZZCCVVZZZZZZZZZZZZZZZZZVZZZZZZZZZZZZZZZZZZZZZBZZZZZZZZZZZZZZZZCZZBZZ@...                          ",
"                          ...X$$@@@@@@@@#@@@@@@@;@@+@@@@@@@@#@@@@$7:@@@@@@@@@@@@@@@@%@@@@%%$@@@@@@....                          ",
"                         .X.XX..........o+.ooo..XX.......o.oo+..XOO+.........XXX....O.X..XXX...........                         ",
"                       .................X...XX..XXX.............XX..............X........................                       ",
"                      ...............o..XX..XX..XX...........o...X.........X.....X........................                      ",
"                    .......O3rwrrrrrrrrrrrrrwwwwwqwwrrrrrrrrtrtywrwwwqwwrrrrrrrrrrrrwwwwqwwqwrrrwrrqO.......                    ",
"                  .......X>mMMMMMMMMMMMMMMMMMMMMMMMMMMMMMMMMMMMMMMMMMMMMMMMMMMMMMMMMMMMmMMMMMMMMMMMMm<X.......                  ",
"                ........#umMmMMMMMMMMMMMMMMMMMmMMmMMMMMMMMMMMMMMMMMMMMMMMMMMMMMMMMMMMMMMMMMMMMMMMMMMMMy+O.......                ",
"              ....XX..O9MMMMMMMMMMMMMMMMMMMMMMMMMMMMMMMMMMMMMMMMMMMMMMMMMMMMMMMMMMMMMMMMMMMMMMMMMMMMMMMM3O........              ",
"            .......X.>mmMMMMMMMMMMMMMMMMMMMMMMMMMMMMMMMMMMMMMMMMMMMMMMMMMMMMMMMMMMMMMMMMMMMMMMMMMMMMMMMMMp<.........            ",
"          .........=iMMMMMMMMMMMMMMMMMMMMMMMMMMMMMMMMMMMMMMMMMMMMMMMMMMMMMMMMMMMMMMMMMMMMMMMMMMMMMMMMMMMMMMi>.........          ",
"       ........oo;yMMMMmMMMMMMMMMMMMMMMMMMMMMMMMMMMMMMMMMMMMMMMMMMMMMMMMMMMMMMMMMMMMMMMMMMMMMMMMMMMMMMMmmMMMMu;..........       ",
"     .........o>yMMMMMMMMMMMMMMMMMMMMMMMMMMMMMMMMMMMMMMMMMMMmMmMMMMMMMMMMMMMMMMMMMMMMMMMMMMMMMMMMMMMMMMMMMMMMMMm,O..........    ",
"  ..........o<mMMMMmMMMmMMMMMMMMMMMMMMMMMMMMMMMMMMMMMMMMMMMmMMmMMMMMMMMMMMMMMMMMMMMMMMMMMMMMMMMMMMMMMMMMMMMMMMMMMp<...........  ",
" .........*rmMMMMMMMmMMMMMMMMMMMMMMMMMMMMMMMMMMMMMMMMMMMMMMMMmMMMMMMMMMMMMMMMMMMMMMMMMMMMMMMMMMMMMMMMMMMMMMMMMMMMMMmw*......... ",
".......O<uMMMMMMMMmMMMMMMMMMMMMMMMMMMMMMMmMMMMMMMMMMMMMMMMMMMMMMMMMMMMMMMMMMMMMMMmMMMMMMMMMMMMMMMMMMMMMMMMMMMMMMMMMMMMu3+.......",
".......OOOOOOOOOOOOOOOOOOOOO+XOO;*O#OOOOOOOOOOOOOOOOOOOOOOOOOOOO$=OOOOO+OOOOOOOOOOOOOOOOOOOOOOOOOOOOOOOOOOOOOOOOOOOOOOOOO.......",
"........O.....O...........XX..XX......XX......XX....O...........O..........XX...X.....XX....XXX.........XX..XXXX..O.............",
" ..................X.....OXX.OXX....XXXX......XX...........................XX...X.....XX....XX..........XX...XXX............... ",
" ...............XXXXXX+$..XXXXXX..X...XX.X.O.O..o.........oo..o....O.......X..OO.X.O.O..XXX.XX......OXXX.O..XXXX............... ",
"             kjjklkkkklbkkkkkkkkkjkkkkkkkkklkkkkkkkkkjkkjkkkkkkzkkklkkkkkjjjkkkkkkklkkkkkkkkjjjjjkkkkzkkkkkkkjkjkO....          ",
"             BZZZZZZZZZZZZZZZZZCCCCCZZZZZZZZZZZZZZZCVZZZZZZZZZZZZZZZZZZZZBZZZZZZZZZZZZZZZZZZZVBZZZZZZZZZZZZZZZZZZ+...           ",
"             ZBZZZZZZZZZZZZZZZZZZCZZZZZZZZZZZZZZZZZVZVZZZZZZZZZZZZZZZZCZBZBZZZZZZZZZZZZZZZBZVZZZZZZZZZZZZZZZZZZBZO...           ",
"             ZZZZZZZZZZZZZZZZCCZZZZZZZZZZZZZZZZZZZCVZZZZZZZZZZZZZZZZZZCZCBZZZZZZZZZZZZZZZZZBBZZZZZZZZZZZZZZZZZBZZ+...           ",
"             xZZZZZZZZZZZZcjhghgjbZZZZZZZZZvjhhjgjvZCZZZZZZZbjhhhhjbCZZCZZZZZbkhjhhkvZZZZZBZZZbjjjhhjvZZZZZZZZZBB+...           ",
"           ...fZZZZZZZZZB&..X.....0ZZZZZZC5.......O6VZZZZZV5......O.5NZZZZZZ6X.......4NBBZZBZ8X.......4NZZZZZVZZZ+...           ",
"           ..X@ZZZZZZZZZ&X........OgZZZZZ5..........7ZZZZZ6..........6ZZZZZ7..........4ZZBZZ8..........&ZZBVBZBZZ+...           ",
"           ...+ZZZZZZZZlXX.........XCZZZx...........ONZZZb............vZZZbXX..........xBZZBOX.....O....lZBZZZZZZ+XX.           ",
"           ...+ZZZZZZZZdX.XO----..XXcZZZg...O----O...zZZZl...O----O...jZZZlX..O----O..OfZZZx....----O...dVZBZZZZZ+...           ",
"           .XX+ZZZZZZZZ0...eKKKK....lZZZf...2JJJK#...kZZZh...-KJJJ=...hZZZzX..$KKKK2...fZZZz....KKKKe...8VZZZZZZZ+...           ",
"           X.X+ZZZZZZZC8...eKKKK...XcZZZf...2JJKK#...kZZZh...=JJJJ-...hZZZkO..#KKKJ2...fZZZz....KKKKe...8BZZZZZZZ+...           ",
"           ...+ZZZZZZBZ8...eKKKK....zZZZf...2JKKK#...kZZZj...-JJJJ-...jZZZk...#KJJJ2...fZZZz....KKKKe...8ZZZZZZZZ@Oo.           ",
"           ...+ZZZZZZBB8...eKKKK....zZZZf...2KKKK#...kZZZh...-JJJK-...hZZZk...#KJJJ2...fZZZz....KKKKe...8ZZZZZZZZ#.o.           ",
"           ...+ZZZZZVZZ8...eKKKK....zZZZf...2KKKK#o.okZZZh...-JJJK-o..hZZZk...#JJJJ2...fZZZzo...KKKJe...0ZZZZZZZZ+...           ",
"           ...+ZZZZZZBZ8...eKKKK....zZZCd...2KKKK#...lZZZg...-JKKK-...hZZZk...#JJJJ2...fZZZz....KKJJe...fZZZZZZZZ+...           ",
"           ...OZZZBVZBZd..OeKKKK....lZZVf...2KKKK#...kZZZg..X-KKKK-...hZZZzo..#JJJJ2...gZZZc....KJJJe...dZZZZZZZZ+...           ",
"           ..X+ZZZZBZZZ8...eKKKK....lZVVf...2KKKK#...kZZZg..X-KKKK-...hZZZko..#JJKK2...fZZZx....JJJJe...dZZZZZZZZ+...           ",
"           ...+ZZBVZZZZ8...eKKKK....lVZZf...2KKKK#...kZZBg...-KKKK-O..hZZZk...#JKKK2...fZZZx....JJJJe...fZZZZZZZZ+X..           ",
"           ...+VBZZZZZZ8..OeKKKK....zVZZf...2KKKK#...jZZZg..O-KKKK-..ohZZZk...#KKKK2...gZZZz....JJJJe...gZZZZZZZZ+X..           ",
"           ...+ZZZZZZZZ0...eKKKK....lVZZf...2KKKK#...jZVVg..X-KKKK-...hZZZj...#KKKK2...fZZZzo...JJKKeo..8ZZZZZZZZ+o..           ",
"           ...+VZZZZZZZ0...eKKKK....lZZZf...2KKKK#..XjVZZg..X-KKKK-...hZCZj...#KKKK2...fZZZz....JJKKe...8ZZZZZZZZO...           ",
"           ...+ZZZZZZZZd...1SSSSX.XolZZZfoX.-SAAS#...kZZZhX..#SSSS*...hZVCk...OSSSS-...gZZZz....SSSS,...fZZZZZZZZO...           ",
"           ...+ZZZZZZZZh........XXX+bZZZj.XXXo.......xZZZl............lZZZz...o.O......jZZZv...........XgZZZZZCVV+...           ",
"           ...+ZZZZZZZZBOXXX.......#ZZZZNOo.XXX...X.@ZZZZZ+..........#NCZZZ@..........#NZZVV@Xoo......XObZZZZZZVV+...           ",
"           ...+ZZZZZZZZZgXXX....oo+cZZZZZk..Xo.X..XOlZZZZZlO.........lCZZZZxO..o...O..jZVZVZx+X+...X.XXjZZZZZZCVZ+...           ",
"           ...+ZZZZZZZZZZz&+++O+#8CZZZZZZZx4++++++6cZZZZZZZv5@+++++5xCZCZZZZv5@+++++4xZZVVVZZbd@++++@&lZZZZZCZCZV+...           ",
"           ...+ZZZZZZZZZZZZVVBZZZZZZZZZZZZZZZZZVZVZZZZZZZZZZZZZZZZZVZVZZZZZZZZZZZZZZZZZCVZVZZZZZZZZZZZZZZZZZZCZZZ+...           ",
"           ...+ZZZZZZZZZZZZZZVZZZZZZZZZZZZZZZZVVZZZZZZZZZZZZZZZZZZZCZZZZZZZZZZZZZZZZZZZZZVZZZZZZZZZZZZZZZZVVZZZZZ+XX.           ",
"           ..X+ZZZZZZZZZZZZZZZZZZZZZZZZZZZZZZVVZZZZZZZZZZZZZZZZZVVVVZZZZZZZZZZZZZZZZZZZZZZZZZZZZZZZZZZZZZVZVZZZZZ+XX.           ",
"           ...+ZZZZZZZZZZZVZZZZZZZZZZZZZZZZZZZZZZZZZZZZZZZZZZZZZZZZZZZZZZZZZZZZZZZZCZZZZZZZZZZZZZZZZZZZZVVZZZZZZZ+X..           ",
"   ............;;::6%&@%@&@@4@&@@&@;4:&@@:@44#@@:@:@:5#@&4&@&&@;@4##@4#@4@4@:@:5&@;=@&@@:@:@@4#@:5@:@4#@:@&@%%&@@X...........   ",
" ...............XX..........oXXX........+o......oXXX....o.......+oX........X+XXX........oo......oXXX............oX............. ",
"................XX..........oX..........oo......oX......o..o....XXXX.X.....XXX.X........XX.X....oX.X............XXXX........... ",
"...........X....XXX.......X.............XXXX....XX.............OXXXX......XX..........#.XXXX....................XXXX.O..........",
"....sFFFFFFFFFFDFDDDDDDDFFFFFFFFFFFFFDDsDDDDFFFFFFFDFFFFFDDDDFFFDDFFFFFFFFFDDDDDDFFFFFFFDFFFFFFFDDDDDDDFFFFFDDDGDFFFFDDDDDDa....",
"....HLLLLLLLLLLLLLLLLLLLLLLLLLLLLLLLLLLLLLLLLLLLLLLLLLLLLLLLLLLLLLLLLLLLLLLLLLLLLLLLLLLLLLLLLLLLLLLLLHLLLLLLLLLLLLLLLLLLLLLH....",
"....HLLLLLLLLLLLLLLLLLLLLLLLLLLLLLLLLLLLLLLLLLLLLLLLLLLLLLLLHLLLLLLLLLLLLLLLLLLLLLLLLLLLLLLLLLLLLLLLLLLLLLLLLLLLLLLLLLLLLLLH....",
"....HLLLLLLLLLLLLLLLLLLLLLLLLLLLLLLLLLLLLLLLLLLLLLLLLLLLLLLLLLLLLLLLLLLLLLLLLLLLLLLLLLLLLLLLLLLLLLLLLLLLLLLLLLLLLLLLLLLLLLLH....",
"....FHHHGGGGHHHHGGHHHHHHHHHHHHHHHHHHHGGGHHHHHHHHHHHHHHHHGGGHHHHHHHHHGGGGHHGGGGGGHHHHHHHHHHHHHHGGGGGGHHHHGGGGHHHHGGGGGGGHGGHD....",
"....O.......................*...........#...........O...........#.......................#...........O...........................",
"....O.......................OO......................OO..........O.......................OO..........Oo..........................",
" .............................................................................................................................. ",
"  ...................................................................................O........................................  "
};
