/* XPM */
static char *_f6f4f52ecd249d3ea7cf013b9919376hK4aZrmEm0aFuUkr[] = {
/* columns rows colors chars-per-pixel */
"64 64 202 2 ",
"   c None",
".  c #0C090A",
"X  c #100C0E",
"o  c #1E0F0F",
"O  c #160F13",
"+  c #180F13",
"@  c #151214",
"#  c #1A1416",
"$  c #1B1619",
"%  c #1C1A1B",
"&  c #240F0C",
"*  c #26100D",
"=  c #2B130E",
"-  c #2B1512",
";  c #211C1E",
":  c #2C1D1C",
">  c #2A1815",
",  c #321712",
"<  c #311F1D",
"1  c #34211E",
"2  c #2A231F",
"3  c #221F20",
"4  c #291E21",
"5  c #232122",
"6  c #2A2425",
"7  c #2B2728",
"8  c #2D2A2B",
"9  c #362321",
"0  c #32262A",
"q  c #332C2D",
"w  c #3B2C2D",
"e  c #3C2724",
"r  c #3C342C",
"t  c #342E30",
"y  c #3D2F30",
"u  c #363334",
"i  c #3B3334",
"p  c #3D3A3A",
"a  c #3C3739",
"s  c #49251D",
"d  c #422D2A",
"f  c #442A24",
"g  c #532C23",
"h  c #48322B",
"j  c #433433",
"k  c #493A35",
"l  c #483738",
"z  c #413E3F",
"x  c #4C3D3B",
"c  c #463734",
"v  c #50353D",
"b  c #613328",
"n  c #6B3629",
"m  c #673528",
"M  c #723726",
"N  c #743C2D",
"B  c #7D3C29",
"V  c #4F413B",
"C  c #52443E",
"Z  c #6B4135",
"A  c #724133",
"S  c #7D412F",
"D  c #4B3C40",
"F  c #434142",
"G  c #4B4545",
"H  c #524C4C",
"J  c #5B4E4E",
"K  c #564543",
"L  c #5B504F",
"P  c #555151",
"I  c #5F5658",
"U  c #584F50",
"Y  c #6C5E4C",
"T  c #655543",
"R  c #655C5E",
"E  c #655755",
"W  c #74575A",
"Q  c #6C534D",
"!  c #7A6B57",
"~  c #79695B",
"^  c #74664C",
"/  c #765C63",
"(  c #676364",
")  c #776266",
"_  c #7C7677",
"`  c #82422E",
"'  c #8A432D",
"]  c #92462F",
"[  c #94482F",
"{  c #8F4731",
"}  c #9C4D35",
"|  c #A04E35",
" . c #A95236",
".. c #A25138",
"X. c #AA5439",
"o. c #B65A3B",
"O. c #BD5D3E",
"+. c #B0573A",
"@. c #C05E3D",
"#. c #A84F4B",
"$. c #876957",
"%. c #887458",
"&. c #966D55",
"*. c #B86450",
"=. c #917178",
"-. c #B8716A",
";. c #B96672",
":. c #B36F6F",
">. c #CD785E",
",. c #C7766A",
"<. c #CB7B6A",
"1. c #8EAA59",
"2. c #8BA756",
"3. c #92AE5D",
"4. c #93A55C",
"5. c #9B856D",
"6. c #A48668",
"7. c #A69072",
"8. c #AC9A7A",
"9. c #B39B7B",
"0. c #9BB669",
"q. c #98B366",
"w. c #D38265",
"e. c #C9867D",
"r. c #DA997C",
"t. c #9C7981",
"y. c #8C8889",
"u. c #959292",
"i. c #B79C81",
"p. c #AD928D",
"a. c #BAA784",
"s. c #BAB998",
"d. c #A8A3A4",
"f. c #B2ADAD",
"g. c #C68A8A",
"h. c #D49F86",
"j. c #D19B8E",
"k. c #C98E92",
"l. c #C38692",
"z. c #D39899",
"x. c #CD9297",
"c. c #E2999E",
"v. c #C8A787",
"b. c #CAB18A",
"n. c #DAA398",
"m. c #CDB393",
"M. c #D3AA8A",
"N. c #E1A78B",
"B. c #C39BA3",
"V. c #CD9CA0",
"C. c #D79FAB",
"Z. c #EA9DA6",
"A. c #D8A8B3",
"S. c #C3BABA",
"D. c #D5AFAA",
"F. c #EFA1A7",
"G. c #E6A4A9",
"H. c #E8AAAE",
"J. c #E9A6AB",
"K. c #F0A1A7",
"L. c #F1A7AC",
"P. c #F3B9AF",
"I. c #ECABB4",
"U. c #F3AEB3",
"Y. c #FAA3BB",
"T. c #F2AFBA",
"R. c #E4BCBC",
"E. c #E9BBB4",
"W. c #F3B1B5",
"Q. c #F3B4B8",
"!. c #BFC081",
"~. c #BEC3A2",
"^. c #C2C185",
"/. c #D6C083",
"(. c #DDC297",
"). c #D9C599",
"_. c #E9C68B",
"`. c #E6C388",
"'. c #EBCA94",
"]. c #E6C99C",
"[. c #EDCF9F",
"{. c #ECCE9F",
"}. c #ECCE9D",
"|. c #EACC9C",
" X c #E5C695",
".X c #D3C6B6",
"XX c #EDCFA0",
"oX c #ECCEA0",
"OX c #EDCDA0",
"+X c #EECAA3",
"@X c #E9C9AB",
"#X c #F0C2A8",
"$X c #E6C1B6",
"%X c #EDBFC2",
"&X c #D2D1C2",
"*X c #D7D4D4",
"=X c #EEC1C4",
"-X c #E9CBCC",
";X c #F3C0C8",
":X c #E7D7D6",
">X c #ECCFD1",
",X c #E7E2E1",
/* pixels */
"                                                                                                                                ",
"                                                                                                                                ",
"                                                                                                                                ",
"                                                                                                                                ",
"                                                                                                                                ",
"                                              7 ; 3 3 % ; 3 3 % % % 3 3 3 % 8                                                   ",
"                                              % X X X X X X X X X X X . X . 3 (                                                 ",
"                                    p X @ @ @ 3 3 3 5 3 3 3 5 3 5 5 5 5 5 3 3 @ @ @ @ u                                         ",
"                                    p @ X @ @ 5 5 5 5 5 5 5 5 5 5 5 5 5 5 5 3 @ @ @ @ u                                         ",
"                                u . $ 5 5 5 u 8 7 5 5 5 5 5 5 5 5 5 5 5 5 5 8 t 5 5 I u . 8                                     ",
"                            G a 8 @ % % 3 8 F F 5 5 5 5 5 5 5 5 5 5 5 5 5 5 z z 7 ) A./ @ 7 p                                   ",
"                            5 . % 5 % % % 5 8 8 5 u u u u 8 5 5 7 u a a u 5 q q 4 B.%X) % % . t                                 ",
"                            5 . % 5 % % % 5 5 5 5 p F F F 8 5 5 8 z F F p 5 4 3 8 B.t.q $ $ . 8                                 ",
"                            5 . @ 5 % % % 5 3 5 5 8 8 8 8 5 5 5 7 7 7 8 8 5 q p.B.%XC.B./ + . t                                 ",
"                        z 8 ; 3 5 5 5 5 % % % 5 5 5 5 5 5 5 5 5 5 5 5 5 5 5 t p.Z.J 0 t.A.t.O 3 8 u                             ",
"                        6 . % 5 5 5 5 5 % % % 3 3 3 5 % 3 3 3 3 % 5 % 5 5 3 3 7 0 4 4 0 t 7 $ $ . %                             ",
"                        7 . % 5 5 5 5 5 % . . . . . . . . . . . . . . . . . . . . % 3 2 5 5 5 % . $                             ",
"                        7 . % 5 5 5 5 5 2 r r r r r r r r r r r r r r r r r r r r 3 % 5 5 5 5 $ . $                             ",
"                        6 . % 5 5 5 $ X V `.`.}.[.[.[.[.[.[.[.[.[.[.[.[.[.[.}._.`.r X % 5 5 5 $ . %                             ",
"                        6 . % 5 3 % r C 5._.'.}.[.[.[.[.[.[.[.[.{.[.[.[.{.[.[.'.`.%.C t $ % 5 % . $                             ",
"                        7 . % 5 @ . ^ _./.}.[.[.[.oXoXoXXXXXXXXX[.[.[.XXXXXX[.[.}._._.T . @ 5 $ X %                             ",
"                        5 X % 5 @ . ! '.'.}.[.[.[.oXoX[.XXXXXXXX[.[.XX[.XXXXXXXX[.|.'.Y . @ 5 % . $                             ",
"                        7 . % 5 # . ! [.}.[.[.[.[.[.{.[.XX[.XXOXXXXXXX[.XXXX[.[.[.[.[.Y . . 5 % . $                             ",
"                        7 . % 5 @ . ! [.[.[.[.[.oX{.[.[.oXXXXXoXXXXXXXXX[.[.[.[.[.}.}.Y . @ 5 % . %                             ",
"                        7 . % 5 @ . ! [.|.(.(.(.(.].[.[.XXXXXXXXXXXX{.XX{.).(.(. X].[.Y . O 5 % . %                             ",
"                    6 5 5 % 5 5 # . ! [.8.2 2 2 r b.OX[.XXXXOXoXXXXXXX{.).7 2 2 6 a.[.Y . O 5 5 3 ; 3 u                         ",
"                    O . % 5 5 5 @ . ! [.7.. . . $ v.XXOXOXXXXXOXXXXXXX{.(.X . . . 9.XXY . @ 5 5 5 % . ;                         ",
"                    @ . $ % 5 5 @ . ! }.7.. . . $ b.XXOX[.XXXXXXXXXXXXXX(.X . . . a.XXY . X 5 % % % . 3                         ",
"                    O . @ % % % @ . ! [.i.v v v K b.XXXXXXXXXXOXXXXX[.XX].D v v v v.XXY . @ 5 % % $ . 5                         ",
"                    O . @ % $ % @ . ! OX#XY.Y.Y.Y.#XXX[.XXXXXXXXXXXXXX[.+XY.Y.Y.Y.#XXXY . X $ % $ @ . %                         ",
"                    F z 5 @ $ % X . ! @XP.%XY.W.P.XXXX[.OX[.OXXXXX[.}.[.OXP.W.W.T.$X@XE . X % @ @ % z P                         ",
"                        6 . @ % @ . ) .XR.$XR.].^.^.^.^.^.^.^.^.!.!.b.^.^.^.|.$X$XR.R.E . X % @ . %                             ",
"                        5 . @ % # @ q J W ;.;.-.4.q.q.3.0.0.0.0.0.0.3.0.0.3.-.;.;.W J q @ @ % @ . %                             ",
"                        7 . $ % % $ X . k h.h.h.4.1.1.2.1.1.1.3.1.1.2.1.1.2.r.h.h.d . X # % % @ . %                             ",
"                        6 . $ % $ % @ . # h j K C g.n..X&X)././.)..X.Xn.j.V C p i @ . @ % $ $ @ . %                             ",
"                        7 . @ % % % @ . X @ # 0 j g.F.J.:X*X@X@X:X*XH.K.z.w 6 # + X . @ % $ % @ . %                             ",
"                    3 $ $ $ $ % $ % @ @ # 0 0 w k z.Q.U.W.>X,X,X>XW.U.W.F.w w 0 9 # + # % $ $ $ % $ # 7                         ",
"                    @ X > 1 % % $ $ @ $ ; 0 0 y k z.U.Q.W.W.-X-XQ.W.Q.U.H.r w w 0 ; # # @ % % ; 1 : X 3                         ",
"                    > , | *.e % # O 3 q 0 0 w y l z.W.U.W.L.U.W.W.W.W.W.G.y w w 0 0 9 ; @ # % h @.X.= 9                         ",
"                    > , | @.n g : + ; 7 8 0 w y l z.U.U.H.U.U.W.W.W.W.U.H.y w w 0 0 7 ; O : g N @.X.= 1                         ",
"                    > , | @.@.@.b O 3 0 0 0 w w c i.m.b.b.m.m.m.m.m.m.m.v.y q w 0 0 0 $ + g O.@.O.X., 1                         ",
"                    G C N M X.@.b + 3 0 0 0 w w w $.~.:.s.7.i.9.7.a.5.~.&.w w w 0 0 0 3 + g O...M N C H                         ",
"                        w * } @.b + ; 0 q e w w j *.N.<.r.<.w.w.>.r.<.N.>.e w w 0 e 0 3 + g @.' * :                             ",
"                        w * } @.b O T 9.8.=.y w y #.E.*.m.,.g.e.,.j.,.D.#.w y y 5.9.9.D + g @.] * 1                             ",
"                        d = } O.m # $. X Xa.w w j l.Q.Z.I.J.H.H.G.H.G.Q.x.w w y m.].].Y > g @.] * 1                             ",
"                    w f ` ' o.O.+...Z w j x 0 0 7 k.Z.K.K.K.Z.K.K.K.F.F.c.; 0 0 x j j A ..X.@.+.] ` e c                         ",
"                    - , {  .O.O.O.@.n O $ 0 6 @ 6 S.,X=XQ.U.U.U.W.W.U.W.G.# # 6 0 & O N *.@.O.o. .[ = 1                         ",
"                    - , '  . . .o.@.n O ; 0 9 @ 4 V.:X,X=XQ.U.T.W.W.W.U.H.# # 9 0 # O N @.o. . . .[ = e                         ",
"                    d d S ' ' ' ..O.m O # 0 7 + 4 x.=Xf.*X-XQ.T.U.W.T.Q.Z.# + 0 0 $ O N o. .' ' ' S f k                         ",
"                        w * * * M  .b O ; 0 7 + 4 C.f.F y.*X>X%X=X%X;X%X%X# # 4 0 $ O n X.B & * * 1                             ",
"                        E G V V Z M s O # 0 4 + 3 _ 7 % % ( u.u.u.u.u.u.y.O # 0 0 # + s M Z K x V K                             ",
"                                j & o O > 7 7 + + + + # + + O + + + O O O O # 4 0 # + o & j                                     ",
"                                  J L P G ; % + @ 3 4 O O $ % % $ + # 4 ; + + # 3 H U J L                                       ",
"                                          @ + @ 3 y.d.7 + # $ % # @ a d.d.# + + #                                               ",
"                                            I 3 # J R 4 + G     I O 6 R E + 3 R                                                 ",
"                                              4 4 t.k.e O H     ( @ j k.p.$ 4                                                   ",
"                                                  i 4               _ 4 q                                                       ",
"                                                  p 8                 8 i                                                       ",
"                                                                                                                                ",
"                                                                                                                                ",
"                                                                                                                                ",
"                                                                                                                                ",
"                                                                                                                                ",
"                                                                                                                                "
};
