/* XPM */
static char *d5534b969fe148d2919a07c48d40fe9ew7Z33hnrLCoU4IS5[] = {
/* columns rows colors chars-per-pixel */
"64 64 165 2 ",
"   c None",
".  c #0E0E0D",
"X  c #000303",
"o  c #11100F",
"O  c #0F0F10",
"+  c #130E10",
"@  c #141414",
"#  c #1A1315",
"$  c #1F171B",
"%  c #1C1B1C",
"&  c #1D1816",
"*  c #241415",
"=  c #2B1A16",
"-  c #20171A",
";  c #231B1D",
":  c #2E1C1A",
">  c #301710",
",  c #3D1D14",
"<  c #341911",
"1  c #23211F",
"2  c #32221E",
"3  c #1F1E20",
"4  c #221E21",
"5  c #291E23",
"6  c #232123",
"7  c #2D2225",
"8  c #2C2B2B",
"9  c #2D2826",
"0  c #302B24",
"q  c #33252A",
"w  c #342A2D",
"e  c #392C2C",
"r  c #362521",
"t  c #322F31",
"y  c #382D31",
"u  c #333333",
"i  c #3C3032",
"p  c #383837",
"a  c #3D3B3C",
"s  c #3D3539",
"d  c #401F16",
"f  c #502619",
"g  c #542A1D",
"h  c #5A2B1D",
"j  c #412E2F",
"k  c #482C24",
"l  c #542E23",
"z  c #49322D",
"x  c #583226",
"c  c #412D30",
"v  c #453434",
"b  c #4A3C3A",
"n  c #6C3729",
"m  c #6D3829",
"M  c #783A26",
"N  c #773B29",
"B  c #4F413C",
"V  c #56493C",
"C  c #5D503A",
"Z  c #7F4633",
"A  c #613E4A",
"S  c #564246",
"D  c #53454A",
"F  c #5C5458",
"G  c #654D48",
"H  c #625446",
"J  c #75584D",
"K  c #684C51",
"L  c #695759",
"P  c #785A5F",
"I  c #78654A",
"U  c #7F5E68",
"Y  c #706A6C",
"T  c #7F787B",
"R  c #813F29",
"E  c #804634",
"W  c #9E4D32",
"Q  c #964A33",
"!  c #A55136",
"~  c #AB5438",
"^  c #B15639",
"/  c #B4593B",
"(  c #BE5D3C",
")  c #C05E3D",
"_  c #B16B5B",
"`  c #957766",
"'  c #A87178",
"]  c #B4767C",
"[  c #D17F64",
"{  c #928A5E",
"}  c #AC9D6A",
"|  c #B3996F",
" . c #B38673",
".. c #B19C7A",
"X. c #98A361",
"o. c #9EAD6B",
"O. c #99B566",
"+. c #9CB66C",
"@. c #97B364",
"#. c #9CB370",
"$. c #A1B265",
"%. c #BFA176",
"&. c #B9A27F",
"*. c #D18065",
"=. c #D68E76",
"-. c #9D7982",
";. c #AB7C88",
":. c #C87E81",
">. c #AF828F",
",. c #BA9788",
"<. c #A88B92",
"1. c #BE929F",
"2. c #B5A381",
"3. c #BDA682",
"4. c #B69EA0",
"5. c #C68786",
"6. c #C78A8F",
"7. c #C98D94",
"8. c #CE969A",
"9. c #C69298",
"0. c #D79799",
"q. c #DA9E9F",
"w. c #C0A884",
"e. c #CDB38C",
"r. c #D8B681",
"t. c #D1B18F",
"y. c #DBAF9C",
"u. c #DABE95",
"i. c #DCB29F",
"p. c #DC9DA0",
"a. c #D7B3A7",
"s. c #D8B7B9",
"d. c #D6A5B2",
"f. c #E7AEAD",
"g. c #F1A6AB",
"h. c #F3A8AD",
"j. c #E6B0AF",
"k. c #F4ADB2",
"l. c #FAA8B9",
"z. c #FAA3BD",
"x. c #EABDB9",
"c. c #F6B2B6",
"v. c #F2B9BC",
"b. c #D6C791",
"n. c #D5C891",
"m. c #E2C59B",
"M. c #EDCE9F",
"N. c #ECCE9F",
"B. c #EDCD9F",
"V. c #EDCC98",
"C. c #F2CF99",
"Z. c #DFCCA2",
"A. c #EDCEA0",
"S. c #EECEA0",
"D. c #EBCFA0",
"F. c #F1C6A6",
"G. c #EFD0A1",
"H. c #F0D1A2",
"J. c #F0D0A1",
"K. c #EEBFC1",
"L. c #D9C4C5",
"P. c #DCD1C8",
"I. c #EFC1C4",
"U. c #E0C4C5",
"Y. c #E7DBD5",
/* pixels */
"                                                                                                                                ",
"                                                                                                                                ",
"                                                                                                                                ",
"                                                                                                                                ",
"                                                                                                                                ",
"                                                                                                                                ",
"                                                                                                                                ",
"                                                                                                                                ",
"                                                                                                                                ",
"                                                                                                                                ",
"                                                                                                                                ",
"                                                                                                                                ",
"                                                                                                                                ",
"                                                      u 8 8 8 8 8 8 8 8 u                                                       ",
"                                                    a @ O O O O O o o O @ a                                                     ",
"                                                @ @ @ 3 6 3 6 6 6 3 3 3 3 @ @ @                                                 ",
"                                              % % % 6 6 6 6 6 6 6 6 3 3 6 5 3 t 9                                               ",
"                                            6 @ % 6 p t 6 6 6 6 6 6 6 3 t s a <.y %                                             ",
"                                          @ @ 6 % 3 8 6 u u u 6 6 p p u 8 6 L d.i @ O                                           ",
"                                          o @ 3 % 3 6 6 u u u 6 6 u p u 6 D -.;.D @ o                                           ",
"                                        6 % % 6 % % 3 6 6 6 6 6 4 3 3 3 6 ;.7.U 4.D @ 6                                         ",
"                                        . % 6 6 6 & % & % % & % 3 3 3 3 % q q 3 v w 3 +                                         ",
"                                        . 3 6 4 6 @ o @ O @ @ o O @ O + + O @ 3 3 3 3 .                                         ",
"                                        . % 6 3 . I | ....................| I O 3 3 % .                                         ",
"                                        . % 3 1 C %.C.J.J.G.J.G.G.G.G.H.J.C.%.C 1 % % .                                         ",
"                                        . % @ 9 r.V.D.A.A.A.G.A.A.A.M.M.A.A.V.r.0 @ 3 .                                         ",
"                                        . 3 @ 0 u.G.D.A.A.A.M.M.A.A.A.M.M.M.A.u.0 @ 3 .                                         ",
"                                        . % @ 0 u.H.J.A.M.N.M.M.A.A.A.A.J.J.J.u.0 @ % .                                         ",
"                                      3 @ % @ 8 u.e.&.3.m.M.M.M.B.A.A.m.3.&.e.b.0 @ 3 O 6                                       ",
"                                    & @ 3 6 @ 0 b.H o ; w.J.M.M.A.A.J.w.; o H u.0 @ 6 3 @ &                                     ",
"                                    @ O % 6 @ 0 u.V X + 3.J.M.M.B.M.J.3.@ X V u.0 @ 3 % O @                                     ",
"                                    @ . & 3 O 0 u.` A K t.G.M.M.A.A.A.t.K A ` u.0 O 3 % O @                                     ",
"                                    1 @ @ % o 9 u.k.z.z.F.J.A.A.A.A.A.F.l.z.c.u.0 o % % @ 3                                     ",
"                                      8 @ @ . 8 a.x.x.Z.b.n.n.n.b.b.b.b.m.x.x.a.9 o @ . 8                                       ",
"                                        . @ @ 3 L ' [ ..O.O.o.O.+.O.O.O.} :.' L 1 @ @ .                                         ",
"                                        . @ % @ . J  .{ X.o.+.+.$.+.o.X.{  .J . @ % @ .                                         ",
"                                        O @ % @ . @ 5 v 5.j.P.Z.D.P.j.5.v 7 # . @ % @ .                                         ",
"                                    u 6 @ & % @ O % 7 v 7.k.K.Y.Y.K.k.7.v 5 - O @ % % @ 6 u                                     ",
"                                    & * k ; # # - 7 w v 8.v.l.F.I.c.c.8.v e 5 - # @ 1 k * &                                     ",
"                                    = h ~ k $ # q w e v 8.l.c.k.c.c.k.0.v e q q # & k ^ h =                                     ",
"                                    : h ( ^ x # q q e v ,.i.y.i.a.y.a.,.v e q q # x ~ ) h =                                     ",
"                                      l N ^ n # 7 q e j ` 2.,.....2.&.` j e q 7 # n / M x                                       ",
"                                        > ! n $ B B j j _ =.=.[ [ =.=._ j j B b - n ~ >                                         ",
"                                        < ! n e t.t.b c ] q.y.0.0.y.q.] j b e.e.e n ! <                                         ",
"                                    j x E ^ ~ E G G w q 6.k.h.g.g.g.h.6.q y G G Z ! / R x z                                     ",
"                                    = f ~ ^ ) ~ * 5 5 ; 9.s.s.v.h.k.k.7.; 5 5 * ! ) / ~ f :                                     ",
"                                    2 g W W ^ W * 4 5 4 <.F Y L.L.U.L.4.5 5 5 * ! ^ W W g 2                                     ",
"                                      l d , M Q - 5 5 # 9 @ $ s a a b t # 5 5 * Q M , 2 z                                       ",
"                                        r 2 x h # - - # ; ; @ # # + ; ; + - $ & h x 2 r                                         ",
"                                              = - ; $ $ T F # 4 4 # F T ; $ ; - =                                               ",
"                                                      4 P S 4     4 S P 4                                                       ",
"                                                        K K         K K                                                         ",
"                                                        y             y                                                         ",
"                                                                                                                                ",
"                                                                                                                                ",
"                                                                                                                                ",
"                                                                                                                                ",
"                                                                                                                                ",
"                                                                                                                                ",
"                                                                                                                                ",
"                                                                                                                                ",
"                                                                                                                                ",
"                                                                                                                                ",
"                                                                                                                                "
};
