/* XPM */
static char *_b1153a3cb6449e5fcd21050ad88a1a5slCqNHhQnT7m5Lx4[] = {
/* columns rows colors chars-per-pixel */
"64 64 38 1 ",
"  c #DADADA",
". c gray86",
"X c gainsboro",
"o c #DDDDDD",
"O c gray87",
"+ c #DFDFDF",
"@ c gray88",
"# c #E1E1E1",
"$ c #E2E2E2",
"% c gray89",
"& c #E4E4E4",
"* c gray90",
"= c #E6E6E6",
"- c #E7E7E7",
"; c gray91",
": c #E9E9E9",
"> c #EAEAEA",
", c gray92",
"< c #ECECEC",
"1 c gray93",
"2 c #EEEEEE",
"3 c #EFEFEF",
"4 c gray94",
"5 c #F1F1F1",
"6 c gray95",
"7 c #F3F3F3",
"8 c #F4F4F4",
"9 c gray96",
"0 c #F6F6F6",
"q c gray97",
"w c #F8F8F8",
"e c #F9F9F9",
"r c gray98",
"t c #FBFBFB",
"y c gray99",
"u c #FDFDFD",
"i c #FEFEFE",
"p c white",
/* pixels */
"9w95522,===+99ww9552,==#=#www99522,==#+w99w9522,=#=#iw999252,,#=",
"955552,2,,=#w9955552,22=#=w955552,,2==+w9955925,,,==iw955552,,,=",
"9222552922=#w95522,5255=##w522,22522,=#w952,22525,=#i95252,22522",
"552==99922=+w952,##992,,#=w922==9955,=#w552,=#9952,#ww95,==5952,",
"952##ww92,=#ww95,#+ww52=#=w952#+iw52=#+w592=++9w52=#wi92,==ww52,",
"952=#i992,=+ww52=,+5952,=#9952=+ww92,=#w992,##w952,#ww52,=+ww5,,",
"9,2,#w9952=+w952==.9952=##w952=#w992,=+w95,,=+w952,+ww92,=#w952,",
"w22=#i992,=#w952,=.iw52,==w95,=+ww52,=#w952,#.w955=+ww95=,#w992=",
"2,,,#i992,925,52,##w95222222,2=#ww92255,225,#+w95225,222,=#ww52,",
",,,=#ww9955522,=,=+w995952,,=,=#ww955552,,,=#+999559,,,,2=#w9955",
"=,==#www9959,2==###w999952,,==##i9ww9522,,#=##w9w9952,,==#+ww999",
",===#iww955522,=##+www9552,,,=#+ww9ww522,===##www55522,,++#www59",
",,=##i9599522,=,=#+www95522,,=#+ww959952,,==#+99999552===##ww959",
"2,,,#ww92925,2,2,=+99552552,,,,#w995555222,,#+99555522,5,,#ww955",
"55,=#iw922=,5w22,=+955,,,25522,#w995,=25552,#+w952,,9555,=#w952,",
"952=#i955,,=w952,##iw5,,#=9w52#+i955,+=9592,#+w992#=ww92,=#ww52,",
"952=+i9522=+w952,=.ww55,#=9952=#ww52,=+w952==+w952,#ww922=#ww522",
"952=#i992,=+ww55,=+w922=##w95,=#ww92==#w555==#w952,#iw92,=#9w52,",
"922,=ww922=+ww92==#w952,#=w95,=#ww95,#+w952=##9w52=#i992,=#9952,",
"95,,=99552=#w952=,=w592=#=w5222,5952,=+w992,=,9552==i9522,22922,",
"955525222,=#w99599222,,,#=w9552522,2,=#w9559522,52,#ww9552525,2=",
"995555,,,,#+ww999522,,,=+=ww99552,====#ww995952,,==#wiw955522=,=",
"ww9952,,==##ww9955222,#=##www9552,==##+iw99552,,==##iww99552,,==",
"ww5552,,==##www9952,,,=##=ww999522,=##+www9592,,==##iw999222,,=#",
"95995222=,=+ww999525=,,##=9w99952,==2=+w5w9552,2=2=#iw999552,,,,",
"9555225222=+w955522525,,#=992222,522,#+w9522255252==i9922,2522,,",
"922,=5992,##ww522=,9992,#=992,,#2992,=+w95,,,,5952=#i9w22=,5952,",
"w22==9w92,=#w992,#=9952=#=9952=.9w92,=+w922,##9w5,,#i595,##9w92=",
"952##iw95,=#w952,##9w5,===9922=#i952,=+9995,++w925=#i9552=#ww9,,",
"552=#w995==#ww9,2#+ww52,+=w95,=#w995=#+w952=##w555##iw92,=#ww92,",
"952,#i955==#9992,##ww52===995,=+w992=,#995,==+w952=,9w92,=#ww52,",
"952=#i99225=5552,#+9952,5,5592=+ww5,,5,5552,=.w95,,2,592,,#w952=",
"=,,==w9559522,=,,=#w999552,,=,=#9w955552,,,,#+w959555,,,,==w9955",
",,==#iww595522=,###ww995522,=,##ww9w95222===++ww99552,,==##w9999",
",==#+wwi995522=,###www95522,==#+i99w95222,=##+w9w9552,2=##+www99",
",===#iw99955,2===#+ww999922,==##i9w99552=,,##+w9w9592,,===+ww999",
"2,,=#i95552522,,,=+99952522,,,=+w99225222,,=#+w95925522,,==ww955",
"552=#ww922222522,##w952,225552=+i99222,5552,#+w952,,5255,,#w9922",
"95,=#iw92,==9992,=+w95,==,9952=+w95,,,#w952==+w952,#w995,=#w9522",
"92,,#i955,##w995,=+w952,+=9952##w992,#.i952,#+w952=+i992,=#ww52,",
"952=#iw52,=#w952,++9952,==9552=#ww95==+95922#+9952=#ww52,=#ww92,",
"922=#ww922=#w952,#=w992=##w952=+ww95,=+w992==#w952,#iw92=,#9w9,,",
"922,=9952,=#w995,=,w555,#=9952,#9955,##w952=,=9552,#i995,,=9552,",
"9552,5252,=+ww552225,2,,#=w952222522,=+w9252525,52=#iw5525,522,,",
"995925,,,==#w9995922=2,=#=w95995,,,,==+99995952,,,=#ww999522,,=,",
"w99955,,==#+wwww9552,,####w9995522===##ww9w552,,=###iww99552,,#=",
"ww95522,===#www99522,,#=#=ww995552=####wwww5922,===#i9999252,,==",
"999552,,=,##ww959552,,#2#=w99w522,,,=#+w9995922====#iw999222,,=,",
"w5255,2,22=#9w92925,,5,=+=99525522,2,=+9w555252,52=#ww9552522,2,",
"952,,59552=+ww522#25552,+=9952,,5955,#+i952,,,5952,#iw95,,,5955=",
"952==9w922=+w955,+=9w52,#=9952=#ww92,#+w99,=##995,,+iw92,##ww92,",
"w25##iw922#+iw52,=+9w52,#=995,=#ww9,2=+w992,#+9552,+iw522=#ww5,,",
"922##i995,=#ww52,=+9955=#=995,=#i9922=+w992,#+w952=#i992,=#w9922",
"w22=#i992,=#9w52==+9952=#=9952=+w992,+#9992=#.i95,==w9552=#99w,=",
"952,#i992,,,5555,=#w952,2,9552=#w992,=22922,#+w9522255552=#ww92,",
",,,=#ww55555,2,22##w9529922,2,=#ww55929,2,2,=+w955552222,#=w9259",
",,==#iw959552,=,=#+w9w9592,,,==#wi999922,,==##ww99925=,,==#ww999",
",,=#+iw9995222,==#+www9552,,=###www99522,,#=++www9555,,==##ww999",
"===#+www9952,,,==##ww995522,==##www95552,===#+ww995522,#=#+ww999",
",,,=#i999995,,,===#w999592,,,,=#i9995952,,,=#+999995,,,,==#ww995",
"222,#i99222,5252==+w55225,2222=+i9525525252,#+9955222222,==w955,",
"552=#w992,==9992,=+w952,=,9952=+ww92,==9992,#+w952,=9995,=#w952,",
"952=#ww55,=+w992,#+iw52=+=w922=#ww92,#+w992=#+w95,=+iw95,=#w952,",
"522=#i9522=+w9522#+w952=#=9922=#w95,2=+w952,##w952,+i955,=#w952,"
};
