/* XPM */
static char *_729a8de3f0a4e229cf785c6cea4160bxK8jxWItY186jHkJ[] = {
/* columns rows colors chars-per-pixel */
"64 64 144 2 ",
"   c None",
".  c #170901",
"X  c #190902",
"o  c #240D02",
"O  c #280F02",
"+  c #2C1103",
"@  c #341403",
"#  c #3B1604",
"$  c #3F1804",
"%  c #431904",
"&  c #4B1D04",
"*  c #511F05",
"=  c #542005",
"-  c #5C2306",
";  c #652706",
":  c #682706",
">  c #6B2906",
",  c #742C07",
"<  c #792E07",
"1  c #7B2F08",
"2  c #7E3007",
"3  c #7F3008",
"4  c #833208",
"5  c #893408",
"6  c #8A3408",
"7  c #8A3508",
"8  c #8B3508",
"9  c #8A3509",
"0  c #8C3508",
"q  c #8C3509",
"w  c #8D3608",
"e  c #8E3608",
"r  c #8F3708",
"t  c #8E3609",
"y  c #8C3509",
"u  c #903609",
"i  c #903709",
"p  c #913709",
"a  c #923709",
"s  c #913709",
"d  c #923809",
"f  c #933809",
"g  c #943809",
"h  c #953809",
"j  c #943909",
"k  c #953909",
"l  c #963809",
"z  c #963909",
"x  c #973909",
"c  c #973A09",
"v  c #943809",
"b  c #983909",
"n  c #983A09",
"m  c #993A09",
"M  c #9A3A09",
"N  c #9A3B09",
"B  c #9B3B09",
"V  c #9C3B09",
"C  c #9C3C09",
"Z  c #9D3C09",
"A  c #9E3C09",
"S  c #9E3D09",
"D  c #9F3D09",
"F  c #9F3C0A",
"G  c #9C3B09",
"H  c #A03C09",
"J  c #A03D09",
"K  c #A13D09",
"L  c #A03D0A",
"P  c #A13D0A",
"I  c #A23D0A",
"U  c #A33D0A",
"Y  c #A33E0A",
"T  c #A43E0A",
"R  c #A53F0A",
"E  c #A63F0A",
"W  c #A13D0A",
"Q  c #A7400A",
"!  c #A9400A",
"~  c #AA410A",
"^  c #AB410A",
"/  c #AC410A",
"(  c #AC420A",
")  c #AD420A",
"_  c #AE420A",
"`  c #AF420A",
"'  c #AF420B",
"]  c #AB410A",
"[  c #B0430A",
"{  c #B0430B",
"}  c #B1430B",
"|  c #B2430B",
" . c #B2440B",
".. c #B3440B",
"X. c #B4440B",
"o. c #B4450B",
"O. c #B5450B",
"+. c #B6450B",
"@. c #B7460B",
"#. c #B6450B",
"$. c #B8460B",
"%. c #B9460B",
"&. c #BA460B",
"*. c #BA470B",
"=. c #BB470B",
"-. c #BC470B",
";. c #B9460B",
":. c #BD480B",
">. c #BD480C",
",. c #BE480C",
"<. c #BF480C",
"1. c #BD480B",
"2. c #C0480C",
"3. c #C0490C",
"4. c #C1490C",
"5. c #C14A0C",
"6. c #C24A0C",
"7. c #C34A0C",
"8. c #C44A0C",
"9. c #C44B0C",
"0. c #C54B0C",
"q. c #C64B0C",
"w. c #C74B0C",
"e. c #C74C0C",
"r. c #C44A0C",
"t. c #C84B0C",
"y. c #C84C0C",
"u. c #C94C0C",
"i. c #C84D0C",
"p. c #C94D0C",
"a. c #CA4C0C",
"s. c #CA4D0C",
"d. c #CB4D0C",
"f. c #CB4E0C",
"g. c #CC4D0C",
"h. c #CD4D0C",
"j. c #CC4E0C",
"k. c #CD4E0C",
"l. c #CE4E0C",
"z. c #CF4F0C",
"x. c #CC4D0C",
"c. c #D04F0C",
"v. c #D14F0C",
"b. c #D14F0C",
/* pixels */
"                                                                                                                                ",
"                                                                                                                                ",
"                                                                                                                                ",
"                                                                                                                                ",
"                                                                                                                                ",
"                                                                                                                                ",
"                                                                                                                                ",
"                                                                                                                                ",
"            y.y.y.y.y.8.& B y.y.y.y.8.& c y.y.y.y.8.& c k.y.y.y.8.& c y.y.y.y.t.& a y.y.y.y.e.* p k.y.y.y.y.* w k.y.y.y.y.*     ",
"            y.y.y.y.y.8.% V k.y.y.y.8.& B k.y.y.y.8.% c y.y.y.8.e.& g k.y.y.y.8.& c k.y.y.e.e.& t k.y.y.y.t.& a y.y.e.e.y.&     ",
"            = = * * * * o % = * & = * o % = * * = * o % = = * = * o # = * * * * o # * * & = = o # = * & = * o # = * * * = o     ",
"            w w ; @ w w w w w ; @ 8 8 w 8 w ; @ w w w w w : @ 8 w w w a ; @ w w a w a > @ 8 w w w a > @ 8 w w w a > @ 8 w w     ",
"            k.c.a * k.k.k.k.c.g * k.k.k.k.c.B & k.k.k.k.k.B & t.c.k.k.c.B & y.k.k.k.c.B & y.k.k.k.c.Z & y.k.k.k.k.Y & t.k.k.    ",
"            B B > # B c B B V > # B B B B V > # B c B B B , # c b b B B , @ c B B B B , @ c B V B B , @ c B B B B , @ c B B     ",
"            & & & % & & o # & & % & % o # & & % & & o # & & % & & o # & % % & & o # & & % & & o # & & % & & o @ & & % & & o     ",
"            8.8.8.8.8.4.% B e.8.t.8.4.& c t.8.8.4.2.& a y.8.t.t.8.& p t.8.y.t.8.& a 8.8.t.8.8.& w y.8.8.8.8.* w y.8.y.8.8.&     ",
"            8.e.8.8.8.4.& c t.8.8.8.4.% c y.e.8.8.4.& g t.8.8.8.4.& a t.8.8.8.4.& w e.9.e.8.8.& w y.e.e.8.e.& t t.8.8.8.8.&     ",
"            & & & % & & o # & & % & & o # & & % & & o @ & & % & & o # & & % & & o # & & % & & o # & & % & & o # & & % & & o     ",
"            c B > # c B B B B > # B c B B B > # l B B B B > # b c B B B , @ c B B B Z , @ c B B B G , @ c b G b B , @ j B B     ",
"            l.b.a * k.k.k.k.k.g = k.k.k.k.c.c * k.k.k.c.c.B & k.k.k.k.c.B & k.k.k.k.c.Z & y.k.k.k.c.Z & y.c.k.k.c.Y & e.k.c.    ",
"            w w ; # q w w w w ; @ 8 8 w w w ; @ w w w w w : @ w w w w w > @ 8 w w w w > + 8 w w w w > @ 5 8 t w w > @ 8 w w     ",
"            = * * * * * o % = * * = * o % * * * = * o # = = & = * o % * * * * * o # = * = = = o # = = * = = o # = * & = * o     ",
"            y.y.y.y.y.8.% V k.y.y.y.8.& B k.t.y.y.t.& c k.t.t.t.8.& g h.t.t.t.t.& g k.t.y.y.y.* a k.y.y.8.y.* t k.t.y.y.y.*     ",
"            4.4.4.4.4.>.% c 8.4.4.4.4.% a 8.4.4.4.>.% a 8.4.4.4.2.& w 8.4.4.4.2.& w 8.4.4.4.4.& 8 4.4.4.4.4.& 9 8.8.4.4.4.&     ",
"            % % % # % % o # % $ # % % o # % % # % % o # % % # % % o @ % % # % % o @ % % # % % o @ % % # % % o @ % % # % % o     ",
"            T T , % Y Y T Y Q , % Y Y T E E , # E I T Y E < # I E E E E < # I E T T ! 1 # Y Y T Y Q 2 # I I Q E E 4 # I Y T     ",
"            c.c.a * k.k.k.k.c.j * k.k.k.c.c.c & h.k.k.k.c.B & k.k.k.c.k.V & t.k.k.k.c.V & s.l.k.k.c.Z & y.c.y.k.c.V & t.k.k.    ",
"            4 4 - @ 1 4 4 3 4 - @ 4 1 4 1 4 - @ 1 1 4 4 4 - + 1 1 4 4 4 ; O 1 4 3 4 4 - + 2 2 4 4 4 - + 3 4 4 4 4 ; O < 3 4     ",
"            - - - - - - o & ; - - - - o & - - - ; - o % - ; - ; - o % ; - - - ; o % ; ; - - ; o % - - - - - + % - ; - - - o     ",
"            k.y.k.y.y.e.& Z k.y.k.y.y.& B k.k.y.h.8.& B k.t.y.y.t.& g k.y.k.t.t.& g k.y.k.y.y.& j k.y.k.k.y.* w k.y.k.k.k.*     ",
"            -.*.-.&.&.@.% w >.&.-.&.@.% w -.*.&.&.+.% q -.&.-.&.-.% w -.&.-.-.&.% q *.*.>.>.*.& 4 =.>.>.&.&.& 4 >.&.>.&.&.&     ",
"            % % # @ % $ o # % # @ % # O # % # @ % % o # % # @ % % O @ % # @ # % O @ % # @ % $ + @ % # @ % % O @ % # + % % O     ",
"            ) ) < % ) ) ) ) ..< % ) ) ) } } 1 % ) ) ' ' { 3 $ ' ' ' ' } 4 $ ! ) ) ) } 4 $ ~ ! ) ) ..4 $ ! ) } ) ) 5 # E ) )     ",
"            k.k.a = l.s.l.l.l.f * s.l.l.l.c.g * k.k.y.k.c.B & k.k.k.k.c.B & y.k.l.l.b.B & s.l.l.l.v.C & s.l.l.l.b.H & q.l.l.    ",
"            , , * + , , , , , = + , , , , , * O , , , , , = + > , , , , = + , , , , , = O , , , , , = + > , , , , - o , , ,     ",
"            > > > > > : o = > > > : > o * > > > > ; + & > > > > : O & > : > > : + & > > > > ; O & > > > > : + & > > > > ; +     ",
"            k.k.s.l.s.s.& C j.l.l.s.s.& B k.k.k.y.y.& B k.k.k.k.k.& c k.y.k.k.y.& z j.s.j.j.s.= f j.l.s.l.s.* f k.k.k.k.k.*     ",
"            ....O....._ $ 5 O.O.......$ 8 O.O.O.@.' % 4 @.} @.} } % 4 O.O.O.....% 4 *.O.O.....% 4 O.........% 2 O...O.....%     ",
"            $ % # + % $ + # % @ + % $ + # # @ + $ % + # % @ + # $ + # % @ + $ % + # % @ + $ $ + @ % # + $ % + # % # O $ % +     ",
"            O.O.4 % O.O.O.O.*.4 % O.O.O.*.*.4 % O.O.O.O.&.q % @.O.*.O.O.8 % ..O.@.O.*.5 % ..O.@.O.*.5 % ..O.O.O.*.8 % } O.O.    ",
"            k.k.w = y.y.k.k.j.c = s.s.s.s.j.c & y.k.k.k.c.c * y.k.k.k.k.B & s.s.l.l.l.B & e.l.s.l.l.Z & s.s.l.l.k.Z & q.s.l.    ",
"            ; > & O : : ; ; : & O : : : : : & + ; ; ; ; ; & o ; ; ; ; ; & o ; ; ; ; ; & o : : ; ; > & o ; ; ; ; ; * o ; ; ;     ",
"            , < < 2 , , + - , , < , , + - 2 , , , < + = < < < , < O - < , < < , + * < < , < , + = < , < , , + = < < < , , +     ",
"            k.k.j.j.j.s.& Z v.l.f.j.f.& G v.j.j.k.y.& B c.k.k.k.k.& B k.l.l.l.s.* c b.l.l.l.s.= j v.l.l.l.l.= j c.k.k.k.k.*     ",
"            ! ! ! ! ! Q # 4 _ ! ! ! Q $ 2 ) ! ) ~ ~ # 3 { / / ~ E % 1 ) ) ) ! ! % < ) ) ) ! ! % < ) ! ) ! ! % , ) ! ) ! ) %     ",
"            % % @ + % % @ $ % @ O % % @ $ % @ O % % @ $ % @ o % % @ $ % @ o % % @ # % @ o % % @ $ % @ o % % @ # % # o % % @     ",
"            1.2.4 & 1.1.1.1.2.5 & *.1.1.1.1.5 & >.>.>.,.7.9 % ,.*.2.1.2.e % *.1.2.1.2.e % *.1.1.1.1.f % *.1.1.1.2.f % O.1.1.    ",
"            s.j.r * s.s.s.s.l.j & s.k.y.y.k.j & u.u.u.u.u.c & u.y.y.y.k.B & t.s.y.k.l.B & e.s.s.s.l.C & e.s.s.s.l.C & e.y.y.    ",
"            - - % o - - - - - $ O - - - - - % o - - = - - % o - - = - - % o - - - - - % o - - = - - % o - - - - - % o = - =     ",
"            4 4 4 4 4 4 + ; 4 4 4 4 4 + ; 4 4 9 4 4 + ; 4 4 9 4 4 @ - 9 4 4 4 4 + - 9 4 4 4 4 @ - 4 4 5 4 4 @ - 4 4 q 4 4 @     ",
"            k.y.v.l.l.y.& Z v.l.y.z.y.& N z.l.l.l.l.& b v.v.l.v.u.& b v.l.l.v.l.& c l.l.l.l.l.* f b.l.l.k.k.= c b.l.l.k.c.*     ",
"            Y G Y Y Z Z @ < Y Y Q F F # , Q F W W G # , W W W W G $ , I I I G I $ , Q F Q G F $ , Y Y Y Z Z $ > T Y Y Z Y #     ",
"            & & @ O % & $ % % # o % & # % % @ o % % $ % % # o % % $ % & @ o % % $ % % # o % % $ % % # o % % $ % % # o % % $     ",
"            4.e.8 & 4.4.2.e.e.8 & <.6.6.q.q.t & 7.e.8.8.8.p % 7.8.8.7.7.c % 7.7.7.7.7.c % ,.e.7.2.e.z % 1.9.e.2.e.B % >.4.8.    ",
"            y.y.w & e.e.y.y.s.r * q.y.e.y.y.p * e.u.u.u.u.d & 8.u.u.e.u.c & 8.e.u.u.u.b & e.u.u.s.s.C & e.e.e.e.k.V % 8.y.y.    ",
"            = * # o * = & & * $ o * * & * = # o & * & & = $ o * & & * * $ o & * & & * % o & * & * = $ X & = & * & % o & = &     ",
"            p p j j a w @ > c a s s t @ > p p p t t + > p s s s p @ > p s p p s @ : p p c t p @ : p t c w a # ; j a a a w #     ",
"            l.l.k.k.k.y.& G c.k.l.l.l.& F b.l.l.l.l.* n v.l.l.l.l.& n v.l.l.l.l.* c v.l.l.l.l.& c c.k.k.k.k.* d c.k.k.k.k.*     ",
"            c c c c a a @ , c c z s z @ > z p z z p @ , n z n z c @ > z p z p z @ > c c c p g # : b c b c p # ; B c c a c @     ",
"            & & # o & & % & & # o & * % * * # o & * % & * # X * & & & * $ o & * & & & # o & & & & & # o & & & & & $ o & & &     ",
"            8.u.t * t.t.y.t.y.p & q.q.q.q.a.s & 8.8.t.t.u.z & 7.8.u.t.u.p & 7.8.y.t.y.c & 8.8.e.u.u.b & 4.8.y.y.t.B % 4.8.y.    ",
"            8.u.9 & 8.8.8.8.8.t * 6.6.q.q.q.t * 7.8.8.8.t.s & 7.8.8.8.8.p & 7.8.8.8.t.c % 7.8.7.8.t.b % 4.8.8.8.8.B & >.8.8.    ",
"            % % + X % # % % % + X % $ % $ % + X $ % % $ % + X % % % % % + X $ $ % # $ @ X % % $ $ % @ X % $ # % % @ . $ % %     ",
"                                                                                                                                "
};
