/* XPM */
static char *_0097ce728504ef3b52251426aeda9cf1ByVSjnc4AY6DjTt[] = {
/* columns rows colors chars-per-pixel */
"64 64 256 2 ",
"   c black",
".  c #010101",
"X  c #020202",
"o  c gray1",
"O  c #040404",
"+  c gray2",
"@  c #060606",
"#  c #070707",
"$  c gray3",
"%  c #090909",
"&  c gray4",
"*  c #0B0B0B",
"=  c #0C0C0C",
"-  c gray5",
";  c #0E0E0E",
":  c gray6",
">  c #101010",
",  c #111111",
"<  c gray7",
"1  c #131313",
"2  c gray8",
"3  c #151515",
"4  c #161616",
"5  c gray9",
"6  c #181818",
"7  c #191919",
"8  c gray10",
"9  c #1B1B1B",
"0  c gray11",
"q  c #1D1D1D",
"w  c #1E1E1E",
"e  c gray12",
"r  c #202020",
"t  c gray13",
"y  c #222222",
"u  c #232323",
"i  c gray14",
"p  c #252525",
"a  c gray15",
"s  c #272727",
"d  c #282828",
"f  c gray16",
"g  c #2A2A2A",
"h  c gray17",
"j  c #2C2C2C",
"k  c #2D2D2D",
"l  c gray18",
"z  c #2F2F2F",
"x  c gray19",
"c  c #313131",
"v  c #323232",
"b  c gray20",
"n  c #343434",
"m  c #353535",
"M  c gray21",
"N  c #373737",
"B  c gray22",
"V  c #393939",
"C  c #3A3A3A",
"Z  c gray23",
"A  c #3C3C3C",
"S  c gray24",
"D  c #3E3E3E",
"F  c #3F3F3F",
"G  c gray25",
"H  c #414141",
"J  c gray26",
"K  c #434343",
"L  c #444444",
"P  c gray27",
"I  c #464646",
"U  c gray28",
"Y  c #484848",
"T  c #494949",
"R  c gray29",
"E  c #4B4B4B",
"W  c #4C4C4C",
"Q  c gray30",
"!  c #4E4E4E",
"~  c gray31",
"^  c #505050",
"/  c #515151",
"(  c gray32",
")  c #535353",
"_  c gray33",
"`  c #555555",
"'  c #565656",
"]  c gray34",
"[  c #585858",
"{  c gray35",
"}  c #5A5A5A",
"|  c #5B5B5B",
" . c gray36",
".. c #5D5D5D",
"X. c gray37",
"o. c #5F5F5F",
"O. c #606060",
"+. c gray38",
"@. c #626262",
"#. c gray39",
"$. c #646464",
"%. c #656565",
"&. c gray40",
"*. c #676767",
"=. c #686868",
"-. c DimGray",
";. c #6A6A6A",
":. c gray42",
">. c #6C6C6C",
",. c #6D6D6D",
"<. c gray43",
"1. c #6F6F6F",
"2. c gray44",
"3. c #717171",
"4. c #727272",
"5. c gray45",
"6. c #747474",
"7. c gray46",
"8. c #767676",
"9. c #777777",
"0. c gray47",
"q. c #797979",
"w. c gray48",
"e. c #7B7B7B",
"r. c #7C7C7C",
"t. c gray49",
"y. c #7E7E7E",
"u. c gray50",
"i. c #808080",
"p. c #818181",
"a. c gray51",
"s. c #838383",
"d. c #848484",
"f. c gray52",
"g. c #868686",
"h. c gray53",
"j. c #888888",
"k. c #898989",
"l. c gray54",
"z. c #8B8B8B",
"x. c gray55",
"c. c #8D8D8D",
"v. c #8E8E8E",
"b. c gray56",
"n. c #909090",
"m. c gray57",
"M. c #929292",
"N. c #939393",
"B. c gray58",
"V. c #959595",
"C. c gray59",
"Z. c #979797",
"A. c #989898",
"S. c gray60",
"D. c #9A9A9A",
"F. c #9B9B9B",
"G. c gray61",
"H. c #9D9D9D",
"J. c gray62",
"K. c #9F9F9F",
"L. c #A0A0A0",
"P. c gray63",
"I. c #A2A2A2",
"U. c gray64",
"Y. c #A4A4A4",
"T. c #A5A5A5",
"R. c gray65",
"E. c #A7A7A7",
"W. c gray66",
"Q. c #A9A9A9",
"!. c #AAAAAA",
"~. c gray67",
"^. c #ACACAC",
"/. c gray68",
"(. c #AEAEAE",
"). c #AFAFAF",
"_. c gray69",
"`. c #B1B1B1",
"'. c #B2B2B2",
"]. c gray70",
"[. c #B4B4B4",
"{. c gray71",
"}. c #B6B6B6",
"|. c #B7B7B7",
" X c gray72",
".X c #B9B9B9",
"XX c gray73",
"oX c #BBBBBB",
"OX c #BCBCBC",
"+X c gray74",
"@X c gray",
"#X c gray75",
"$X c #C0C0C0",
"%X c #C1C1C1",
"&X c gray76",
"*X c #C3C3C3",
"=X c gray77",
"-X c #C5C5C5",
";X c #C6C6C6",
":X c gray78",
">X c #C8C8C8",
",X c gray79",
"<X c #CACACA",
"1X c #CBCBCB",
"2X c gray80",
"3X c #CDCDCD",
"4X c #CECECE",
"5X c gray81",
"6X c #D0D0D0",
"7X c gray82",
"8X c #D2D2D2",
"9X c LightGray",
"0X c gray83",
"qX c #D5D5D5",
"wX c gray84",
"eX c #D7D7D7",
"rX c #D8D8D8",
"tX c gray85",
"yX c #DADADA",
"uX c gray86",
"iX c gainsboro",
"pX c #DDDDDD",
"aX c gray87",
"sX c #DFDFDF",
"dX c gray88",
"fX c #E1E1E1",
"gX c #E2E2E2",
"hX c gray89",
"jX c #E4E4E4",
"kX c gray90",
"lX c #E6E6E6",
"zX c #E7E7E7",
"xX c gray91",
"cX c #E9E9E9",
"vX c #EAEAEA",
"bX c gray92",
"nX c #ECECEC",
"mX c gray93",
"MX c #EEEEEE",
"NX c #EFEFEF",
"BX c gray94",
"VX c #F1F1F1",
"CX c gray95",
"ZX c #F3F3F3",
"AX c #F4F4F4",
"SX c gray96",
"DX c #F6F6F6",
"FX c gray97",
"GX c #F8F8F8",
"HX c #F9F9F9",
"JX c gray98",
"KX c #FBFBFB",
"LX c gray99",
"PX c #FDFDFD",
"IX c #FEFEFE",
"UX c white",
/* pixels */
"G.P.S.V.F.V.B.C.M.k.0.J.H.B.F.V.N.C.V.N.r.g.I.S.V.F.m.M.A.M.n.9.C.P.V.Z.A.N.B.V.M.l.w.J.P.V.A.Z.M.Z.C.M.t.j.P.D.N.F.N.N.Z.B.N.4.",
"Z.j.a.g.c.w.p.p.s.e.e.B.j.p.l.j.u.p.u.d.7.j.n.j.a.c.a.y.p.u.i.1.b.z.d.g.x.y.a.p.d.w.q.B.h.a.k.k.y.p.u.s.6.j.b.j.a.x.p.y.p.a.a.>.",
"c.w.u.a.u.i.d.u.p.;.6.k.q.f.t.u.p.s.u.e.*.i.y.y.a.i.p.d.p.u.6.-.h.0.a.a.u.a.a.p.t.>.8.j.w.a.i.i.f.a.y.r.&.i.i.y.d.y.p.d.a.y.9.$.",
"x.r.f.p.r.u.r.r.f.7.6.f.y.s.p.r.r.t.y.h.:.p.y.s.p.r.w.e.t.p.u.>.g.y.d.i.t.t.r.t.f.7.5.g.y.s.y.e.r.t.i.g.:.p.y.d.a.t.e.r.t.u.i.$.",
"z.e.y.y.j.g.h.t.a.8.6.g.9.t.p.l.g.d.w.h.:.p.u.e.e.d.h.h.i.y.a.;.h.e.q.r.k.f.h.q.d.9.3.f.t.r.s.k.h.h.r.j.:.p.p.w.w.f.k.j.i.u.a.%.",
"l.q.r.0.i.t.e.r.y.2.7.h.8.r.0.i.y.e.r.e.%.i.a.q.e.r.i.q.w.t.9.-.g.0.i.q.p.u.e.e.t.3.6.f.0.r.w.i.e.q.r.r.=.s.u.q.q.t.i.r.t.r.8.%.",
"d.9.6.1.2.5.4.;.2.2.2.i.0.3.1.3.6.2.-.7.>.r.w.5.1.,.2.6.1.;.5.,.p.8.6.3.2.5.4.;.2.3.3.p.6.4.>.3.6.3.;.6.>.t.y.8.3.<.2.6.<.:.7.=.",
"*.%.#.%.@.#.*.*.*.-.$.%.#.#.#.o.$.=.&.=.%.$.%.$.$.%.+.$.*.&.&.&.&.&.$.@.$.O.=.=.$.&.$.%.%.$.&.X.#.=.&.&.*.#.#.$.#.$.+.$.=.%.-.%.",
"b.N.n.F.y.g.J.v.B.N.N.m.n.B.Z.5.D.A.v.B.N.m.b.N.Z.x.9.J.N.v.N.M.b.M.M.F.u.d.H.v.N.m.M.n.N.B.S.5.V.Z.v.C.B.M.b.n.A.c.0.L.M.n.N.M.",
"y.u.r.d.<.a.v.p.y.w.t.u.y.u.i.:.v.h.u.i.t.y.a.e.d.9.9.N.s.y.y.r.t.i.e.g.<.s.c.p.u.t.t.y.r.u.a.:.v.f.i.y.r.t.u.y.d.8.4.m.s.u.u.e.",
"k.p.0.d.3.f.h.t.h.p.t.l.r.e.d.,.x.u.i.f.t.s.g.9.i.w.8.v.t.d.a.w.h.u.9.g.5.s.h.u.d.a.u.h.e.t.u.<.z.u.p.f.e.s.f.8.a.q.8.v.t.a.d.w.",
"s.i.g.s.-.j.h.5.i.y.u.p.p.j.t.<.m.e.0.p.t.i.p.g.k.2.8.N.7.t.a.t.a.a.h.s.*.g.j.4.p.i.y.p.a.j.r.=.M.y.w.a.u.i.p.f.j.5.9.b.7.t.p.r.",
"w.e.k.i.%.i.p.p.r.e.w.w.a.j.5.&.l.u.u.e.e.q.q.d.h.;.6.k.i.e.e.w.e.r.l.a.$.p.d.i.e.r.w.q.t.l.0.=.k.u.t.q.t.q.q.f.f.=.3.k.u.y.e.r.",
"y.r.t.w.*.p.z.f.p.p.w.i.q.t.7.;.x.g.f.p.u.e.y.e.q.1.8.b.a.d.i.r.y.r.t.q.*.f.x.d.u.a.r.t.r.t.5.-.x.g.h.p.y.t.y.q.r.:.8.n.f.s.a.r.",
":.>.;.6.1.w.q.6.4.>.;.:.;.>.q.<.r.9.6.1.<.;.=.>.1.7.5.r.8.5.,.:.:.:.>.7.3.w.9.7.3.:.>.:.,.>.5.<.r.5.9.2.:.;.>.;.2.9.5.q.9.3.1.:.",
"=.=.*.=.$.@.*.=.$.$.$.*.-.&.$.$.&.;.-.@.+.%.*.*.=.%.#.&.:.&.#.O.*.*.*.&.&.%.&.-.$.@.$.-.*.*.*.#.&.-.*.$.$.$.*.=.&.#.#.&.;.&.+.O.",
"A.S.M.b.Z.m.m.M.b.g.9.F.A.N.A.M.c.M.m.b.0.f.J.B.N.A.M.m.B.v.v.6.M.F.N.M.B.n.m.m.v.g.7.F.Z.b.C.M.x.m.n.n.w.d.F.C.N.V.n.b.M.b.c.1.",
"V.x.h.g.x.p.d.i.s.e.9.N.j.d.z.j.u.s.i.s.4.g.M.h.d.x.f.y.s.p.i.5.m.c.f.h.c.p.p.i.d.q.w.B.k.f.k.j.y.d.i.d.5.f.m.h.s.c.f.i.s.i.p.:.",
"k.q.a.s.i.t.g.p.r.,.5.h.9.d.p.a.d.f.u.w.&.i.u.t.d.u.a.f.i.u.6.:.k.r.s.a.y.a.f.i.i.,.8.g.w.f.i.p.s.f.u.q.*.i.i.r.d.a.i.g.d.t.9.&.",
"l.e.g.y.t.t.r.t.h.5.8.g.u.d.t.e.w.r.y.j.>.p.p.f.d.t.q.r.y.s.p.:.j.u.s.y.r.q.r.u.d.4.4.d.i.s.y.q.e.t.y.f.:.a.t.g.a.t.w.e.e.d.s.@.",
"x.w.e.t.g.d.f.w.a.9.5.h.8.e.u.k.g.f.9.f.>.i.u.q.e.d.k.d.y.t.i.,.f.w.w.r.g.k.j.e.d.q.5.h.w.w.y.j.h.d.q.h.<.u.y.w.w.a.j.h.u.y.d.$.",
"z.q.r.e.a.y.e.r.u.1.9.j.9.y.e.p.u.w.y.t.=.s.u.e.e.e.p.t.r.y.8.>.h.e.r.e.a.u.e.t.y.1.9.g.w.e.e.p.y.w.t.t.=.f.p.0.r.t.p.t.t.r.0.&.",
"s.6.5.>.2.5.5.>.2.3.2.r.6.<.1.2.6.5.=.6.:.w.9.5.<.2.2.6.1.>.5.>.y.7.3.1.<.3.4.:.4.4.5.y.6.1.<.3.6.2.;.7.;.q.q.4.,.1.4.7.2.;.8.=.",
"*.&.%.#.@.@.=.-.&.=.$.=.&.$.#.@.+.=.&.=.=.%.=.&.%.$.+.=.*.$.=.$.=.&.%.#.+.#.>.&.*.=.%.&.&.%.@.O.#.-.-.*.&.%.*.&.%.#.@.$.&.&.-.%.",
"n.n.n.D.r.d.H.x.m.v.M.m.n.B.V.6.C.C.n.N.b.m.n.M.A.k.w.J.n.m.n.b.n.b.m.Z.y.f.H.c.M.n.M.b.n.M.Z.7.C.V.z.B.n.m.m.N.Z.x.8.K.v.m.m.m.",
"p.u.u.h.>.f.v.p.i.t.w.a.y.u.p.;.m.h.s.i.t.y.p.t.a.8.6.N.s.i.u.t.u.i.t.j.,.s.v.i.i.t.y.a.y.u.i.;.n.j.a.u.y.r.p.e.s.9.5.V.s.i.y.t.",
"j.y.7.g.2.a.g.r.s.u.u.l.9.r.a.>.z.t.y.f.e.a.h.9.p.e.8.v.e.p.d.q.h.y.9.d.3.d.h.e.d.t.y.k.e.e.d.<.l.i.u.a.e.s.s.8.i.0.6.z.i.i.d.q.",
"a.s.j.f.-.f.h.6.p.y.t.i.d.l.y.:.n.r.0.a.t.i.i.g.k.3.8.M.4.t.a.y.p.a.g.f.:.g.g.5.p.u.t.i.s.j.t.;.n.r.9.s.y.i.i.g.k.4.6.b.4.y.a.e.",
"e.t.l.y.#.u.f.u.w.e.q.e.u.l.8.*.l.i.y.9.q.e.0.f.g.;.2.l.t.t.e.w.q.r.j.i.@.i.d.t.e.e.q.w.i.l.6.%.l.p.y.w.r.w.q.f.g.>.5.l.y.e.0.e.",
"i.y.w.0.-.d.c.f.s.d.y.a.t.r.8.;.c.j.g.a.i.y.y.r.y.<.9.m.f.d.p.u.t.r.y.e.;.d.b.f.p.p.y.p.e.e.6.:.c.k.d.s.y.y.a.t.y.,.0.m.g.s.a.t.",
">.:.:.4.,.8.8.6.<.:.:.;.>.<.6.<.r.5.5.>.:.>.:.,.<.2.3.0.4.3.<.:.;.>.>.1.2.q.8.4.1.,.>.:.>.>.5.>.w.7.5.<.,.>.:.;.1.4.2.q.5.2.>.>.",
"$.*.&.*.%.$.*.-.$.#.@.&.&.%.-.#.$.*.=.&.@.#.=.*.$.-.#.=.-.&.$.o.&.=.*.=.%.@.*.-.#.O.@.&.*.&.%.%.*.=.*.%.+.#.*.*.$.=.$.*.=.&.%.O.",
"S.S.B.N.V.v.m.N.b.f.9.D.Z.M.B.M.n.m.n.v.q.d.G.B.m.V.m.b.N.v.b.5.m.S.M.N.B.n.m.M.b.f.0.F.A.M.Z.M.v.M.m.N.w.h.F.C.n.V.m.v.m.c.z.1.",
"C.l.g.g.l.y.s.y.a.w.e.N.l.f.l.j.r.s.p.g.6.k.b.h.a.z.f.y.p.p.i.5.n.c.g.f.k.u.i.s.i.w.e.B.k.d.k.h.y.p.i.s.4.l.M.j.s.l.d.u.a.i.s.,.",
"l.0.p.i.i.a.g.i.t.,.5.j.9.d.u.i.a.a.y.w.&.p.y.t.f.p.y.d.a.t.7.=.d.r.i.i.u.s.d.i.i.>.4.h.w.a.p.u.s.s.i.w.&.u.u.r.f.y.i.g.a.i.5.$.",
"k.r.f.u.e.0.r.t.h.7.5.s.u.f.u.w.t.r.i.f.-.p.a.d.a.u.w.e.r.a.u.>.g.t.d.u.e.e.y.t.g.6.5.f.u.d.u.r.w.r.y.g.:.u.y.g.a.r.w.e.t.p.i.#.",
"x.0.e.y.j.j.j.t.s.9.7.g.q.r.y.k.g.h.w.j.<.i.i.0.w.a.k.j.p.i.a.-.h.q.r.y.h.g.g.r.f.9.4.f.q.w.p.h.g.f.e.h.1.p.i.0.w.h.k.j.p.y.a.*.",
"x.w.t.w.i.u.e.r.u.<.7.h.0.y.r.u.t.w.y.t.-.s.s.r.r.i.u.r.w.u.q.;.j.e.y.w.i.u.e.r.i.<.7.g.q.t.w.y.i.w.t.r.-.p.y.w.t.t.y.w.e.t.q.*.",
"a.9.6.:.<.5.5.>.2.2.4.y.6.4.1.1.6.4.:.5.>.q.0.7.3.,.4.5.1.>.6.<.u.0.5.<.2.3.5.>.2.,.4.y.8.2.1.2.5.3.,.7.,.e.0.7.2.:.2.6.<.>.8.&.",
"%.*.%.@.$.#.-.-.%.&.&.%.#.%.$.#.@.*.-.=.*.%.%.%.#.#.#.&.-.%.*.$.$.$.%.#.#.$.*.*.$.%.$.%.*.#.$.$.#.-.=.&.*.=.$.$.$.$.#.$.=.*.-.&.",
"c.m.N.S.e.s.H.b.m.m.m.c.n.C.Z.4.Z.Z.v.B.n.M.n.v.C.x.9.K.m.n.V.N.N.N.M.D.y.g.J.c.N.V.N.c.M.B.C.3.Z.Z.x.N.n.n.b.n.A.z.6.L.M.m.m.m.",
"u.u.e.h.,.f.n.i.i.y.y.i.t.i.p.,.m.j.i.u.t.r.u.r.d.8.9.M.s.u.t.r.u.u.e.f.>.s.b.i.i.y.y.u.t.r.a.<.v.j.i.u.y.t.p.e.d.8.5.N.a.t.i.t.",
"l.i.9.g.1.s.h.r.s.u.y.l.q.e.s.3.k.y.u.f.r.a.f.9.i.q.9.v.t.p.d.e.j.u.9.k.,.d.g.e.g.y.u.h.w.w.d.1.x.i.y.s.r.d.f.8.f.0.7.c.e.i.f.w.",
"i.i.j.d.=.d.h.7.a.y.t.i.f.x.e.*.m.w.7.p.r.y.p.f.f.2.8.m.5.t.i.e.i.p.h.f.-.k.h.4.u.y.t.i.a.l.r.;.B.w.q.i.e.y.i.g.h.3.8.M.5.r.i.w.",
"w.r.j.p.$.s.s.u.e.t.e.0.i.j.7.%.l.i.u.q.t.t.q.g.h.-.3.k.u.r.w.e.w.u.h.y.%.i.d.u.w.t.w.e.p.k.7.-.z.y.y.e.r.w.q.g.h.;.2.k.y.y.q.r.",
"u.e.r.w.&.s.x.s.s.i.w.t.q.e.8.-.v.h.d.p.u.r.t.q.w.:.5.v.g.s.i.y.r.r.q.w.;.i.x.g.i.y.e.t.r.e.4.-.v.h.s.p.t.e.y.w.e.;.9.b.f.d.p.r.",
"-.;.:.4.3.q.9.9.2.;.=.;.:.,.8.<.w.7.5.<.>.:.;.:.2.6.6.r.5.3.>.;.-.:.:.4.1.w.9.6.3.,.>.;.-.,.5.3.w.9.6.1.:.=.-.:.1.5.5.w.6.3.<.,.",
"&.=.&.;.%.$.*.-.%.$.#.%.-.$.&.%.$.-.:.$.#.$.=.%.$.%.$.&.:.*.$.+.*.=.%.-.$.@.*.;.=.+.O.-.=.&.;.%.@.*.=.*.$.%.*.&.%.*.&.=.;.*.$.O.",
"A.D.B.M.N.m.n.m.c.f.9.A.A.b.N.n.b.M.b.v.e.f.G.A.v.V.n.b.N.b.v.5.N.F.m.M.m.v.n.M.c.f.9.D.S.m.B.m.n.m.v.c.e.d.D.B.b.C.c.n.M.c.c.4.",
"A.z.h.f.x.u.s.a.a.q.w.C.k.s.z.z.y.p.p.g.4.h.n.j.a.x.p.s.d.u.s.4.m.z.f.d.x.i.a.a.d.e.w.V.k.f.k.l.y.a.a.g.3.g.m.k.d.v.d.y.a.p.d.,.",
"x.0.u.a.p.a.f.p.y.>.5.j.9.d.i.y.a.s.a.q.&.p.u.e.s.t.s.s.i.i.8.:.g.e.u.i.u.s.s.d.t.<.7.g.0.a.u.i.d.d.i.r.&.p.u.e.s.u.i.d.d.u.6.$.",
"l.t.h.u.e.y.y.t.h.6.3.a.t.d.u.r.e.w.p.g.;.i.p.f.p.u.t.y.r.d.i.-.f.u.g.i.w.e.t.r.f.5.5.d.i.f.y.e.r.r.u.j.>.i.p.g.p.u.r.e.r.a.i.%.",
"z.w.w.t.g.h.h.y.s.7.7.g.0.r.p.j.h.g.w.j.,.a.t.w.r.a.j.k.i.y.p.>.g.q.w.r.g.k.j.r.f.q.4.g.w.w.u.k.g.s.r.d.,.a.y.w.e.s.j.k.u.y.s.#.",
"c.q.t.t.u.y.q.w.y.1.8.k.0.t.t.p.y.e.t.t.=.p.a.w.e.e.a.t.e.t.7.>.k.w.r.q.p.p.9.r.t.1.7.h.0.t.w.i.t.e.e.r.=.a.u.q.e.t.i.y.r.u.0.%.",
"h.q.5.<.2.8.7.:.2.2.4.y.7.5.1.3.8.1.;.6.:.w.r.7.3.1.3.8.2.:.9.>.i.8.4.1.3.5.7.:.4.2.7.i.q.2.3.2.6.5.:.8.,.q.q.6.3.<.5.7.,.,.0.-.",
"#.$.%.#.@.o.&.=.*.&.&.@.$.%.$.+.@.;.$.-.-.$.$.$.#.#.@.%.*.*.*.#.#.#.#.%.+.O.=.*.=.&.%.#.$.%.$.O.$.=.&.&.&.$.#.$.#.#.@.%.-.#.=.#.",
"b.N.V.D.y.s.L.m.M.m.B.M.N.V.C.8.C.Z.b.B.M.m.m.N.Z.z.q.P.n.n.N.M.n.N.m.F.u.g.H.n.N.n.B.n.B.B.A.7.Z.S.n.N.N.m.m.N.Z.x.e.K.m.n.M.N.",
"t.u.w.a.;.p.c.i.u.y.r.y.t.r.u.:.b.g.p.u.r.t.a.w.d.8.7.C.a.u.y.t.y.u.t.d.:.a.c.i.t.y.r.y.t.r.i.:.n.f.p.y.r.w.p.w.s.6.5.n.a.p.r.t.",
"j.y.9.g.3.f.h.e.d.i.u.k.0.r.p.2.c.i.u.d.w.p.g.q.i.e.0.z.t.p.s.q.j.t.9.j.1.d.h.y.f.p.i.k.0.r.i.1.v.u.y.f.w.s.g.0.d.9.0.c.t.p.a.w.",
"i.i.k.d.:.f.g.7.i.r.t.p.a.x.r.:.n.r.9.a.t.i.u.g.j.3.9.m.7.y.u.r.i.i.j.d.*.h.j.5.i.y.t.a.p.l.t.:.m.r.9.p.t.u.i.f.j.2.9.n.6.t.a.e.",
"r.r.k.r.#.u.f.y.e.t.w.e.p.k.9.&.k.u.t.w.r.w.e.g.g.:.4.j.e.r.e.0.e.r.k.t.#.i.s.y.w.t.q.q.p.j.6.$.j.p.t.r.r.w.e.d.f.-.3.l.t.r.w.w.",
"u.t.q.w.*.s.x.d.p.a.e.t.w.e.6.>.z.h.f.i.r.t.t.w.t.<.8.N.f.a.u.r.y.r.e.w.=.d.c.f.p.i.e.y.e.e.7.-.b.h.f.p.u.e.t.e.t.<.8.b.f.d.p.r.",
">.,.1.6.3.w.0.8.2.1.=.>.>.<.0.4.r.9.6.2.:.;.>.:.<.4.4.t.8.5.2.>.>.,.:.6.5.0.w.7.4.<.;.:.,.1.7.1.t.7.7.2.:.:.>.>.3.7.6.e.8.3.<.-.",
"@.@.$.$.X.+.*.%.+.o.O.O.o.+.+.X.@.&.$.O.o.+.O.X.O.+.X.o.*.@.O.X.#.+.o.+.X...#.*.+.X.+.@.@.$.%...+.%.%.O.O.O.o.o.+.o.+.%.&.+.o..."
};
