/* XPM */
static char *_c871a1e4fc5409d8a20c09bf9bdbe50ASieAu1M5dwgg7Xb[] = {
/* columns rows colors chars-per-pixel */
"64 64 100 2 ",
"   c None",
".  c #D48B23",
"X  c #D58F2B",
"o  c #D7912D",
"O  c #D8942F",
"+  c #D58F32",
"@  c #D69132",
"#  c #DA9534",
"$  c #DA9B35",
"%  c #E39936",
"&  c #EC9C36",
"*  c #EC9E39",
"=  c #DCA136",
"-  c #DEA638",
";  c #DFA939",
":  c #E1AD2E",
">  c #E1AE36",
",  c #ECA13C",
"<  c #E1AD3B",
"1  c #EDA93B",
"2  c #E3B43C",
"3  c #EEB63E",
"4  c #E6BB3F",
"5  c #EFD43E",
"6  c #DA9B41",
"7  c #DB9F50",
"8  c #DFAA43",
"9  c #EDA442",
"0  c #ECA945",
"q  c #EEA64A",
"w  c #EDAA4A",
"e  c #EEBD40",
"r  c #EDB14F",
"t  c #E5BA49",
"y  c #EFAD57",
"u  c #F0AE59",
"i  c #EDB252",
"p  c #EDB857",
"a  c #EEBD5D",
"s  c #F1B464",
"d  c #E3B477",
"f  c #E4B77A",
"g  c #E6BB7F",
"h  c #EAC441",
"j  c #EDCB43",
"k  c #F0CB44",
"l  c #EFD345",
"z  c #F0D546",
"x  c #F1D847",
"c  c #F0D64B",
"v  c #EFD85E",
"b  c #F0D651",
"n  c #F1D856",
"m  c #F1D95C",
"M  c #E7C066",
"N  c #EEC363",
"B  c #EEC768",
"V  c #F1DA63",
"C  c #F2DB6B",
"Z  c #EECF71",
"A  c #EED375",
"S  c #EFD679",
"D  c #EFDB7E",
"F  c #F2DD74",
"G  c #E7BF85",
"H  c #EFDC80",
"J  c #F0DD83",
"K  c #F1DF8A",
"L  c #EAC694",
"P  c #E9C59C",
"I  c #EBC998",
"U  c #F4E283",
"Y  c #F4E494",
"T  c #F4E59B",
"R  c #F7E99C",
"E  c #ECCDA2",
"W  c #F0D6B0",
"Q  c #F0D8BE",
"!  c #F4E5A1",
"~  c #F4E7AA",
"^  c #F6E9AB",
"/  c #F8ECAD",
"(  c #F5E9B2",
")  c #F8EDBB",
"_  c #F6EDC4",
"`  c #F8EEC3",
"'  c #F6EECA",
"]  c #F9F2CB",
"[  c #F4E4D1",
"{  c #F7EADB",
"}  c #FBF5D4",
"|  c #FCF7DF",
" . c #F8EEE3",
".. c #FDF7E1",
"X. c #FDF8E5",
"o. c #FBF4ED",
"O. c #FDFAED",
"+. c #FCF7F1",
"@. c #FEFBF6",
"#. c #FFFFFF",
/* pixels */
"                          #.#.#.                                                                                                ",
"                                                                                                                                ",
"                                                                                                                                ",
"                                                                                                                                ",
"                                                                                                                                ",
"                                                                                                                                ",
"                                                                                                                                ",
"                                                          #.#.o.{ { #.#.#.                                                      ",
"                                                #.{ d . @ # $ $ $ + + @ + X X I @.                                              ",
"                                            #.O = l l l l l l l z z z z l 2 + @ @ @ P #.                                        ",
"                                        +.8 z z z z l x l x l x z z z z z z z x 2 + @ @ g #.                                    ",
"                                    #.t z z z z z z x l x l l x z z z z z z z z z z l + @ @ {                                   ",
"                                  ..z z z z z z z z z z l l x l z z z z z z z z z z z z 2 + @ 6 #.                              ",
"                              #.v z z z z z z z z z z z x l l x z z z l x z z z z z l x l x + @ @ #.                            ",
"                              5 z z z z z z z z z z z z x j h h k x l x l z z z z z z z C l z $ @ + @.                          ",
"                            z z z z z z z z z z x 2 + * * * * * * * * * 1 x z z z z z z z C z z = @ @ @.                        ",
"                        @.z z z z z z z z l z $ # * * * * * * * * * * * * q * k z z z z z z F V z < + +                         ",
"                      #.z z z z z z z z z = @ * * * * * * * * * * * * * * * s q * z z z z z x F F z + @ o                       ",
"                    #.z z z z z z z z x @ # * * * * & , * * * * * * * * * * * s s * j x z z z c F V z @ @ f                     ",
"                    R z z z z z z z z @ % * * * * * * * * * * * * * * * * * * * s s * e z z z z F F c z @ @ #.                  ",
"                    x z z z z z z x @ # * * , * * * * * * * * , B A * * * * * * * s s q h z z z x F F z < + @                   ",
"                  z j l l z z z z @ @ * * * * * * * * * * * * H J K y * * * * * * * s s , l z z x m F F z + @  .                ",
"                O.l x l x z z z $ @ * * * * * * * * * * * * B D H H H * * * * * * * q s s & z z z z F F m 2 # # #.              ",
"              #.n 2 z z z z l l @ * * * * * * * * * * * * , H H H D J * * * * * * * * s s s , z z z V F F z @ @ #.              ",
"              #.z l x l z z z + @ * * * , & , , & , & , * H H H H H K & * * * * * * * * s s , z z z x F F n $ @ E               ",
"              ^ l l j j z z j @ & * * , J H D i , & * & a H H H H H ~ & * * * * * * * * y s s 0 z z z F F F x @ #               ",
"              c t l l x z z # @ * * * J H H H H H H A 0 H H H D H H ) & * * * * * * * * * s s * z z z n F F l + + #.            ",
"            #.z 2 j e l l l @ @ * * * S H H H H H H H H H H H H H H _ & * * * * * * * * * q s y z z z z F F x $ @ #.            ",
"            @.x 5 l x l x z @ * * * * & D J H H H H H H H H H H H H ' * & * * * * * * * * * s s * z z z F F V < @ [             ",
"            } x l l l l l < @ * * * * & r D H H H H H D H H H H H H ( _ ` Y D 0 * * * * * * s s * z z z F F F j @ E             ",
"            ( z ; x l x z @ @ * * * * , , A D H H H H H H H H H H H H H H H K ` T Z * * * * * s & z z l V F F z @ L             ",
"            Y h l l x l z @ @ * * * * * , & S H H H H H H H H H H H H H H H H J H D H * * * * s & z z z x F C z o f             ",
"            Y 2 z 2 l l l + @ * * * * * * * & D H H H H H H H H H H H H H H H H H H H * * * * s * z z z z F F x @ L             ",
"            Y 2 l l x x l @ @ * * * * * * * * y H H D H H H H H D H H H H H H H H H & * * * * u * z z z z F C z @ W             ",
"            ^ 2 z x 4 l x + @ * * * * * * * * H H H H H H H D H H H H H H H D H w , * * * * * q & z z z z F F z @ {             ",
"            ] l ; z x l l - @ * * * * * * * H H H H H H H H H H H H H H H Z * * * * * * * * * 9 * z z z z F m j @ #.            ",
"            @.x l z z z x l # * * * * * * a H H H H H H H H H H H H H S * * * * * * * * * * * * * z z z z F z 2 o               ",
"            #.z 2 ; z z l z @ @ * * * * * H H H H H H H H H H H H H D T * * * * * * * * * * * * l z z z z F x $ #               ",
"              l $ l z j z z @ @ * * * * a H H H H H H H H H H H H H D ( * * * * * * * * * * * * l z z z b F z + Q               ",
"              R 2 2 j l z l h @ * * * * H H H H H D H B & H H H H H D _ * * * * * * * * * * * 1 z z z z F n l @ #.              ",
"              #.l j z l l z z @ @ * * * H D H D H i , * * 1 H H H H H _ & * * * * * * * * * * z z z x l F z ; 7                 ",
"                x + h j z z z j @ * * & , p w & * * & * * * N H H H H ' * & * * * , * * * * , z l z z z F z @                   ",
"                ..l j z z z z z # @ , , * & , & , & * * * * * A H H H _ & , * * * * * * * * z z x z z z c h o                   ",
"                  z @ z 2 z z z l @ # & * , & , * * * * * * * * Z H H ! * * * * * * * * * k z z z z z m l + #.                  ",
"                  #.l ; l l 5 l l x @ % , * * * * * * * * * * * * y H w & , * * * * * * e z z z z z z n e E                     ",
"                    U ; h h l l x l j # % & * * * * * * * * * * * * , * * & * * * * * 3 z z z z l x z z X                       ",
"                      l @ c x x l x l x @ # * * * * * & * * * * * * * * , * * * * * j z z z z z l x l X                         ",
"                      #.l @ l l j l x l l $ @ * * * * , * * * * * * * * & * * * * l l l z z z z z x = @.                        ",
"                        @.z = + z z j x l z x + # * * * & * * * * * * * * * * j z z z z z z z z z > #.                          ",
"                          @.z = l - x l z z z z z < @ * , , * * * * * * 1 k z z z z z z z z z z >                               ",
"                          #.#.z < c z z z z z z z z z z x j 4 e h x z x z z z z z z z z z z z M #.                              ",
"                              #.n j z z z z z z z z z z l l l z z z z z z z z z z z z z z z o.                                  ",
"                                #...z z z z z z z z z l z z z z z z z z x z z z z z z z C #.                                    ",
"                                    #.Y z z z z z l z z z z z z z z z z z z z z z z m @.                                        ",
"                                        #.~ z z z x l z z z z z z z z z z z z z n                                               ",
"                                            #.#./ x z z z z z z z z z z 5 Y X.                                                  ",
"                                                    #.#.#.#.o.O.#.#.#.#.#.                                                      ",
"                                                                                                                                ",
"                                                                                                                                ",
"                                                                                                                                ",
"                                                                                                                                ",
"                                                                                                                                ",
"                                                                                                                                ",
"#.                                                                                                                              "
};
