/* XPM */
static char *cc004016a6c64e31c289a89de63cfc13ZQXmV6Ci3Hq7Mhha[] = {
/* columns rows colors chars-per-pixel */
"64 64 245 2 ",
"   c #010101",
".  c #0B0101",
"X  c #030903",
"o  c #0C0B07",
"O  c #04020A",
"+  c #0B0309",
"@  c #0B0A0A",
"#  c #050B0A",
"$  c #130000",
"%  c #1B0000",
"&  c #130903",
"*  c #180907",
"=  c #0E110D",
"-  c #1C110D",
";  c #191202",
":  c #1B1614",
">  c #080810",
",  c #240000",
"<  c #2C0000",
"1  c #2C0B05",
"2  c #330000",
"3  c #3B0100",
"4  c #340B01",
"5  c #380A04",
"6  c #25120A",
"7  c #3A1504",
"8  c #2A1B15",
"9  c #331815",
"0  c #2F0F14",
"q  c #342319",
"w  c #23241F",
"e  c #291F20",
"r  c #1F2322",
"t  c #2B2A28",
"y  c #372925",
"u  c #2C332E",
"i  c #35332B",
"p  c #343532",
"a  c #3A3532",
"s  c #3B3B36",
"d  c #3C3D3B",
"f  c #383936",
"g  c #382B32",
"h  c #440100",
"j  c #4A0200",
"k  c #4C0D00",
"l  c #530C01",
"z  c #570400",
"x  c #461706",
"c  c #591806",
"v  c #4F1C18",
"b  c #680A00",
"n  c #7B0F00",
"m  c #631500",
"M  c #6C1501",
"N  c #651B02",
"B  c #6B1A03",
"V  c #6B1909",
"C  c #7C1901",
"Z  c #751803",
"A  c #621C14",
"S  c #5B2302",
"D  c #4A2417",
"F  c #5D2D1C",
"G  c #55291A",
"H  c #5D311C",
"J  c #57341E",
"K  c #4F2002",
"L  c #6A2506",
"P  c #7B250B",
"I  c #782807",
"U  c #79310A",
"Y  c #6D2512",
"T  c #6E2B14",
"R  c #662D1C",
"E  c #6C2C1C",
"W  c #662615",
"Q  c #7A2413",
"!  c #732B14",
"~  c #7B2C14",
"^  c #722C1C",
"/  c #7B2D1C",
"(  c #732519",
")  c #63321D",
"_  c #6A311B",
"`  c #6A3115",
"'  c #723115",
"]  c #78351A",
"[  c #422922",
"{  c #552D23",
"}  c #5D2D23",
"|  c #5D2A28",
" . c #4B342A",
".. c #493729",
"X. c #543424",
"o. c #5C3322",
"O. c #54332C",
"+. c #5D3329",
"@. c #533A2C",
"#. c #5D3928",
"$. c #4B3534",
"%. c #4D3B33",
"&. c #423D3C",
"*. c #463B36",
"=. c #573A36",
"-. c #632D24",
";. c #6C2C23",
":. c #672C2A",
">. c #732D23",
",. c #782A26",
"<. c #643324",
"1. c #6B3225",
"2. c #63332B",
"3. c #693829",
"4. c #773826",
"5. c #673832",
"6. c #7A3B33",
"7. c #3E413B",
"8. c #3E4033",
"9. c #43423D",
"0. c #4B443C",
"q. c #454236",
"w. c #544337",
"e. c #6B4139",
"r. c #744830",
"t. c #423C41",
"y. c #444341",
"u. c #494744",
"i. c #594B46",
"p. c #58534C",
"a. c #545452",
"s. c #5A5954",
"d. c #5D5B5A",
"f. c #575859",
"g. c #4D5852",
"h. c #695956",
"j. c #745D58",
"k. c #724F48",
"l. c #5B605C",
"z. c #62625D",
"x. c #6E665A",
"c. c #726157",
"v. c #625863",
"b. c #6A6967",
"n. c #736E6B",
"m. c #766767",
"M. c #6E7268",
"N. c #76726E",
"B. c #79716E",
"V. c #767472",
"C. c #7B7572",
"Z. c #7C7976",
"A. c #7D7B7A",
"S. c #777B7A",
"D. c #851D05",
"F. c #84240C",
"G. c #882405",
"H. c #952806",
"J. c #852816",
"K. c #87371A",
"L. c #923110",
"P. c #A63E17",
"I. c #853725",
"U. c #C53F0F",
"Y. c #B8431A",
"T. c #A9491F",
"R. c #874A3B",
"E. c #9E4D33",
"W. c #964A37",
"Q. c #985336",
"!. c #905132",
"~. c #A74627",
"^. c #B44826",
"/. c #A24E34",
"(. c #A95436",
"). c #B75C39",
"_. c #9E6339",
"`. c #C0451C",
"'. c #925541",
"]. c #896558",
"[. c #976B51",
"{. c #AA6E4B",
"}. c #A8714B",
"|. c #A47454",
" X c #B67A56",
".X c #B3734D",
"XX c #817976",
"oX c #817C79",
"OX c #8E7368",
"+X c #91918F",
"@X c #AEADAB",
"#X c #A9A8A6",
"$X c #B2AEAC",
"%X c #BBAAA6",
"&X c #B3B1AE",
"*X c #BCB1AE",
"=X c #B6B4B2",
"-X c #BAB5B3",
";X c #BCB9B6",
":X c #BCBAB9",
">X c #B8B9B9",
",X c #A9948F",
"<X c #F6B696",
"1X c #C1B5AF",
"2X c #C1B5B2",
"3X c #C3B8B4",
"4X c #C1BDBB",
"5X c #CABFBB",
"6X c #D5B2A9",
"7X c #EEBBAC",
"8X c #F8CCB5",
"9X c #FED1BA",
"0X c #F2C3B1",
"qX c #DDC7AF",
"wX c #C3C3C1",
"eX c #DDD2D1",
"rX c #EBCECA",
"tX c #FFD8CB",
"yX c #ECD5D9",
"uX c #FFDED3",
"iX c #F8DADA",
"pX c #E0D3CD",
"aX c #EDE3DD",
"sX c #FFE3D4",
"dX c #FFEBD4",
"fX c #FFE6DD",
"gX c #FFEBDB",
"hX c #F2EADF",
"jX c #FFEACB",
"kX c #E4DEE5",
"lX c #E6E7E9",
"zX c #FEECE4",
"xX c #FEEDEB",
"cX c #F7EAE6",
"vX c #FFF2E5",
"bX c #FFF4EC",
"nX c #FFF9ED",
"mX c #FBF5E9",
"MX c #FAEEF2",
"NX c #FEF5F3",
"BX c #FFFAF4",
"VX c #FEF5FB",
"CX c #FFFFFD",
"ZX c #FEFCFB",
"AX c #F4F3F3",
/* pixels */
"                                                            O             O                                                     ",
"                                                                                                                                ",
"                                                                O     O                                                         ",
"                                                    O     O                 O                                                   ",
"                                                                                                                                ",
"                                                                          O                                                     ",
"                                                                                                                                ",
"                                                                                                                                ",
"                  X                   X                   X                                       X       O         O           ",
"                                X                                         +                             X             X         ",
"                X                         X             @           X   X             X               X     @             X     ",
"                                            O     O   X         X                                                 X   @         ",
"                  O     X             # X               +XCXX a.  CXCX      X       X                         X                 ",
"                  X                 O               d CXt p &.d s &.p CXCX                            @                         ",
"                X         X           X         y.  : f p s     : f p p f X     X               X                     #       >X",
"                a.O       O     BX  CX  CXBXX a.d.X 7.  9.p p   u @ y.# u.  z.a.  ZXAX                      +X          X       ",
"  O             b.f.O CX+ O .   s.h.s.z.z.M.n.q.s 9.w d 9.s w   d p d u.  u.s f b.M.b.z.v.d.d.O   .   CX  g.z.ZX    O O         ",
"        X X $ NXj.m.@ n.m.h.i.p.; m.h.. ..i $.%.%.0.%.%.6 %.%.$ u.u.* *.0...$.w.%...... h.j.$ q i.h.h.m.  p.OXnXZXX O         O ",
"          . , 4.z E , D , G % X.G | D 2.2.} :.< +., +.< F 3.e.% 3.<.2., #.7 2.D 3.<.H #.G F G G x o.2 | % <.B 4.$   O   X       ",
". .     + . % 4.K.K.< G R F _ <.2.:.:.:.-.:.:.1.E R -.-.:.G <.H ) _ <.1._ _ :.;.} <.G H +.G <.H G ) T Y 2 I.K.4..   O .         ",
"    O       . qX< ] 2 R.` 2 v +.xXxXMXxXxXbXfXo.T ! ;.5.$ $ $ , $ % $ o.,.,.;.R zXzXfXfXcXxXfX@.; $ K.H.j I., zX  X             ",
"    O O         ; r.] U ] , gXnXZXZX$ $.=.bXnXvXdXT uXNXBXNX, <.< nXnXnXiX,.zXxXNXbX@.X.. ZXNXnXlX$ L.H.L.4.h.  X X     # #     ",
"X     O     @ O   , ~ !.r.$ fXNXbX{ $ $ $ . o nXfX1.zXBXNX:.4.I.I.-.vXnXzX:.xXVX$ $ . & % O.NXZXAX$ I.L.K.< $   #       O     + ",
"X       O   O O O yXN K.% $ xXNXbX2.% . % *.BXBXzX<.zXZXMXv < K.3 :.nXBXzXO.NXCXzX@.. . % =.BXCXAX$ l I.6.bX.           X   O + ",
"    .   O     O   . ].4., % xXnXbXmX* . ,XNXNXNXzXR xXZXZXNX% #.% VXBXBXbX .nXZXZXZXy . + ZXCXCXAX. < 6.6X$     O         X O   ",
". . . .           O % < e.0 0 8 6 q 6 q 8 8 9 5 7 7 0 8 @   & $ . X X o $ $ o   X     @ O O @ . . * =.%           O X     X   O ",
"O       X   X   X . . . % i.  X . . .   . . . $ $ $   O O > .     X     + $ . . O   X     +     . w.& .   X     X         .   + ",
"      O             X   . j..   X   +           .       O       X     X   + $ .   X X   O   X   . c.X     X     . + O +     +   ",
"  +       X NXBX& i.s.M.b.X i t o 9.7.7.9.7.u   8.q.d t.t.t.u.0.f y.d 9.*.$.$ + &.y.f 7.&.g + i t * b.M.b.g.  > + +     .       ",
". h.  a.f.l.M.N.B.XXS.f u p p p 7.7.y.9.7.f r X 9.7.y.y.&.a 0.u.y.t.u.&.*.*.  o y.y.y.9.t.&.*.t a g i i M.A.A.n.b.v.d.s.. p..   ",
"vX].j.j.A.S.A.M.. a     p = p &.d d y.u.9.s u   0.y.&.f 9.8.0.0.s 9.t.7.9.q.  @ 7.8.0.d s s q.9.t . ..o X u + C.A.A.V.n.c.m.NXnX",
"R <.J $ $ $.[ q O.O.y ....%.@.%.%.@.=.%.w.@.q . *.=.w...@.X...w...w.=. .@.%.. . ..w.w.......w...O.=. .q.. q...O.[ $.$ $ 7 J =.% ",
"gX;., , H R ' ' / E <.F ! ! ;.:.<.-.-./ I U R <.2.2.;.J.P I ' ` ' T Q / ( ,.-.<.T ! E ^ T ' ) H T _ _ ) X.) ~ P P ' R < < R $ . ",
"8Xo., +.< ! h Q Q 3 gX3 ~ / vXzXzX7X>.3 I I ~ fXxXxX3 Q G.G.U jXdXI F.F.Q 3 zXdX! P / 2 P 9XfXvXgXW E < zX< F.G.j I l 1.< =..   ",
"O . rX=.5 ;.( J.A < [.x 2.D NXZXBXnX{ , 2 ( 4.zXNXBXzX6XL <X0X8X8X7X4 L 7XbXnXvX_ ^ < , 5.zXNXNXZX% 2.5 xX< J.J.F.I , O.NXCX    ",
"    + $ 0 2 ,.2 2.% 2.k.mXBXVXZXZXNXZX, :.2 2 2 % . . %  X.X}.|.[.|. X}.[.$ . % < 2 2.% xXZXZXCXBXZXVX2 5.< ,.3 ( v NX  +       ",
"  O   + $ . NX$ @.% | '.NXNXZXZXZXZXZX$ / F.).(.2 _.r.|.{.2 .X X{.{.!.}.< }., _.).I T , ZXVXVXZXCXAXCX$ 5.< :.< bX$         #   ",
"  X +   O     . bX% { 5.0XrXeXpXpXpXeX% ~ G.D.I I I L 5 c m N m M B j 2 L U I U G.G.~ < uXcXMXcXhXcXaX6 } , uX$ .             X ",
"        O @     . X., -.5.{ 2.#.+.{ <.E P C B N N N W B C C M L D.n n z S S L m M Z ~ Y ) <.+.X.X.#.#.<.< o.q   O           X   ",
"            X   . % o.9XtXtXtXtXtXuXtX2 F.b l k l l 2 E.^.P./.3 ~.^.~./., x l l z c Y 3 fXgXdXfXgXfXfXfX<.%       .     O     X ",
"        +       . $ <.uXvX, ` < 5.%XBX% Y J.1.1.1.1.2 W.(./.R.4 E./.Q.'., +.:.:.>.W ;.< NXrX-.j ,.2 nXbX2.$ .           O O     ",
"  O       O O   O . 3.tXtXr.K.K.% $ ZX$ ^ 3 < 5 , , < 2 2 3 < , 3 j k 2 , < < < 2 j 1.% ZX$ , 6.I.,.zXBX@.%             O       ",
"    X         +   $ F sX, 4.K.] $ & BX. ^ h < < < < < < 3 2 , , 2 3 h 2 < , , 2 < 2 R , NX$ $ e.4.R.8 nXJ %   O             O   ",
"      @     O     . -.uX, < N ' % . aX% ! M R h _ >., R.Q.Q.k., !.E./.'.< <.R c Y Y 1., fX$ $ 1 2 , $ nXJ % + O               O ",
"  X       X     . $ E ,.| v K K D D [ % ! z V j C V 3 < 2 2 , , 2 h 4 2 , 6.] m J.Q W , 3.3.<.4.1.1.o.3.` < $ O O       O       ",
"              X   $ -.uXxXBXmXmXmXnXBX% / M Q z D.J.< '.(.E.'.2 ~.T.T.E.2 R I Z H.C >.< zXxXvXgXzXnXvXgX_ , $ O                 ",
"    O   O         . 3.uXVXVXBXBXZXZXVX$ ( M Z b D.D.h /.P.`.~.h Y.U.U.Y.h / F.n H.D.( , BXNXBXBXZXZXZXNX<., .       O           ",
"    + X     ZX  >X  X.rXyXkXkXkXkXlXlX$ ;./ ^ ( J.P 3 Q.~.^.W.3 ^.P.`.^.3 T ~ F.Q Q :.% xXAXcXAXcXlXAXxX+.% 2X                  ",
"    +     d.:X=X>X  .       O         . $ $ $ $ & % $ $ , , , 1 5 3 3 4 4 1 1 4 5 1 1 $ - 6 - - - : - - 6 . 2X-X-XcX  +         ",
"    +   =X4X=X>X:X=X;X=X4X;X;X;X-X;X;X*X=X-X-X=X-X-X-X-X*X*X;X2X1X*X*X1X1X1X1X1X1X%X3X1X2X2X2X1X3X*X1X-X2X*X*X;X;X4X:XNX        ",
"X .   3X&X-X&X;X;X;X-X4X$X$X-X-X;X&X-X*X>X;X&X;X-X;X;X;X-X-X-X2X2X2X2X2X*X1X-X1X-X5X*X-X;X1X2X2X*X3X*X*X*X-X*X4X;X-X;X-XX     X ",
"oX;X:X*X-X-X3X*X;X$X;X*X2X4X-X;X-X:X$X4X*X=X;X&X*X=X*X-X-X2X-X-X-X*X-X*X-X-X2X-X*X*X-X*X;X2X&X*X*X*X3X3X*X*X4X*X-X=X;X4X;X;XZX  ",
"B.C.B.B.XXB.C.B.B.XXC.m.Z.m.B.C.V.b.;X&X=X-X-X>X>X=X-X=X-X-X-X-X;X-X-X-X;X=X=X&X;X=X-X4X-Xn.V.C.B.B.B.n.B.XXn.B.C.N.N.N.C.A.Z.s.",
"XXXXZ.B.B.B.B.C.B.B.N.Z.XXB.C.N.V.4X  4X>X4X&X>X>X>X:X3X;X>X;X;X=X>X=X=X=X&X@X@X@X#X@X#XO >XV.V.N.oXC.C.C.n.C.V.n.V.Z.C.V.V.Z.a.",
"XXB.C.B.B.B.XXN.B.Z.C.N.N.C.B.C.8 >X  .     +       X                           O X       =XX C.B.b.Z.V.C.V.V.V.Z.V.V.n.N.C.V.s.",
"XXZ.A.Z.Z.C.Z.C.Z.B.B.A.XXN.oXN.4X    X . .                                                 :XV.Z.V.Z.Z.V.oXB.A.Z.V.C.Z.C.n.Z.g.",
"                  .       .   ;X$X$X$X$X$X$X$X$X&X@X@X&X&X&X&X&X=X>X:XwXwXwXwXwXwXwXwXwXwXwXwXwX                  X       . s.X ",
"                      X                                                                                                     X   ",
"                        #   +                                                                                                   ",
"                O   #                                                         X                                             @   ",
"                          # O                                                                                       O           ",
"                  X     X                                                                                                 +     ",
"                                                                              O                                   O         #   ",
"                      X                                             O           O                                   O   O       "
};
