/* XPM */
static char *_36c833153f14711f70519ed56e2f9ec4TQeocyhTpq8StGL[] = {
/* columns rows colors chars-per-pixel */
"85 64 162 2 ",
"   c None",
".  c #2E2937",
"X  c #332C39",
"o  c #392E3B",
"O  c #3E303D",
"+  c #42313E",
"@  c #3E3B47",
"#  c #3F3C49",
"$  c #473441",
"%  c #4C3442",
"&  c #4F3A44",
"*  c #433D4A",
"=  c #523644",
"-  c #553A46",
";  c #593846",
":  c #573F48",
">  c #5D3C49",
",  c #643E4B",
"<  c #693E4C",
"1  c #4B414C",
"2  c #54424A",
"3  c #5A4249",
"4  c #4C465E",
"5  c #554252",
"6  c #5D4450",
"7  c #5E4C54",
"8  c #66424C",
"9  c #69434E",
"0  c #6E494F",
"q  c #6F4552",
"w  c #604F52",
"e  c #6C4A53",
"r  c #654F5E",
"t  c #744451",
"y  c #7A4654",
"u  c #724D54",
"i  c #7A4D55",
"p  c #754E58",
"a  c #625456",
"s  c #6B5556",
"d  c #6B565A",
"f  c #655A5B",
"g  c #6E5C5C",
"h  c #7E5157",
"j  c #78535A",
"k  c #765E5F",
"l  c #7A5E5F",
"z  c #544E66",
"x  c #5C5163",
"c  c #56546A",
"v  c #59546D",
"b  c #5F5E68",
"n  c #5A5771",
"m  c #5E5F72",
"M  c #645562",
"N  c #605E69",
"B  c #685E6C",
"V  c #64626C",
"C  c #736462",
"Z  c #7A6161",
"A  c #7E6D69",
"S  c #676570",
"D  c #686771",
"F  c #6B6872",
"G  c #727078",
"H  c #814C56",
"J  c #864C58",
"K  c #884E59",
"L  c #815156",
"P  c #85555A",
"I  c #8B555A",
"U  c #8E5A5D",
"Y  c #92565D",
"T  c #945C5E",
"R  c #985C5F",
"E  c #8E5660",
"W  c #945E64",
"Q  c #9B5D61",
"!  c #806F6B",
"~  c #896C6A",
"^  c #966263",
"/  c #9D6162",
"(  c #936B67",
")  c #996B67",
"_  c #97656A",
"`  c #99666B",
"'  c #976E69",
"]  c #9C696D",
"[  c #81716C",
"{  c #92746E",
"}  c #9D6F70",
"|  c #8D7570",
" . c #927670",
".. c #957C75",
"X. c #A26264",
"o. c #A36464",
"O. c #A56565",
"+. c #A46465",
"@. c #A66565",
"#. c #A56665",
"$. c #A66665",
"%. c #A76665",
"&. c #A56766",
"*. c #A66666",
"=. c #A46465",
"-. c #A86766",
";. c #A76967",
":. c #A56967",
">. c #A36C69",
",. c #A76968",
"<. c #A86B69",
"1. c #A86968",
"2. c #A96C69",
"3. c #A96D6A",
"4. c #AA6D6A",
"5. c #AA6E6B",
"6. c #A96C69",
"7. c #A1716B",
"8. c #A0716B",
"9. c #A1726C",
"0. c #A2736D",
"q. c #A2746D",
"w. c #A3756E",
"e. c #AD736D",
"r. c #AA766F",
"t. c #AF756F",
"y. c #AC736D",
"u. c #A27474",
"i. c #AF7770",
"p. c #AF7670",
"a. c #A67977",
"s. c #AF7A71",
"d. c #AF7E74",
"f. c #AE7B73",
"g. c #A67C79",
"h. c #A97C79",
"j. c #B07770",
"k. c #B07F75",
"l. c #B07E75",
"z. c #978078",
"x. c #988179",
"c. c #9A857C",
"v. c #9C897E",
"b. c #AB837D",
"n. c #B38277",
"m. c #B48277",
"M. c #B68377",
"N. c #B38277",
"B. c #B58579",
"V. c #B38579",
"C. c #B9877A",
"Z. c #B98679",
"A. c #B6887C",
"S. c #B88C7F",
"D. c #6B718D",
"F. c #6A708C",
"G. c #AD8880",
"H. c #B28B83",
"J. c #B69086",
"K. c #BB998B",
"L. c #C1A191",
"P. c #CBB09B",
/* pixels */
"                                                                                                                                                                          ",
"                                                                                                                                                                          ",
"                                                                                                                                                                          ",
"                                                                                                                                                                          ",
"                                                                                                                                                                          ",
"                                                                                                                                                                          ",
"                                                                                                                                                                          ",
"                                              1 e ~  .{ { { { ..v.x... .{ { { { { { { { { { { { { { { { ..z...{ { {  .~ u 1                                               ",
"                                            D & I ( 7.7.7.7.7.7.w.0.7.7.7.7.7.7.7.7.7.7.] 7.7.7.} 0.0.0.0.0.0.0.7.7.} ' P -                                               ",
"                                            F X o o o o o + o + o + + O o O + o o o o o o o O O + + o O o o o o o o o o O X                                               ",
"                                            F o - + ; % < < = 9 + q t q > < 9 X X . . . X . + t y y % 9 > o = = = o O O 3 X                                               ",
"                                            S 2 >.9 H i R I 0 R < T X.Q L R T = 9 = > > t > > Q X.R i / I , Y Y J > H 8 >.6                                               ",
"                                            V w l.8 H I / Y 0 / 8 R %.+.R #./ 9 Q t i Q Q T 8 X.#./ I #.U 9 X.+.Q i Q 8 N.s                                               ",
"                                            D w m.9 J o.#.R L X.8 R #.+.+.#.R 8 Q y L -.+.R 9 X.#.+.+.#.U q X.+.Q I Q 8 w.s                                               ",
"                                            D a n.9 J X.%.T i / 8 R #.+.#.#.R 8 / I T #.+.R 8 Q +.#.+.%.U 9 o.+.o.&.Q 8 d.s                                               ",
"                                            V w n.8 J X.#.R I / 8 R #.#.#.<./ 9 Q R ^ #.<.R 8 X.#.+.#.%.U q X.o.o.3./ 8 k.s                                               ",
"                                            S w n.8 P =.+.+./ X.9 R +.<.j.C./ 8 Q +.^ U o.T q Q +.%.+.-.U 9 X.+.5.p./ 8 k.s                                               ",
"                                            S w n.8 y +.-.+.#.X.8 R +.2.M.C.) 8 Q / f M Q Q 8 X.@.+.+.#.T 9 X.+.5.3.Q 8 k.d                                               ",
"                                            S w B.6 x U +.+.-./ 8 R +.<.t.t./ 8 Q P P h h U 9 / -.+.#.%.U 9 +.+.2.2.Q 8 k.s                                               ",
"                                            S w n.r D.j -.+.+.X.8 R #.<.4.3.^ 8 i U #.#.R e , Q =.=.+.%.U q X.+.+.+.Q , k.s                                               ",
"                                            V a B.7 v P #.#.#.X.8 R #.+.o.X.R = L X./ X./ P ; Q X.#.+.;.U 0 X.+.+.+.Q 8 k.s                                               ",
"                                            S f S.8 t X.#.#.#./ 8 R #.+.P e k d k l l l l k a k P Q +.+.U 9 X.+.+.X.Q 8 k.s                                               ",
"                                            V f S.9 J +.+.+.#./ 8 R %.X.= C } b.g.G.g.b.` G.} } | P 3.3.T 9 X.+.+.-.Q 8 k.s                                               ",
"                                            N f A.9 J +.+.#.#./ 8 R +.X.- C _ G.` a.` G.E K.u.] z.U y.i.^ 9 X.+.+.+.Q 8 k.s                                               ",
"                                            N a A.9 J o.;.+.+.X.8 R %.X.= C W H.a.) h.L._ P.V.a.v.I j.C.) 9 X.+.+.-.Q < d.s                                               ",
"                                            b a B.9 J o.+.+.+.o.8 R %./ = Z >.H.u.h.a.H._ L.H.b.v.U l.C.) 9 X.+.+.-.Q 8 d.s                                               ",
"                                            N w n.9 J o.+.+.+./ 9 R #.+.q 7 A A A ! A ! Z ! [ ! g U y.<.R 9 X.+.+.+.Q 8 N.s                                               ",
"                                            N w n.8 J X.;.+.+.o.< T #.#.T 3 - $ : > : 3 3 : + : 0 / ;.+.U q X.+.+.-.Q 8 d.s                                               ",
"                                            N w n.9 J X.+.+.+./ 8 R ;.+.o.+./ 8 Q -.+.+.+.R 9 X.;.+.;.#.U q X.+.+.+.Q 8 d.s                                               ",
"                                            N w n.8 J o.+.+.+.o.8 R #.+.o.+./ 8 Q -.-.+.+.T 8 X.o.+.#.#.U 9 X.+.+.X.Q 8 k.s                                               ",
"                                            N w n.9 L o.-.+.2./ 8 R +.-.+.+.^ 9 Q +.+.;.+.R 9 Q +.#.#.#.U 9 o.+.+.-.Q 8 k.s                                               ",
"                                            N a n.9 J +.+.+.4.&.8 R +.+.-.-.R 8 / +.+.+.+.R < X.#.#.#.#.U q X.o.T Q Q 8 k.s                                               ",
"                                            N w N.9 J X.#.+.e.>.8 R #.#.+.@.R 9 X.+.+.@.@.T 8 X.X.+.+.-.U 9 =.P x B P 8 n.g                                               ",
"                                            N w N.9 J +.+.#.e.o.9 R #.#.+.#./ 8 Q =.+.+.+.R < X.+.+.+.+.U q X.P : m i 8 V.M                                               ",
"                                            N w N.8 J +.#.+.<.o.8 R #.#.#.#.R 9 Q -.+.=.-.R 9 X.#.+.+.<.U 9 X.X.q c p 8 n.C                                               ",
"                                            N w N.9 J +.+.+.#./ 8 R #.#.#.#./ 8 Q =.-.=.#.T 9 Q +.#.#.-.T 9 X.=.q c i q V.C                                               ",
"                                            N 7 N.9 J o.<.#.#./ 8 R +.+.+.@.R 9 X.+.+.%.o.R < X.+.+.+.-.T 9 X.T 6 c i 9 V.g                                               ",
"                                            N a N.8 J o.+.+.#.X.8 R -.+.#.+./ 8 R -.#.+.+.R 9 R =.-.+.-.U 9 =.h 4 x i 9 d.g                                               ",
"                                            N 7 n.8 J o.+.+.+./ 8 R #.#.#.-./ 8 R -.#.;.3.R 9 X.+.=.+.+.T 9 X.Q y h T < k.d                                               ",
"                                            N a n.9 J X.;.+.+.o.8 R #.#.#.+.R 8 R #.#.;.j.^ 8 X.+.-.+.-.U 9 X.X.q p R 8 k.g                                               ",
"                                            N a n.8 J o.+.+.+./ 8 R #.#.%.@.R 8 R #.<.t.B.^ 9 X.-.+.+.-.U 9 =.X.w p Q , d.d                                               ",
"                                            N 7 n.9 J o.+.;.+.X.9 R #.#.+.@./ 9 X.+.4.B.B.^ 9 Q +.+.+.+.U q X.+.X.X.Q 8 d.d                                               ",
"                                            N w M.8 H o.+.-.+./ 8 R #.+.+.@./ 8 R #.4.e.,.Q < X.+.+.+.-.U q X.=.=.*.Q 8 k.s                                               ",
"                                            N w B.3 x E +.+.+.o.8 R #.#.#.%.^ 8 X.#.<.3.o.Q 9 Q +.-.+.+.U < =.+.=.=.Q 8 k.s                                               ",
"                                            N w m.r F.j %.+.%./ 8 R +.+.+.-./ 8 R -.-.-.=.T 9 X.+.+.+.<.U 9 X.+.+.+.Q 8 k.s                                               ",
"                                            N a N.7 v P %.%.%./ 8 R -.+.#.-.R 8 R @.=.%.-.T , X.+.-.+.+.U 9 X.+.-.+.T 8 k.s                                               ",
"                                            N w m.8 q X.#.+.+./ 8 R #.+.+.-.R 8 X.%.%.=.=.Q 8 X.+.+.+.-.U q =.+.+.-.Q 8 k.s                                               ",
"                                            N w m.9 J +.+.%.#./ 8 R #.+.=.+./ 9 R %.=.=.%.T 9 Q -.+.+.-.Y 9 =.+.=.=.Q 8 k.s                                               ",
"                                            N w m.8 J o.#.+.+./ 8 R +.-.+.+./ 8 Q <.+.+.+.T 9 X.+.-.+.-.U 9 =.+.+.+.R 8 k.s                                               ",
"                                            N w N.9 J o.#.#.%.X.8 R ;.+.+.-.R 8 Q +.+.+.-.T 8 Q +.+.+.+.U 0 / X.+.-.R 8 f.s                                               ",
"                                            N w N.9 J X.X.#.#./ 8 R +.+.-.+.^ 8 X.=.o.+.+.R 9 X.+.+.+.<.Y 9 T I +.+.R 8 r.s                                               ",
"                                            N 7 i.8 J T I @.#./ 8 R -.+.+.-.Q 8 Q +.X.T o.R 9 Q -.+.+.-.Y 9 I i +.-.Q 9 l.s                                               ",
"                                            N 2 &.8 J I L ;.+.X.8 R +.#.+.-.Q 8 X.-.X.H X.R 8 X.+.+.+.-.T 9 Y I #.o.R 8 &.3                                               ",
"                                            V : o.8 J Y I #.+.X.8 T L H T Q T < Q +.Q 9 / R 9 / R o.+.-.T 9 I e #.U I 9 / 8                                               ",
"                                            V & / 8 J H 0 X.X.R = < = ; ; < , = R X.R < T Y < Q I U Q X.I 9 J 9 Q H H 8 ^ :                                               ",
"                                            V X & + , - - t t , X . . . . . . o < t t % , > + 9 % < , t = $ < % 9 % - + = X                                               ",
"                                            G * # # 1 * * * 1 1 * @ * # # * # # * 1 * * * * @ * @ * * * * @ * @ * * * @ @ @                                               ",
"                                                                                                                                                                          ",
"                                                                                                                                                                          ",
"                                                                                                                                                                          ",
"                                                                                                                                                                          ",
"                                                                                                                                                                          ",
"                                                                                                                                                                          ",
"                                                                                                                                                                          "
};
