/* XPM */
static char *_1ff82325e8346649fa0d67579a03a834e11FtF29xGg6aeC[] = {
/* columns rows colors chars-per-pixel */
"64 64 216 2 ",
"   c None",
".  c #0E0E17",
"X  c #0E111C",
"o  c #121117",
"O  c #14141B",
"+  c #19161D",
"@  c #111D19",
"#  c #2E161E",
"$  c #1B1A24",
"%  c #1D1D29",
"&  c #181720",
"*  c #211C25",
"=  c #231E2A",
"-  c #281C26",
";  c #3D1D2B",
":  c #381B27",
">  c #370F20",
",  c #1F202E",
"<  c #25222D",
"1  c #2B242E",
"2  c #3A232E",
"3  c #222332",
"4  c #2B2632",
"5  c #2E2834",
"6  c #26293B",
"7  c #2E2B3A",
"8  c #252739",
"9  c #332B35",
"0  c #3B2936",
"q  c #342D3B",
"w  c #3C2D3A",
"e  c #3A2534",
"r  c #293331",
"t  c #3B323E",
"y  c #37333D",
"u  c #471B2C",
"i  c #4B1D31",
"p  c #571932",
"a  c #56192F",
"s  c #671835",
"d  c #771A34",
"f  c #45212E",
"g  c #432D3B",
"h  c #4B2B3C",
"j  c #492335",
"k  c #56293A",
"l  c #48353D",
"z  c #65272F",
"x  c #692A34",
"c  c #722C36",
"v  c #762A38",
"b  c #6C323C",
"n  c #77323C",
"m  c #7E232F",
"M  c #315C34",
"N  c #2B693C",
"B  c #55553C",
"V  c #795D30",
"C  c #54713B",
"Z  c #61763E",
"A  c #2C2E42",
"S  c #3C3443",
"D  c #383547",
"F  c #4A2E41",
"G  c #572D41",
"H  c #433544",
"J  c #4E3544",
"K  c #433A45",
"L  c #4B3A45",
"P  c #453B4B",
"I  c #4B3D4C",
"U  c #4A3549",
"Y  c #533545",
"T  c #553C4A",
"R  c #5A3C4D",
"E  c #543748",
"W  c #493E50",
"Q  c #793548",
"!  c #6C3147",
"~  c #3B5144",
"^  c #0E6848",
"/  c #197A48",
"(  c #2E6C48",
")  c #4A4448",
"_  c #56434D",
"`  c #4E4151",
"'  c #534454",
"]  c #5D4452",
"[  c #5B4A53",
"{  c #554A55",
"}  c #525551",
"|  c #624554",
" . c #66465A",
".. c #6A4E5E",
"X. c #674A58",
"o. c #66545B",
"O. c #75535B",
"+. c #634644",
"@. c #4F6C4B",
"#. c #68724A",
"$. c #696A4C",
"%. c #6D5C63",
"&. c #6D5461",
"*. c #735462",
"=. c #725A64",
"-. c #795C6A",
";. c #7A5764",
":. c #6B6365",
">. c #7C646C",
",. c #75646A",
"<. c #7C6770",
"1. c #71736A",
"2. c #97183A",
"3. c #921237",
"4. c #A21F32",
"5. c #882737",
"6. c #972436",
"7. c #82353F",
"8. c #893738",
"9. c #942D33",
"0. c #A22637",
"q. c #AC2830",
"w. c #92743A",
"e. c #962A46",
"r. c #843641",
"t. c #8A3A44",
"y. c #8A3B47",
"u. c #923E4A",
"i. c #963A47",
"p. c #8C354E",
"a. c #C33040",
"s. c #98434E",
"d. c #9B4655",
"f. c #885A5C",
"g. c #81424E",
"h. c #A5424F",
"j. c #A14959",
"k. c #8D5C69",
"l. c #925368",
"z. c #A64E61",
"x. c #AD576C",
"c. c #B15468",
"v. c #816671",
"b. c #836B73",
"n. c #886C76",
"m. c #8B737B",
"M. c #887477",
"N. c #9A7577",
"B. c #89686D",
"V. c #A67A78",
"C. c #C15263",
"Z. c #CC657E",
"A. c #C64B59",
"S. c #49893D",
"D. c #559238",
"F. c #66822B",
"G. c #76BA3E",
"H. c #6BB73F",
"J. c #7BC63E",
"K. c #16834B",
"L. c #238A4B",
"P. c #28924B",
"I. c #35914D",
"U. c #459845",
"Y. c #528D51",
"T. c #648E48",
"R. c #718B5B",
"E. c #65925B",
"W. c #4AA745",
"Q. c #58A843",
"!. c #5DBB43",
"~. c #6AAE41",
"^. c #63A84A",
"/. c #68B441",
"(. c #74B745",
"). c #5E8669",
"_. c #728C75",
"`. c #72B062",
"'. c #67C541",
"]. c #7FC540",
"[. c #89C83B",
"{. c #87D43C",
"}. c #94CE3A",
"|. c #A0DB38",
" X c #AFE536",
".X c #82AD55",
"XX c #83827A",
"oX c #8D8976",
"OX c #947C82",
"+X c #D06983",
"@X c #9E8B8A",
"#X c #9A8486",
"$X c #999488",
"%X c #A28B8E",
"&X c #A4938F",
"*X c #A59591",
"=X c #AA9595",
"-X c #AB9B95",
";X c #A59F94",
":X c #B09D9A",
">X c #ABA39B",
",X c #B3A29D",
"<X c #B5AB9F",
"1X c #B9AAA4",
"2X c #BEB0A6",
"3X c #C2B4AA",
"4X c #C8BAAF",
"5X c #CBBDB1",
"6X c #CEC3B4",
"7X c #D1C5B7",
"8X c #D4CBBA",
"9X c #D8CFBD",
"0X c #DAD1BE",
"qX c #DDD4C1",
"wX c #D7D5CF",
"eX c #E0D8C4",
/* pixels */
"                                                                                                                                ",
"                                                                                                                                ",
"                                                                                                                                ",
"                                                                                                                                ",
"                                                                                                                                ",
"                                                                                                                                ",
"                                                                                                                                ",
"                                                                                                                                ",
"                                                                                                                                ",
"                                                                                                                                ",
"                                                                            <                                                   ",
"                                                                              4 9 q w                                           ",
"                                                                      * 9 4 O < K A S y $                                       ",
"                                                                          q S D q & = 4 4                                       ",
"                                                                          = 7 7 = 4 K S + < q q                                 ",
"                                                                        $     O $ P D W 9 S I S < 1 9 =                         ",
"                                                                            1 H S P D P ` ` P ' K _ { ~                         ",
"                                                                            Z @.$.} @.$.} #.Z Z T.( Y.H.I.                      ",
"                                                                          ~.{.{.J.Q.[.[.D.[.^.|.[.H.Q.P.W.U.(.                  ",
"                                                                      Q.U.!.{.J.'.{.J.N M [._.R.(.|. XU.U./ P.                  ",
"                                                                    ( @.C J.H.J.H./.).).T.@.} 1.E.G.S.W.J.K.                    ",
"                                                        M.,.X.    b._._.Y.Q.H.(.Y.(.XXV w.b ) R.Z N ^ Q.G.L.K.                  ",
"                                                    b.2X3X=X1X&X-X,Xv.' l l @.I.$X.X].oXw.B S.B @ ^ P./.H.K.                    ",
"                                                  :.6X9X1X6XqX2XM.{ -.=.] f ( } ,.4 I.`.:.XX)._.r / / P.W.                      ",
"                                                  <.0X5X6XqXqX*X] { , y :.q.8.B U ~ ).>X2XwX>X:.N K.  K.K.'.                    ",
"                                                  I M.M.o.*X#Xo.@X<.%.} X.9.5.F ] %.[ ) D 1.[ P (       K.                      ",
"                                                * = E =.) H T #XqX9X0XqXoXq.5.j [ =...L X . ` *.[                               ",
"                                                : : | OXy ) o.l 1XqXqXqX4Xn 5.m w o.L % O y M.m...                              ",
"                                                u s d 9.v F n i >.3X7X0X8XB.0.q.: . . O t { n.-.                                ",
"                                                & E O.f.N.n.O.E -.n.%X-X<X#XoXf.O.9 < g X.q g                                   ",
"                                                i i h k.N.V.*.k ..>.&X,X*Xb.|     h k G R - g _                                 ",
"                                                i j h v k v k j l   J ,.=.        f k k s s p s p                               ",
"                                                  T <.T U %.U w                   f ] &.b.;.| h u                               ",
"                                                  n.1X .-.4X=.f                   s f s G Q G p ;                               ",
"                                          L *Xb.F @X7Xv.=X8X=._ *X$X                e e i ! p i                                 ",
"                                        + 1 K =.%.#XqX*X6X-Xb.oX3X*.*               R J ] OX .                                  ",
"                                      % q * X 9 5 =.8X7X7X*.>X-X<.1 o o             v.>. .#Xm.Y                                 ",
"                                      % W S $ * u j o.N.M.` ] g < < O o o         w b.OX-.OXOXR                                 ",
"                                  O $ % < q P w i p a 4.5.0.5.a g 5 & $ O o       u R k...m.<.0                                 ",
"                              o o + 5 I I q 5 q w 1 L k h 9.p : < + 8 A $ & o o O a s s s k p p ;                               ",
"                              < 7 % O < S ' ' ' P l *.O.=.' % < 9 D D , , , O $ O + : 0 k s p s                                 ",
"                            O P [ ' I S 5 5 q 5 < G x.s.g.O.U ' P A , , 3 O $ 6 = u 2 g .. .F                                   ",
"                        o O $ 8 S P P ` ' ` P H g d.+Xr.x X.l S 7 , % , O & 8 < b y.m Q n.;.*.R       n 7.                      ",
"                        o O q 4 O 3 4 4 7 9 9 9 b +X+X8.5.f + < 8 6 3 O O % & % k Q p.e.e.e.k.*.b     y.h.c 7.7.y.              ",
"                        o & q q $ + < S I H S 0 x j.d.5.q.f % $ $ & o o o O O % $ L ..*.Q p.l.;.e.t.7.i.d.7.s.s.t.              ",
"                    o O 9 5 3 P ` S 1 < * $ 5 f c j.z.i.0.k q % O O * $ o O $ $ 3 8 5 S W { ..k 3.2.6.u.j.h.7.c                 ",
"                  O O & I ' y 4 9 t q * $ 9 t 5 z g.z.h.5.; q 7 7 5 5 % o o + % % % & & % = < &   e.r.2.u.s.n c                 ",
"                  o + < = S ' ` t % o o $ q P K j Q x.i.0.2 1 * $ O         O $ % 8 8 8 3 3 % X   2.3.5.s.u.7.                  ",
"                O < $ I K 3 1 < = $ O o o o O O + z j.C.q.u                   o O & & % % 3 = O d 5.e.t.r.n                     ",
"                % I < 9 ' ' P q $ O O . o           d.h.6.                    o $ 3 3 3 % % O > 3.3.u.t.z                       ",
"                + P P < 4 5 4 & o o O               x h.a.                    O X O % % & & O # 5.i.t.                          ",
"              * < 1 P ` P 4 O o o O                   c.A.                      . O % 3 8 6 1 b t.r.                            ",
"            o O 4 q 1 < 1 4 $ o                       u.z.                      & 3 $ & O - n r.                                ",
"            o o 9 9 & < y t $ o                         r.c                     O $ % % O :                                     ",
"              9 = q 5 + o O o                                                   1 % 3 3 O                                       ",
"              @X:.q 9 +                                                     R .. .] e t g                                       ",
"            n.6X3X:X-.                                                    J -.<.R R  .m.m.=.]                                   ",
"            1X7X5X,X..                                                    F R E F J E  .v.n.v.=.T 9 J                           ",
"          =X0X0X7X5X%X                                                                  Y ] *. .] ] Y                           ",
"        m.2X5X4X:X;X:X                                                                                                          ",
"        >.m.#X@Xb.M.%X                                                                                                          ",
"                                                                                                                                ",
"                                                                                                                                ",
"                                                                                                                                "
};
