/* XPM */
static char *_754a851983c4356fc7d89ab6ba7f9d8EF3M6Tb6j5PewzsF[] = {
/* columns rows colors chars-per-pixel */
"64 64 160 2 ",
"   c None",
".  c #2E2937",
"X  c #2F2938",
"o  c #302A37",
"O  c #332C39",
"+  c #3A2E3B",
"@  c #3E303D",
"#  c #41313E",
"$  c #3E3A46",
"%  c #3F3B48",
"&  c #463440",
"*  c #4C3642",
"=  c #403B47",
"-  c #4E3943",
";  c #423D49",
":  c #533644",
">  c #543B46",
",  c #593947",
"<  c #5D3B49",
"1  c #633D4B",
"2  c #693F4D",
"3  c #554047",
"4  c #53444E",
"5  c #5C414A",
"6  c #5C4B4E",
"7  c #4D4550",
"8  c #4D4A55",
"9  c #5A4757",
"0  c #514853",
"q  c #5A4A51",
"w  c #51475E",
"e  c #584959",
"r  c #5F5156",
"t  c #65424C",
"y  c #6C434E",
"u  c #6F484F",
"i  c #6F4250",
"p  c #624C55",
"a  c #714550",
"s  c #7E4755",
"d  c #754A52",
"f  c #7C4C55",
"g  c #754D5A",
"h  c #615356",
"j  c #6E5157",
"k  c #615459",
"l  c #6F5658",
"z  c #635A5E",
"x  c #6B5A5B",
"c  c #765D5E",
"v  c #72605F",
"b  c #5A4E62",
"n  c #5E5364",
"m  c #634D60",
"M  c #615263",
"N  c #655968",
"B  c #765762",
"V  c #735B66",
"C  c #735D6A",
"Z  c #665F76",
"A  c #7B6060",
"S  c #7B6866",
"D  c #7E6D69",
"F  c #814E56",
"G  c #864E58",
"H  c #815157",
"J  c #845459",
"K  c #8B545A",
"L  c #845C5D",
"P  c #8C585C",
"I  c #92565D",
"U  c #955B5F",
"Y  c #815A61",
"T  c #965E60",
"R  c #9C5D62",
"E  c #A05F63",
"W  c #846466",
"Q  c #806F6B",
"!  c #896D6B",
"~  c #946161",
"^  c #9E6062",
"/  c #966A66",
"(  c #9A6C67",
")  c #99656A",
"_  c #9B6C6C",
"`  c #81716C",
"'  c #8E716D",
"]  c #92746E",
"[  c #9D716B",
"{  c #9F6E70",
"}  c #947772",
"|  c #957B74",
" . c #A06262",
".. c #A06363",
"X. c #A16363",
"o. c #A46363",
"O. c #A26164",
"+. c #A16364",
"@. c #A36364",
"#. c #A16464",
"$. c #A36464",
"%. c #A56464",
"&. c #A46565",
"*. c #A56565",
"=. c #A56565",
"-. c #A66565",
";. c #A66665",
":. c #A76665",
">. c #A56766",
",. c #A66666",
"<. c #A76666",
"1. c #A66766",
"2. c #A76766",
"3. c #A56565",
"4. c #A86666",
"5. c #A86767",
"6. c #A76867",
"7. c #A66867",
"8. c #A76A68",
"9. c #A66D69",
"0. c #A86A68",
"q. c #A96C69",
"w. c #A96D6A",
"e. c #A96C6A",
"r. c #AB6C6A",
"t. c #AA6C69",
"y. c #A1716B",
"u. c #A0716B",
"i. c #A0736B",
"p. c #A1726C",
"a. c #A0736C",
"s. c #A2736D",
"d. c #A2726C",
"f. c #A0746C",
"g. c #A2746E",
"h. c #A1766E",
"j. c #A0746C",
"k. c #AD736D",
"l. c #AE736E",
"z. c #AE746E",
"x. c #A37573",
"c. c #A37D73",
"v. c #A47977",
"b. c #A37973",
"n. c #AA7D7A",
"m. c #B07971",
"M. c #B37D74",
"N. c #B37E74",
"B. c #99847B",
"V. c #9B827A",
"C. c #A8817C",
"Z. c #A9827C",
"A. c #AA827C",
"S. c #B68277",
"D. c #B78277",
"F. c #B98579",
"G. c #B48D84",
"H. c #BA978A",
"J. c #C19F90",
"K. c #C4A694",
/* pixels */
"                                                                                                                                ",
"                                                                                                                                ",
"                                                                                                                                ",
"                                                                                                                                ",
"                                                                                                                                ",
"                                                                                                                                ",
"                                                                                                                                ",
"                                  7 j ] ] ] ] } B.| } ] } ] ] ] ] ] ] ] ] ] ] | V.} ] ] ' l 0                                   ",
"                                  4 J [ [ i.i.p.f.p.p.i.p.p.9.i.i.i.9.[ p.9.[ g.g.p.i.i.[ L &                                   ",
"                                  = O @ + + + @ + # @ @ @ + O + + + + @ # # + + + + + + + + O                                   ",
"                                  % - * > 1 < 1 - a i < y & o o o o X 1 s 2 < < # : * + @ - O                                   ",
"                                  q ~ a F U s K d R R K R y 1 > 1 i , J E P P K a I G y i ~ >                                   ",
"                                  k ( a K ^ f U d E *.R X.d P a U R f K %.T R P F 4.U J f _ 6                                   ",
"                                  k f.a R X.K U d R %.%.6.f U d ^ %.H K 7.%.*.P F 4.R U d ( 6                                   ",
"                                  k [ a R %.J U d ^ %.%.%.d U P +.5.H K 7.*.4.P s %.%.7.f [ 6                                   ",
"                                  k h.i R %.I T d ^ %.8.6.d U U %.%.H K 7.*.*.P F %.7.e.f [ 6                                   ",
"                                  k f.a R %.#.^ d R %.m.M.d U >.Y %.H K 8.%.8.P F %.w.z.f [ 6                                   ",
"                                  k f.y R %.%.X.d ^ 9.S.N.d U P N T H K 7.%.%.P f 4.w.0.d i.6                                   ",
"                                  k [ e Y %.%.#.d R 6.z.z.f P J J J f K %.7.%.P F %.0.%.f [ 6                                   ",
"                                  k i.Z C o.6.^ d ^ 6.w.0.d d U 4.U t K ,.*.%.P H %.%.4.d [ 6                                   ",
"                                  z [ b B o.%.X.d R %.%.^ u H o. . .u f +.%.%.P F 5.%.%.d [ 6                                   ",
"                                  z c.t U 6.6.^ d ^ %.H l x c B v W x l W ^ 4.P f %.%.7.f [ 6                                   ",
"                                  z c.a ^ %.%.^ d R %.5 ' b.A.A.Z._ A._ ' T e.T F *.%.7.d [ 6                                   ",
"                                  z c.i R %.6.X.d R *.5 W x.{ _ A.) G.) } T l.~ f *.7.%.f [ 6                                   ",
"                                  k b.i R %.7.+.a  .+.5 W b.n._ H.x.K.x.| / S./ f 7.*.*.f _ 6                                   ",
"                                  k h.i R 7.*.+.d R +.t ! n.n.b.G.{ K.A.V.^ F./ F %.*.*.f [ 6                                   ",
"                                  r h.u R %.%.#.d ^ *.i x D D D D S D ` A ~ r.P H 7.%.8.d [ 6                                   ",
"                                  h [ a R 7.%.^ d ^ %.P t # > 5 , 5 - - u %.4.P f %.%.%.f _ 6                                   ",
"                                  r f.a R %.%.#.a ^ %.%.%.g U ;.%.%.H K 8.%.8.P f %.%.%.d [ 6                                   ",
"                                  r f.i R %.%.+.d ^ 6.%.6.d U 6.7.7.H K %.%.%.P F %.6.%.f [ 6                                   ",
"                                  r f.a R 7.7.#.d ^ %.%.o.f U o.*.5.H K 7.%.8.K F %.4.4.d i.6                                   ",
"                                  r f.a R %.7.8.a ^ %.%.6.d U 6.*.4.F K 7.%.7.P H %.U R d [ 6                                   ",
"                                  r f.i R %.0.9.d ^ %.o.%.d U ;.*.*.H P %.*.,.P F T b V d p.6                                   ",
"                                  r f.a R %.0.9.u ^ 6.6.6.f U ;.*.5.F K 7.*.,.P F T 9 N a b.r                                   ",
"                                  r f.a R 7.8.#.d R o.%.o.f U :.*.*.F K ,.*.,.P f 7.g m a f.h                                   ",
"                                  r p.a R %.%.+.d ^ 6.X.6.d U ;.*.4.H K ,.*.*.P F %.g b d b.r                                   ",
"                                  r f.a R 7.%.#.d ^ %.%.;.d U ;.%.7.H K ,.*.,.P f ^ p m a b.h                                   ",
"                                  r [ a R %.%.#.u R %.%.X.f U 0.7.%.F K ,.*.,.P F T b b d p.k                                   ",
"                                  r f.a R %.%.#.d ^ 6.%.6.d U :.7.0.H K ,.*.,.P f #.f K d [ x                                   ",
"                                  k [ a R #.6.^ d ^ %.%.o.f U o.5.l.F K ,.*.,.P F #.d J f [ h                                   ",
"                                  r f.a R %.%.#.d R %.%.%.f U 6.l.D.H P ,.*.,.P s *.g J d [ h                                   ",
"                                  r [ a R %.%.#.d  .%.%.o.g U 6.N.D.H K ,.*.,.P f 5.+.+.f [ 6                                   ",
"                                  r f.i R %.%.^ d ~ 6.%.%.f U ;.l.0.H K ,.*.,.P f *.*.*.d [ 6                                   ",
"                                  r f.e Y %.8.#.d ^ %.%.%.g U ;.w.4.H K ,.*.,.P F *.*.*.f [ 6                                   ",
"                                  r [ Z C #.%.#.d ^ %.%.%.f U %.5.%.H K %.%.,.P F %.*.*.f _ 6                                   ",
"                                  r [ n B %.%.^ u ^ %.%.%.d U 4.%.5.F K 7.%.*.P F %.*.*.d [ 6                                   ",
"                                  r f.t U 6.6.^ d ^ 6.%.%.f U 4.%.7.F K 7.*.4.P f %.%.*.s [ 6                                   ",
"                                  r [ a R %.%.#.d ^ %.o.o.g U *.%.0.H P 7.*.,.P F 7.7.*.f [ 6                                   ",
"                                  r f.a R %.6.^ d ^ #.%.*.d U *.%.4.H K 6.%.%.P f 6.%.%.d [ 6                                   ",
"                                  r f.a R %.%.#.d ^ %.%.*.f T 4.%.%.H K %.%.6.P f ^ %.6.d [ 6                                   ",
"                                  r i.i R  .%.#.d ^ 6.%.4.d U *.%.5.H P 6.%.6.P f U X.%.s ( 6                                   ",
"                                  r _ a I U %.^ d ^ %.%.4.d U *.T #.f K 8.%.%.P f H ^ %.f [ 6                                   ",
"                                  q T i K J 4.+.d ~ #.%.%.f U 4.P ^ H K 4.o.6.P f K ^ +.f ~ 3                                   ",
"                                  6 U u I U %. .d I f U R d T 4.f U H K R o.4.P f d ~ I d P >                                   ",
"                                  4 K a G d E R < < : < 2 : U E d K f K K U  .G s d U G d K -                                   ",
"                                  = # * 1 < a 2 + . . . X o 2 a 1 1 * < , 1 i > : : 1 : * * o                                   ",
"                                  8 % ; 7 % ; 7 ; ; ; ; ; ; ; ; ; ; % ; = ; ; = ; ; = ; % % %                                   ",
"                                                                                                                                ",
"                                                                                                                                ",
"                                                                                                                                ",
"                                                                                                                                ",
"                                                                                                                                ",
"                                                                                                                                ",
"                                                                                                                                "
};
