/* XPM */
static char *_31c78a16b994a57d4c9153c522d6a5dAZye2dhJzZDizrNI[] = {
/* columns rows colors chars-per-pixel */
"64 64 226 2 ",
"   c None",
".  c #150E0D",
"X  c #1D0D0B",
"o  c #13110E",
"O  c #181718",
"+  c #3C190D",
"@  c #281B17",
"#  c #22120E",
"$  c #1E221C",
"%  c #39231B",
"&  c #21241F",
"*  c #143335",
"=  c #1B3C3B",
"-  c #1D2529",
";  c #252929",
":  c #3B2C2A",
">  c #2A2D30",
",  c #263537",
"<  c #383430",
"1  c #471B0B",
"2  c #571F09",
"3  c #54210C",
"4  c #582309",
"5  c #492514",
"6  c #572816",
"7  c #48331E",
"8  c #68270A",
"9  c #772D0B",
"0  c #7C320D",
"q  c #76300D",
"w  c #6A2913",
"e  c #652C16",
"r  c #732E12",
"t  c #6C351D",
"y  c #733213",
"u  c #7D3312",
"i  c #7B381A",
"p  c #423E39",
"a  c #4B3029",
"s  c #65392B",
"d  c #53453C",
"f  c #76422C",
"g  c #7A4935",
"h  c #2B3E41",
"j  c #3A4C4C",
"k  c #374648",
"l  c #27575A",
"z  c #35585B",
"x  c #324C4D",
"c  c #246464",
"v  c #286264",
"b  c #346768",
"n  c #337073",
"m  c #2C5F63",
"M  c #454342",
"N  c #455759",
"B  c #4C4E54",
"V  c #6C584E",
"C  c #755C53",
"Z  c #65675D",
"A  c #4B5E63",
"S  c #47686B",
"D  c #546469",
"F  c #48767A",
"G  c #577B7C",
"H  c #516D74",
"J  c #696D65",
"K  c #757372",
"L  c #6B7778",
"P  c #81320E",
"I  c #823412",
"U  c #833A15",
"Y  c #8D3B14",
"T  c #833C1A",
"R  c #8C3E1C",
"E  c #893511",
"W  c #933D1B",
"Q  c #8C411D",
"!  c #84401C",
"~  c #94421D",
"^  c #9A451A",
"/  c #884527",
"(  c #9D4D2A",
")  c #984825",
"_  c #9E512D",
"`  c #8A4C32",
"'  c #974E33",
"]  c #8D5339",
"[  c #875135",
"{  c #955439",
"}  c #A54C21",
"|  c #A94C22",
" . c #A34D29",
".. c #AD4D29",
"X. c #A4532D",
"o. c #AA542D",
"O. c #B4572C",
"+. c #A45333",
"@. c #AA5532",
"#. c #AC5B36",
"$. c #A45C3C",
"%. c #AC5C3A",
"&. c #A65936",
"*. c #B35C35",
"=. c #B25E3A",
"-. c #B85933",
";. c #A14E31",
":. c #BB622E",
">. c #BD6134",
",. c #B5623D",
"<. c #BC643D",
"1. c #B36036",
"2. c #AC613F",
"3. c #A24D1E",
"4. c #C55F2F",
"5. c #C35E33",
"6. c #C5612E",
"7. c #C46334",
"8. c #C86437",
"9. c #C3653B",
"0. c #C96339",
"q. c #C46A3D",
"w. c #CB6C3D",
"e. c #DE743A",
"r. c #D6743E",
"t. c #D1713F",
"y. c #E0743C",
"u. c #A65F45",
"i. c #9B674E",
"p. c #AD6344",
"a. c #A96649",
"s. c #B56643",
"d. c #BB6644",
"f. c #B76A47",
"g. c #BC6945",
"h. c #BA6749",
"j. c #BB6A49",
"k. c #B3684A",
"l. c #AB6C52",
"z. c #BB7354",
"x. c #BB785B",
"c. c #BB714D",
"v. c #80756D",
"b. c #AC6C51",
"n. c #C26742",
"m. c #C36A44",
"M. c #CB6D45",
"N. c #C56D49",
"B. c #CA6D48",
"V. c #D36E45",
"C. c #D16E48",
"Z. c #C67145",
"A. c #CC724A",
"S. c #CA734A",
"D. c #D57244",
"F. c #D57349",
"G. c #DB7747",
"H. c #C87A53",
"J. c #D47F59",
"K. c #E57C4A",
"L. c #EB7D4A",
"P. c #E97C47",
"I. c #F17E49",
"U. c #3E807F",
"Y. c #88817C",
"T. c #EB814D",
"R. c #E5804B",
"E. c #F1814B",
"W. c #ED8556",
"Q. c #F18A5B",
"!. c #EF8D60",
"~. c #487E83",
"^. c #5A7C82",
"/. c #617985",
"(. c #3A8184",
"). c #488689",
"_. c #548D93",
"`. c #479B9D",
"'. c #58959B",
"]. c #528A8C",
"[. c #67868A",
"{. c #648C94",
"}. c #6C8B94",
"|. c #6B8C96",
" X c #66949A",
".X c #6B949B",
"XX c #689396",
"oX c #72949A",
"OX c #718E94",
"+X c #5C9DA3",
"@X c #5599A4",
"#X c #479EA1",
"$X c #699CA4",
"%X c #669BA2",
"&X c #56A6A9",
"*X c #5DADB3",
"=X c #55ADB1",
"-X c #5CB1B5",
";X c #5CBABE",
":X c #58B5BB",
">X c #4DAFB0",
",X c #63A6AB",
"<X c #65ACB3",
"1X c #68ACB5",
"2X c #62B1B4",
"3X c #64B3BB",
"4X c #63BABE",
"5X c #6AB3BB",
"6X c #5ABEC1",
"7X c #64BDC3",
"8X c #69B8C2",
"9X c #5BC2C5",
"0X c #5BC7C9",
"qX c #5CCCCD",
"wX c #57C9C9",
"eX c #5CDADE",
"rX c #5DD3D4",
"tX c #5BCCD1",
"yX c #62C7CA",
"uX c #64D7DA",
"iX c #65CED3",
"pX c #5BDCE1",
"aX c #64DDE2",
"sX c #5EEAEA",
"dX c #64E3E7",
"fX c #DBDCDC",
/* pixels */
"                                                                                                                                ",
"                                                                                                                                ",
"                                                                                                                                ",
"                                                                                                                                ",
"                                                                                                                                ",
"                                                                                                                                ",
"                                                                                                                                ",
"                                                                                                                                ",
"                                                                                                                                ",
"                                                                                                                                ",
"                                                                                                                                ",
"                                                      j j j j j j x k N                                                         ",
"                                            G b b n >X>X&X&X&X&X&X>X>X:X).b b b                                                 ",
"                                    = v `.`.&X-X*X5X7XiXyX,X$X,X%X3XuX9X4X-X3X*X`.#Xn = x                                       ",
"                            z U.).'.-X:XiXiX<X X{.{.{._.F N N N N S ).{.{.{. X,XyXrX;X-X&X).).b                                 ",
"                        A ~.=XrXiX2X X X X].'.F < : < 5 4 4 4 2 4 2 5 : : : z &X_. X.X.X,X0XrX6X_.S                             ",
"                    z ).&X,X$X$X3X;X).k d % 3 6 r 9 8 3.:._ X._ _ _ ) 8 9 0 e 1 1 p k S 3X5X$X$X,X&X_.S                         ",
"                  = 6XiX2X.X.X}.D M 7 8 8 T Q ( <.<.P 6.R.<.d.d.h.j.%.0 w.r.-.) Q w 8 6 p A {..X%X,X0XtXb O                     ",
"              M z :X-X<XyX<XH < 5 8 ~ w.>.<.g.<.M.w.E 4.P.<.<.f.h.h.%.I e.G.B.V.m.>.-.( 8 3 : N @XyX2X2X:X(.<                   ",
"            > b #X5X%X.X{.N # 8 ) I } E.D.Z.d.Z.M.n.P 4.K.<.g.M.N.h.%.0 r.F.h.B.M.D.F.o.P O.r + h }. X X1X=X(.h                 ",
"            z #XiX:X5X$Xj @ 8 Q s.W } T.m.M.m.m.M.h.I 4.K.g.B.V.m.f.#.P y.F.d.d.A.C.B._ Y P.| r 1 , |.5X8X0X;Xb B               ",
"          ; ;XyX&X5X1Xj % 8 Q ,.f.R } T.n.M.M.M.B.d.I 5.K.m.V.V.m.h.@.P y.F.d.f.m.B.N._ Y T.M.) 9 5 , %X3X$X<XaXh B             ",
"          , 6X7XXX|.[.; 1 Y s.d.f.R } T.n.<.M.S.d.,.P 6.K.n.V.V.m.n.%.0 e.D.d.f.d.M.N.+.Q T.M.s.) 2 X H |.|.<XuXx N             ",
"        = :XtX7X;X@X> 5 U o.d.d.f.R } L.m.d.N.m.f.s.I 4.P.M.V.m.B.m.#.0 y.D.d.f.d.V.V.o.Y R.M.f.&.U 6 @ ~.8X6X0XwXv O           ",
"        * pXwX2X3X'.O 2 6.P.<.f.h.W } L.m.d.d.d.h.k.I 5.L.V.m.g.B.B.#.9 e.G.d.f.f.M.V.+.Y L.M.k.j.&.e X F 3X2X3XsXc o           ",
"        * eX-XXXOXL 5 w | O. .X. .Y ~ -. . . . . . .I | -...(  .X. .} P O...(  . .X. .~ Y -.o.) _ ) u 5 Z OXXX&XaXc o           ",
"        * pX0X3X[./ D.t.w.q.Z.H.Z.w.w.M.w.w.H.A.M.w.w.w.w.w.M.H.Z.w.w.M.w.w.w.Z.H.Z.w.w.w.w.M.H.H.q.w.M./ J 5X7XdXc o           ",
"        * eX0X3X[.f D.>.*.1.2.l.s.=.%.=.=.=.a.a.*.*.*.*.*.#.%.l.p.*.*.s.2.&.$.p.l.a.f.$.=.j.p.a.l.$.$.f.` J ,X*XeXc M fX        ",
"        * uX*XXXOXL a 8 9 u 0 0 0 9 0 0 0 0 0 0 q 0 9 0 P 0 0 0 q q 0 i t y ! i r i / y r ` y u i T w 7 K [.[.,XiXl <           ",
"        * pX0X3X5X'.O 2 ..V.#.#.%.U ^ r.9.-.*.%.%.&.0 O.D.-.%.%.#.1.O.U 1.#.f.a.{ $.k./ T J.$.%.f.$.t @ G %X,X4XaXv $           ",
"        * pX0X3X4X+XO 2 5.R.g.%.h./ | E.w.B.m.f.h.d.I 7.I.V.M.m.m.M.7.U w.<.a.a.u.c.H.` T !.d.g.J.p.t @ ^.5X,X=XuXb $           ",
"        * aX*X XoX/.O 2 -.D.C v.C i | L.n.M.B.m.f.<.I 4.K.n.M.m.B.A.1.! q.q.z.z.u.a.x.` T !.n.d.H.f.6 @ H XXoX,XqXl ;           ",
"        * pX0X2X5X'.O 3 >.Z.V Y.V t } W.m.d.M.N.d.d.E 6.K.g.B.V.V.B.@.U q.g.z.c.s.p.x.` ! Q.m.f.N.j.6 @ ^.@X<X4XuXl ;           ",
"        * eXwX4X4X'.O 3 >.G.u.d i.Q } L.d.h.n.B.M.d.I 4.K.<.d.M.V.m.#.I t.m.p.f.g.j.z.' Q Q.M.d.j.,.e @ ^.1X&X2XrXv &           ",
"        * uX*XXXoX/.O 3 >.R.a.d i.T } T.g.f.d.n.B.d.P 7.K.d.g.V.V.B.#.P G.G.f.m.A.m.f.' Q E.D.Z.S.%.t # A oX|.%XaXc o           ",
"        * sX9X<X<X'.o 3 :.R.a.M u.! } T.m.d.f.N.N.w.E 4.K.d.d.B.V.M.%.0 y.D.f.m.V.m.g.( Y I.w.M.M.*.e # H 3X*X6XdXc o           ",
"        * pXtX;X6X+XO 2 :.Z.V K V t | T.<.g.d.h.m.w.E 4.K.d.d.M.C.N.%.P y.D.m.V.V.V.m.( Y I.M.M.A.,.w X F 8X6X6XdXc o           ",
"        * pX-X X.X/.O 2 :.Z.V v.V t | T.q.d.g.h.m.M.E 4.K.<.d.N.N.n.@.P e.D.q.V.M.V.B.( Y L.M.m.m.%.w X A $X|.%XdXc o           ",
"        * pX9X<X1X'.O 2 >.K.s.u.a.~ } T.9.d.f.h.d.M.E 4.K.d.f.f.h.h.@.0 e.K.M.B.d.V.m._ Q P.B.d.g.%.w X H 1X1X6XdXc o           ",
"        * pXtX7X7X@XO 2 >.K.d.g.j.Q } T.m.g.d.f.m.C.E 5.L.d.d.f.d.h.%.0 y.P.M.m.d.S.S.+.Y E.M.f.g.#.w X ~.7X6X6XsXc o           ",
"        * uX*X.X|.L % 8 | >.+.+.&.Y ^ 9.+.@. .@.#.X.I ..5.;.+.+.+.+.( 0 -.5.-.%.+.+.@.) E 7.@.+.+.( w 1 D oX.X%XdXv O           ",
"        * eX6X<X[.` q.8.8.9.q.S.9.0.9.0.5.0.m.M.8.8.8.0.0.0.9.N.m.8.0.0.0.9.9.9.N.n.0.5.9.0.0.M.m.0.7.9.[ J ,X-XdXc o           ",
"        * pXqX7X[.U G.M.<.<.f.x.j.9.,.<.<.<.z.z.s.<.<.<.<.<.d.x.z.<.d.d.f.d.,.k.x.k.n.d.<.<.s.z.z.d.d.d./ Z 8X9XsXc o           ",
"        * pX*X.XOXK s r u P u 0 u u u u u 0 I u u u u 0 u u u I u i I u u u 0 P u u P P u I u 0 u P r e Z }.$X+XdXc o           ",
"        * pX6X,X1X_.O 3 ..7...*.+.U W 0.X.X.o.#.+.;.0 | 5.X.@.%.@.&.) 0 -.-.@.-.X.O.@.Q I 7.@.X._ ) 6 X S 1X,X-XdXc o           ",
"        * pXrX6XyX+XO 3 >.K.M.C.M.R | T.N.d.M.B.d.d.I 7.K.m.B.N.B.B.@.0 e.G.d.N.M.B.N._ Y I.M.f.j.%.e X ~.7X7X0XsXc o           ",
"        * aX2X.X$X/.O 3 6.K.h.M.S.~ } T.m.M.m.m.h.d.U 7.K.m.V.m.N.C.=.P y.G.f.n.B.m.g._ Y I.M.f.f.#.e X A $X.X%XdXc o           ",
"        * :X_.^.^.D . 1 o.M.%.%.=.T ~ G.>.=.%.%.%.%.t o.V.9.=.p.=.>.@.9 7.q.%.=.%.%.*./ u D.>.%.%.( 3 X N ^.^.].;Xv .           ",
"          j > > > ; O ; s ] ` [ [ a a { { ` ` i.i.g : s { { ] ] { { s : g ] ] ] ] ] ] s a ] [ [ ] f % O ; > > > k               ",
"                                                                                                                                ",
"                                                                                                                                ",
"                                                                                                                                ",
"                                                                                                                                ",
"                                                                                                                                ",
"                                                                                                                                ",
"                                                                                                                                ",
"                                                                                                                                ",
"                                                                                                                                ",
"                                                                                                                                ",
"                                                                                                                                ",
"                                                                                                                                ",
"                                                                                                                                ",
"                                                                                                                                ",
"                                                                                                                                "
};
