/* XPM */
static char *df588cd0a12e4fe0adff1c23d51bd268sKqNI89YGxmPb4QD[] = {
/* columns rows colors chars-per-pixel */
"64 64 155 2 ",
"   c #2D6302",
".  c #2B6B00",
"X  c #336501",
"o  c #356C01",
"O  c #3B6D02",
"+  c #336709",
"@  c #366D0A",
"#  c #3B6D09",
"$  c #367201",
"%  c #3C7302",
"&  c #3E7A02",
"*  c #3D730A",
"=  c #3F7908",
"-  c #376C14",
";  c #426D02",
":  c #4B6F05",
">  c #427502",
",  c #4A7602",
"<  c #447B03",
"1  c #4A7D03",
"2  c #43760A",
"3  c #4B7509",
"4  c #447B0A",
"5  c #4B7D0A",
"6  c #517C04",
"7  c #557709",
"8  c #527D0B",
"9  c #587F08",
"0  c #477610",
"q  c #4D7512",
"w  c #457C11",
"e  c #4C7D11",
"r  c #527C11",
"t  c #3E8001",
"y  c #458202",
"u  c #4B8303",
"i  c #468802",
"p  c #4D8A02",
"a  c #478109",
"s  c #4C830A",
"d  c #4E8A0A",
"f  c #528404",
"g  c #598405",
"h  c #538B03",
"j  c #5A8D04",
"k  c #52850B",
"l  c #5B850C",
"z  c #548B0B",
"x  c #5B8B0B",
"c  c #559203",
"v  c #599001",
"b  c #599300",
"n  c #589303",
"m  c #589401",
"M  c #5A9402",
"N  c #5B9503",
"B  c #589603",
"V  c #5A9603",
"C  c #5D9403",
"Z  c #599205",
"A  c #589305",
"S  c #589007",
"D  c #599207",
"F  c #5A9306",
"G  c #599404",
"H  c #5B9405",
"J  c #5A9505",
"K  c #599704",
"L  c #5B9704",
"P  c #599406",
"I  c #5C9707",
"U  c #5A9204",
"Y  c #5B9A01",
"T  c #599A02",
"R  c #5D9802",
"E  c #5D9903",
"W  c #5A9805",
"Q  c #589806",
"!  c #5A9807",
"~  c #5E9A04",
"^  c #5D9906",
"/  c #5F9906",
"(  c #5F9B07",
")  c #5B9D05",
"_  c #5B9D07",
"`  c #5B9906",
"'  c #549108",
"]  c #569008",
"[  c #57900B",
"{  c #559509",
"}  c #57900D",
"|  c #56920C",
" . c #56940D",
".. c #55910B",
"X. c #599108",
"o. c #599309",
"O. c #5A9308",
"+. c #5A9209",
"@. c #58920A",
"#. c #5B9608",
"$. c #59970A",
"%. c #5C9709",
"&. c #5C950A",
"*. c #5D970B",
"=. c #5E900D",
"-. c #58950C",
";. c #5D970D",
":. c #5F970E",
">. c #5B920B",
",. c #5D9808",
"<. c #5F9909",
"1. c #5D9D09",
"2. c #5F9D0A",
"3. c #5F9A0C",
"4. c #5B9A0C",
"5. c #468210",
"6. c #4B8112",
"7. c #548311",
"8. c #5B8112",
"9. c #538F13",
"0. c #558B11",
"q. c #5B8D11",
"w. c #5C851A",
"e. c #5C8A1D",
"r. c #5A9312",
"t. c #599511",
"y. c #5C9512",
"u. c #5C9112",
"i. c #628C0C",
"p. c #619E03",
"a. c #629A05",
"s. c #609A07",
"d. c #609D04",
"f. c #66970A",
"g. c #64970C",
"h. c #62940D",
"j. c #609F08",
"k. c #629C0A",
"l. c #639F0B",
"z. c #629D0D",
"x. c #618F15",
"c. c #639413",
"v. c #699313",
"b. c #619C10",
"n. c #649810",
"m. c #689B18",
"M. c #62A001",
"N. c #66A308",
"B. c #60A00C",
"V. c #62A20E",
"C. c #67A409",
"Z. c #6AA70E",
"A. c #66A411",
"S. c #6BA711",
"D. c #6BA713",
/* pixels */
"a u p h j f j S ^ c v c p c B y a.m 1 u c B.h f h o.h m B p p c p | h s.h h a.p.m Y H K V.Z.U h A.c h ^ c _ B m ^ h c Q T _ V.V.",
"h u ;.u h j h v v h h b.S c K | j p u x h u h j p u p c p p h c c c K m h K m ^ ) Y K v p.Z.K c m h h ,.c c c ) S N.T c p i c _ ",
"u f h h g =.h X.U C U h h h h u h f h S c h ;.h h z r.& ' d ' c c p ..p h K s.V.c c c 3.D.H U c c c U o.c i c c c Q Q c i 9.t._ ",
"m h l > g f.h u X.s.X.u p H h u u u u h u u h U y y p p y i c c { u c B *.h v Y p c c Q v ;.h S U *.U X.i p c u c c c i d { c Q ",
"h h h g g g.h ^ p c h d u h u z h p u p 4 u p c u y y B c p p p u u p h z p p p c { p p y u p u h ;.B ' y ' d i i { p t i Q B p.",
"> h h h f u S c c p p u h h u d d s ..u u u h y u u u c 4.p z p p s ..p p d p u y y p p y | p p u h c p i t y i i a t y c p T N.",
"f 1 u y u h h B i p p u u < p s s p c c c p p d d y p { y & y p 1 < u h p d p c p x B p u  .Q p c c c p y t t t t y u y < u o...",
"u < < y p y u < ' p u u z u u < y ' y s p h y p p y y p p s y u j h.h c u i p y u u S p u ' c S p { i p = $ & t t t d & & 4 < p ",
"y p h p u 1 u =.S y u 1 1 5 < < u h h u x y a d h h c p < p y < 1 u h u p U h f y p h u u c ^ p i u p p t $ t t & $ t y y & & & ",
"c c c S 1 f C h < < u < u u u % < u u h < y & & p S s u p p y 1 s p h p z { u h u u y u j u p o.& & u p d a a y . t y $ % = 5.% ",
"p y z u h u 5 < % < < x p u u < h u U h u i u y u u u p p a u < u y u p ..y y d < u 5 u y u u p 9.y < u p & < < a a t y < & y y ",
"% p y & c u 4 % s s u h p u s u u y p y a u < d c < < y y f s h u d d p y s & < p 6 i.h y y h h h < z c p p u z i p y < y % y & ",
"& < u & p h p u u u p y y h u u p h y d p y < i y = y d p p y u < u < c p i = < & u i.f.c p u g ;.p u y y p S u 1 u < % % 4 y < ",
"% * = y u y u u p y < d u d < h p u d d d & y < y & t d & < i u p u z u u a a u u 1 y f h u u c S u S d i p c U j h f < < < u u ",
"4 y p p u c u h ' & y & & < < p u & p d y i a y y & = d y i p < h u y s < % y u u y & u k k f h h h h h p y h h U j f z < > 5 h ",
"c u p y s u h K & & a a & u < u s y u p y u y < & & y & y y & i 4 < u h p u 1 % @ y p u 1 1 f 5 5 h c u s p h g k h u u < > z x ",
"u u < u u y z y = p 4 p i < & y d p y t u 1 u f u y y 4 > c p i & u f =.h u & % $ < f 5 5 u f f h u h p p u u g c C g 1 % & 1 x ",
"u u < < y p d % < y y & i < y u p p p ' u h h j c S i < h u < a z S f h O.u % & % < u u u 1 u h z.z u p p u < h g h.z < % % g x ",
"a % y 1 < f u u y i t y i s % < d y p p p y u u f u u u =.> % & p h O.g 6 1 e a y & < u h u h q.U U X.k < u u f j g 1 f < > > i.",
"< < 1 u 1 f u u & & d y = & < < d ' i s u u u u a < z h h 5 u c h h h 1 u u 1 < u s 5 u p >.X.j X.m h s a ..f 1 j < f k % > 2 , ",
"c g 8 3 u h u y a a & & = p 1 h p t & s u f u < > u h f h 6.1 p h j z z k 1 < p p < & d h u u u h o.j g y s g h u f < u 1 < < > ",
"< 1 u h C h < = < $ a $ & % a p d < p h m L f > < u 1 1 k y & a z < 1 z z z h u < 1 1 h h p u 5 h h f u 1 a 1 1 < d % 4 % z u 4 ",
"h u h z k < % & & < = = a = y s u d h h h S u x & % < u s & & & 1 5 1 < 0.0.< < o & u u y = 1 5 s p f u 1 a < > 1 < % 1 k s u 0.",
"y & s z z p u % y p $ & $ $ & t < f h h u < y y y 5 s 1 & & = < 1 O h u s u % 4 < 5 u < 4 & y < u z f X.< % < z y 1 > s 5 > 5 > ",
"< u u f u z u < y y y & @ o < < 4 k x.g u U p d u 1 x * % y = i 5 < < u z < > > > a % & 1 o * O u k h u u > 5 h u O 5 u u < > 8 ",
"u p h y h 5 < h u s u & % = < & u y.h j 5 5 % o 5 u < O % y % < u < < < k 5 > < @ $ . 4 % z u > 1 f u u u u u 5 k q.s 1 s u k 5 ",
"u p h X.1 < f u y a u p u % % % 1 k l z * o % & 1 a % % 4 < & a > < 4 < < % 4 2 % o a 4 > > 5 > 1 f s < u x u * > 5 < < 1 5 k q.",
"u z u j < 1 u 5 < s u p u % 4 y k z 5 % = d & % & y 4 % % o % 1 4 & y & % % < % < < & y 5 > > s 1 1 1 < a & % > j 5 , 1 k < < u ",
"u u k k h u < a u u a s < % 4 s 1 1 4 o y < 5.& y a * $ % w a % < < < > 5 1 > % % 4 $ % 2 8 6 k 5 < > u 1 % > s u x 1 3 3 1 u z ",
"h 1 u < % 5 < < u % % 4 % % $ y u < & a < $ < & & & % $   O < 1 < > < 1 f < > u + % % % 5 z x u k 5 1 u < < s u z g 1 k k f z z ",
"h u.u u < 1 < % s < % % & a < y % y y % 1 < u y & $ $ % o @ < z s > 1 u f u 5 % < % a x 1 > 5 f s O < < u u u u 5 3 6 5 > < > s ",
"h j u u y u < * < u $ % y & 4 y < = & a p s 5 % & O * o * @ o < @ < h k 1 u u & % % y u 3 z 1 s k < 0.1 % u < * , , 3 > > 1 5 e ",
"p u u < % > 1 < y y $ & a $ < $ t < s $ 1 s 1 < > > > 1 O o * $ * 1 h f s k < % < < 1 % % < x l > k f f u < 5 o < 5 k u O 4 z 5 ",
"d u k u 1 < 5 s u d 5.$ & 5.& = t s & 4 % u x < > > 5 > > 4 = O < < k k 1 y y % % 5 > < = 5 1 v s ; , k u % o * o % 1 < 4 u < 1 ",
"u z z u 1 > 1 1 k u = $ & t & & = $ % s & < 5 % < % > O 2 % % 5 5 5 5 > % = % @ % > 1 k % O > < 1 5 e O % 4 % @ * O < z % 4 =.h ",
"p h U f f k 5 s ; < = = t . a a $ & < % d z > % > > 1 2 > # O * 2 z j =.< $ < $ O 5 1 5 < 5 z f 1 k 5 < z y < a > 4 < z 5 % u h ",
"< a u u h.g.h.C g h u s y y p y t y } d u u g u s > > > X o 2 X 2 h j z % % < a s a < 5 > 1 1 3 u k 1 < < < a y < o @ > u < < < ",
"p d u u 1 h m.h 5 u < a % = y 4 a t & y y 1 5 % > * o 2 # o O o $ u % 4 * 2 2 5 p = 4 k k 5 5 5 0.u , > @ * a p 1 > @ X 1 u u < ",
"y y < x 5 1 z z u u 1 u y < % & $ $ $ & & s 5 * O 4 > % % % O 4 < 1 < e < 1 < < % % * , x 1 1 g k 1 f h y y u u 4 u > > 1 1 > 1 ",
"u s < 1 4 a % u s u 5 > 5 * % 4 < & & = < 1 1 u > < u < < o o * 2 k < % 4 & % < @ o 5 6 , u u l , k 1 5 5 < < k u < s > > , > 4 ",
"u < > u 1 % 5 & 5 > < z O # > < 4 > = % y < O 4 > u h.j a < % o 2 5 % 4 > > 1 & * o * s f 1 > 5 1 s 5 < 1 < % z u h u 5 > 6 1 < ",
"s z < 5 u < % & = % $ % X % > * X % % & s z < 5 > 1 u u 5 < & O < 1 < & > 5 < % % 5 5 k 1 f > 5 g f < u a y % u < < y 4 1 k 1 < ",
"< y < < % 4 y $ o 4 . O 5 k < # = o a < 1 u 1 > 5 z *.6 < < o O * z < % 5 O * % o e z 1 1 r s > a 4 > < z u s 5 % < s z z 1 u u ",
"u p < O 1 1 1 % >   @ 4 % u u > $ & 4 2 1 f > 1 z < g f < 4 5 * X o % < # > % % > O k j g O s j % % & 1 u < e.e % % % % > % 4 > ",
"k u u 1 1 > < # O @ @ < 5 > , 1 $ < 4 > 1 g s k u , u O.x 1 < ; O 3 % < 5 > > 5 > % > r 1 f k 5 u s > 5 z > 1 w.> < 5 2 * a > > ",
"h f 1 9 > > z > O % 5 < 1 3 u f 1 4 s > 1 6 q.u k k 1 g.z 1 1 r 4 3 5 % , > 2 8 > % O 4 u k 5 a x i.5 > < u h u 4 u > O z h h 1 ",
"h u O O ; 5 3 < < 5 u & > , g 5 > a < < a x 1 1 1 > k h.1 k 8 ; O 3 # o 3 3 8 w.1 > k p p < 3 =.j 1 1 O * % a u O 6 > % < & x q.",
"< O > 1 u > % % k s u % 5 5 u u 1 1 < % u 1 > 1 < ; 3 1 1 3 7 , 1 O # > 3 g g 6 f < y u % & % w.0 < 4 o @ > 3 3 < 1 s d $ 4 2 > ",
"< @ u > o 5 h 3 > % y u < g f 3 u < < & u u 1 1 2 5 u s < # > , l 9 : > 5 z g 6 6.y 1 < u < > r 1 > 5 < < 1 O 1 k > 4 2 < % > > ",
"% % u > e 5 u 1 u 1 < z h h h q.c y 4 s p | s % 6 g 1 < 5 4 O ; > , 7 5 3 < f z u w a j g < 5 3 l , > 0.< % 5 < < % o O < % @ = ",
"1 O u > s > 1 5 p % w w 1 z 1 < x y $ u % $ = 4 , 5 < u % s & O O ; 8 8 z l i.u u < d K f 4 a 8 l 9 > a < < < < u 5 > 1 > , s O ",
"< 1 , 2 > < h 1 u u % < x < s u < s < * 1 z % % 6 5 4 4 y = % o * 8 8 9 1 g j f > u u h 4 k g # k > 1 s a % < 3 , c.6 3 g z 6 < ",
"% u 6 2 5 > O h d < < k y 1 a c < < > e 8 k z > > > = $ & < & < < 1 , , 6 6 9 g & = p u % s > > u u 1 k 5 & % 5 % p > , 6 1 < > ",
"@ 5 1 O > > > , = 1 u < % w < u < < 6 g 7 3 8 < % = = & O a < u s f h f q.g i.6 < 4 u y > O % 6.5 1 c.1 s < d % < 5 O O 5 g O * ",
"5 % > > , k > # 4 < > 5 . = 5 u s % ; 8.l 7 7.5 4 & = = 5.4 w z u f l 1 u z v.l 4 % 5 < 1 s 1 w % s z 1 s d < s 5 1 > # > f # O ",
"< h v 1 f u > < s s 4 0   o u 1 O O 3 7 7 6 g u % 4 y < o o u % s f f 5 1 g h.1 = < 5 4 5 < 1 2 . u k 1 s y u k < y & 4 , < < O ",
"4 s h 1 3 , 2 5 < % # o   0 % 1 &   $ O 3 l g u u w % * + < d % h j 1 5 5 k h., > u , # 2 O > < > % 4 u g q.l 1 & o # < O X 2 O ",
"< O f < # > O O % 2 O > 4 4 % < a % = & > 3 g 1 p y & & o 1 u < h x > 1 1 , g x 1 > # > O 2 % 1 > < 5 5 s x j 1 < % < % O ; , > ",
"> 2 > > 1 < O % e O * 2 o & 4 < . $ & = 2 5 5 % 1 o $ < % 4 O > 6 g k 1 1 z u u 8 k < % * > 8 6 x 6 1 % % 5 z 6 % < u < * 1 < > ",
"O % % < < 5 * d 5 O O O O 4 < < - $ * o % > > < *   % 4 * 2 O < 5 f z z l q.z 5 5 s 7.> > > < , , 6 5 O * k 5 > O > > > % < k u ",
"o & = s 1 < O u > 5 > 2 2 * % o o u X % u % u 1 1 > 5 u > > % u a s k f z , k 5 < > 5 k O > > < 1 > 7.8 , 5 5 % 1 3 > < < > z h ",
"% = $ % 5 > 5 7.X , 3 , 5 % $ @ a z % 2 u < O > , 5 4 O   X * = % 5 q.< 9 3 7 , g 5 ; 8 , 3 < 5 u e 3 < i.> > s k > > > < o < < ",
"4 % a & 2 > > X # X > , u 5 % o & a < 5 < * @ # 1 u u * # % > 1 g y.i.5 k , 7 7 l 6 k 1 5 u % * 4 2 > % k 1 < d g u 5 < < < 5 z ",
"O p y & % X , 3 O ; O 1 k % % = = O 1 f y % @ > q % < % 4 > 1 k h.z c.k 5 6 5 l 9 9 k u > s 5 % > > o > O k u f h f < > < u < s "
};
