/* XPM */
static char *result[] = {
/* columns rows colors chars-per-pixel */
"25 25 66 1 ",
"  c #B1B1B1",
". c #B2B2B2",
"X c gray70",
"o c #B4B4B4",
"O c gray71",
"+ c #B6B6B6",
"@ c #B7B7B7",
"# c gray72",
"$ c gray73",
"% c #BCBCBC",
"& c gray74",
"* c gray",
"= c gray75",
"- c #C1C1C1",
"; c gray76",
": c #C3C3C3",
"> c #C5C5C5",
", c #C6C6C6",
"< c gray79",
"1 c gray80",
"2 c #CDCDCD",
"3 c gray81",
"4 c #D0D0D0",
"5 c gray82",
"6 c LightGray",
"7 c gray83",
"8 c #D5D5D5",
"9 c #D7D7D7",
"0 c #D8D8D8",
"q c gray85",
"w c gray86",
"e c gainsboro",
"r c #DDDDDD",
"t c gray87",
"y c #DFDFDF",
"u c gray88",
"i c #E2E2E2",
"p c gray89",
"a c #E4E4E4",
"s c gray90",
"d c #E6E6E6",
"f c #E7E7E7",
"g c gray91",
"h c #E9E9E9",
"j c #EAEAEA",
"k c gray92",
"l c #ECECEC",
"z c gray93",
"x c #EEEEEE",
"c c #EFEFEF",
"v c gray94",
"b c #F1F1F1",
"n c gray95",
"m c #F3F3F3",
"M c #F4F4F4",
"N c gray96",
"B c #F6F6F6",
"V c gray97",
"C c #F8F8F8",
"Z c #F9F9F9",
"A c gray98",
"S c #FBFBFB",
"D c gray99",
"F c #FDFDFD",
"G c #FEFEFE",
"H c white",
/* pixels */
"XX+rknjffxvh1@ygfvuo.&aff",
"#@$wgbkgfxbh3%ughbi##;sgf",
"fpe>1hBBgMAhlbgvSFMyknvkf",
"mcd=,fCAgBDjmFkbHHZjCFMka",
"DSZvxcSSvZGADHSCNFGABBDq&",
"HHHHSnSDnAHHHHHAnDHHBMH9O",
"BAHHGSGGSGGVAHHFSGHHBMGxu",
"nCHHHHHHHHFmCHHHHHHHBMGCm",
"ADHHHHHHHHGADHHHHHHHDSHDA",
"HHHHHHHHHHHHHHHHHHHHHHHHH",
"bVHHHHHHHHHHHHHHHHHHHHHSV",
"fbHHHHHHHHHHHHHHHHHHHHHCn",
"gcZGHHHHHHHHHHHHHHHHHHHDZ",
"flmDHHHHHHHHHHHHHHHHHHHHH",
"bMCGHHHHHHHHHHHHHHHHSAHHH",
"HHHHHHHHHHHHHHHHHHHHBNGHH",
"HHHSDHHHHHHHHHHHHSSHAZHci",
"HHGMBHHHHHHHHHHHGNNHHHH7 ",
"bBSVBVFGSFHHHHDFHZZHDDHy>",
"-0MFVgCDmAHHHGMVHHHHBMGCn",
" 2bDCkVBanFHDZBBZGAlnVHci",
" <hASbma@wBGmjDBhSj@sHH8o",
"%5lVCMns:0kFxtxclVg*gFn7%",
"pxDlvFxlZ4-Aw+@6DxfpBb%4a",
"fnGkcGzlG4*Zq..5GzffCv@4g"
};
