/* XPM */
static char *result[] = {
/* columns rows colors chars-per-pixel */
"64 25 68 1 ",
"  c #B1B1B1",
". c #B2B2B2",
"X c gray70",
"o c #B4B4B4",
"O c gray71",
"+ c #B6B6B6",
"@ c gray72",
"# c #B9B9B9",
"$ c gray73",
"% c #BBBBBB",
"& c #BCBCBC",
"* c gray74",
"= c gray",
"- c gray75",
"; c #C0C0C0",
": c #C1C1C1",
"> c gray76",
", c #C3C3C3",
"< c gray77",
"1 c #C5C5C5",
"2 c #C6C6C6",
"3 c gray78",
"4 c #C8C8C8",
"5 c gray79",
"6 c #CDCDCD",
"7 c #CECECE",
"8 c gray81",
"9 c gray83",
"0 c #D5D5D5",
"q c #D8D8D8",
"w c #DADADA",
"e c gray86",
"r c #DDDDDD",
"t c gray87",
"y c #DFDFDF",
"u c gray88",
"i c #E1E1E1",
"p c #E2E2E2",
"a c gray89",
"s c #E4E4E4",
"d c gray90",
"f c #E6E6E6",
"g c #E7E7E7",
"h c gray91",
"j c #E9E9E9",
"k c #EAEAEA",
"l c gray92",
"z c #ECECEC",
"x c gray93",
"c c #EEEEEE",
"v c #EFEFEF",
"b c gray94",
"n c #F1F1F1",
"m c gray95",
"M c #F3F3F3",
"N c #F4F4F4",
"B c gray96",
"V c #F6F6F6",
"C c gray97",
"Z c #F8F8F8",
"A c #F9F9F9",
"S c gray98",
"D c #FBFBFB",
"F c gray99",
"G c #FDFDFD",
"H c #FEFEFE",
"J c white",
"K c None",
/* pixels */
".......#pghjnmmnhgggggghnmmbhggu@..@igggggghbmMk#......@uggggggg",
"====&&&;wuyucbbbllllggghMNNmhggp<;;<pgghlllzMNBx>&&&-;;1ajjjgggg",
"xxxzsaar%&@&ihhkSGGSkggkDHHDjggjCAACjgglSGGGHHHDfaadVAAZmnnbjhhh",
"BBBBcxxh5<15djjzFJJFzkkzFJJGcxxvGJJGvxxcSFFFJJJGvxxvSFFDVBBmtwee",
"JJJJHHHHFFFSMnnMGJJGmnnMGJJJHHHHJJJJHHHFNmmMGJJJHHHFMMMNGHHB*+oo",
"DDDFHJJJJJJHCVVCHJJHCVVCHJJHFDDFHJJJJJJHCVVCHJJJJJJGMmmNGJJZ7632",
"mmmNGJJJJJJJJJJJJJJJJJJJJJJGNmmNGJJJJJJJJJJJJJJJJJJGMmmNGJJGMnnn",
"CCCZHJJJJJJJJJJJJJJJJJJJJJJHZCCZHJJJJJJJJJJJJJJJJJJHZCCZHJJHZCCC",
"JJJJJJJJJJJJJJJJJJJJJJJJJJJJJJJJJJJJJJJJJJJJJJJJJJJJJJJJJJJJJJJJ",
"NNNBHJJJJJJJJJJJJJJJJJJJJJJJJJJJJJJJJJJJJJJJJJJJJJJJJJJJJJJHSAAA",
"gggkFJJJJJJJJJJJJJJJJJJJJJJJJJJJJJJJJJJJJJJJJJJJJJJJJJJJJJJGNmmm",
"ggjjVZZZHJJJJJJJJJJJJJJJJJJJJJJJJJJJJJJJJJJJJJJJJJJJJJJJJJJHSSAA",
"ggghnmmMGJJJJJJJJJJJJJJJJJJJJJJJJJJJJJJJJJJJJJJJJJJJJJJJJJJJJJJJ",
"VVVVSSSDHJJJJJJJJJJJJJJJJJJJJJJJJJJJJJJJJJJJJJJJJJJHCCCZHJJJJJJJ",
"JJJJJJJJJJJJJJJJJJJJJJJJJJJJJJJJJJJJJJJJJJJJJJJJJJJGMMMNGJJJHGGG",
"JJJJJJJHCVVCHJJJJJJJJJJJJJJJJJJJJJJJJJJJJJJHCVVCHJJHDDDFHJJZ8455",
"GGGGHHHFNmmNFHHHJJJJHHHHJJJJJJJJJJJJHHHHJJJGBMMNGJJJJJJJJJJB=oOO",
"099qNVBBDFFSczzcGJJHVBBCHJJJJJJJJJJHVBBVHJJJGGFGJJJHVBBVGJJDhfss",
"ooo%knnmGJJFlhhkDHHDczzvDHHHJJJJGGGDNMMNDGGGJJJHAZZCMMMBGJJFbxxx",
"...#ijjlFJJGmbbnNNNx,&&<cBBVGJJGcllxDHHDxkkxGJJC2==2BGGGJJJC1&**",
"$$$-skkzSFFSBNNMnbbk,&&>fkjzFJJDsuupmBBMlkkzAFFM:@@:CJJHVBBx;@##",
"iiidAFFSzkkzDHHDlhhkBCCv:##>CJJC:@##%%$,BFFSzkkhpiidDJJV,$%-riii",
"gggkFJJFkggkFJJFkggkFJJB&  &VJJV&.XX.. %VJJFkggggggkFJJB% .#iggg",
"KKKKKKKKKKKKKKKKKKKKKKKKKKKKKKKKKKKKKKKKKKKKKKKKKKKKKKKKKKKKKKKK",
"KKKKKKKKKKKKKKKKKKKKKKKKKKKKKKKKKKKKKKKKKKKKKKKKKKKKKKKKKKKKKKKK"
};
