/* XPM */
static char *_aa115fba1f44447c5bee0f4cb75f5f53rCzqu553shRRRLM[] = {
/* columns rows colors chars-per-pixel */
"25 25 21 1 ",
"  c #B1B1B1",
". c gray70",
"X c #B7B7B7",
"o c gray72",
"O c #BCBCBC",
"+ c #C1C1C1",
"@ c #C6C6C6",
"# c gray80",
"$ c #CDCDCD",
"% c gray82",
"& c #D7D7D7",
"* c gray86",
"= c gainsboro",
"- c gray89",
"; c gray90",
": c #EAEAEA",
"> c #EFEFEF",
", c #F1F1F1",
"< c #F4F4F4",
"1 c #FBFBFB",
"2 c #FDFDFD",
/* pixels */
"..X=:,:;:>>:$o=:;,-..O;;:",
"oXo*:,::;>,:$o=::,-Xo+;;;",
";-=@$:<<;<1:,,:,22<=:,,::",
"<>;+@;11:<2:,2:,221:12,>-",
"211,>>11,1222221<2221<1*O",
"22221,22,1222221,222<<2&X",
"12222222122<22222222<<2>=",
",<222222222,12222222<<21<",
"1222222222222222222222221",
"2222222222222222222222222",
",12222222222222222222221,",
";,2222222222222222222222,",
":>12222222222222222222222",
";>,1222222222222222222222",
",<12222222222222222221222",
"22222222222222222222<,222",
"22222222222222222222212,-",
"222<<222222222222<<2222&.",
",<2<<<22222222222112222-@",
"+*<21:12,22222<12222<<2<,",
".#,1<:1<;,22111<121>,12,-",
" $:12,,;X*<2,:2<;1:o;22&X",
"X%><1,,;+&:2>=>>><:O:2,&O",
"->2:>2>>1%+1*Xo%2>;-<,O$;",
";,2>>2>:2%o2*..$2>;;1>X%;"
};
