/* XPM */
static char *f6b9d91032254696a035809874befbe0IfvDQtDtWFEfeGW9[] = {
/* columns rows colors chars-per-pixel */
"64 64 206 2 ",
"   c #04070E",
".  c #07080D",
"X  c #0B0A0E",
"o  c #130A0F",
"O  c #040710",
"+  c #050811",
"@  c #0C0B13",
"#  c #120D14",
"$  c #1C0C12",
"%  c #160E18",
"&  c #0E1017",
"*  c #0F1118",
"=  c #151215",
"-  c #1B1316",
";  c #1D1817",
":  c #14151C",
">  c #1C1519",
",  c #17181F",
"<  c #1D181B",
"1  c #230E14",
"2  c #280F14",
"3  c #241216",
"4  c #2B1316",
"5  c #2C1817",
"6  c #22151A",
"7  c #2D161A",
"8  c #241C1D",
"9  c #2C1C1C",
"0  c #331516",
"q  c #3A1717",
"w  c #3F1917",
"e  c #321D1C",
"r  c #3A1E1B",
"t  c #1F201F",
"y  c #24211F",
"u  c #2A211F",
"i  c #36201E",
"p  c #3B211E",
"a  c #1F1721",
"s  c #1C1C23",
"d  c #2D1722",
"f  c #251E21",
"g  c #291E21",
"h  c #331C24",
"j  c #3A1D29",
"k  c #1F2025",
"l  c #232125",
"z  c #2A2121",
"x  c #262821",
"c  c #2C2E23",
"v  c #24242A",
"b  c #2C252A",
"n  c #2F282D",
"m  c #322423",
"M  c #3B2221",
"N  c #322925",
"B  c #3B2628",
"V  c #332B2C",
"C  c #3A2D2B",
"Z  c #3A3525",
"A  c #3E322C",
"S  c #362830",
"D  c #3D2D34",
"F  c #3D3231",
"G  c #431D1A",
"H  c #4A1E19",
"J  c #41221E",
"K  c #44221C",
"L  c #4C251D",
"P  c #4E251D",
"I  c #52261D",
"U  c #53261D",
"Y  c #56281F",
"T  c #5C2A1F",
"R  c #622C1F",
"E  c #6A2D1F",
"W  c #6C2D1F",
"Q  c #702F1F",
"!  c #71301F",
"~  c #432622",
"^  c #4A2621",
"/  c #442B26",
"(  c #4C2B24",
")  c #402129",
"_  c #472C28",
"`  c #4C2D2A",
"'  c #552920",
"]  c #502B26",
"[  c #5B2A21",
"{  c #42352E",
"}  c #4A362E",
"|  c #443A2D",
" . c #573329",
".. c #472131",
"X. c #502636",
"o. c #512A38",
"O. c #59283C",
"+. c #433433",
"@. c #4E3537",
"#. c #463931",
"$. c #4B3C33",
"%. c #4A3B3A",
"&. c #533232",
"*. c #563A3A",
"=. c #642D20",
"-. c #6B2F21",
";. c #6D2E21",
":. c #712F20",
">. c #6E3021",
",. c #653428",
"<. c #723121",
"1. c #743221",
"2. c #743222",
"3. c #763322",
"4. c #773322",
"5. c #783323",
"6. c #61383A",
"7. c #4A442B",
"8. c #48472D",
"9. c #59482C",
"0. c #4D4438",
"q. c #55453C",
"w. c #545131",
"e. c #5A5634",
"r. c #5E5738",
"t. c #654C3A",
"y. c #625E37",
"u. c #635D3C",
"i. c #4E3B42",
"p. c #573B46",
"a. c #692E44",
"s. c #6C3345",
"d. c #643843",
"f. c #534342",
"g. c #5B4746",
"h. c #5A4A45",
"j. c #68454B",
"k. c #654B4C",
"l. c #6A4D4E",
"z. c #764746",
"x. c #65564A",
"c. c #75544E",
"v. c #664B53",
"b. c #6C4F50",
"n. c #6B4F59",
"m. c #695856",
"M. c #725451",
"N. c #755958",
"B. c #6C6441",
"V. c #6F6842",
"C. c #706747",
"Z. c #736B44",
"A. c #726748",
"S. c #787148",
"D. c #77625A",
"F. c #7A655A",
"G. c #7C695C",
"H. c #775D62",
"J. c #6D6060",
"K. c #7A6661",
"L. c #854A4D",
"P. c #8B504D",
"I. c #8A4B52",
"U. c #925552",
"Y. c #9C5959",
"T. c #806F5E",
"R. c #A7615D",
"E. c #865965",
"W. c #955E72",
"Q. c #846C62",
"!. c #866B6B",
"~. c #95676A",
"^. c #867164",
"/. c #887569",
"(. c #8C7469",
"). c #8F786A",
"_. c #987669",
"`. c #927B6D",
"'. c #8D6C70",
"]. c #9E6D79",
"[. c #8C7C77",
"{. c #947D73",
"}. c #9A7D71",
"|. c #97757C",
" X c #A56663",
".X c #AC6561",
"XX c #B66B66",
"oX c #AA726D",
"OX c #AB7D77",
"+X c #9C8373",
"@X c #97847C",
"#X c #A08776",
"$X c #A28977",
"%X c #A8827B",
"&X c #A58B7A",
"*X c #A88E7C",
"=X c #AD927E",
"-X c #9D8684",
";X c #A58D84",
":X c #B18F87",
">X c #AB9486",
",X c #B39C94",
"<X c #B89E95",
"1X c #BBA49B",
"2X c #BFA99F",
"3X c #C1ABA1",
/* pixels */
". . . .   + & X + & & & + X & & & & & & & & & = : & * : * * : * : : : : * : * : : : : : * : : : t : : : : : , , : , * s : s : : ",
". . . X @ @ + & X & + & & & & & @ & & & * * : @ @ : & & = : * : * * : * : : : : : : : : : : : : * : , : : , , : : , s * : : s : ",
"X . X . @ & @ @ + X & + & & + & & & & = * : = : @ , : : : : l z l : : : : : : : : : : : : : : : : , , : , , , , s : : s , : : s ",
"X X X . 8 z u 6 y 5 5 5 5 5 i u e r i p p J p J ~ p L L L ^ N N C 8 = = : : : : : : : : : , , , , : , , : , , : : s s : , s : : ",
"X X X . z 9 1 H E W W R W ! ! ! -.! R 2.5.2.2.2.2.>.>.5.2.4.=.B V > @ # & & = : = : : : : , , , , : = , , < ; < < < , a , s : : ",
". X X . y 9 1 H Q Q Q E ! ! ! ! Q >.-.! 2.5.2.4.<.! >.5.4.<.4.[ ~ $ X X @ @ X # 3 5 u 5 9 9 e e i u i p p p p K p p r 9 s : : s ",
". X . . = 3 2 H W W 4.W ! 5.! ! 2.2.<.2.5.2.4.<.>.<.4.4.4.>.5.2.=.$ @ # @ X @ # p U K J r 5 9 5 u J K I I I I I U I L r s , s , ",
"X X X X # 1 1 H W W ! ! ! ! ! ! 2.>.>.2.2.5.5.<.;.4.<.2.<.>.4.<.=.- X # @ # @ o r r 6 > ; ; - = ; ; 6 5 i K I I I L K h s s : s ",
"X X X X o 2 1 w W ;.:.W Q 4.Q 4.4.E W 5.4.! 5.4.<.<.2.5.5.2.4.2.=.- # X # X o # - - - = @ = = ; ; ; ; < ; 5 p I U I L r < s : s ",
"X X X @ o 1 2 G :.E W W Q :.Q 5.<.>.;.2.>.>.2.! >.<.>.2.2.2.<.<.=.$ @ o X # @ % - > ; > = # - ; ; - 8 ; ; 6 6 p Y L U p s s s s ",
"X X X @ # 1 2 w :.E Q Q 4.! 5.! 2.>.>.4.>.>.2.4.>.>.>.<.5.2.4.4.=.$ @ o # X & - ; - > ; ; > 8 8 8 : & @ = ; ; 6 J 6.c.` s s s s ",
"X X X X # 1 1 q Q E Q W Q ! 5.5.2.R -.<.>.-.>.4.>.>.>.<.2.5.4.4.=.1 @ @ @ X = ; - = > < < z h.G.^.m.f.F 8 ; < 8 e z.}.&.s s s : ",
"X X # @ # 1 2 0 W W Q E Q 4.4.4.2.>.>.2.>.4.4.! >.>.2.R <.4.4.4.=.$ @ @ @ @ : - @ - ; 6 C D.+X+X+X$X#X+X(.f.8 < 5 z.~. .%.l s s ",
"X X @ X & 1 4 0 W W ! E ;.;.<.4.<.<.=.>.>.<.<.4.>.,.2.>.<.4.;.,.[ - o X + @ > # = ; ; b F.`.+X+X$X+X#X$X+X+Xh.8 z *.d.N.!.f s s ",
"X X X & & $ $ $ L ` ` ( ( _ _ ` ` ` / / _ _ _ / / B _ / _ / C f.@.> @ @ @ # - # ; > 6 h.`.+X+X+X#X#X$X$X&X&X+Xk.j.p.H.%XH.k s s ",
"X X o X + O   + 8 8 f z z z z u z z z z z z z z z z z z z g 8 0.%.> # X + % = - ; < N ^.+X+X(.^.).+X&X&X&X*X*X(.@.p.E.M.n s s s ",
"X X o & @     O < u z z u z z y g z z u z z z u g u z z z u 8 z +.> @ @ X = = > ; - %.+X).^.G.^.).+X&X&X&X).`.`.z J ' ^ s s s k ",
"X = X = &     + < 8 f 8 z y u g u z u z 8 z 8 z u z z 8 z g g z D - X   @ @ @ ; < < x.+X+X+X+X{.#X*X&X*X&X+X^.).N p Y L s f s v ",
"X = X X & + + + < f 8 g g u g z g z u z z g z z z g z z u g z h.+.6 @ @ + @ # ; ; y G.+X).D.m.m.T.*X*X*X(.+X=X[.m J Y L s k s v ",
"X X @ & &   + + > u z g u z u u 8 z 9 z i z u z u u z x u e 8 C +.< + @ + + = > > N ).K.m.J.J.m.}.*X=X$XD.D.)./.u U T L v v f s ",
"X X o & : $ $ $ w [ [ Y [ [ =.[ Y [ ' =.=.=.=.=.[ [ =.>.=.>.=.T [ - @ + @ @ = 8 ; A +X/.[.E.|.-X*X=X=X).D.!.m.f.7 U T ^ v k v k ",
"= X @ @ z 3 1 3 U :.:.-.>.>.5.5.>.4.>.<.4.4.<.4.>.>.3.4.4.4.4.4.-.3 O @ @ X = ; > { }.@XW.I.].;X=X=X:X;X|.W.@XV e =.T ^ s v k v ",
"X X # - b 2 1 1 L ! ;.-.>.-.-.<.E >.>.4.4.5.5.<.>.>.>.3.4.4.5.4.=.3 O @ @ & = 6 > +.Q.@X(.'.-X>X=X=X=X>X].].[.a G =.T U v k v k ",
"& X @ 8 b 3 2 1 G ;.;.=.>.>.>.<.<.4.>.<.4.5.<.>.>.>.>.3.4.4.2.5.=.3 O @ = @ - > 8 +.$.x.G.G.G.).&X*X_.&X(.!.m.= K =.T ..v v v v ",
"X o = c b 2 1 1 G ;.=.=.>.<.-.4.<.4.-.<.4.4.>.-.>.>.>.<.2.2.5.2.-.3 + = # + - < 6 f g 0.y.V.u.r.B.A.V.Z.r.r.w.Z 7. .R L v v v v ",
"o X < n b 3 2 3 q =.;.=.;.4.-.>.4.W <.<.4.4.>.>.>.>.4.<.2.2.2.5.>.3 + @ @ @ - 8 6 7 d | r.V.V.y.V.Z.S.S.S.u.V.S.V.t.R I v v v v ",
"X @ f n b 2 1 3 0 E =.=.;.>.-.:.<.<.<.<.5.4.4.<.>.>.>.4.<.<.4.4.>.3 @ @ X @ - ; z d 9 Z Z 8.8.8.8.w.w.e.e.w.e.y.e.9.R I n v c v ",
"# = b n n 2 2 2 2 R =.=.;.>.>.>.<.<.<.4.<.<.;.4.<.-.>.<.Q 4.4.4.=.6 + @ + @ > ; S D z l x x s < s x x x x l c c c ( R I v v n v ",
"X < V n b 1 1 2 2 Y =.;.;.:.4.<.<.<.:.4.<.5.4.<.<.>.>.;.4.4.4.4.Q 3 + + @ @ > > l p.i.%.f.i.%.%.f.+.f : : = , < 8 I =.' v v v v ",
"# l n n f $ 1 $ 1 H R [ [ =.=.R =.,.=.=.=.>.=.>.,.=.=.=.,.=.,.,. .6 @ @ @ @ > - * p.v.v.b.l.k.p.b f # + $ > @ - i M =.' v n n n ",
"= b V n : + @ @ + % z m g m z z g m z m b m m m m m m m m m B h.+.> @ @ @ @ > # @ D n.v.b.j.v.p.% 3 6 # = e $ # 8 e =.] v n v n ",
"< b V l @ + + O + # f 8 g 8 g f g f g g 8 z 8 z 8 z g u 8 z 8 F A < @ @ @ - > > # a n.n.j.l.k.j.h e h > = I K = 8 9  .$.v v v v ",
"l b n s * + + O + + 8 u y 8 f z y f 8 z z 8 f z z 8 z y u z 8 g C < @ + # 6 5 9 - # i.n.v.b.j.H.O.i i 9 - T Y 8 6 i [ [ v v v v ",
"b n b = @ + O O + O > 8 g f 8 8 8 f z z z f u z z z u z g z z V C < @ % 8 e 9 i 8 @ D H.n.v.!.,Xj.h i e = L I 8 5 p =.[ l v v v ",
"b n l = : +   O + + : 8 8 z 8 z z f u 8 f 8 z f z y u z u z g f.%.< @ > 5 i 5 i 5 # m {.;X'.,X,Xz.j i 9 # 5 e r I L =.[ v v v v ",
"n n f @ s @ @ @ @ @ = e i i i i M p m p M p M M M M ~ M p p M B _ 6 @ > u 5 e u 9 # 5 K.3X,X2X%XL.m 5 9 # = e R ! =.>.I v v v v ",
"n n > = z 3 1 1 3 1 4 U R =.R -.-.-.R =.=.-.>.;.4.-.4.<.<.,.>.<.=.5 & 6 i 5 i i e - 8 M.1X<X1XoXP.r - d = > L =.>.>.=.[ b v v v ",
"b l = f b 1 1 1 3 1 4 U R =.R -.=.;.R -.>.-.>.4.;.;.4.4.<.>.>.4.! 5 X 6 5 u u 5 e 6 5 j.;X2X:X.Xz.9 - 9 - 5 Y ;.Q >.>.Y v v v v ",
"n > # b n 3 1 1 1 1 1 w R R T R R =.R =.>.=.;.>.>.-.<.<.<.4.>.<.>.5 X 6 u 5 i 5 e 9 e L.:X3X}..X6.3 > r 9 J =.=.! >.=.T v v v v ",
"l @ : n n 3 1 1 1 1 6 0 [ =.R =.R >.T -.>.-.=.;.-.-.<.<.<.4.>.<.>.5 X 5 0 u i i e 9 ~ U.OX<X X.X` % 9 i M ' -.=.! >.-. .v v v l ",
"- X < n b 3 1 1 1 1 1 4 U =.=.R R =.T -.-.>.=.-.>.E <.>.4.<.4.>.>.7 @ 6 i u i 5 i e  .R. X~.Y.I.h > e m r R ;.R >.E E I l v v v ",
"X @ s n b 3 1 1 1 1 1 1 G =.=.R T R T >.>.-.>.;.>.E >.-.>.<.<.>.<.e @ 6 5 e i i i u X.s.s.a.s.X.6 9 r r r -.=.[ E >.>.[ l v k k ",
"X X z n b - $ 1 1 1 1 1 0 [ =.=.T T T =.=.-.-.-.;.-.>.-.<.<.<.>.<.0 + - u e 9 i e m _ o.X.o.X.j 6 r m r e -.-.=.>.! =.Y z v k v ",
"X = l n n 1 $ 1 1 1 1 1 3 U =.=.R R T =.=.>.=.>.-.E 4.W >.<.<.4.>.0 @ 6 9 i i i h m F F D a # > r m M 6 r =.-.T E >.E ' f k k k ",
"X @ z n b 1 $ 1 1 1 1 1 3 G R R =.T T =.-.=.>.-.;.E >.E ;.W <.4.-.d @ 6 h e e i i i p.v.f # # 6 i i e 6 m [ ;.=.=.;.=.[ v s v v ",
"X # b n b # o X @ @ # # @ > p B / J ~ ~ ~ ^ ^ ( ^ ( ( ] '  .&.&.&.8 @ 6 e e i i i i g > @ @ % 7 m p 9 9 r M [ =.=.;.=.[ f v v k ",
"X - b b b +   O O O + +   + > f 8 y 8 8 8 f f f f z f z z z z 0.%.< @ # - 9 h i i 5 # @ @ @ a d m 5 - h M r G =.=.;.=.[ v k s v ",
"X > b n v +   O . + + + + + @ 8 8 8 8 l 8 8 8 8 8 z 8 8 l z l z C < @ @ @ @ % - - % % % @ % % % $ # > p r h ' =.=.;.=.( s v k k ",
"X < b b f + O O O O O + + + + < 8 8 8 f 8 8 8 8 u 8 z 8 z z 8 f C f @ @ @ @ @ @ # # M O...d % @ @ @ 7 h M e T R R -.=.Y l k k k ",
"X < b n b O O   O O O O + + O * 8 8 < 8 8 y y 8 f 8 8 z 8 f f C F 6 @ % - - > % # # M L.Y.z.> & # > e M h % L R T -.=.[ f v v s ",
"@ < b b l @     + O + O O O @ @ > f 8 8 8 8 8 8 y 8 f 8 z y t f.%.f @ - h r i i g h p ` I.z.X.# % e M m 9 # 3 ^ T -.=.' v s s k ",
"X < b b g o $ $ $ $ $ $ = $ $ % 0 L K L L L L ( L L L U L L K L ( 6 @ % 9 i i i p p h ( R.Y.I.f @ # 6 5 % # - r U E R U f s v s ",
"X s b b l $ $ $ 1 $ 1 $ 1 1 3 1 4 U ' T R R R R =.T =.;.-.-.-.>.=.e @ @ d h e i M M r &.XXXXY.d - 6 - % # # - M L -.R Y f s k s ",
"X 8 z b s $ $ $ $ 1 $ 1 $ 1 $ $ 3 q U Y R T U T =.T T R R >.-.-.;.0 @ @ # % 7 h z r 6 B .XY.a.@ 6 j m e e e r h Y R R Y f s l s ",
"X < l n l $ $ $ $ $ 1 $ 1 $ 1 1 1 1 H Y T Y Y R R T R R =.=.-.-.=.0 @ @ @ @ # % d 6 # > a.a.j @ # e j p j p e - r T R Y 6 ; > - ",
"X < l b b - $ $ $ $ $ $ $ 1 $ 1 1 1 7 U T Y Y T T T T R =.=.=.-.=.0 @ @ @ # @ @ # # # % ..O.f @ @ - e e 9 5 - 6 p R T Y ; = - = ",
"X X : z u $ $ o $ $ $ $ $ 1 1 $ 1 1 $ G [ [ T =.T T T T R R T >.=.q @ @ @ + % > 9 9 9 9 B d # # # # - 6 6 8 9 9 p T T Y - - = - ",
"< X X < l - o $ $ $ $ $ $ $ $ 1 3 $ 1 3 L ' T =.T Y T T T R T =.=.e @ @ % a 7 d 9 5 6 6 % # @ @ @ % 6 d 9 5 e h p Y T U - = = = ",
"l = = = 8 = $ $ $ $ $ $ $ 1 $ $ $ 1 $ $ 4 ^ [ T T T T T T T R >.=.0 @ @ # % # # % > 7 8 6 > % @ # # % 6 9 r 9 5 5 Y Y L u u y y ",
"z s = = - $ o $ $ $ $ $ $ $ $ 1 1 $ 3 1 1 q Y R T Y R T T R =.R =.0 @ # # # > 7 e r m M j M e % @ @ % 6 9 g %.l.{ m M N c i c u ",
"l f s < < o o X o o o o o $ $ o $ $ $ % $ $ q U U L Y Y T [ [ [ T 5 @ @ # d 7 h i e m &.c.F.B - % = = % z *.M.c.t.C N Z Z N Z C ",
"< s > : = . . . . . . . . .     . . O O @ + + = 5 8 5 u 8 g e i 9 # + + @ @ # = - 8 @.(._._.*.z n N C N C A C Z { A { A { A A A ",
"; = - = = X X & @ X = & # @ X # @ @ @ X @ @ @ @ = < < ; 8 8 < 8 8 & & < < z z z z N A q.q. .} { { { +.{ { { +.| { } } $.#.} | #.",
"; ; < ; k 5 y y y u u u u u m z c N N N N b c N z b z c z z c z z z N A +.{ { %.#.#.#.#.} $.#.| { +.| #.$.#.#.#.#.$.$.$.$.0.$.$."
};
