/* XPM */
static char *_93acfdbc7da4b17fd910ec6e611f044jgYBj40dakq5K1os[] = {
/* columns rows colors chars-per-pixel */
"64 64 235 2 ",
"   c None",
".  c #050404",
"X  c #0B0405",
"o  c #050A05",
"O  c #0A0906",
"+  c #0C0609",
"@  c #060B0C",
"#  c #0C0A0B",
"$  c #140605",
"%  c #1C0404",
"&  c #130C0C",
"*  c #1C0C0C",
"=  c #170807",
"-  c #06120C",
";  c #0A120E",
":  c #0C180E",
">  c #13110E",
",  c #1B100E",
"<  c #0B0F11",
"1  c #140E11",
"2  c #1A0E12",
"3  c #1C0D1B",
"4  c #0C1314",
"5  c #0C1C14",
"6  c #0C1B1A",
"7  c #0B1819",
"8  c #141313",
"9  c #1B1314",
"0  c #131B15",
"q  c #1D1519",
"w  c #131C1A",
"e  c #1B1A1A",
"r  c #131719",
"t  c #240403",
"y  c #2B0503",
"u  c #2B0805",
"i  c #2D0B0B",
"p  c #240B0A",
"a  c #320605",
"s  c #3B0604",
"d  c #350905",
"f  c #3C0906",
"g  c #340B0C",
"h  c #3C0B0D",
"j  c #390709",
"k  c #290E12",
"l  c #390F15",
"z  c #231315",
"x  c #2A1313",
"c  c #23141A",
"v  c #2A161C",
"b  c #241C1D",
"n  c #2B1B1D",
"m  c #281815",
"M  c #371616",
"N  c #38120C",
"B  c #0E231A",
"V  c #0D2718",
"C  c #1D201E",
"Z  c #122C1D",
"A  c #10251C",
"S  c #11321E",
"D  c #20211E",
"F  c #29231F",
"G  c #36211D",
"H  c #2D1C22",
"J  c #291E23",
"K  c #321D22",
"L  c #301D28",
"P  c #0F2E2C",
"I  c #0E2524",
"U  c #132524",
"Y  c #1E2122",
"T  c #132924",
"R  c #132D2D",
"E  c #192A25",
"W  c #0E322D",
"Q  c #0E3928",
"!  c #153523",
"~  c #163A24",
"^  c #13322C",
"/  c #133B2C",
"(  c #1A3B2A",
")  c #132E31",
"_  c #192C33",
"`  c #0E3131",
"'  c #0F3F32",
"]  c #123232",
"[  c #163A33",
"{  c #242323",
"}  c #2B2425",
"|  c #2D2C2C",
" . c #27282A",
".. c #332225",
"X. c #34252B",
"o. c #3A262A",
"O. c #312C2D",
"+. c #3C2A2D",
"@. c #3B2824",
"#. c #342F31",
"$. c #3D2B31",
"%. c #333333",
"&. c #3B3337",
"*. c #3B3B3B",
"=. c #3C3537",
"-. c #303030",
";. c #440C0A",
":. c #470908",
">. c #570D08",
",. c #46130D",
"<. c #4C1E1C",
"1. c #581112",
"2. c #611716",
"3. c #680E09",
"4. c #44241E",
"5. c #63291E",
"6. c #452A29",
"7. c #552D2E",
"8. c #49342A",
"9. c #412D32",
"0. c #443235",
"q. c #423D3D",
"w. c #493639",
"e. c #543834",
"r. c #56382E",
"t. c #66302F",
"y. c #17472D",
"u. c #124334",
"i. c #164C37",
"p. c #1D553A",
"a. c #1A5939",
"s. c #0F4431",
"d. c #24593E",
"f. c #2E4C36",
"g. c #1B653E",
"h. c #20613B",
"j. c #64463A",
"k. c #574838",
"l. c #4D3E44",
"z. c #763E41",
"x. c #175641",
"c. c #235F44",
"v. c #1C6445",
"b. c #1C6B47",
"n. c #1C7A4B",
"m. c #1D7B52",
"M. c #226C4B",
"N. c #246947",
"B. c #23744D",
"V. c #24794D",
"C. c #297A4E",
"Z. c #277954",
"A. c #444343",
"S. c #4C4A4B",
"D. c #484648",
"F. c #544A4B",
"G. c #514F50",
"H. c #555454",
"J. c #5B5B59",
"K. c #48514E",
"L. c #6B4B41",
"P. c #795848",
"I. c #645A5B",
"U. c #745446",
"Y. c #625F60",
"T. c #656364",
"R. c #696E6B",
"E. c #746C6C",
"W. c #787575",
"Q. c #7B7071",
"!. c #7C6650",
"~. c #88383A",
"^. c #814934",
"/. c #964C4B",
"(. c #90584F",
"). c #A45E53",
"_. c #95675B",
"`. c #9F634F",
"'. c #A76459",
"]. c #B47B5F",
"[. c #806866",
"{. c #9C7663",
"}. c #837B7A",
"|. c #AC6D62",
" X c #A97768",
".X c #B77565",
"XX c #1D864D",
"oX c #1D8D51",
"OX c #238551",
"+X c #268856",
"@X c #259656",
"#X c #238D4C",
"$X c #1DA153",
"%X c #27A260",
"&X c #8F8377",
"*X c #B98874",
"=X c #AC8668",
"-X c #C2876A",
";X c #C88E75",
":X c #D7A77E",
">X c #857F81",
",X c #848282",
"<X c #8C898A",
"1X c #948E8B",
"2X c #959392",
"3X c #9C9696",
"4X c #9D9A9A",
"5X c #978E97",
"6X c #A39A99",
"7X c #AA928D",
"8X c #B5A495",
"9X c #A6A4A4",
"0X c #B2AAAD",
"qX c #B5B3B2",
"wX c #BDB8B8",
"eX c #B1ADB1",
"rX c #C89D82",
"tX c #C39B98",
"yX c #CAA289",
"uX c #D7A883",
"iX c #DDB691",
"pX c #E8B88A",
"aX c #E5BA93",
"sX c #E1AD8F",
"dX c #D0B7A9",
"fX c #EAC18E",
"gX c #EBC595",
"hX c #EED3AC",
"jX c #E4CEB7",
"kX c #CAC7C8",
"lX c #D3CCCA",
"zX c #D2CED1",
"xX c #D9D7D9",
"cX c #E9E7E8",
"vX c #F7F4EB",
/* pixels */
"                                                                                                                                ",
"                                                                                                                                ",
"                                                                                                                                ",
"                                                                  # O X X *                                                     ",
"                                                          X X X 0 =.m % % $ $                                                   ",
"                                                          z $ = & q i s f d i , ; = i g                                         ",
"                                                    # # > * t a a u u d a f ;.u u u 4.6.                                        ",
"                                                    & X X % t a s :.s a a a s d f ;.M F                                         ",
"                                                  G x % y y y y a s s s j y t t t d y p b                                       ",
"                                            9 & = u j s ;.s s :.s y i h N M N a y y f i O                                       ",
"                                            $ i h f :.:.y y y t t j t./././.~.3.:.t d d = b                                     ",
"                                                @.$ % t t y j $ x L..X;XpX`.1.3.f X t t % =                                     ",
"                                                & = t t t % % o & v =XaXfX:X*X=XU.X $ % O 9                                     ",
"                                              * % a s a t % O S.F.% r.j.k.=XfXP.@.X u u X                                       ",
"                                                x p a i $ $ , 6X6Xj t.P.j.=XaX6.$ $ t g b                                       ",
"                                                  X $ % 8.G i tXdX^.-XgXgXgXfX^.4.$ % p O.                                      ",
"                                                b + O , *X|.5.=XsXpXfXfXpXpX:X:X_.X , , #                                       ",
"                                                & % $ 9 8XuX=X:XpXaXgXgXgX*X`.:X&X9 -.                                          ",
"                                                    = 9 &XE.F  X:X7XlXvXvXjXyX8.8.&XJ.                                          ",
"                                                    M <.lX1X. m w.(.uXhXhX&X+.# z r.e.                                          ",
"                                                    x x R.K.. D.E..X.X XL.Q.2XY & b b 9                                         ",
"                                                # 2 w 7 7 4 O F.[.dXtX7X}.,X<X{ @ 6 ~ ( 0                                       ",
"                                              # . 4 I ) 7 5 T 8 #.5X2X4XwXE.2 O 4 E a.c.5 e                                     ",
"                                            O 5 B R ` ` P i.M.B + c c c L H 9 X Z M.u.R R 7 +                                   ",
"                                          b o p.B.u.' ' ] _ ^ - X 3 c H &.L 3 + 4 ^ ] R ` B 0                                   ",
"                                        # r W v.OX+XoXOXu._ ` @ + c H w.0XQ.J + 4 R W R W v.Z.5                                 ",
"                                        1 A B.i.u.i.~ S ! ^ ^ - X z H +.I.l.L < # R 5 V N.g.y.o @                               ",
"                                      0 y.i.x.[ ) ^ 7 - g.n.B.V + 3 K ..9.$.L + V v.V 5 C.i.U @ >                               ",
"                                      o N.b.P ` ` 6 5 Z @X#Xa.: O & 2 b 9.o.L + S +XZ : C.n.g.Z e e                             ",
"                                    E ~ B.n.p.^ 6 o E p.N.y.+ 6.e.e.m = J H c + 6 d.~ y.#X$X@Xg./ @                             ",
"                                  . ~ Z.XXXXOX! X . ~ d.: + = !. X*Xj.M O @ . @ @ 4 c.XXoXoXoX%Xh..                             ",
"                                  . ! V.m.v.! ; . O ; # + O + * M `.*X*XM & + I R / N.N.s.^ s.+Xa.o                             ",
"                                  . 7 [ [ T @ + # E 0 + 9 1 O X 8.yXpXsX*XL.O U i.m.i.' ` ` R [ A @                             ",
"                                  @ r ) ) w X j g & u N m 2 X X .._.-X:XaX!.X T i.Z.i.` _ ` ) < 8                               ",
"                                  | Y 7 R U + h ;.z z N ,.:.g = , M 8.r.k.A.p.g.n.@XXXb.` ) _ @ O                               ",
"                                  Y Y 6 r 4 @ % d ,.M b M h u = . . 4 6 V i.OXOXn.b.b.b.b.y.r C                                 ",
"                                  . 7 R 4 O O 6.r.:.;.M M * + #.q.q. .I V u.v.d.u.` ) u.B.~ O                                   ",
"                                  @ r U @ 2 @._. Xr.<.>.:.i z Y.}.>X&.X o 4 B ; 6 ` ] R T 6 4 C                                 ",
"                                    8 o . o. X'.'.uXP.m = z 9.H H w.K 9 9 & @ C T P ) T o I ~ - @ #                             ",
"                                    9 + + 1 q _.-X).|. Xx 9 9.H H 0.K 3 X 1 9 @ O @ I T - a.+X/ R R @ O                         ",
"                                  # 8 8 9 8 @ j.'.-XP.K = > H o.9.9.K 3 . + c ..v O O B c.V.OXB.x.^ @ @                         ",
"                                & 8 9 w e 8 X c @.w.n + J K z $.6.K 9 + . 1 H $.+...9 9 Z Z ~ V.OXV.~ w ;                       ",
"                            & 8 8 q e e & 4 7 7 5 . 8 H 9.o.z $.+.c + # S.#.& F o.0.+.H # & 2 ! y.y.A w J b                     ",
"                          e 8 9 e w 8 8 4 6 ^ I r . b 0.+.K K 9.+.2 | S.2XE.=.9 9 F $.9...H J & + O @ q 0.9 .                   ",
"                        8 8 { b q 8 B A [ / A 8 2 & K 9.v H 0.+.X.O.E.4X3X3X2Xq.e . J +.6.9.9.K H H c v $.9 # e                 ",
"                    q > Y { e e 8 ; ( M.N.d.o H 9.9.9.9.H K 0.* } 1X3X3X3X3X3X,XH.. 2 z c L 9.9.+.+.v c v b q +                 ",
"                  ; 8  .b e e # @ E ^ [ 5 # # z H 9...v +.9.$.9 %.2X2X1X1X1X<X| > O # & 9 z v v v b z v $.9.X.#                 ",
"                & D Y e e q # O < E R R < & o.+.+.v v c v c 2 T.,X2XG.D { { { -.%.| -.| + H $.$.$.$.v n 0.b & .                 ",
"            & q C C C e 1 &     r 4 4 < 1 J 0.0.6.c K X.& #.R.<X,X%.| |  .|  .        %.. & 8 2 c K c z 9 @ . e                 ",
"          9 8 e D e 9 & r         . + 1 3 H 0.o.K o.9.$.& { S.S.f. .&.                *.| 4 . . . # & & . . .                   ",
"      J *.S.W.F.x 2 & >           + . 3 3 v O.v H 0.+.J O . . O H D.                    | =.l.*.D.H.8 . . 1                     ",
"      . S.&XwX[.<.*               |  . .9 2 2 c J +.9 . 8 e                           -.. Y.eXqXwXwXG.C .                       ",
"      # # & 8 C                 w <X9X4X&.1 . 1 2 2 2 8 *.                            | . E.zXcXzX9X<XY.<                       ",
"                              8  .qXxXvX9XT.. + + +  .A.                              -.@ J.9X9XwXcXA.e                         ",
"                            # H.,X4XzXvXvX9X@  .&.%.*.                                  . >XcXkXwX9X .+                         ",
"                            . W.zXxXzXqXT.A.%.*.                                        . | G.D.*.%.%.-.                        ",
"                          p i w.T.W.Y.l.@ < -.%.                                    e 8 , i j 2 X . J {                         ",
"                        O $ M p $ t t u = 1 1                                       + $ g >.3.l 3 + p k z                       ",
"                        O + 9 k g f :.>.;.i X &                                     . * t.5.1.k k g :.;.+                       ",
"                        # 1 X.7.t.w.l.w.t.<.X 4                                     . J W.F.X.$.7.7.e.q.q.O.                    ",
"                        #  .>X6XdXxXxXxX3XI.@ 1                                       r 1 H.1XeXqXwXlXzXzX                      ",
"                                            9                                             %.S.H.H.G.H.J.                        ",
"                                                                                                                                ",
"                                                                                                                                "
};
