/* XPM */
static char *_b2bc51a6c2449adcc2c3a4e319cd923QM7QIVGRqtxFxlHq[] = {
/* columns rows colors chars-per-pixel */
"64 64 249 2 ",
"   c #030201",
".  c #0B0202",
"X  c #010B02",
"o  c #0A0A04",
"O  c #0D020B",
"+  c #040C0C",
"@  c #0C0B0C",
"#  c #01060A",
"$  c #130202",
"%  c #1B0102",
"&  c #130B04",
"*  c #13040A",
"=  c #130C0D",
"-  c #1A0C0C",
";  c #1B0708",
":  c #001303",
">  c #001A04",
",  c #03140D",
"<  c #0C120E",
"1  c #041809",
"2  c #12110E",
"3  c #181409",
"4  c #070C13",
"5  c #190D12",
"6  c #140C14",
"7  c #011412",
"8  c #031D13",
"9  c #0B1B13",
"0  c #0C1C1B",
"q  c #081415",
"w  c #151515",
"e  c #1A1414",
"r  c #141B15",
"t  c #1A1A16",
"y  c #1B1419",
"u  c #1B1B1B",
"i  c #15181A",
"p  c #240201",
"a  c #2C0403",
"s  c #28080A",
"d  c #330302",
"f  c #3B0303",
"g  c #360709",
"h  c #28150A",
"j  c #32150C",
"k  c #361508",
"l  c #230C13",
"z  c #2B0A14",
"x  c #330C13",
"c  c #390814",
"v  c #231414",
"b  c #2C1314",
"n  c #23141C",
"m  c #231C1D",
"M  c #2B1B1D",
"N  c #261819",
"B  c #361819",
"V  c #022608",
"C  c #032C1C",
"Z  c #082718",
"A  c #1B231D",
"S  c #142719",
"D  c #003619",
"F  c #22221E",
"G  c #29231E",
"H  c #36221B",
"J  c #343519",
"K  c #0C1D22",
"L  c #231D20",
"P  c #2C1B22",
"I  c #21172F",
"U  c #361B25",
"Y  c #29162F",
"T  c #082925",
"R  c #1C2222",
"E  c #182927",
"W  c #073728",
"Q  c #123B2C",
"!  c #173729",
"~  c #1A2F36",
"^  c #0B3934",
"/  c #193734",
"(  c #232322",
")  c #2C2224",
"_  c #2C2C2C",
"`  c #262927",
"'  c #332325",
"]  c #33242A",
"[  c #3C252C",
"{  c #332A2B",
"}  c #3A2829",
"|  c #27332D",
" . c #39362D",
".. c #282B33",
"X. c #362B32",
"o. c #283736",
"O. c #333333",
"+. c #3B3334",
"@. c #3A3936",
"#. c #343B3A",
"$. c #3C3C3C",
"%. c #363638",
"&. c #4B030B",
"*. c #430606",
"=. c #440C12",
"-. c #590D16",
";. c #471718",
":. c #53110C",
">. c #640D12",
",. c #4B2A14",
"<. c #511824",
"1. c #6D1426",
"2. c #472829",
"3. c #473426",
"4. c #432D34",
"5. c #472934",
"6. c #423235",
"7. c #45343A",
"8. c #433C3D",
"9. c #4A3B3D",
"0. c #4A363C",
"q. c #553839",
"w. c #522D2C",
"e. c #6B3035",
"r. c #05431E",
"t. c #094628",
"y. c #064532",
"u. c #19473A",
"i. c #085736",
"p. c #13502F",
"a. c #29473B",
"s. c #3D413E",
"d. c #38453D",
"f. c #30482E",
"g. c #0F693C",
"h. c #42413E",
"j. c #48403D",
"k. c #5B4638",
"l. c #484029",
"z. c #72462B",
"x. c #1F3E41",
"c. c #3C3F42",
"v. c #423E41",
"b. c #4B3C42",
"n. c #443740",
"m. c #593943",
"M. c #683F45",
"N. c #195042",
"B. c #3E4342",
"V. c #3A4A46",
"C. c #255B47",
"Z. c #3C534A",
"A. c #0C6C4C",
"S. c #1A6A46",
"D. c #197448",
"F. c #1D7C55",
"G. c #097645",
"H. c #256347",
"J. c #21794C",
"K. c #336857",
"L. c #367457",
"P. c #2B6E53",
"I. c #464646",
"U. c #4A4446",
"Y. c #454A46",
"T. c #4A4946",
"R. c #454549",
"E. c #4C464A",
"W. c #454A49",
"Q. c #4B4B4B",
"!. c #514C4D",
"~. c #544649",
"^. c #4A514E",
"/. c #55524D",
"(. c #544D51",
"). c #5F4850",
"_. c #495552",
"`. c #525252",
"'. c #5A5A5A",
"]. c #5A5556",
"[. c #4E4E50",
"{. c #6D5350",
"}. c #52635B",
"|. c #696552",
" X c #6A5B64",
".X c #4B7064",
"XX c #686868",
"oX c #777777",
"OX c #6C7373",
"+X c #894D38",
"@X c #BC3F43",
"#X c #8B5451",
"$X c #8C6355",
"%X c #AE6E51",
"&X c #8F716D",
"*X c #AE736D",
"=X c #A15D74",
"-X c #C46A61",
";X c #148F56",
":X c #248B57",
">X c #28925D",
",X c #318858",
"<X c #1BA05E",
"1X c #199866",
"2X c #298E67",
"3X c #2F9268",
"4X c #1AA869",
"5X c #0DA364",
"6X c #2CB16F",
"7X c #43886B",
"8X c #76817B",
"9X c #8D8774",
"0X c #AE8971",
"qX c #AFA27F",
"wX c #D89B75",
"eX c #C78D70",
"rX c #D6B076",
"tX c #8B7B85",
"yX c #47A082",
"uX c #898787",
"iX c #908E8F",
"pX c #9B9696",
"aX c #92938D",
"sX c #A6999C",
"dX c #AA8F8D",
"fX c #98A39B",
"gX c #AFA09C",
"hX c #9CA2A5",
"jX c #A9A7A6",
"kX c #BBBABA",
"lX c #B2ADAA",
"zX c #CC978F",
"xX c #C3A795",
"cX c #D2B592",
"vX c #EDB68C",
"bX c #CDBAB0",
"nX c #F09F9B",
"mX c #F5CA94",
"MX c #F2CFAD",
"NX c #CAC3B9",
"BX c #C3BFC0",
"VX c #B5C4C1",
"CX c #D8D5D6",
"ZX c #D1CCCF",
"AX c #EDCECE",
"SX c #FEECCE",
"DX c #F6EAEB",
"FX c #FAF8F8",
"GX c #F1E9E3",
/* pixels */
"I.I.I.I.I.I.I.R.I.I.I.I.I.T.I.I.I.T.I.I.I.I.I.I.Q.Q.I.I.I.Q.Q.R.^.W.h.8.~.T.Y.T.v.h.T.Y.s.B.B.I.R.I.T.I.R.T.I.I.I.I.I.I.R.I.I.I.",
"I.I.I.I.I.I.T.I.I.I.I.I.I.R.I.I.I.I.I.R.I.T.I.I.#.I.Q.I.8.s.R.R.B.W.T.Y.Y.h.I.E.Q.R.h.I.Y.Q.T.I.I.I.I.I.I.I.I.I.T.I.I.I.T.I.I.I.",
"I.I.T.I.I.I.I.I.T.I.I.T.R.I.I.I.I.I.I.I.I.I.T.I.R.T.T.I.I.I.I.Q.E.c.B.V.V.R.T.b.c.[.R.U.T.I.$.Y.I.I.I.R.I.I.I.R.I.I.I.I.I.I.I.T.",
"T.I.I.R.I.T.R.I.I.I.R.I.I.I.T.I.R.I.T.I.I.I.I.R.Q.I.B.s.d.I.I.I.%.    o   u ].R.Z._.E.v.~.E.I.^.I.I.T.I.I.I.T.I.I.R.I.T.I.R.I.I.",
"I.I.R.T.I.I.I.I.I.T.I.I.I.I.I.I.I.R.I.I.I.I.I.T.I.I.T.#.A o . & A h.B % x %   d.T.$.u n b.(.I.T.I.I.I.I.I.I.I.I.R.I.I.I.I.I.I.R.",
"I.I.I.I.I.I.T.I.I.I.I.R.I.T.I.I.T.I.I.I.I.R.I.I.Q.Q.[.Q.@.v $ $   ; j =.=.g s 3 N v * N 8.Q.I.c.T.I.R.I.I.I.I.T.I.I.Y.I.T.I.I.I.",
"R.I.I.I.I.I.I.I.I.I.T.I.I.I.R.T.I.I.I.R.I.I.I.I.O.R 6 u ) H b g j a d a d g g a p g H 8.T.Q.Q.T.I.I.I.I.I.R.I.I.I.I.I.I.I.I.T.I.",
"I.T.I.I.I.T.R.I.I.R.I.I.I.I.I.I.I.I.I.I.T.I.I.I.T.` +   . $ % d &.*.k h a d *.&.*.*.H 6.s.T.R.I.R.I.I.Y.T.I.I.I.I.I.I.T.R.I.I.I.",
"I.I.I.I.I.R.I.Y.Y.I.I.I.R.I.I.I.I.Q.I.T.I.$.E.+.a. .G % d d d f a a *.f *.a % s d j p s  .9.9.Z.R.I.I.T.I.I.T.I.I.R.I.I.T.I.I.I.",
"I.I.T.I.I.I.I.I.I.I.I.I.T.I.I.I.v.T.R.I.Q.%.= . p a f *.:.f k a j p g g g f j g k % &.g X E  X8.I.I.I.I.I.I.I.R.I.T.R.I.I.I.R.I.",
"R.I.R.I.I.I.I.I.I.I.I.I.I.I.I.R.R.I.I.$.Q.$.O e ;.f *.&.f p a s % a e.#X#X=X#X:.k % =.=.X | E.$.I.T.I.I.I.I.I.I.I.I.I.I.I.I.T.I.",
"I.T.I.T.I.I.I.I.I.R.I.T.I.I.I.T.E.T.T.B.T.R.O.U.} h % p p p b % z #X*XeXrX%X*.>.d . v p . $ * V.I.I.I.R.I.T.I.I.I.I.T.I.T.I.I.I.",
"I.I.I.I.I.I.I.T.I.I.I.I.I.I.I.R.I.I.I.Q.I.R.!.{ <   & % p v & . $ j 0XMXmXmXwX0X#X. $ % . } 7.d.I.R.T.I.R.I.I.T.I.I.T.I.I.R.I.I.",
"I.I.I.T.I.I.I.R.R.T.I.I.T.I.I.I.I.v.8.Q.I.T.!.5 p a B g % $   I./.  3.z.J 0XmX+X} . c c   E ~.Q.I.I.I.I.I.I.I.I.I.R.I.I.I.I.T.I.",
"T.I.R.I.T.I.I.I.I.I.I.I.I.I.T.I.Q.I.I.I.B.T.!.{ B s k a p % * bXlXa k.{.,.qXMXh o . a c ` d.U.s.I.I.I.I.I.I.R.I.I.T.I.I.T.I.I.I.",
"I.I.I.I.I.R.I.I.T.I.I.T.R.I.I.I.I.I.[.I.I.E.v.(.d.  . ; 2.B $ bXAXe.eXmXmXmXmX+XU & . x  .9.~.V.R.T.I.I.I.Y.I.I.I.I.I.I.I.R.I.I.",
"I.I.I.I.I.I.T.I.I.I.R.I.I.I.I.I.T.B.T.Q.I.I.T.c.o.6   . nX-X,.%XvXvXmXmXrXrXwXvX&X  h % 7 ` ~.Y.I.T.I.I.R.T.I.I.I.I.I.I.R.I.I.I.",
"I.R.I.T.I.I.R.I.I.I.I.T.I.I.T.I.R.I.I.I.B.Q.I.( $ l < X gXMX0XvXvXcXmXcXMXeXz.mX9X& 4.~.V.T.8.Q.I.I.I.I.I.I.I.I.I.T.I.I.T.I.I.I.",
"I.I.I.R.I.I.I.I.I.T.R.I.I.I.R.I.I.I.R.I.I.Q.T._ m.9.P . 9X|.h 0XcXqXMXSXFXSXbXh 3.dX].h.!.8.W.Q.I.I.I.R.I.I.I.R.I.I.I.I.I.I.I.T.",
"T.I.I.I.I.T.I.I.I.I.I.I.I.T.I.I.I.I.I.T.I.I.Q.`.h.T.2.c FXjXX 3 H {.xXSXSX9XP 4 h q.[.W.6.U._.9.I.I.T.I.I.I.T.I.I.R.T.I.I.R.I.I.",
"I.I.I.R.I.T.I.I.I.I.I.T.I.I.T.I.Q.I.I.I.I.B.I.Q.d.'.5.p oX_.. /.=X*X*X#X,.$XsXI . b 9 Z ].).o.T.I.I.I.I.I.I.I.I.R.I.I.I.T.I.I.R.",
"I.I.I.I.R.I.I.I.R.I.I.I.I.I.I.R.I.I.I.$.Q.(.v._ _ R # 0 8 # . ).&XMXgXdX8XiXjX1 o S Q Q R { '.#.T.I.R.I.I.I.I.T.I.I.Y.I.I.I.T.I.",
"I.T.Y.I.I.I.I.I.I.I.I.I.I.I.I.I.$.Q.I.I.[.Q._ i   4 T N.7 K E    .fXsXjXZXOX  > < 1 K.K., u +.T.I.I.I.I.T.R.I.I.I.I.I.I.I.I.I.I.",
"R.I.I.I.I.T.R.I.Y.I.I.I.T.R.I.I.I.I.I.R.Q._ @ o T K x.T ..o.7XV . 6 = $ v z U % S 3XW Z Q w $ d.R.I.I.Y.I.I.I.I.I.I.I.T.R.I.I.I.",
"I.I.T.I.I.I.R.I.I.T.I.I.I.R.I.I.~.a.Q.m.$.8.  A.:XD W y...~ / 6 . l P z n.n y 6 4 R ^ ! T C % 8.U.Q.#.Z.B.R.v.R.I.T.I.T.I.I.I.I.",
"I.I.I.I.I.Y.I.I.I.I.I.R.I.I.I.T.T.~.I._.- # y.C.;X3X3X3Xy.C W 7 O P n n.CXtXL O q T C O.i A.yX, L I.B.Y.I.E.R.R.R.I.R.I.I.I.R.I.",
"I.I.I.R.I.I.I.T.I.I.I.I.I.T.I.I.V.m.I.Z.& , 2Xa.^ N.W Z Z Z )   # 6 L L  Xb.U O # N.7 9 L.A.y.# u (.I.I.c.I.[.v.I.I.T.I.I.I.T.I.",
"I.I.T.I.I.R.I.I.I.I.I.T.I.I.I.T.R.(.+.A u.N.N./ ^ ! s . J.:XL.C   _ X.P X.[ P * v G.< 2 2Xi.7 * u Q.E.I.I.I.[.R.I.I.I.I.T.I.I.I.",
"I.I.R.I.I.I.I.I.R.T.I.I.T.I.I.R.b.}.G   :XF.9 W T T t V <X4Xp.:   . . v 0.[ ] * G 5XV p J.D.L.V 9 ( 8.E.[.V.R.n.I.I.T.I.I.R.I.I.",
"T.R.I.I.I.T.I.I.I.I.I.R.I.I.I.I.I.o.F t.F.F.C.! z # C S.S.p.. e.k.3.H % [ n ) O : S.t.r.>X<X<Xg.! : X.U.[.W.R.[.I.R.I.I.I.I.I.T.",
"I.I.I.I.I.I.R.I.I.I.I.I.I.I.T.I.8.  ! ,XD.J.7XE O   W P.8   . &X0XzX{.p $     4 , . H.<X;X,X:X6XC.X 6.j.B.Z.c.(.I.T.I.I.I.T.I.I.",
"I.I.I.T.I.I.T.I.I.I.T.I.R.I.I.I.b.X D :X:Xg.D , X $ O @ $ i 1 . *.#X*XgXh O # E ~ o.S.K.D D ! <XH.X h.!.B.Z.c.E.I.I.I.I.I.R.I.I.",
"I.I.I.I.I.I.R.I.I.I.I.I.I.I.I.I.c.  9 E x.K # % * ` T X n c p   J mXmXwXwXz.@ ..f.1XW ] ~ ^ x.~ q + #.T.I.R.I.I.I.I.I.I.T.I.I.R.",
"R.I.Y.I.I.I.T.I.T.I.I.I.T.R.I.T.I.o , / T ~ = s c v % d | > X > B %XeXcXMX|.# K t.:Xi.Z ^ ^ T 7 ` #.B.I.Q.T.I.I.I.I.I.R.I.I.T.I.",
"I.I.R.I.I.I.I.I.I.R.R.T.I.I.I.I.I.O.| + ~ E   B k o h -.>.-.=.p . <.,.3.k.f.p.J.;X:X3XS.W Z E . i [.I.I.Q.v.W.T.I.I.I.I.I.I.I.I.",
"I.I.I.T.I.I.I.T.I.I.I.I.I.I.I.I.I.O.i 7 E 4 M % p 1.h V *.f b $ # . # 8 > r.>X:X3Xg.S.D.K.! S w ` T.T.v.R.R.T.B.I.I.I.I.R.I.I.I.",
"I.I.R.I.I.I.I.I.I.I.I.I.I.I.T.I.$.  o o.7   . 3.l.&.>.j =.b X ..V.+.` T S u.L.N.E Q Z T .XQ X Z.'.I.E.U.I.!.T.d.I.I.T.R.T.I.I.I.",
"T.I.I.I.T.I.R.I.I.T.R.I.I.I.I.I.I.w A R 4 = B *X0X,.;.>.-.j $ &X9XdXI.  * 6 7 + K ^ ^ T u.7   7.%.R I.Q.I.Q.I.T.I.I.I.I.I.I.T.I.",
"R.I.T.I.I.I.T.R.I.I.I.T.I.I.I.I.I.`.F   @ { xX$X@XMX|.o X A m.v t w.P 6 U * # { ^ T W S   Z u.% + < | I.I.I.I.Q.I.I.I.I.T.I.I.I.",
"T.I.I.I.I.I.I.I.I.I.I.I.I.I.T.T.Q.I._ @   * a $XeX+X-XzXh $ b.i n n.X.q . o Z   O O T T . g.4Xr.E R + A I.U.I.I.I.T.I.I.I.I.R.I.",
"T.I.B.I.T.R.I.T.T.T.h.h.I.I.I.Q.~.  r S S & $ ).*XzX#Xh & 2 N } 4.b.m e o $ v ' m   o Z H.,X,XG.a.T   & ).8.I.V.T.I.T.Q.I.$.I.I.",
"I.I.I.R.T.I.I.R.s.I.Q.T.h.Q.T.` t w u i w m . % ;.3.b . N t l 0.[ P P     e ] 7.+.{ = o S C D 7X2XL.t.8 t v.'.R.R.I.I.R.I.I.I.I.",
"I.I.I.T.I.B.I.I.I.h.h.I./.I.( r 4 6 i n y 6 0 0 2 o w m 7.6.l [ 6.= &   ].) . ] 6.4.+.{   X : S i.i.C 8 r u { +.I.I.I.I.I.I.T.I.",
"I.I.R.T.I.I.I.I.Y.T.h.I.$.F 2 t t ` R + # T E E ,   ( 7.4.} ' 2.+.$ u v.jXuX} & * ' 6.[ U 4.L 6   X   v ).$ o Q.B.Q.I.I.I.Q.R.I.",
"I.I.I.I.I.I.Q.Q.T.s.[.$.@ 2 _ t v   V W y./ Z r u * U m.z ; 9.X.] G oXlXuXsXjX7.e   ) 6.0.5.[ U B 2.s s m.= O o.#.Q.I.I.I.Q.I.I.",
"R.I.I.I.I.I.T.I.I.Q.F o _ ( @ ` G X Q L.L.u., ' 4.4.5.5.U 2.U.  m jXpXpXpXpXpXpXXX  = N - M ).4.O.+.m l M m w   { Q.Q.$.T.Q.I.I.",
"I.I.I.v.R.T.I.$.T.@ = ` A m (     S / ^ Z # . $ U 4.U b U b.X.- F pXpXpXpXlXuX(         v ) l - t t - ) +.+.' O ( Q.Q.I.Q.I.I.R.",
"I.I.I.I.T.T.c.O.o F G A u 2   # 4 ~ E E 4 O X.4.) ' n 5 ] * .  XiXjXT.m 2 < ` _ O.h.h.{ = M ' k.5.5.B l 9.P e   u I.Q.I.I.I.I.Q.",
"Q.B.Q.I.!.E.w L ) t F t <   _ $._ @ u . O P 0.7.5.l P { . %.uXhXpX` ` %._ O._ I.Q.I.Q.#.  O u @ m u ) y e     +.R.I.T.I.R.I.I.I.",
"I.$.I.!._ y o = ) v e   u Y.Q.I.I.    e P n 0.[ M U 7.7.O ( I.Q.%.u $.T.I.Q.Q.Q.$.T.I.I.%.t   O   & O =     w c.I.I.I.I.I.I.I.I.",
"I.[.Q.` n.I.uX].v $ 3 ( $.!.I.Q.R.  O   = P [ P M 6.7.]   O < < _ c.(.Q.c.I.W.c.T.W.I.c.R O.c.$.U.!.    @ w ( R.T.R.I.I.I.I.T.I.",
"I.v._   '.aXCXoX' e { T.Q.$.s.8._ ` u ..n = 5 e P ] =   = O.R.`.I.`.I.I.I.$.T.T.B.B.Q.I.= XXkXlXBXCX`.L   ( XX$.I.I.I.I.I.I.I.R.",
"$.`.$.t   . = w ~.j.T.h.T.I.].u . jXsXsX+.  O & e m w w $.Q.I.E.h.Q.%.I.!.I.Q.T.Q.T.B.O.  OXCXFXCXaXiXoXw %.T.B.I.I.I.I.I.I.R.I.",
"Q.I.$.v.(.Q.+.`.~.!./.s.T.I.T.t P BXFXFXjXoX  O   O ( +.].!.I.v.B.`.I.Q.Q.$.I.$.T.B.[.I.  '.lXiXkXFX%.  T.I.$.`.R.T.I.I.I.T.I.I.",
"`.I.Q.%.`.b.I.U.s.h.s.Y.Q.#.< (.yXtXZXFXFXkXw R R.$.I.I.I.$.T.R.B.T.I.I.I.I.Q.Q.Q.s.W.I.  iXFXCXBXBXL < `.W.T.#.I.I.I.I.I.I.I.I.",
"I.$.Q.Q.c.I.!.I.Y.h.d.B.W.T.  uXGXFXCXbXXXo.#.T.[.s.`.Q.Q.T.].b.[.I.I.!.Q.B.I.T.$.[.Q.s.  O.I.I.$.( O.%.I.T.R.W.T.I.I.I.I.I.Q.I.",
"I.I.I.I.Q.Q.Q.R.^.^.Q.s.O.b b w.}.8XXX6.. O ..o.{ _ O._ O._ _ _ _ _ _ ` _ $.U.Q.B.[.o.S ; d d o #   n ] ~.T.T.h.I.I.T.I.R.I.I.I.",
"T.Q.Q.Q.R.I.%._ #.` #.$.3 . b s   s a d & 9 w 5 i i w i w i u i t u u t R ` O.O.%.b.* . p 1.1.;.= ; l z { T.[.#.I.I.I.I.I.I.I.T.",
"%.#.$.$.#.{ ` u u i < r   . b s j =.=.-.j $   - t u u u t u u y t u t y i u u y @ - . - M.1.&.d x c ;.s . t I.^.I.T.I.I.I.T.I.I.",
"u t u u u u t w < ( r u 2 $ X. .1.,.!  .e.1.$ C u u u u u u u u R u R u t t i w S ` X 9 aX{.P +.2.;.2.2.6.u ..B.R.I.I.I.I.I.I.R.",
"u u u t t u u R L t u L   F pXlXZXDXFXDXlX XO 6 t u i t t i t t i t i u u u u R u r 1 A   '.pXVXNXAXFXDXGXXXc.[.I.R.I.I.I.I.R.T.",
"u u u u u u u u < i u ( @ w $.X.c.#.~ | _ X.5 u u u u u R u u u t i t u t i u m b L t v = | ~ %.o.`  .` XXB.c.U.T.I.I.T.I.I.I.I.",
"w w t i i e w i L ( t i ` L @ @ , i e u 9 9 i n u t u u t i i y L u y u u t i u z @ ` z ) q 4 n 0 u | O.R.R.[.~.I.I.I.I.I.T.I.I.",
"O.O.O.O.O._ O.O.O.y u t w 0 R R R ) - F r r A n u i u u u u u u u t t u R u u u R Z | { X.a.o.+.O.O.U.'.#.V.[.c.I.I.I.R.I.I.I.I."
};
