/* XPM */
static char *_1a7b604f6694b1ac0ebad336ce56dbesfzKHgl8fQZWxp8X[] = {
/* columns rows colors chars-per-pixel */
"64 64 235 2 ",
"   c None",
".  c #050404",
"X  c #0B0405",
"o  c #050A05",
"O  c #0A0906",
"+  c #0B0609",
"@  c #060B0C",
"#  c #0C0B0B",
"$  c #140605",
"%  c #1C0404",
"&  c #130C0C",
"*  c #1C0C0C",
"=  c #170807",
"-  c #06120C",
";  c #0A120E",
":  c #0C180E",
">  c #13110E",
",  c #1B100E",
"<  c #0B0F11",
"1  c #140E11",
"2  c #1A0E12",
"3  c #1C0D1B",
"4  c #0C1313",
"5  c #0C1C14",
"6  c #0C1B1A",
"7  c #0C1619",
"8  c #141313",
"9  c #1B1314",
"0  c #131B14",
"q  c #1D1519",
"w  c #131C1A",
"e  c #1B1A1A",
"r  c #131719",
"t  c #240403",
"y  c #2B0503",
"u  c #2B0805",
"i  c #220B0B",
"p  c #2D0B0B",
"a  c #270907",
"s  c #320605",
"d  c #3B0604",
"f  c #350905",
"g  c #3C0906",
"h  c #340B0C",
"j  c #3C0B0D",
"k  c #390709",
"l  c #290E12",
"z  c #390F15",
"x  c #231315",
"c  c #2A1313",
"v  c #23141A",
"b  c #2A161C",
"n  c #241C1C",
"m  c #2B1B1D",
"M  c #281815",
"N  c #371616",
"B  c #38120C",
"V  c #0E231A",
"C  c #0D2718",
"Z  c #1D201E",
"A  c #122C1D",
"S  c #10251C",
"D  c #11321E",
"F  c #23221F",
"G  c #36211D",
"H  c #2D1C22",
"J  c #291E23",
"K  c #321D22",
"L  c #301D28",
"P  c #0F2E2C",
"I  c #0E2524",
"U  c #132524",
"Y  c #1E2122",
"T  c #132924",
"R  c #132D2D",
"E  c #192A25",
"W  c #0E322D",
"Q  c #0E3928",
"!  c #153523",
"~  c #163A24",
"^  c #13322C",
"/  c #133B2C",
"(  c #1A3B2A",
")  c #132E31",
"_  c #192C33",
"`  c #0E3131",
"'  c #0F3F32",
"]  c #123232",
"[  c #163A33",
"{  c #242323",
"}  c #2B2425",
"|  c #2D2C2C",
" . c #27282A",
".. c #332225",
"X. c #34252B",
"o. c #3A262A",
"O. c #312C2D",
"+. c #3C2A2D",
"@. c #3B2824",
"#. c #342E31",
"$. c #3D2B31",
"%. c #333333",
"&. c #3B3337",
"*. c #3C3C3C",
"=. c #3C3537",
"-. c #2F302F",
";. c #440C0A",
":. c #470908",
">. c #570D08",
",. c #46130D",
"<. c #4C1E1C",
"1. c #581112",
"2. c #611716",
"3. c #680E09",
"4. c #44241E",
"5. c #63291E",
"6. c #452A29",
"7. c #552D2E",
"8. c #49342A",
"9. c #412D32",
"0. c #443235",
"q. c #423D3D",
"w. c #493639",
"e. c #543834",
"r. c #56382E",
"t. c #66302F",
"y. c #17472D",
"u. c #124334",
"i. c #164C37",
"p. c #1D553A",
"a. c #1A5939",
"s. c #0F4431",
"d. c #24593E",
"f. c #2E4C36",
"g. c #1B653E",
"h. c #20613B",
"j. c #64463A",
"k. c #574838",
"l. c #4D3E44",
"z. c #763E41",
"x. c #175641",
"c. c #235F44",
"v. c #1C6445",
"b. c #1C6B47",
"n. c #1C7A4B",
"m. c #1D7B52",
"M. c #226C4B",
"N. c #246947",
"B. c #23744D",
"V. c #24794D",
"C. c #297A4E",
"Z. c #277954",
"A. c #434343",
"S. c #4C4A4B",
"D. c #484648",
"F. c #544A4B",
"G. c #514F50",
"H. c #555454",
"J. c #5A5A59",
"K. c #48514E",
"L. c #6B4B41",
"P. c #795848",
"I. c #645A5B",
"U. c #745446",
"Y. c #625F60",
"T. c #656364",
"R. c #696E6B",
"E. c #746C6C",
"W. c #787575",
"Q. c #7B7071",
"!. c #7C6650",
"~. c #88383A",
"^. c #814934",
"/. c #964C4B",
"(. c #90584F",
"). c #A45E53",
"_. c #95675B",
"`. c #9F634F",
"'. c #A76459",
"]. c #B47B5F",
"[. c #806866",
"{. c #9C7663",
"}. c #837B7A",
"|. c #AC6D62",
" X c #A97768",
".X c #B77565",
"XX c #1D864D",
"oX c #1D8D51",
"OX c #238551",
"+X c #268856",
"@X c #259656",
"#X c #238D4C",
"$X c #1DA153",
"%X c #27A260",
"&X c #8F8377",
"*X c #B98874",
"=X c #AC8668",
"-X c #C2876A",
";X c #C88E75",
":X c #D7A77E",
">X c #857F81",
",X c #848282",
"<X c #8C898A",
"1X c #948E8B",
"2X c #959392",
"3X c #9C9696",
"4X c #9D9A9A",
"5X c #978E97",
"6X c #A39A99",
"7X c #AA928D",
"8X c #B5A495",
"9X c #A6A4A4",
"0X c #B2AAAD",
"qX c #B5B3B2",
"wX c #BCB7B8",
"eX c #B1ADB1",
"rX c #C89D82",
"tX c #C39B98",
"yX c #CAA289",
"uX c #D7A883",
"iX c #DDB691",
"pX c #E8B88A",
"aX c #E5BA93",
"sX c #E1AD8F",
"dX c #CBB8AE",
"fX c #EAC18E",
"gX c #EBC595",
"hX c #EED3AC",
"jX c #E4CEB7",
"kX c #CAC7C8",
"lX c #D3CCCA",
"zX c #D2CED1",
"xX c #DAD7D9",
"cX c #E9E7E8",
"vX c #F7F4EB",
/* pixels */
"                                                                                                                                ",
"                                                                                                                                ",
"                                                                                                                                ",
"                                                    & X X O #                                                                   ",
"                                                  $ $ % % M =.0 X . X                                                           ",
"                                        h p & > , p f d :.c 9 = % % x                                                           ",
"                                        6.4.y y s ;.k s y y y f y t * & & #                                                     ",
"                                        F G ;.d f f f s s d :.g s t % X . &                                                     ",
"                                      n i y f y t % y :.d d d s y y y y % x G                                                   ",
"                                      X h g y y s B z z j p y k :.d g g :.s a = = 9                                             ",
"                                    F $ f f t g 1.~./././.t.B p t y y s :.:.d j p $                                             ",
"                                    = % t t X g >.2.'.aX;X|.t.c $ j t t y % $ @.                                                ",
"                                    9 $ % % X U.].-X:XfXfX=XM O . % t % t % $ &                                                 ",
"                                      X y y X @.P.aX=Xj.j.8.= F.S.X % t s d f % *                                               ",
"                                      F p a $ % G iX=XU.P.t.B 7X4X& $ = s s a c                                                 ",
"                                      O.i % O 4.(.fXfXfXfX;X^.dX8Xh G 6.* $ X                                                   ",
"                                      # * , . _.:X:XiXpXfXfXpXsX=X5. X*X9 . O n                                                 ",
"                                          #.0 {.:X`.;XgXgXgXiXaX:X=X:XyX9 = % &                                                 ",
"                                          J.&X*.8.yXjXvXvXlX7XrX XM E.&X, =                                                     ",
"                                          e.t.x # 8.&XhXhXyX_.r.m . 2XlX<.N                                                     ",
"                                        0 n } & Y 5XQ.j.|..X.X!.D.o K.R.c c                                                     ",
"                                      0 ( ! 6 @ Y <X,X}.>XtXdX}.F.X - 7 7 r 1 &                                                 ",
"                                    e 5 c.c.D ; + 3 E.wX9X5X5X#.8 T 6 6 ) U 4 o #                                               ",
"                                  O < _ R u.N.A . l L L b b v + V b.i.P ) W R S 5 +                                             ",
"                                  0 V ) P ` ^ 4 X q X.&.J v v . - ^ ) ) ' s.s.M.p.o e                                           ",
"                                5 C.v.^ R W ) 4 + J Q.0X0.H v + @ ) ) s.OXoX+XOXv.W 7 #                                         ",
"                              @ @ y.g.N.C 7 ^ # + L l.I.+.H q + - ^ ^ ^ A / i.i.a.M.S &                                         ",
"                              > @ T i.V.V 5 N.C + L $.$.o.m x X V V.n.N.- 7 ) ) ] p.p.y.0                                       ",
"                            e e V g.n.B.5 C Z.! + L 6.9.v 9 * X : a.#X@XC 5 V R ] R b.N.o                                       ",
"                            @ ~ g.@X$X#Xy.~ d.6 + v m } + M e.r.6.$ y.N.p.T o 6 ^ x.n.M.~ E                                     ",
"                            O h.%XoXoXoX#Xc.; < @ . o O m U.*X X!.= O : d.~ . . ! OXXXXX+X( .                                   ",
"                            . a.+Xs./ s.M.v./ ^ U + & ..*X.X(.4.= O O # & - + . - ! v.m.B.! .                                   ",
"                            o A [ ^ ` ` ' i.m.i.I + L.;XsXpXuX8.X O 8 9 & e U # + O U [ [ 6 .                                   ",
"                              8 < ) ] _ ` i.Z.i.U O !.aX:X-X_.K X + 9 M h a * h s X U ) ) r @                                   ",
"                              + @ _ ] W b.XX@Xn.v.p.f.k.r.8.N & % s :.,.B x , ;.k $ U R 7 Y  .                                  ",
"                                e w [ b.b.b.b.m.OXOXi.6 6 < . . $ p j N n c ,.j * O 4 w 7 Y Y                                   ",
"                                  X ~ Z.' ) W u.d.v.u.V U  .*.*.#.# * B B ;.:.r.6.# X < _ 5 .                                   ",
"                                Z 4 5 I ) ) ` 6 ; V 8 O X 0.>X}.Y.x p :.>.4.e..X_.+., @ U 6 @                                   ",
"                            # + - ( A @ U ) P T U # < 9 2 L w.K K 0.x & v P.uX'._. X@.. X 8                                     ",
"                        o < R P s.+Xa.@ T I @ + # 2 & X x K 0.H m 9.9 x  X|.).-X_.M & + + 9                                     ",
"                        # @ R x.B.OXV.h.S + X m ..v # . 2 H 9.$.+.H & $ G P.*X'.t.o r 9 0 8 #                                   ",
"                      < S ~ B.XXV.! D T 8 x ..+.$.H # . & 2 K 9.$.x H J $ m e...m X 8 e e 8 8 &                                 ",
"                    n J 0 V y.y.! > & & } +.0.@.H & #.F.# + v $.$.x +.9.H 8 . 4 6 6 4 < e e e # 8 &                             ",
"                  . 9 &.q # # & = { H K 9.+.} 8 9 =.E.2XS.| 2 +.9.K ..o.0.n . 7 I R w < 4 8 e e q 8 e                           ",
"                Z # 9 $.b v H b K 9.9.6.6.H . e A.2X3X2X4XE.O.O.+.9.K b 9.K 2 2 0 T ( [ A w 8 e e } 8 8                         ",
"                + 9 n b v b +.$.9.9.L x q & X H.,X2X3X6X3X3X1X .* 0.K H 9.9.9.9.} o i.M.N.( < q e e { Y # e                     ",
"                X o.$.9.b v v b b b x q # O X 8 | <X1X1X1X2X2X-.9 $.0.+.b K 9.H x O # 6 / ^ E @ ; e e n } 0 #                   ",
"                . & n 0.m b $.$.9.$.m # | %.| %.%.{ Y F { S.2X,XY.2 x J x v H +.+.o.1 # R ) E # X # 9 e e Y F 1                 ",
"                e o + 8 q b H v 1 8 & X %.        }  . . .#.%.&X2XR.%.& o.L x 9.0.0.b 1 < < 7 r     > 4 e e { Z q &             ",
"                  X . . # & + . . . 8  .*.                =. .A.D.D.J # 9.9.L L @.0.H 2 1 + +         8 & q e Z 0 9 r           ",
"                    & . . 8 H.D.l.*.%.-.                    D.Z + o X X J o.9.b b +.H 3 1 . .           ; 8 2 z F.}.S.=.n       ",
"                      X Y H.wXwXeXeXY.o |                           e 8 X 9 +.H q 2 3 q  .| |               i N [.wX&XK.O       ",
"                      8 J.<X9XzXcXzXE.o |                             *.l * 3 2 1 X 1 &.4X9X<Xw                 e 8 # # #       ",
"                        e A.cXkX9X9XY.. -.                              c.} + + X . T.9XvXxXeX .9                               ",
"                        O  .6XqXkXcX,X.                                   *.&.0.{ + 9XcXvXzX9X,XG.#                             ",
"                        #.%.%.*.A.G.-.X                                         c.%.D.R.qXzXxXkXW..                             ",
"                        { e X X & k y 3 8 q                                     %.-.# # A.Y.W.T.w.p i                           ",
"                      x l p # 3 z 3.>.h $ O                                       1 1 & s y t $ i N = O                         ",
"                      + j 1.h c l 1.5.t.2 .                                     & . l :.>.:.g j l q + +                         ",
"                    #.=.w.w.7.7.&.+.F.W.n X                                     < X <.t.w.l.e.7.7.o.1 #                         ",
"                      zXzXzXqXqXeX<XH.1 8                                       1 + I.6XxXxXxXdX6X,X{ @                         ",
"                        J.J.G.H.J.S.#.                                            8                                             ",
"                                                                                                                                ",
"                                                                                                                                "
};
