/* XPM */
static char *_74395f6d4494c2bcf28d2a5a50a6a16HFV8AejzzSG1cq51[] = {
/* columns rows colors chars-per-pixel */
"64 64 94 2 ",
"   c None",
".  c #BBB777",
"X  c #BEB975",
"o  c #BCB977",
"O  c #B5B57B",
"+  c #B7B67B",
"@  c #B0B37E",
"#  c #B1B37F",
"$  c #B3B37E",
"%  c #B3B47E",
"&  c #B4B47D",
"*  c #B5B67D",
"=  c #B8B779",
"-  c #CABE6B",
";  c #CABF6C",
":  c #CABE6D",
">  c #C1BA72",
",  c #C2BB73",
"<  c #C2BC71",
"1  c #C5BD70",
"2  c #C0BB75",
"3  c #DEC85D",
"4  c #DCC85E",
"5  c #F6D34B",
"6  c #F3D24D",
"7  c #F4D34C",
"8  c #F6D44C",
"9  c #F9D549",
"0  c #F8D44A",
"q  c #EBCE52",
"w  c #E8CD54",
"e  c #E3CA59",
"r  c #E3CB59",
"t  c #E0C95B",
"y  c #E1C95B",
"u  c #E5CB59",
"i  c #EFD151",
"p  c #CAC06B",
"a  c #CEC16A",
"s  c #CBC06C",
"d  c #D2C364",
"f  c #D2C366",
"g  c #D4C364",
"h  c #D9C661",
"j  c #3C7DD9",
"k  c #387BDC",
"l  c #2D76E3",
"z  c #2F77E3",
"x  c #2974E5",
"c  c #2975E5",
"v  c #2A74E5",
"b  c #2A75E5",
"n  c #2B76E5",
"m  c #2974E6",
"M  c #2975E6",
"N  c #2A74E6",
"B  c #2A75E6",
"V  c #3078E2",
"C  c #7296AF",
"Z  c #7799AC",
"A  c #7B9BA9",
"S  c #6792B7",
"D  c #6E94B2",
"F  c #6892B7",
"G  c #6691B8",
"H  c #6490BA",
"J  c #4A84CD",
"K  c #4984CF",
"L  c #5689C4",
"P  c #588AC3",
"I  c #4582D1",
"U  c #4682D0",
"Y  c #4280D4",
"T  c #4987E7",
"R  c #87A09F",
"E  c #8BA29C",
"W  c #93A697",
"Q  c #96A794",
"!  c #92A598",
"~  c #A5AE86",
"^  c #A8AF86",
"/  c #A3AD8A",
"(  c #A3AD8B",
")  c #A5AE88",
"_  c #A5AE89",
"`  c #AFB381",
"'  c #ACB083",
"]  c #ACB183",
"[  c #ADB282",
"{  c #A9B086",
"}  c #809DA4",
"|  c #819DA4",
" . c gray90",
".. c #E6E6E6",
/* pixels */
"                                                                                                                                ",
"          ........                                                                                                              ",
"        ............                                                                                                            ",
"      ................                                                                                                          ",
"      ................                                                                                                          ",
"      ................                                                                                                          ",
"      ................                                                                    x x B B B x x B x x                   ",
"        ............                                                        x x B x B B B B B B B B B B B B n B B B n x         ",
"          ........T                                               B B B B B B B B B B B B B B B B B B B B B B B B B B B B       ",
"          ........x B B x x                         B B x x B B B B B B B B B B B B B B B B B B B B B B B B B B B B B B B       ",
"          ........x x B B B n B B B B B B B B B B B B B B B B B B B B B B B B B B B B B B B B B B B B B B B B B B B B B B       ",
"          ........x n B B B B B B B B B B B B B B B B B B B B B B B B B B B B B B B B B B B B B B B B B B B B B B B B B B       ",
"          ........B B B B B B B B B B B B B B B B B B B B B B B B B B B B B B B B B B B B B B B B B B B B B B B B B B B B       ",
"          ........B B B B B B B B B B B B B B B B B B B B B B B B B B B B B B B B B B B B B B B B B B B B B B B B B B B B       ",
"          ........B B B B B B B B B B B B B B B B B B B B B B B B B B B B B B B B B B B B B B B B B B B B B B B B B B B B       ",
"          ........B B B B B B B B B B B B B B B B B B B B B B B B B B B B B B B B B B B B B B B B B B B B B B B B B B B B       ",
"          ........B B B B B B B B B B B B B B B B B B B B B B B B B B B B B B B B B B B B B B B B B B B B B B B B B B B B       ",
"          ........B B B B B B B B B B B B B B B B B B B B B B B B B B B B B B B B B B B B B B B B B B B B B B B B B B B B       ",
"          ........B B B B B B B B B B B B B B B B B B B B B B B B B B B B B B B B B B B B B B B B B B B B B B B B B B B B       ",
"          ........B B B B B B B B B B B B B B B B B B B B B B B B B B B B B B B B B B B B B B B B B B B B B B B B B B B B       ",
"          ........B B B B B B B B B B B B B B B B B B B B B B B B B B B B B B B B B B B B B B B B B B B B B B B B B B B B       ",
"          ........B B B B B B B B B B B B B B B B B B B B B B B B B B B B B B B B B B B B B B B B B B B B B B B B B B B B       ",
"          ........B B B B B B B B B B B B B B B B B B B B B B B B B B B B B B B B B B B B B B B B B B B B B B B B B B B B       ",
"          ........B B B B B B B B B B B B B B B B B B B B B B B B B B B B B B B B B B B B B B B B B B B B B B B B B B B B       ",
"          ........B B B B B B B B B B B B B B B B B B B B B B B B B N n N B B B N n N B B B n B B n n n n n B B B B B B B       ",
"          ........B B B B B B B B B B B B B B B B B B B B B B B B B n n B B B B n z K H | ! ( + 2 , a : 2 ` ( R G I B n B       ",
"          ........B B B B B B B B B B B B B B B B B B B B B n n B B B n J D ! * h 5 9 9 9 9 9 9 9 9 9 9 9 9 9 9 9 9 u [ Z       ",
"          ........| K B B B B n B B B B B B B B B B B B B n I F E ` a 5 9 9 9 9 9 9 9 9 9 9 9 9 9 9 9 9 9 9 9 9 9 9 9 9 9       ",
"          ........9 9 r ` Q C P I j V z k k Y P G A Q ` a i 9 9 9 9 9 9 9 9 9 9 9 9 9 9 9 9 9 9 9 9 9 9 9 9 9 9 9 9 9 9 9       ",
"          ........9 9 9 9 9 9 9 9 9 9 9 9 9 9 9 9 9 9 9 9 9 9 9 9 9 9 9 9 9 9 9 9 9 9 9 9 9 9 9 9 9 9 9 9 9 9 9 9 9 9 9 9       ",
"          ........9 9 9 9 9 9 9 9 9 9 9 9 9 9 9 9 9 9 9 9 9 9 9 9 9 9 9 9 9 9 9 9 9 9 9 9 9 9 9 9 9 9 9 9 9 9 9 9 9 9 9 9       ",
"          ........9 9 9 9 9 9 9 9 9 9 9 9 9 9 9 9 9 9 9 9 9 9 9 9 9 9 9 9 9 9 9 9 9 9 9 9 9 9 9 9 9 9 9 9 9 9 9 9 9 9 9 9       ",
"          ........9 9 9 9 9 9 9 9 9 9 9 9 9 9 9 9 9 9 9 9 9 9 9 9 9 9 9 9 9 9 9 9 9 9 9 9 9 9 9 9 9 9 9 9 9 9 9 9 9 9 9 9       ",
"          ........9 9 9 9 9 9 9 9 9 9 9 9 9 9 9 9 9 9 9 9 9 9 9 9 9 9 9 9 9 9 9 9 9 9 9 9 9 9 9 9 9 9 9 9 9 9 9 9 9 9 9 9       ",
"          ........9 9 9 9 9 9 9 9 9 9 9 9 9 9 9 9 9 9 9 9 9 9 9 9 9 9 9 9 9 9 9 9 9 9 9 9 9 9 9 9 9 9 9 9 9 9 9 9 9 9 9 9       ",
"          ........9 9 9 9 9 9 9 9 9 9 9 9 9 9 9 9 9 9 9 9 9 9 9 9 9 9 9 9 9 9 9 9 9 9 9 9 9 9 9 9 9 9 9 9 9 9 9 9 9 9 9 9       ",
"          ........9 9 9 9 9 9 9 9 9 9 9 9 9 9 9 9 9 9 9 9 9 9 9 9 9 9 9 9 9 9 9 9 9 9 9 9 9 9 9 9 9 9 9 9 9 9 9 9 9 9 9 9       ",
"          ........9 9 9 9 9 9 9 9 9 9 9 9 9 9 9 9 9 9 9 9 9 9 9 9 9 9 9 9 9 9 9 9 9 9 9 9 9 9 9 9 9 9 9 9 9 9 9 9 9 9 9 9       ",
"          ........9 9 9 9 9 9 9 9 9 9 9 9 9 9 9 9 9 9 9 9 9 9 9 9 9 9 9 9 9 9 9 9 9 9 9 9 9 9 9 9 9 9 9 9 9 9 9 9 9 9 9 9       ",
"          ........9 9 9 9 9 9 9 9 9 9 9 9 9 9 9 9 9 9 9 9 9 9 9 9 9 9 9 9 9 9 9 9 9 9 9 9 9 9 9 9 9 9 9 9 9 9 9 9 9 9 9 9       ",
"          ........9 9 9 9 9 9 9 9 9 9 9 9 9 9 9 9 9 9 9 9 9 9 9 9 9 9 9 9 9 9 9 9 9 9 9 9 9 9 9 9 9 9 9 9 9 9 9 9 9 9 9 9       ",
"          ........9 9 9 9 9 9 9 9 9 9 9 9 9 9 9 9 9 9 9 9 9 9 9 9 9 9 9 9 9 9 9 9 9 9 9 9 9 9 9 9 9 9 9 9 9 9 9 9 9 9 9 9       ",
"          ........9 9 9 9 9 9 9 9 9 9 9 9 9 9 9 9 9 9 9 9 9 9 9 9 9 9 9 9 9 9 9 9 9 9 9 9 9 9 9 9 9 9 9 9 9 9 9 9 9 9 9 9       ",
"          ........9 9 9 9 9 9 9 9 9 9 9 9 9 9 9 9 9 9 9 9 9 9 9 9 9 9 9 9 9 9 9 9 9 9 9 9 9 9 9 9 9 9 9 9 9 9 9 9 9 9 9 9       ",
"          ........9 9 9 9 9 9 9 9 9 9 9 9 9 9 9 9 9 9 9 9 9 9 9 9 9 9 9 9 9 9 9 9 9 9 9 9 9 9 9 9 9 9 9 9 9 9 9 9 9 9 9 9       ",
"          ........9 9 9 9 9 9 9 9 9 9 9 9 9 9 9 9 9 9 9 9 9 9 9 9 9 9 9 9 9 9 9 9 5 4 s . $ ] )           ) [ + - y 9 9 9       ",
"          ........9 9 9 9 9 9 9 9 9 9 9 9 9 9 9 9 9 9 9 9 9 9 9 9 9 9 8 4 1 * )                                       { >       ",
"          ........o 4 9 9 9 9 9 9 9 9 9 9 9 9 9 9 9 9 9 9 9 y s * ^                                                             ",
"          ........      ) $ < f y w 6 5 q q y g ; X # ~                                                                         ",
"          ........                                                                                                              ",
"          ........                                                                                                              ",
"          ........                                                                                                              ",
"          ........                                                                                                              ",
"          ........                                                                                                              ",
"          ........                                                                                                              ",
"          ........                                                                                                              ",
"          ........                                                                                                              ",
"          ........                                                                                                              ",
"          ........                                                                                                              ",
"          ........                                                                                                              ",
"          ........                                                                                                              ",
"          ........                                                                                                              ",
"          ........                                                                                                              ",
"                                                                                                                                "
};
