/* XPM */
static char *fdf532877f9c4a4cb5328b3619883a6fasxAZGfT2NWRAPeR[] = {
/* columns rows colors chars-per-pixel */
"64 64 214 2 ",
"   c #372E45",
".  c #2C3445",
"X  c #2C354A",
"o  c #25394E",
"O  c #2D3B4D",
"+  c #273848",
"@  c #333345",
"#  c #3A3246",
"$  c #34354B",
"%  c #3B344B",
"&  c #333A4C",
"*  c #3B3A4D",
"=  c #363847",
"-  c #2D3C52",
";  c #343C52",
":  c #3B3C52",
">  c #383751",
",  c #43344D",
"<  c #42394D",
"1  c #423650",
"2  c #423A52",
"3  c #35404E",
"4  c #334153",
"5  c #3C4155",
"6  c #35445A",
"7  c #3C465A",
"8  c #2E4250",
"9  c #3C4E62",
"0  c #3C546A",
"q  c #3D5569",
"w  c #41455A",
"e  c #444D64",
"r  c #44556E",
"t  c #4C546D",
"y  c #495D6E",
"u  c #515669",
"i  c #4B5B72",
"p  c #455A72",
"a  c #4D606F",
"s  c #4B6475",
"d  c #486877",
"f  c #4D6579",
"g  c #4D6A7C",
"h  c #446679",
"j  c #546476",
"k  c #54667B",
"l  c #5B667D",
"z  c #536B7C",
"x  c #5A6C7C",
"c  c #57717F",
"v  c #64677E",
"b  c #4E6D81",
"n  c #536C81",
"m  c #5C6D82",
"M  c #557284",
"N  c #5C7385",
"B  c #5E748A",
"V  c #5C7A8B",
"C  c #567688",
"Z  c #5E7F90",
"A  c #646F83",
"S  c #696C82",
"D  c #627284",
"F  c #6A7487",
"G  c #63758A",
"H  c #6C748A",
"J  c #627A8C",
"K  c #6A7A8C",
"L  c #647C93",
"P  c #6B7E92",
"I  c #747F93",
"U  c #648395",
"Y  c #6B8395",
"T  c #6C859A",
"R  c #66899C",
"E  c #6D8A9D",
"W  c #658699",
"Q  c #748496",
"!  c #7A8597",
"~  c #73849B",
"^  c #7C8699",
"/  c #748B9D",
"(  c #7B8A9C",
")  c #768A96",
"_  c #6F909F",
"`  c #7C919F",
"'  c #6E8DA2",
"]  c #738EA3",
"[  c #7C8DA3",
"{  c #718FA9",
"}  c #6E91A4",
"|  c #7393A5",
" . c #7C93A5",
".. c #7A99A6",
"X. c #7495AA",
"o. c #7B95AA",
"O. c #7599AD",
"+. c #7B99AD",
"@. c #6F9EB2",
"#. c #7A97B1",
"$. c #769BB1",
"%. c #7C9CB2",
"&. c #7E9EB9",
"*. c #7CA1B5",
"=. c #7EA3B9",
"-. c #75A2B9",
";. c #818699",
":. c #828B9D",
">. c #818495",
",. c #838DA2",
"<. c #8689A1",
"1. c #8394A6",
"2. c #8C93A6",
"3. c #8395AB",
"4. c #8B92A9",
"5. c #849BAD",
"6. c #8B9BAB",
"7. c #8198A6",
"8. c #939DAD",
"9. c #9A9DAE",
"0. c #829CB3",
"q. c #8A9EB2",
"w. c #839EBA",
"e. c #8797B1",
"r. c #939EB2",
"t. c #9B9DB1",
"y. c #8BA1AD",
"u. c #94A3AF",
"i. c #83A1B5",
"p. c #8BA3B4",
"a. c #82A2B9",
"s. c #8AA6BB",
"d. c #8DABBB",
"f. c #89AABB",
"g. c #94A3B3",
"h. c #9BA3B4",
"j. c #94A9B5",
"k. c #94A5B9",
"l. c #9AA5BA",
"z. c #93ACBD",
"x. c #99ACBC",
"c. c #9DAAB6",
"v. c #93B1BE",
"b. c #A4A7BA",
"n. c #A1ACBE",
"m. c #A0A1B5",
"M. c #8EADC2",
"N. c #93AEC2",
"B. c #9BAEC1",
"V. c #96AEC8",
"C. c #8EB1C3",
"Z. c #94B3C4",
"A. c #9BB4C5",
"S. c #9CB9C6",
"D. c #95B4C9",
"F. c #9AB6CB",
"G. c #96B9CC",
"H. c #9CBBCD",
"J. c #97B8C7",
"K. c #97BBD0",
"L. c #9DBDD1",
"P. c #A3AEC1",
"I. c #A3B4C5",
"U. c #AAB2C4",
"Y. c #A3B9C7",
"T. c #A2B6CA",
"R. c #ADB6CB",
"E. c #A2BCCD",
"W. c #ABBBCC",
"Q. c #B0B2C7",
"!. c #B4BBCE",
"~. c #B1B5CC",
"^. c #A3BED2",
"/. c #AABED3",
"(. c #B2BED0",
"). c #9EC1CE",
"_. c #9EC2D2",
"`. c #A4C1CF",
"'. c #ACC0CE",
"]. c #A4C2D4",
"[. c #ABC4D5",
"{. c #A5C8D5",
"}. c #ABC8D6",
"|. c #A6C5D9",
" X c #ABC5DA",
".X c #A6CADA",
"XX c #ACCADC",
"oX c #B2C4D4",
"OX c #B3CAD7",
"+X c #B2C6DA",
"@X c #BCC3DB",
"#X c #B2CBDC",
"$X c #BACCDD",
"%X c #BAC7D7",
"&X c #B5D1DE",
"*X c #BBD0DE",
"=X c #ADCDE1",
"-X c #B2CCE1",
";X c #BBCFE1",
":X c #AED1E4",
">X c #B4D3E4",
",X c #BCD3E4",
"<X c #B6D5EB",
"1X c #BBD6EA",
"2X c #B6D9EB",
"3X c #BBDAED",
"4X c #BAD8F0",
"5X c #C2CCDF",
"6X c #C2CDE1",
"7X c #C2D3E4",
"8X c #C3D6EB",
"9X c #CAD8EA",
"0X c #C6D8E9",
"qX c #C2E1F6",
/* pixels */
"[.]._.].^.^.E.^./.J b } _.XXXX+XXXH. X^.H.^.^.H.XX}.x ( c.[.+X}.XX#X X X X XXX=XXX XXXXX-XXXXXE.S.].E.;X; ,...C.C.Z.L.K.^.V.^.F.",
"^.^.H._.^.E.^.^.^.n g f..X:X[.XX[.^.E.^.F.^.H.XXXX[.v.) x.OXqXv.N. .S.Z.D.F.N.1X X.X X.X[.XX X-Xq.N.s.x.; [ _ v.D.M.L.L.F.^.-X^.",
"^.H.L.).^.^.E.^.T.8Xb f.-X X-X#X#X].V.^.^.L.M.XX}.&XI.( l.D G m B M c g g d n d +.d.Z.Z.5.| ....D J G c * :...v.H.J.F.F.H.F.=X+.",
"^.]._._.E.^.^.E.^.T.b Z.XXXX#XXXE.].E.Z.^./.^.|.+X'.0X& & D D G J N J N N D f g j s f k j f G m N D D F & 2.y.J.d._.G.L.S.H.[.i.",
"^.^.].H.H.].^.E.[.- g Z..XXX[.XX).H.`.E.^.H.^.#X#X$X9X@ * & O ; . 5 . & & ; ; & ; O : X ; > > ; ; O O ; # :.x.d.v.H.F.H.F.-XE W ",
"E.E._.H.E.^.].^.T.- d Z.XX X,X XH.].H.].V.L.].].[.[.7X4 @ X r.k.l.t.t.b.h.t.4.h.<.<.w ; ; O > > & O + & u b.oXz.Z.H.H.F.<X XW U ",
"^.E._.^.`.].E.W.R.9 f Z.XXXX-X X).F.N.^.H.^.^.XX*X[.9X= & P.%X%X$X%X$Xc.1.j.k.k.[ 1. .( 1.e.T 3.[ 1.m u $ l.E.Z.Z.E.L.J..X| | _ ",
"^.^.H._.H.E.H.E.;XX z ...XXXXXE.H.`.^.^.^.^._. X[.+X7X& W.oXI.I.W.S.S.A.Y.E.[.....5.+.5.+.o.s.5.0.3.3.j & t.%XN.Z.Z.F..X.X_ | | ",
"H.E.H.].H.E.].E.6X> k ]  XXXXXE.H.`.E.E.].E._.|.XX[.0XI.I.I.[.S.z.J.H.v.S.Z.Z...O...%.*.X.%.i.%.%.0.o.n ; h.+Xf.H.H.L.|.M.' { X.",
"E.].L.H.`.E.`.Y.-X> P L .X|.].E.].E.].^.H.^.=X:X.X[.*XW.#X'.E.].H.S.`.{. XL..X>XL.i.*.%.X.=.X.O.%.#.0.m X x.].J.F.^.F.s.{ ' { T ",
"_.L.E.].E.H.E.W.~.2 m f  XXXE.E.E.S.^.^.H.L.=XD.2X#X[...OX+X].).].].{.{.|.L.^.=X|.=X| %.=.X.%.#.X.%.#.+.m - .XZ.D.G.F.0.{ X.X.X.",
"_.^.].L.`.`.E.[.S   H B <X].H.Z.^.E.^.H./.|.=XX.| XXXXp.[.`.|.{.]..X X|.|.=X|.^.|./.D.L.X.%.%.&.$.%.X.0.n -  Xf.N.M.w.{ { { ' { ",
"E.L.].E.`.`.`.$X% : F B Z.).H.^.E.].H.H.^.|.D.{ | 3X#Xq.[.[. X].].[.^. X/. X/.|.|./.=XF.L.{ =X:XD.&.$.o.A - ^.Z.D.F.o.' { X.| R ",
"_.H.^.E.E.`.`.,X> % F m M.].^.E.E.Z.J.E.L.=X$.X.O.o.[.o.p.^.[.|.[.XX[.XX/././. X/.=XF.V.-XV.F.K.K.C.^.X.k 4 k.d.N.Z.X.| { { { ' ",
"_.L.].E.E.`.E.;X% % u K  .H.E.].E.Z.F./.^.L.{ X.X.o.T.o k.[.XX X].[.].].|.|.].H.K.L.^.L.F.K.L.L.K.G.K.G l X ..Z.Z.z.O...} } } O.",
"L.L.^.E.].E.S.;X% 2 . N B Z./.T.T./.^.^.V.#.o.o.o./ 8 - 3.+X^.=X]. X X|.|.].H.G.F.L.L.L.L.K.D.K.G.G.N.G H $ 1.}.XXZ.| } W O.} | ",
"L._._.].E.E.E.7X> % > A F l.6Xm.m.h.u.c.! ;.;.;.>.:.= & u.y.].{./. X|.|.3XG.H.F.K.K.L.^.F.F.L.G.G.C.C D > : :.p.J U U U U W U U ",
"].H.H.F.].^.W.oX> $ & ; ; ; & $ * @ 3 3 @ * * # # @ = * * 6.].].=X/. XXXXX| 0.#.&.#.#.{ o.o.] E ' p y v % % $ I Y z c z h d g g ",
"/ N.z.[.E.Y.E.,X; F D N d z f D u O . 3 = = # < # < % # = ; l.,X|.|.XXZ.D.' ] ] X.{ L { ] I ~ ~ I H % 1 , 1 < * K x j s z z d n ",
"^ Q ( I.$X/.Y.$X& S / | ..O.M d F F c F w = < , < # < , % % 4.3.e.+.| U y.Q ( I U R { I I o - O > : % % % = * = * = 3 D D m N z ",
": . F 6.h.g.j.h.$ P./. X_.=X>XF...a 1.0X5 < # < < @ # * : % : > ; X w 2 @ : 2 2 - - o - / / / / ] ~ ! ( ( ( ) 3 . w   1 % % > ; ",
"@ * @ & $ & N 8.; U.T.=X.X:X].=X#X*X'.oX! = % * = : U.Q.!.Q.7 & : % 2 % , # , , ; q.e.%.q.+.s.XX.X[.`.E.E.Y.`.n.5Xt.  # , 2 t.h.",
"oXW.Y.W.OXW.x.O O (.E.H.=X.X=X XXX#X#XoX^ $ * = n.'.I.,X6X6X*X'.W.h.> $ , , , 1 D m XX#X|.-X/./.[.>X[.E.`.).v.`.I.W.5X* * 5XW.[.",
"Y.Y.E.`.'.`.S.E.; R.S.).L..XXXXXXX[.#XoX:.& * U.Y.'.}.[.`.[.`.`.[.oXW.. % # , % A G 8X X-X|.=X-X#X X#X].{.H.{.).`.Y.W.4 + !.S.`.",
"[.L.H._.H.].F._ X U.[.S.`.E.#X+X=X X#X+X! & U.R.Y.).).{.|.].`.{.{.`.}.'.Q.= , # A N V. X-X+X X-X+X=X-X XE.H._.H.E.'./.k.X R.^.E.",
"F.].|.K.|.F.)./ O R.I.[.z.`.W.E.XXXXXX[.` = n.Y.S.J.)._.{.|.{.{._..XS.W.!.m.: > G G p.+X/.+X X X=X/.=X-X^.H.)._.).E.A.k.4 ^.E.^.",
"^.^.%.%.-X^.L.] ; !.[.S.v.W.x./.^.XX X+X! 3 c.n.H.J.G._.].[.[.[.=X].[.oX6XQ.% @ A C 3. X=X-X-X=X X X-X/./.L.L.].L.E.].x.m /.E.E.",
"=X#.%.#.o.F.].[ X !./.Y.E.`.Y.E.^.L.#X+X) 6.u.'.E.J.L.{. X[.[.XX}.|.XX[.oXR.H : B N 0.-X+X-X|.|.=X-X-X^./.^.^.L.].H.XXs.] E.E.^.",
"{ #.$.&.&.M.L.].- [ /.H._.).].Z.^.^.S.E.( u.u.*XS.Z.L./././.[.].|..X).}.E.,Xu.O V g C.XX.X=X|.XX=X=XL.L.].H.F._.H.|. Xz./ ^.E.E.",
"w.&.$.$.O.*.M.^.- [ { |.G._.^.H.V.^.].'.) j.u.OXS.Z.F.|./.=X X].XX_.{.{.XX,X5.8 C h Z.XX=X.X=X>X=X^.D.L.E.].Z.{.). X XS.[ E.].).",
"&.h ' $.%.+.+./.- ,.#.=XXX=XH. X/.^.F.E.'.j.u.&XS.G.L.=X=X=X=X|.^. X|.`.].OX6.m N g B.XX X X.XXX#X^.F.^.Y.E.S.].].[.+XI.) `.{.).",
"r p 0 0 k ] Z.N.; 3.o.+XXXXX X X^././.E.8 y.y.OXS.H.|.=X^./._._. X=X}.}.,Xp.1.D z d N.+X+X XXX X[.^.E.B.].H.].H.`.+X+X,X/ #X{.).",
"& $ $ & w :.,.,.^ P.oXXX[.+X#XXX}.W.Y.!.. u.j.oXS.v. X|. X]..X_.].^..X|.>Xy.u.N h M -X X#XXX.X+X`.`.S.].Z.J.^.E.XXOXoX,X( +X}.}.",
"& : $ & ; w & + 8 - O O ,X8X,X#XA.n.n.u.= m.u.oXS.H.XX^./.XX_.=X|. X<X2X>Xj.7.j n $.=X-X}.[.#X[.H.).E.[.E.].].F.}.XX+X,X~ OX}.}.",
"P ~ P T ] / P T Y T L T E Y T T 9 O + & * 8.l.I.S.{.E.].].+X_.{.`.[.H.G.J.`.8.7 i V.=X X}.[.#XH.J.H.).H.G._.L.K..XXXXX,X_ }.XX.X",
"| +.| ' ] ' ' ' ' ' ] ' s.M.s.M.z.5.6.8 * F 8.A.S.S. X X+XH.XX|.XXH.).f.v.y.6.O b V.|.-XXX&X}.E.S.H.].H.J.H.L.=X.X.X+X,X_ .X&X.X",
"K.L./.L.F.L.L.F.D.0.] o.s.3X/. X X XB.5.& & t.g.S.d.{.]./.-X/.|.F.F.F.K.v.7.8.3 n M.-X|.}.}.E.^.H.H.^.^.^.^.^.=XXXXX+X8X` XX}.{.",
"L.G.L.L.D.K.L.H.^.D.^.N.8X].=X^./.].+XI.6.O k.g.&X>X].]./.^.=X^.H.^.L.G.d.7.8.+ i #./.=X}.F.S.E.E.S.T.T.^.E.^.|. X X+X8X` OXXX.X",
"F.L.K.L.H.L._.F.Z.].M.].}.).}.|. X|./.].B.; 6.k.| ..3X/.-X X]. XS.H.N.L.p.5.r.e n o.XX&X`.H.E.E.].E./.^.T.^.=X-X-X+X+X8X1.oX+XXX",
"L.:XF.F.D.H.).J.H.H.XX|.{.{.{.|.^.|.|.XXp.6.p./ o.O.K.<X]. X[.H.A.H.^.G.p.6.8.& G o. X[.v.`.E.].^.^.^.E.^.^.-XF.3X-X+X0X[ +X+X}.",
"&.i.<XZ. X|._.|.].XX|.|.`.}.].|.|.=X_.=Xa.5.] [ *.O.O.:X].XX].L.^.F.^.L.p.p.F & L L -X].`.S.E.].{.G.f._._..X2XX.X.4X X/.A /.-X X",
"O.#.X.4XM. XXX|. X X].|.].}.^./._.=X_..X^.q.1.+.+.+.*.| G.{.|.H.^.F.F.F.s.5.@ & m G V.A.`.`.H.H.G._.{.H.).=XO.X.X.+./.9 9 +X,XB.",
"%.X.=.&.L.^.|.|.^.^.^. X[. X/.^.=X^._._. X5. .[ ..*.-.} _.M.|.K.F.^.L.=Xp.y.3 $ L G B./.Y.Y.E.Z.H.G.H.]._.2XX.} | o.+X; ; +Xl z ",
"$.=.$.$.$.F.4X|.=X|.|. X^./.-X X^.|.=X_.].0.1.o.*.%.-.$.$.=X].G.L.V.F.M.y.6.& & A G k.-X&X&X,XE._._.H.C...| | O...o.4.- ; G D G ",
"$.$.=.%.&.$.=.4X_.L.|.|.L.]. X/. X X).XX[.5.k [ o.%.$.O.%.D.-XV.D.V.L.C.p.6.* * X L q.k.p.p.p.z.s.p.i./ / T E / ] ] 4 ; O H G m ",
"%.+.X.+.#.%.%.X.Z.Z.F.L.K.F.L.A.H.Z.XXH.[.p.- ,.i.#.=.=.X.%.L.<XK.L.D.N.p.6.= = O - 9 1.OX}.E.+X*X,X+XE.E.^.^.|.E.;X+X@Xt.q.- - ",
"( 5. . .3.7.o.[.E.A.S.`.E.A.J.A.I.^.F.|.E.T.- [ 3.0.$.$.*.X.F.L.D.F.L.M.p.y.@ 8.@X/.T./.Y.Y.E.E.I./.W.[.`.E.].F.H.S.[./.[.Y.E.`.",
"O + 2.,.:.( ( g.g.j.Y.OX&XY.A.A.I.S.I.;X(.o > 4.+.*.=.O.%.%.=X^.K.F.L.N.p.u.= >.6X;XoX^.Y.'.Y.E./.^.^.S.^.|.G.].].^.E.S.W.`.S.H.",
"+XoX$ * : $ b.9.m.9.u.u.7.u.oX%XOXY.Y.U.= = > [ o.M.@.@.$.O.=XL.G.F.H.B.u.6.= :.W.-X].L.].].L./.L.^.|.L._.L._.].L.|./.H.^.^.S.].",
",X` :.% @ * = = = = 3 c.u.c.u.u.j.x.U.% < % $ 4.q.$.@.@.$.#.F.F._.F.E.x.6.^ O ! v.<XD._.L.L.-XF.M.X.M.:XL.|.L.L.^.S.L./.E.E.].H.",
"E.[ v 2 % > $ & * . 3 + O + 3 O - & $ % % 2 : <.e.w.$.&.#.#.T.^.G._.J.p.6.O x ` %X{._._.D.M.q.w.#.&.&.$.$..X|.L./.^.^.^.^.].L.H.",
"H.o.O % 4.^ ! ^ :.( ) ` ` ) ( ) ( B.R.$ %   $ 4.3.w.#.&.#.&.V.H.K.K.F.5.5.4 6.[.].J.D.M.C.a.a.o.%.#.#.' O.%.#.XXK.^.L.F.^.L.]._.",
"XX..- > A 9X@X+XoX+X+X X%X+X+XE./.^.^.W./.R.k.[ e.&.$.$.$.&.$.K.K.M.C.n m - k.;X].Z.Z.%.a.%.+.| o.X.&.X.*.X.X.0.#.#.M.L.K.K.|.L.",
"H.[.; m B I  X/.%XXX-X X[.#X[.-X].D. XS.E.W.-Xn P o.#.#.$.$.$.K.K.D.M.n N - j.$Xx.s.+...5.+.e.5.3.0.T p 0 B #.0.e.o.{ w.0.o.M.C.",
").].~ H G n ^.=X XXX^.=X X-X#X^.F.].^.^.E.E.A.m M [ #.#.#.X.%.%.M.L G G X - h.P.A.B.A.[ T [ i y t t e t i r 0 p p i r r r 0 i b ",
"C._.B.A G b =X=X=X X=X=X X X/.L.F.^.H.H.^.XXI.- m m m n b n b b n B G G ; & ! ^ ^ ( ( ~ [ l ; & $ > ; ; 4 - - - - ; ; - - t ] [ ",
"H.A.k.A z d =XXX=XXX X#XXXH.S.A.E.B.^.E.^.#XoX> & : - - B b n n n n - ; - ; > O & 8 O O O & . : & * & 3 F j./.[.-X/.+X+X+X}.[.E.",
"Z.s.k.K s Z.=X=X|.XX#X.XE.^.N./.^.E.].^.[.+X%X& $ . $ I.T./././././.+XR.(.(.W.!.!.W.[.oX6X;XW.U.& & O v D 7.$X[. X+X#X+X[.[.XX#X",
"`.`.k.j c v.XXXX>X[.#X].S.A./.F.`.).C.=XXX].$X& m.b.%XI.F.^.F.F.-X X/./.[.W.[.OX[.[. X/.[.+XOX7XU.9.& c D j OX+X#X+X+XXX}.OX[.E.",
"v.v.c.x _ >X{.XXXX}.J.E.E.E.H.F.H.v.{._.XXXXoX& 9.h.oX$XF.F.K.F.=X^.^.=X#X'.`.'.[.]. X X#X#X[.oX:.8.= F D z #X[. X+X#X#X[.`.`.H.",
"{.`.u.j Y 3X:X.X XN./.S.E.^.|.S.[.].J..XXX+X%X> t.h.6.#X)._.Z.=X|.|.|.].{.}.{.XX=XK.V.D.L.H.d.k.8.8.. c z z..XXX=X.X|.|.`.).)._.",
"{.`.Q K f >XXX{.^.E.^.^.[.S.S.{.H.H.=X=XXX^.@X$ * h.j.) | X.#.L.<X.X|.|..X].{.H.L.L.L.F.F.D.s.s.6.6.7 a j N.>X.X=XXXXX XH.Z.J.{.",
"H.| k D n L.L.|.^.F.^.H.^.d.].J.^.-X%.' D.-X@X$ * :.` ..| #.&.#.&.#.0.K.=X=X.XG.K.F.D.D.L.D.s.s.r.& & j [ 8X-X X>X[.^.^.^.^.F.Z.",
"C B o G V #.G.^.^.T.E.Z.^.).H.).#X{ +.X.{ B.@X> & & ` ..&.#.&.w.$.#.w.+.%. XL.D.K.K.L.L.K.M.0.0.; & : j n 8X-X-X].^.^.^.H.E.].`."
};
