/* XPM */
static char *_1109a28bfde424aa7b4fa15d67afaecnG3RvYQb1s642fKm[] = {
/* columns rows colors chars-per-pixel */
"64 64 141 2 ",
"   c None",
".  c #010202",
"X  c #050609",
"o  c #07090D",
"O  c #090B0F",
"+  c #14110F",
"@  c #090C12",
"#  c #120F13",
"$  c #190F19",
"%  c #0D1116",
"&  c #0E141C",
"*  c #131114",
"=  c #191515",
"-  c #13151C",
";  c #19151B",
":  c #14181F",
">  c #1C181D",
",  c #201A1C",
"<  c #27211D",
"1  c #2A221F",
"2  c #121720",
"3  c #1D1721",
"4  c #131A24",
"5  c #1B1B24",
"6  c #161E29",
"7  c #1B1E2A",
"8  c #221B25",
"9  c #231C29",
"0  c #2A1D2D",
"q  c #301C31",
"w  c #1F2225",
"e  c #17202C",
"r  c #1A212D",
"t  c #1B2533",
"y  c #1D2837",
"u  c #1E2A3A",
"i  c #252126",
"p  c #2B2423",
"a  c #21212D",
"s  c #242A2F",
"d  c #282D2E",
"f  c #332B29",
"g  c #222533",
"h  c #292433",
"j  c #222A35",
"k  c #2C2C33",
"l  c #262738",
"z  c #222D3D",
"x  c #292B3C",
"c  c #332136",
"v  c #342539",
"b  c #38233A",
"n  c #372A3F",
"m  c #2E313E",
"M  c #36343D",
"N  c #3C383E",
"B  c #423A3A",
"V  c #222F41",
"C  c #2B2F41",
"Z  c #3F2641",
"A  c #302F41",
"S  c #3E2941",
"D  c #233244",
"F  c #2B3245",
"G  c #2E3946",
"H  c #26364A",
"J  c #2A364B",
"K  c #27384D",
"L  c #29394E",
"P  c #323544",
"I  c #33384D",
"U  c #2B3C53",
"Y  c #2D3F58",
"T  c #323D54",
"R  c #393C53",
"E  c #4A2F4C",
"W  c #41364F",
"Q  c #49364D",
"!  c #443F57",
"~  c #483B55",
"^  c #683D6A",
"/  c #2E4056",
"(  c #2E415A",
")  c #31445C",
"_  c #3A445C",
"`  c #324761",
"'  c #344A65",
"]  c #3B4B62",
"[  c #364D6A",
"{  c #394E6B",
"}  c #3A516E",
"|  c #3C5473",
" . c #3E5979",
".. c #414440",
"X. c #40434F",
"o. c #4B474C",
"O. c #484B5A",
"+. c #41536C",
"@. c #4C546E",
"#. c #5E506E",
"$. c #405876",
"%. c #415B7C",
"&. c #69436A",
"*. c #645D62",
"=. c #4A607D",
"-. c #5F6A76",
";. c #456184",
":. c #4A6383",
">. c #49668A",
",. c #4C698D",
"<. c #556984",
"1. c #5A708C",
"2. c #4E6C92",
"3. c #516E93",
"4. c #547195",
"5. c #5C7490",
"6. c #5F7896",
"7. c #55759C",
"8. c #5A779B",
"9. c #5B799E",
"0. c #627B9A",
"q. c #5677A1",
"w. c #5B7BA3",
"e. c #936394",
"r. c #6280A6",
"t. c #6483AB",
"y. c #6887AF",
"u. c #728BA9",
"i. c #6B8AB1",
"p. c #718DB0",
"a. c #7B96B7",
"s. c #7693B9",
"d. c #7E99BC",
"f. c #839DBD",
"g. c #86A1C2",
"h. c #8DA6C5",
"j. c #92A9C7",
"k. c #9DB2CC",
"l. c #A5B8D1",
"z. c #AEBED4",
"x. c #B3C4D9",
/* pixels */
"                                                                                                                                ",
"                                                                                                                                ",
"                                                                                                                                ",
"                                                                                                                                ",
"                                                      t D D D z e e e e e                                                       ",
"                                                  6 e t H H V u t t V e 6 e D                                                   ",
"                                              6 6 r t y z K D u u u D t t t H 1.=.                                              ",
"                                            6 6 6 t t y D K K H D D V t t u L ` Y H                                             ",
"                                        4 2 7 z y t y t D K U K U / D u t V K K D H U                                           ",
"                                      6 4 4 6 u u y y t D ( U ` ( ' K u u u D D D K } K                                         ",
"                                      4 5 4 7 t D u D u K ` U ( ` ` K u u u D D D ) 1.( (                                       ",
"                                    6 5 7 5 7 u H H D D K U U U ( ( / D u D K H / ' %.( ( }                                     ",
"                                  r 5 5 9 7 r y D F D H L L / ( ` ` / H H [ K K { %.{ ( ( | >.                                  ",
"                                r r 9 9 5 a t g F U U Y H U / / ` [ ( K / ' ( / } >. .} '  .;.                                  ",
"                                r 9 9 0 a l y x F I ) U L H I ] ` ` ' [ | %. .[ ;.r.,.>.|  . .|                                 ",
"                              5 9 q q q g z l x J ) L H H U -.<. .%.%.2.2.>. .,.w.y.,.4. .|  .' '                               ",
"                              5 8 E &.b g F l z T ) V J ) +.:.>.,.2.;.2.7.2.;.,.q.r.9.a.9.| [ ` }                               ",
"                            t r 9 &.e.b x R x F U J C J ) { %.,.2.>.;.2.r.t.9.4.7.i.d.x.f.;.| ( ` {                             ",
"                            t t 9 E ^ b x x x I T R ~ T ) '  .|  .|  .2.w.d.k.k.i.i.g.h.t.,.;.) ( [                             ",
"                            6 r a c b h x x P R ` #.! L T ` | | ` / [ ;.r.d.h.x.j.y.s.t.9.;.,.| ` '                             ",
"                          6 e 6 g l c h x F F O.@.W F D K U U H D K ( | 2.i.r.r.g.i.y.q.2.|  .;.| ' '                           ",
"                          6 6 t t x n x x x J | _ z V V u e e e e u V U ' >.q.q.9.7.7.>.;.` ) | ) ' )                           ",
"                          6 6 e t x x x F A _ ) F u D D y 6 4 2 4 4 6 t D /  .2.7.2.>.;. ./ U ' K K H                           ",
"                          4 e e y C l C F P ) ] D y D V e & % @ % & 6 e t u (  .4.p.2.;. .K U  .( H V                           ",
"                        4 6 6 t y V x F F C U +.z u V r & @ @ * 5 y u t t r j ) } 0.u.%.;.` K / U D u D                         ",
"                        4 6 e e e u x J K C U Y t u y 4 % O O O * e D D y t y M / } 5.[ | } K K D u u u                         ",
"                        4 6 y 6 y u C U Y C F F y u 6 2 @ o . . . O e D D z u M O.'  .) ) ( V K V D u u                         ",
"                        6 e e e t V x T ( V C F u y 6 & o . . . . o % u H / L k *./ / / U ( D V H ( u t                         ",
"                        4 6 e y t u x R ` K C F V u 6 - X . . . . . O e D D D u o._ H L K ` K V ' 1.K e                         ",
"                        4 6 6 y l u V L ' Y V V V u e % X . . . . . o e z H u y M N z H / ` ' K [ 6./ e                         ",
"                        4 4 5 t x x V K ' ` V V D V 6 % X . . . . . o : u D u j D k t V U ( | ) ` ' D e                         ",
"                        2 4 6 t l u H H ` { J V D V 6 % X . . . . . X e u D u z u j e V ( U | ' { / t 4                         ",
"                        - 4 4 6 y V H K ( ;.( D D H e & o . . . . . @ 6 y z u u y g 7 t Y U } ` ) u 6 4                         ",
"                        - 2 2 6 t D D K U  . .U D V t & O . . . . O & e u u t t t t a y K ( [ ` H y 4 2                         ",
"                        & 2 2 6 e V V D U } 7.;./ V t 4 % o . . o % 4 t F z t t u y r 6 K ( $.' L t 2 2                         ",
"                        & & 4 4 6 y u y K ` :.r.;.( z e & O o o O & e V R D e t t g 7 7 V U { { U r 4 ;                         ",
"                        & & 2 4 7 9 t l D ( [ ,.w.,.[ D e - & % & y D U L r t r u y 7 5 z J | :.J r i f                         ",
"                        2 - 2 4 4 9 9 r y J [ { ,.7.8.,.{ D e e u L ) / D e t r u y 5 5 J J ) | V 5 B                           ",
"                          & - 2 4 c c 9 t z ( ' { %.;.,.;.( D D K ] U u e r y t D y > 5 z D z u e 4 p                           ",
"                          % & - ; E b 9 5 r D / ' [ ' ` ` ` U K H D y r 9 t t t U r > > r z t 6 6 ; *                           ",
"                          - % ; : 3 9 8 3 5 a z J U Y ( U J F u t r 6 5 5 d d z U r < 3 6 t 6 7 5 4 -                           ",
"                          @ # - ; ; 8 9 7 7 5 t t t z D D z t r e 6 5 5 < / j H H : > 9 t e 7 5 7 4                             ",
"                            - - - ; ; 3 6 r t l t 7 w e a a 7 4 4 2 5 4 w d y D y ; > , 6 r 4 2 4 4                             ",
"                            # - - - 2 4 6 6 t t t r 6 e 5 6 6 4 2 ; 4 4 5 e y y 4 - > > 5 7 2 - - -                             ",
"                              # $ & 2 4 7 6 t y y y e e e 6 & 4 ; 4 4 2 6 6 t 6 - ; ; ; 5 ; - - -                               ",
"                              - % & ; 2 6 6 t r e 6 6 4 & : : 4 - 4 4 4 4 r 4 - * - # ; ; - ; - -                               ",
"                                & ; 2 4 6 e 6 6 e 6 e & & : & & - 4 & & 5 5 : - * % * ; * ; ; -                                 ",
"                                % & 2 4 6 6 4 4 4 e 4 & & 4 4 4 - 2 & - ; - - * * - * * * # % -                                 ",
"                                  - & - 6 4 4 6 6 4 2 & & e 6 4 6 & & - - * * + * * * # * * *                                   ",
"                                  & & : 4 4 4 4 4 4 4 4 4 4 4 4 6 4 & - * * % * * * # # * # #                                   ",
"                                    - 4 & 4 4 4 4 2 4 6 4 6 4 4 6 4 4 & # # * + # # # * # #                                     ",
"                                      4 & 4 & & & & 4 4 4 4 4 6 6 6 r 4 ; * # # * # # # #                                       ",
"                                        & & & 4 & & & 6 4 4 4 4 4 4 y y = * + + * + # #                                         ",
"                                          4 4 & & & 4 4 4 4 4 & ; - 4 4 * = + = + # *                                           ",
"                                            4 & & & 4 4 4 4 4 4 ; - - * > = + * * *                                             ",
"                                                4 & 4 4 4 6 4 4 ; ; * # p < + +                                                 ",
"                                                  4 4 4 & 4 g c # % % # p p +                                                   ",
"                                                        4 4 P Q $ ; # #                                                         ",
"                                                                                                                                ",
"                                                                                                                                ",
"                                                                                                                                ",
"                                                                                                                                ",
"                                                                                                                                ",
"                                                                                                                                "
};
