/* XPM */
static char *_b1e19b5790146cfdaaac81faf74b391astO0DW86w3zelMM[] = {
/* columns rows colors chars-per-pixel */
"64 64 248 2 ",
"   c #030203",
".  c #0B0303",
"X  c #020B03",
"o  c #0B0905",
"O  c #050509",
"+  c #0A050B",
"@  c #040A0C",
"#  c #0B0A0D",
"$  c #130304",
"%  c #1B0202",
"&  c #150B05",
"*  c #1C0B04",
"=  c #13030B",
"-  c #1C010B",
";  c #130B0B",
":  c #1B0C0B",
">  c #071505",
",  c #1A120C",
"<  c #0D0C11",
"1  c #070C11",
"2  c #120D14",
"3  c #180D13",
"4  c #1A0C16",
"5  c #0C1115",
"6  c #081316",
"7  c #121214",
"8  c #1C1414",
"9  c #15141A",
"0  c #1B151C",
"q  c #1B1B1D",
"w  c #141C1D",
"e  c #230103",
"r  c #220C04",
"t  c #220C0B",
"y  c #2A0508",
"u  c #340709",
"i  c #261209",
"p  c #280514",
"a  c #380217",
"s  c #221211",
"d  c #261917",
"f  c #371B18",
"g  c #361709",
"h  c #092308",
"j  c #162816",
"k  c #1A3013",
"l  c #212319",
"z  c #39231D",
"x  c #1D1B22",
"c  c #1C1921",
"v  c #221D24",
"b  c #2A1C26",
"n  c #241B28",
"m  c #371425",
"M  c #1A3A22",
"N  c #1C2526",
"B  c #232325",
"V  c #252429",
"C  c #2B2B2C",
"Z  c #292727",
"A  c #382928",
"S  c #27372A",
"D  c #2D2D31",
"F  c #333233",
"G  c #3A3A3A",
"H  c #38322C",
"J  c #4B0016",
"K  c #4E1115",
"L  c #770D19",
"P  c #66191D",
"I  c #72161B",
"U  c #462517",
"Y  c #55142A",
"T  c #691B26",
"R  c #701A37",
"E  c #432D2A",
"W  c #482B27",
"Q  c #592827",
"!  c #473331",
"~  c #563937",
"^  c #482F2E",
"/  c #6E3038",
"(  c #62211D",
")  c #2F462C",
"_  c #544D3A",
"`  c #684735",
"'  c #6C4531",
"]  c #3C3C41",
"[  c #73344C",
"{  c #5E2D41",
"}  c #3D4442",
"|  c #3C6348",
" . c #424343",
".. c #484B4B",
"X. c #574749",
"o. c #555458",
"O. c #50534F",
"+. c #7A4254",
"@. c #6B514F",
"#. c #5C6449",
"$. c #4F6B52",
"%. c #69675A",
"&. c #777257",
"*. c #716D52",
"=. c #5D5E60",
"-. c #745D66",
";. c #5D6160",
":. c #686767",
">. c #7B7878",
",. c #776565",
"<. c #8F2F34",
"1. c #AA3E34",
"2. c #961E20",
"3. c #88553F",
"4. c #B1403A",
"5. c #9A2956",
"6. c #922C51",
"7. c #A9295B",
"8. c #B3295C",
"9. c #B82B62",
"0. c #B43A69",
"q. c #9F2C5A",
"w. c #CA376F",
"e. c #8C4E52",
"r. c #986958",
"t. c #8E6A56",
"y. c #A66A5C",
"u. c #B56A59",
"i. c #A86F56",
"p. c #95556C",
"a. c #A5456B",
"s. c #AF4F73",
"d. c #8E6F70",
"f. c #AB6F6E",
"g. c #A95A4B",
"h. c #C24776",
"j. c #D4447A",
"k. c #CB7D67",
"l. c #628766",
"z. c #86917D",
"x. c #AD8775",
"c. c #CA917E",
"v. c #7E7E86",
"b. c #B8768B",
"n. c #B0728A",
"m. c #9F6E84",
"M. c #CD5986",
"N. c #D45085",
"B. c #E85C93",
"V. c #EB578E",
"C. c #C66B91",
"Z. c #D66995",
"A. c #C67697",
"S. c #D57499",
"D. c #C6708B",
"F. c #E76796",
"G. c #F374A7",
"H. c #D87EA2",
"J. c #88888A",
"K. c #909090",
"L. c #9B9B9C",
"P. c #8B948D",
"I. c #B38795",
"U. c #AEA99B",
"Y. c #BD8BA3",
"T. c #A7A7A7",
"R. c #ACABB1",
"E. c #B7ADB6",
"W. c #AEB6B5",
"Q. c #BBBBBB",
"!. c #B5B5B8",
"~. c #B1B1AE",
"^. c #9FA3A2",
"/. c #CA9391",
"(. c #DBB39C",
"). c #C6AF90",
"_. c #F5B58D",
"`. c #F6BA99",
"'. c #F2AD91",
"]. c #D79DB8",
"[. c #D092A6",
"{. c #E78CB3",
"}. c #E69BBA",
"|. c #FB95BD",
" X c #EA83AB",
".X c #CBACB9",
"XX c #D9A8BA",
"oX c #D7B4B9",
"OX c #CEACAE",
"+X c #E9BAA9",
"@X c #E1ABB9",
"#X c #EFAEAC",
"$X c #B9CABC",
"%X c #CFC8BC",
"&X c #FCCBAB",
"*X c #ECCEB6",
"=X c #BCBBC4",
"-X c #B7B8C3",
";X c #FB9AC2",
":X c #C2BCC5",
">X c #D9B6C8",
",X c #D3A9C3",
"<X c #E6AAC4",
"1X c #FABAD7",
"2X c #EDADC9",
"3X c #BAC2C4",
"4X c #C3C4C3",
"5X c #C9C9C8",
"6X c #DAD9DA",
"7X c #D1CDCB",
"8X c #E5D6D4",
"9X c #FEDAD8",
"0X c #F6D3C9",
"qX c #FBE4CC",
"wX c #FFE2D4",
"eX c #FEE9D6",
"rX c #ECE9D8",
"tX c #FFDBF9",
"yX c #F5D3E2",
"uX c #DEE9E2",
"iX c #E4E4E5",
"pX c #EBEAEA",
"aX c #E8E8E9",
"sX c #F6E8E8",
"dX c #FFE4FC",
"fX c #FFECFD",
"gX c #FCE9F4",
"hX c #F5F5F4",
"jX c #FBF5F4",
"kX c #F5FAF5",
"lX c #FBFAF6",
"zX c #FEF5FD",
"xX c #F6FCFC",
"cX c #FBFFFF",
"vX c #F9FEFE",
"bX c #FDFDFD",
"nX c #FFFDFF",
"mX c #FCFFFF",
"MX c #FEFEFE",
"NX c #FFFEFF",
"BX c #FEFFFF",
"VX c white",
"CX c #FEFEFF",
"ZX c #FDFEFD",
"AX c #FEFEFE",
"SX c #F6F6F9",
"DX c #E9F1F4",
"FX c #D6DBE1",
/* pixels */
"VXVXVXVXVXVXVXVXVXVXVXVXVXVXVXVXVXVXVXVXVXVXVXVXVXVXVXVXVXbXVXVXVXkXbXkXbXkXlXbXbXbXbXVXbXxXxXxXbXbXVXVXnXVXVXbXbXbXVXVXVXVXVXVX",
"VXVXVXVXVXVXVXVXVXVXVXVXVXVXVXVXVXVXVXVXVXVXVXVXVXVXVXVXVXbXVXVXVXVXbXbXbXbXlXbXbXVXbXbXbXbXxXxXxXbXVXVXVXnXVXVXbXbXbXVXVXVXVXnX",
"VXVXVXVXVXVXVXVXVXVXVXVXVXVXVXVXVXVXVXVXVXVXVXVXbXVXVXVXVXVXVXVXVXzXVXbXbXbXVXlXVXbXbXVXVXnXVXVXVXbXVXVXVXVXVXbXbXVXVXVXVXVXVXVX",
"VXVXVXVXVXVXVXVXVXVXVXVXVXVXVXVXVXVXVXVXVXVXVXVXVXVXVXVXVXVXVXVXnXnXzXVXVXVXVXVXzXVXSXbXnXnXzXVXVXVXVXVXVXVXVXVXbXVXVXVXVXVXVXbX",
"VXVXVXVXVXVXVXVXVXVXVXVXVXVXVXVXVXVXVXVXVXVXVXVXbXVXVXVXVXVXbXVXVXbXVXnXSXVXbXVXxXVXVXbXbXlXVXbXnXnXVXVXVXVXVXVXVXnXVXVXVXVXbXbX",
"VXVXVXVXVXVXVXVXVXVXVXVXVXVXVXVXVXVXVXVXVXVXVXVXVXVXVXVXVXVXbXbXxXbXSXQ.R.R.R.R.R.~.R.~.T.6XjXbXnXnXbXbXbXVXVXVXVXVXVXVXVXVXbXbX",
"VXVXVXVXVXVXVXVXVXVXVXVXVXVXVXVXVXVXVXVXVXVXVXVXVXVXVXVXVXVXbXbXbXxXbX  O       X     X   ~.bXbXnXnXnXbXbXbXVXVXnXVXVXVXVXbXbXbX",
"VXVXVXVXVXVXVXVXVXVXVXVXVXVXVXVXVXVXVXVXVXVXVXVXVXVXVXVXVXVXbXbXVXl.G G  .A C Z Z Z Z Z C F G iXnXnXbXbXbXxXbXVXVXnXVXVXVXbXbXbX",
"VXVXVXVXVXVXVXVXVXVXVXVXVXVXbXVXVXVXVXVXVXVXVXbXVXVXVXVXVXVXbXbXVX:.& O...D C D C C B C C O   iXbXVXbXbXbXbXbXVXnXVXVXVXnXVXbXVX",
"VXVXVXVXVXVXVXVXbXVXVXbXbXVXVXbXbXVXbXVXbXbXbXVXnXVXkXlXbXbXbX4X  ; & Z F o..... ...O...o.] D   O kXbXVXxXVXxXbXVXVXVXVXVXnXVXbX",
"VXVXVXVXVXVXVXVXVXVXVXbXVXbXVXbXbXbXVXbXVXlXbXVXVXVXVXVXkXSX6XT.; ; 2 V S ..} ..}  ._ } ] D V x 5 6X8XVXbXVXVXVXbXbXVXVXVXVXVXVX",
"VXVXVXVXVXVXVXVXVXVXbXbXbXVXVXVXbXbXbXkXVXVXSXVXVXVXbXbXbXaXo o C 7 7 5 w o.F > X # > @ O 5 5  .o.  =.zXzXnXVXVXbXbXVXVXVXVXVXbX",
"VXVXVXVXVXVXVXbXVXbXbXbXbXVXSXVXK.K.K.L.K.iXVXVXSXVX7XJ.K.P.O 9 C q 7 6 w C q o , , * * & o 5 C C G -.9XgXnXnXVXbXbXVXVXnXVXbXbX",
"VXVXVXVXVXbXbXVXbXVXbXbXbXbXbXhXo         hXSXVXVXbX>.  O   ; q F x < < 5   . r % r y y $ & 8 ; X o.d..XyXgXzXnXbXxXVXVXnXVXbXbX",
"VXVXVXVXVXVXVXbXbXVXbXVXQ.Z q C B C C F  .F l V B B Z C B B o ; # 0 V q $ . ~ r.r.y.y.r.r.` . & = A { Y.XX>XzXVXxXxXVXVXVXVXbXxX",
"VXVXVXVXVXVXbXbXbXSXhXkXQ.  o   F C C G ..;   O + + j Z C F < 2 O j D ; t y / y.u.u.u.y.y.' i * $ A X.m.XXoXgXbXbXbXbXVXVXVXVXbX",
"bXkXbXbXVXkXVXkXVX    l Z C D C ; # 2 C O.o.O.O. .C 7     O 7 1   < 7 . f f.u.u.'._._._.`.`.&XU . . $ $ 7XfXbXbXbXbXVXbXVXVXVXVX",
"6X4XVXbXbXkX%X5X4Xo ; Z d Z Z q q q v D G ] G ] G V q 9 7 7 @ O + < 8 . f y.f.k.c._._._._.'._.i.@.&   & :XnXjXbXVXbXbXbXVXVXnXnX",
";.# bXkXjX8X8 : s : $ 8 0 ; 7 2 C D C j 9 7 < < 9 7 n C V Z X o 9 ; o & g t.c.`.`.`._._._.`.`.(.%X    o 5XbXbXxXVXVXbXbXbXbXVXVX",
"4X3X>.d.d.,.A f f t t : s 8 . o C F D V q v V V B x Z j q 0     # . & *.' / ` ' g.3.&X&X_.x.e.@.e.. O X 3XbXxXbXVXVXbXbXVXbXVXbX",
"VXlX. & ; d ~ W U y t r : = . ; F F C C C F C Z C Z B # # o   O O X % x.t.% . $ r y 9X*X(.t.* % e - + O 3XxXSXVXVXVXbXbXVXbXbXbX",
":.7 pXsX8 i r y i ~ W A ! A :   O o > 7 7 7 7 ; > 7 #   O         # % r.r.% %..Xd./ sX0XqX0X9Xt.+.e o.DXxXxXbXbXVXVXVXbXVXbXbXbX",
":.Z lXlX& d i r r z ^ E A A $ . . o 7 9 # # 7 7 7 # # o           : e f.r.g d.oXp.6.9XeXqXeX9Xr.e.y -.VXxXxXzXVXVXVXbXbXbXbXVXVX",
"VXnXlXlX& i E i i * r * : : , : 7 7 7 o     X       @ # # ;     O $ e *X+X+X0XgX[.b.9XeXqX0X9X/.b.y @.xXxXVXbXVXVXbXbXVXbXVXVXVX",
"nXnX~.E., l z i r r r r t : : . o # 7 # o O o   o o # 5 # #       $ % f.x.+X*XsX+X(.9XqXqX*X_./.(.% #.kXbXjXzXnXVXbXbXbXVXVXVXVX",
"nXVX; $ E d i r r r r r t = $ .   + ; 7 7 7 5 7 7 7 ; # O O     < o , % U *X*XqXqXqX8XeXqX).t._.oX$ $.DXlXbXnXnXVXbXbXbXbXVXVXVX",
"L.:.7X7X8XOXA W U z A A d s ; ; o o # # O o O O O O # # O o   O + O + ; i _ _ #.*.#.P.l.#.l.t.#._ O.$.$.7XlXjXbXVXbXbXbXbXbXVXVX",
"o.o lXjXjX8XW ^ W W W W A s ; ; 7 @           O O     X # # O O 5 1   9 8   > h h k l.| k ) l.k k $.| > 5XkXbXzXbXbXbXbXxXbXVXbX",
"bXbXbXjX$ . s e - t t s s ; ; o 9 7 5 7 2 # < 7 7 # < 7 7 7         O < o   j ) k h ) M h M ) h h ) M X $XSXpXnXbXbXbXVXbXbXbXVX",
"VXVX6XuXH A H : s 3 : : ; $     5 < < < # # # < # # < < # #   O + + O 2 #   q ) j > M S h k k h h M M > ~.iXiXiXbXbXVXbXbXbXVXVX",
"bXkXO 8 bXbXjX} .                       O O O     O       O O 2 o + <   + 9 #   O   . $ O   X   X > X X     O   xXbXVXVXbXVXVXnX",
"VXbXT.T.bXkXbX_         o + ; 9 9 0 9 9 9 7 < # # 5 7 9 9 9 1 # o o O O < + 2 + o.d.X.X.X.H   X   & #   9 < O O xXbXVXbXVXVXVXVX",
"bXbXlXbXVXbXbX]     O # # # 9 V x V v x v c c 1 2 V x c x x < < @ X   < 7 + = < ^.E.d.f.d._ .     ; +   9 B O   bXbXbXbXbXVXbXbX",
"bXbXbXbXVXVXbX]     O # < 1 # < 9 < < < < 9 9 < 5 V x 4 x c 9 9 @ w c V c O + = A ~ [.I.U K - . . o O O 7 x     bXbXbXbXVXVXbXxX",
"bXbXbXbXVXVXVX_     O o < # # # O O < < # < # < c c 7 < v x n x < n n b v +   $ y y XXU.e y 4 .   X O O 7 v $   VXbXVXbXnXVXVXbX",
"bXbXbXVXVXVXVX .    O # # # < < O O O + 1 + 1 c 2 O O + c v v x c n b p ; 2 d E @./ oXoXI.-.F 8 >       # 4 .   VXbXbXVXnXVXVXVX",
"bXbXVXVXVXVXVX .    O o < # o O     O 1 < O < c 5 O + 2 0 c 0 v V d d i t d z H ` ` ~.U.z.%._ k l o     o = . . VXVXbXbXVXbXnXVX",
"bXbXVXVXVXVXbX .      # < # O O     O               O 1 O < O 9 N # ; i g z E H #.l.t.&.t.*.*.) H r & . o o     VXbXVXbXnXnXnXVX",
"bXbXVXVXVXbXVX .        O O O # :X4X4X>.O     O O + 1 < O + 9 9 c < ; * i E &.P.%X7Xe.g.g.c.*X$.U g % .         bXxXbXVXbXbXbXbX",
"bXbXVXVXVXVXVX .      O       o VXbXVXL.  O       + O     1 Z 9 O 1 > , i H :.$XuXlX<.1.3._.eX` U u * . .       bXbXVXVXbXbXbXbX",
"VXbXbXVXSXVXVXaXpXpXiXpXpXpXiXiXVXVXVXhXaXiXiX        O   O V c w 6 1 2 : s =.E.:XOXI 2.1.'.wX+.Q Q f . ~.iXC   xXbXbXbXbXVXVXbX",
"lXVXVXlXVXbXVXVXbXVXVXVXVXkXVXbXVXbXVXbXbXhXhX    O O     + B x c 2   0 * % t..X@X#XT I <.#XsXe.K Q z   4XVXV O bXxXbXbXVXVXbXbX",
"VXVXVXVXbXVXVXVXVXVXVXhXVXVXbXVXbXbXVXbXbX0   O 1 + < + 1 5 n n v 4   t f Q ( ( P P #X[.@Xf.P ( Q % .   5XbXnXnXVXVXbXbXbXbXVXVX",
"VXVXVXVXVXbXVXVXVXlXVXVXnXVXbXbXVXVXbXVXbXq O < + < + < 2 4 v c n ; . % g K ( I L I oX.X.Xd.( T U % .   %XbXSXzXVXVXbXbXbXVXVXVX",
"bXlXSXVXbXVXVXbXbXVXbXVXbXlXbXbXbXbXSXVXVX7   O + < < < c c c 4   = = . e u K ( L L @X.X,Xd.Q K a * .   7XbXbXVXVXVXbXbXVXVXVXVX",
"VXVXbXbXVXbXkXVXbXbXVXVXbXbXbXVXbXVXVX~.:.O # # 1 1 + < x V n c < = + @.[ f.e.T 2.6.<XXXA.m.Y [ [ % .   7XxXbXVXVXbXbXbXVXVXnXVX",
"nXVXkXSXbXbXbXVXbXbXlXbXbXbXbXkXbXVXVXL.  # # O + 1 < 1 x V c c o + p 6.0.S.s.T 6.6.|. XZ.a.R [ e.p .   3XxXVXSXVXVXbXbXbXbXVXVX",
"VXbXbXVXN V Z d B bXVXbXbXlXbXxXd B B # 5 5 # 9 0 0 4 < x c 2 1 + - u Z.M.7./ J S.|.C.Z.q.R J f.n.% - 1 N N aXnXVXVXbXbXbXbXbXbX",
"VXbXbXSX    o   o bXbXVXVXbXbXbX      @ @ @ < + 9 n 2 2 n 0 3 4 = p K j.N.6.T J A.;XC.M./ R a m.b.% = <     DXbXVXbXbXVXbXbXVXVX",
"VXVXbXhXo   # O     o       O   2 + = + 6 w V V d < O 1 0 n + 4 - p.A.8.9.B.s.J n.A.;X1XdXY.J [.,Xa = O   O pXbXVXVXbXbXbXbXVXbX",
"bXVXlXbX  o o O     o O 7 9 O # 7 0 4 9 c c x n 0 + 7 5 c c 5 = - e.j.w.j.j.0.6.M.H.{.<XfX.X+.[.].% = # O   aXbXnXnXbXbXVXbXbXbX",
"nXVXVXkX  # # # 5     V x B v B V n n v N x n V n = 1 O n n 2 = a R 8.V.V.8.h.Z.;X;Xb.].dX8X<XA.n.p : # O   sXnXVXVXbXbXbXbXbXbX",
"VXVXSXpX  # O # # < 9 2 o < 9 x v c v x n 4 4 4 < 1 @ @ c n $ Y 6.N.B.9.9.B.Z.;XG.S.<X2XfX>XA.}.XX% 4 2   O aXzXVXVXVXbXbXbXbXVX",
"VXbXbXkX    < o # + O 1 < 9 c B n x V N n 4 = = < 1 + 9 0 m a Y 5.N.V.9.9.B. X;XS.A.<X,XdX2XA.}.<Xy . 1     hXnXVXVXbXbXbXbXbXbX",
"bXbXVXSXhX6X  # # 5 + 7 1 # < < x c N x c 2 2 = + 1 + O = a a.0.B.9.9.B.F.|.{.C.].}.dXdX.X>X}.A.b.- =   4XkXbXnXVXVXVXVXbXbXbXbX",
"VXVXbXbXVX6X    7 o < + < + < 1 c c N x x 4 < + = p p p a J 5.w.G.w.5.M.G.;XH.A.].,XzXgXE..XXX[.I.. 0   Q.bXbXnXVXVXVXVXbXbXVXbX",
"VXbXVXVXbXnXSX .O     O < + O 5 @ 1   c n = 2   O 4 p.C.q.9.B.j.8.j.Z.;X;Xn.{.<XtXzXR.=X:XyXfX>XoX$   O 4XnXnXnXVXbXVXbXVXVXVXbX",
"VXVXVXbXVXVXVX~.J.K.J.< < < < O 1 O 1 1 v + + = m [ a.h.w.j.j.j.w.j.p.1X1X,X2XyXFXFXo.v.E.aXzXiXyX. G J.iXlXbXVXVXVXbXVXVXVXbXbX",
"VXVXVXVXVXVXbXbXVXVXaXO O o < < + 9 < @ + 1 9 = { A.0.9.B.B.8.9.Z.0.[ dXfXfXdXbX5X-X  ] :XaXSXbXnX  :.VXSXVXVXbXVXbXVXVXVXVXVXbX",
"bXbXVXVXbXVXbXbXVXbXVXbX~.O         @ O     + - Y a.N.B.7.7.Z.;XtXtXtX>XE.-Xv.c x V O ] -X:X3XaXVX. :.hXVXbXVXVXbXbXVXVXVXVXbXbX",
"VXbXVXbXVXVXVXbXVXbXVXhX!.      O     O O O   = m [ n.Z.6.a.A.].dXzXfX-X:X:Xm.@ < <   ] .XQ.Q.kXbX  %.bXbXSXVXVXbXbXbXVXVXVXbXbX",
"VXVXVXbXVXbXVXVXVXlXlXVX!.        ! ~.Q.W.!.E.zXdXtXtXtXtXtX,X-X:X-X-X+ 1 1 1 1 2 +   1 V 8 # ^.!.SX3X@ Q.VXbXbXbXbXVXnXnXVXVXbX",
"bXVXVXbXVXbXbXbXbXbXbXlX$X, ; 7 O F ~.W.W.3X3XxXxXxXzXfXdXfX-XR.5X-X-X+ @ @ w @ < 1 9 + 3 = ; ^.T.bX!.  3XVXVXVXbXbXVXVXnXVXVXbX",
"VXVXbXVXbXbXbXbXbXbXbXbXbXlXlXkX          $XW.3X-X-X-X=X-X-X-X-X-X..1 O @ @ @ @ O   =XE.:X>.Z         @ 5XbXVXVXxXbXVXVXnXVXVXVX"
};
