/* XPM */
static char *_1c87063169c458afde588be460f32eagl0DrBSbTKxSBqgH[] = {
/* columns rows colors chars-per-pixel */
"80 64 224 2 ",
"   c None",
".  c #08180C",
"X  c #0A0C18",
"o  c #140A1A",
"O  c #141619",
"+  c #0D0F0E",
"@  c #22060B",
"#  c #2A0A16",
"$  c #360C19",
"%  c #381416",
"&  c #211719",
"*  c #0C240B",
"=  c #0E2B09",
"-  c #122C0C",
";  c #182509",
":  c #132B12",
">  c #182719",
",  c #1B351D",
"<  c #0F310B",
"1  c #2A2318",
"2  c #23361D",
"3  c #342A0D",
"4  c #1A1D29",
"5  c #1A1724",
"6  c #0D0823",
"7  c #290825",
"8  c #261C27",
"9  c #391627",
"0  c #3A0E3B",
"q  c #2A112E",
"w  c #1B2424",
"e  c #183829",
"r  c #17323A",
"t  c #292825",
"y  c #293723",
"u  c #32322D",
"i  c #272637",
"p  c #2A3434",
"a  c #2C3939",
"s  c #383B36",
"d  c #382730",
"f  c #460715",
"g  c #521219",
"h  c #750416",
"j  c #680A15",
"k  c #69361D",
"l  c #471B38",
"z  c #550F2A",
"x  c #6D1D36",
"c  c #423527",
"v  c #592533",
"b  c #433839",
"n  c #543E3C",
"m  c #68393C",
"M  c #73273A",
"N  c #0E4D1D",
"B  c #2D4A2A",
"V  c #2B4334",
"C  c #3D483B",
"Z  c #404639",
"A  c #2E2A48",
"S  c #382D49",
"D  c #3D3B4D",
"F  c #342F50",
"G  c #3E3A58",
"H  c #2D2C4D",
"J  c #421351",
"K  c #572D4A",
"L  c #583854",
"P  c #423F55",
"I  c #662C46",
"U  c #742843",
"Y  c #693C4B",
"T  c #7F3C4E",
"R  c #443F63",
"E  c #384649",
"W  c #3C4056",
"Q  c #2D5067",
"!  c #356275",
"~  c #454543",
"^  c #494A4A",
"/  c #4C5345",
"(  c #56584D",
")  c #484757",
"_  c #495551",
"`  c #585954",
"'  c #524F5F",
"]  c #764B59",
"[  c #645E5E",
"{  c #785A56",
"}  c #71444F",
"|  c #5E6155",
" . c #66695B",
".. c #706554",
"X. c #4D4C6B",
"o. c #534B6A",
"O. c #585868",
"+. c #4C4674",
"@. c #544D79",
"#. c #505679",
"$. c #685569",
"%. c #665A74",
"&. c #725270",
"*. c #696A68",
"=. c #757568",
"-. c #6A6878",
";. c #786476",
":. c #757577",
">. c #6F6F6B",
",. c #9C091D",
"<. c #92151C",
"1. c #8D021A",
"2. c #8F251C",
"3. c #9D1827",
"4. c #8C1326",
"5. c #A40A22",
"6. c #A90725",
"7. c #AA152A",
"8. c #B51932",
"9. c #BA1C36",
"0. c #B1112B",
"q. c #8E2A3C",
"w. c #90292B",
"e. c #AE2836",
"r. c #BB233A",
"t. c #AC212D",
"y. c #823845",
"u. c #9E354C",
"i. c #B92E43",
"p. c #AD3947",
"a. c #B23148",
"s. c #C8364F",
"d. c #924E51",
"f. c #957D50",
"g. c #90506E",
"h. c #AB5968",
"j. c #B6586A",
"k. c #A55C73",
"l. c #A94A65",
"z. c #8C6B6A",
"x. c #8D686F",
"c. c #AE7675",
"v. c #AC534C",
"b. c #CB475A",
"n. c #D3475D",
"m. c #CA5268",
"M. c #C46678",
"N. c #CE636F",
"B. c #7C816E",
"V. c #7E8171",
"C. c #838473",
"Z. c #8A8D7C",
"A. c #858978",
"S. c #8E927D",
"D. c #97A67B",
"F. c #574F84",
"G. c #585183",
"H. c #475F8B",
"J. c #655D94",
"K. c #57689C",
"L. c #7B7786",
"P. c #6B629D",
"I. c #6B6594",
"U. c #736D9A",
"Y. c #706C81",
"T. c #5F71A5",
"R. c #746BAA",
"E. c #7D74AA",
"W. c #7C73B2",
"Q. c #6D64A1",
"!. c #837E88",
"~. c #906C86",
"^. c #B17D9A",
"/. c #8379B9",
"(. c #8E6DA1",
"). c #A87BA8",
"_. c #CC6B82",
"`. c #897EC6",
"'. c #6B88AA",
"]. c #7B98BC",
"[. c #758CB5",
"{. c #7898C0",
"}. c #8C8F83",
"|. c #9A9D8A",
" X c #949684",
".X c #999A96",
"XX c #8E9182",
"oX c #B58F8D",
"OX c #9DA18D",
"+X c #A3A691",
"@X c #A5AA92",
"#X c #A7A698",
"$X c #ACB299",
"%X c #8581A9",
"&X c #8A82B6",
"*X c #928BBB",
"=X c #9A96BF",
"-X c #BA92B5",
";X c #B58BB0",
":X c #B1B3A6",
">X c #C0C4B1",
",X c #9288CD",
"<X c #9991C9",
"1X c #978CD6",
"2X c #9E93DA",
"3X c #A59BDC",
"4X c #A399D9",
"5X c #B89FCA",
"6X c #84A8C3",
"7X c #ACA3DC",
"8X c #B5ACDD",
"9X c #B5AED5",
"0X c #BDB3DB",
"qX c #BBB5D7",
"wX c #ACA3E0",
"eX c #B5ACE3",
"rX c #B0A7E1",
"tX c #BBB3E5",
"yX c #BFB8E7",
"uX c #C2B8DA",
"iX c #C0B8E6",
"pX c #C4BDE9",
"aX c #C3B7E0",
"sX c #C7C1ED",
/* pixels */
"                                                                                                                                                                ",
"                                                                                                                                                                ",
"                                                                                                                                                                ",
"                                                                                                                                                                ",
"                                                                                                                                                                ",
"                                                                                                                                                                ",
"                                                                                                                                                                ",
"                                                                                                                                                                ",
"                                                                                                                                                                ",
"                                                                                                                                                                ",
"                                                                      7.,.6.6.,.                                                                                ",
"                                                                  2.5.7.0.5.0.i.7.<.                                                                            ",
"                                                                2.5.5.5.7.r.n.n.n.s.e.                                                                          ",
"                                                                2.8.r.n.a.a.m.N.M.n.9.2.                                                                        ",
"                                                                2.9.n.b.I ;.%.#X&.u.r.8.                                                                        ",
"                                                                4.1.8.i.h.k.&.@X%.x.e.2.                                                                        ",
"                                                                h h h e.x.f.v.c.O.M g                                                                           ",
"                                                                j f c x ;.D...|.!.u =                                                                           ",
"                                                                  3 ( ^ >.L.:.@XZ.~ <                                                                           ",
"                                                                    % t ' :.+XC.[ y                                                                             ",
"                                                                      t *.( ` ( B                                                                               ",
"                                                                      O G A 6 +                                                                                 ",
"                                                                y v y.I ) :.F d 9 1                                                                             ",
"                                                              C =.] y.d.L -.*.' L M b y                                                                         ",
"                                                            t =.%.o.x y.] .X:XY.x.d.$.5                                                                         ",
"                                                            u >.%.}.Y y.] Y.:XU.%Xd.z.C                                                                         ",
"                                                            t D :.=.v M ] -.OXO.>.y.] p                                                                         ",
"                                                            i P >.~ z U ] :.XX(  .U l X                                                                         ",
"                                                          > P -.) $ x x Y .X>X-.L.} K D :                                                                       ",
"                                                    ;     . i O.P # z v $..X#X>.:.n K o.:         -   ;                                                         ",
"                                                    g 1 > p V.S.5 @ # d ) O.#X XZ.t b D O .     f @ # $                                                         ",
"                                                  9 o ~  . X@X=.y   . ) -.#. X XZ.t ^ V.*.^ 2 X 8 u # #                                                         ",
"                                                o q f q ` C.[ >     O D -.:..XXXS._ C  X@X@XC. .=.s 7 #                                                         ",
"                                                  O q $ l C >       #.W.*XqX0XuXuXqXO.y ( B.S.OX .z o                                                           ",
"                                                    * o 5 -       e Q K.T.[.[.6X{.{.H.N < : 2 Z A 5 *                                                           ",
"                                                                  9 #.H.H.! '.6X{.'.Q r                                                                         ",
"                                                                  S /.,Xg.q.5XyXeX;Xq.~._                                                                       ",
"                                                                $ @.4X~.4.l.0XsXpX).3.-X<XE                                                                     ",
"                                                                O Q.8X-Xk.;XsXpXiX(.g.^.qX*Xa                                                                   ",
"                                                                i /.pXsXuXiXpXeX7XE.0XuXiXtXO.                                                                  ",
"                                                              , G./.sXaXsXpXiX3XW./.eXpX3XeX9XO.                                                                ",
"                                                              w R.4XaXsXyXyX3XI.R.7X3X3X2XyXpX%Xt                                                               ",
"                                                              X.,X1XtXiX3X1XP.i F.`.1X`.7XpXyX7XO.                                                              ",
"                                                            E <X3X1X3XiXtX,XW < a F.R.Q.tXpX7X7X%XV                                                             ",
"                                                            G 4XrX2X2XrXpXU.w     4 F W.eX4X/.8X8XE                                                             ",
"                                                            p P.7XtXiXiXyX)         4 Q.W.I.<XiX<XE                                                             ",
"                                                              +.`./.&X<XU.p         A +.F G./.E.X.                                                              ",
"                                                              a G.R.P.G w           e 5 R J.+.4 >                                                               ",
"                                                              2 ( O.#.X.              2 *.` s =                                                                 ",
"                                                              ( |.A.&               - [ @X$XA.,                                                                 ",
"                                                            V =.$XV.t                  .|.|./                                                                   ",
"                                                          p.d.~.oXz.                  Z B.OX{                                                                   ",
"                                                          k q._.h.N.                s.k.h.oXm._.                                                                ",
"                                                          B =.|.z.u                 u.h.h.M.m                                                                   ",
"                                                          m { z.} <                 < ( }. X!.i $ 3                                                             ",
"                                                        + l 0 0 0 -                 = 1 u ( *.H J &                                                             ",
"                                                                                                                                                                ",
"                                                                                                                                                                ",
"                                                                                                                                                                ",
"                                                                                                                                                                ",
"                                                                                                                                                                ",
"                                                                                                                                                                ",
"                                                                                                                                                                ",
"                                                                                                                                                                "
};
