/* XPM */
static char *_0b3012d300a4649bee8f1df7d785fc1tapTtv1YD9ZMe5ui[] = {
/* columns rows colors chars-per-pixel */
"64 64 212 2 ",
"   c None",
".  c #09080B",
"X  c #0A190D",
"o  c #140913",
"O  c #141B1D",
"+  c #191712",
"@  c #23160C",
"#  c #290B17",
"$  c #28161A",
"%  c #361516",
"&  c #30040F",
"*  c #132808",
"=  c #0F2B10",
"-  c #182917",
";  c #1C351C",
":  c #11360C",
">  c #222616",
",  c #3B2111",
"<  c #191524",
"1  c #171231",
"2  c #290B26",
"3  c #380A25",
"4  c #281726",
"5  c #361C29",
"6  c #380D38",
"7  c #201F31",
"8  c #1E3023",
"9  c #182423",
"0  c #282627",
"q  c #352A2A",
"w  c #2E372C",
"e  c #33332A",
"r  c #2B293C",
"t  c #352536",
"y  c #343C30",
"u  c #3A3A3C",
"i  c #363531",
"p  c #293638",
"a  c #44131C",
"s  c #4D0D0F",
"d  c #770317",
"f  c #5A2014",
"g  c #68361C",
"h  c #470E30",
"j  c #54132B",
"k  c #60182F",
"l  c #6C1F3C",
"z  c #5C3434",
"x  c #5A3C34",
"c  c #4F2C33",
"v  c #602026",
"b  c #65273C",
"n  c #693031",
"m  c #71283E",
"M  c #1B533D",
"N  c #304B2F",
"B  c #3A4435",
"V  c #2F4C2E",
"C  c #4B4F3E",
"Z  c #3A0E40",
"A  c #351556",
"S  c #362E45",
"D  c #323949",
"F  c #393755",
"G  c #43314E",
"H  c #463C54",
"J  c #5D3147",
"K  c #752A42",
"L  c #66354A",
"P  c #7D3845",
"I  c #643652",
"U  c #1D4650",
"Y  c #3B4A4A",
"T  c #354257",
"R  c #375270",
"E  c #4B4946",
"W  c #545C4C",
"Q  c #54564C",
"!  c #484857",
"~  c #595C52",
"^  c #555559",
"/  c #645855",
"(  c #7A5758",
")  c #5D6655",
"_  c #65675E",
"`  c #76615F",
"'  c #4B4A60",
"]  c #484669",
"[  c #524D62",
"{  c #564661",
"}  c #495561",
"|  c #575866",
" . c #534C74",
".. c #58547A",
"X. c #4C4670",
"o. c #6F5868",
"O. c #775A67",
"+. c #615E73",
"@. c #694C66",
"#. c #5C6162",
"$. c #696A6C",
"%. c #6E7162",
"&. c #76796A",
"*. c #74766B",
"=. c #6D6A79",
"-. c #766878",
";. c #7C7C7C",
":. c #797378",
">. c #746568",
",. c #9F091E",
"<. c #8E121A",
"1. c #90281F",
"2. c #8C261E",
"3. c #9E1621",
"4. c #971D32",
"5. c #A40B22",
"6. c #AB0D26",
"7. c #A81B2A",
"8. c #B1142C",
"9. c #B81130",
"0. c #B72539",
"q. c #8C364C",
"w. c #AE2D44",
"e. c #BB3648",
"r. c #A73243",
"t. c #CA354E",
"y. c #CF3E55",
"u. c #864954",
"i. c #92585B",
"p. c #BC4357",
"a. c #A74A52",
"s. c #817F5E",
"d. c #87625F",
"f. c #A96548",
"g. c #904E6A",
"h. c #BA5A6B",
"j. c #A95C77",
"k. c #AE556C",
"l. c #81776A",
"z. c #806F7B",
"x. c #9D6D70",
"c. c #AA6C6E",
"v. c #A7617B",
"b. c #CE475C",
"n. c #CC5F6F",
"m. c #D1556B",
"M. c #C06B7D",
"N. c #7F8371",
"B. c #828475",
"V. c #85897B",
"C. c #928E7F",
"Z. c #8D927E",
"A. c #5D5788",
"S. c #615A8C",
"D. c #635B94",
"F. c #4F6193",
"G. c #4F7A90",
"H. c #546D98",
"J. c #7C7C85",
"K. c #6B6498",
"L. c #7E7B9D",
"P. c #6D63A1",
"I. c #746BA5",
"U. c #7E74B6",
"Y. c #7279AD",
"T. c #8B5981",
"R. c #877681",
"E. c #B0748D",
"W. c #847ABB",
"Q. c #847BB2",
"!. c #827EAB",
"~. c #C47785",
"^. c #718CB2",
"/. c #7FA0BF",
"(. c #7A9AC1",
"). c #888987",
"_. c #959A85",
"`. c #989789",
"'. c #92929A",
"]. c #A79089",
"[. c #9EA28C",
"{. c #A6AA95",
"}. c #A2A68F",
"|. c #928BB5",
" X c #928BB6",
".X c #B58DAF",
"XX c #B1B5A7",
"oX c #8E83CD",
"OX c #9489C8",
"+X c #9B93CA",
"@X c #988CD9",
"#X c #9D92DA",
"$X c #A29DC7",
"%X c #A49BDB",
"&X c #A89FDE",
"*X c #A197D8",
"=X c #84A6C4",
"-X c #ACA3D4",
";X c #ADA5DB",
":X c #B9AAD6",
">X c #B4ADD4",
",X c #AEA5E0",
"<X c #B5ACE3",
"1X c #B1A7E2",
"2X c #BCB5E5",
"3X c #BFB9E8",
"4X c #C2B5DE",
"5X c #C1BBDC",
"6X c #C1B9E7",
"7X c #C4BDEA",
"8X c #C2B7E2",
"9X c #C7C0EB",
/* pixels */
"                                                                                                                                ",
"                                                                                                                                ",
"                                                                                                                                ",
"                                                                                                                                ",
"                                                                                                                                ",
"                                                                                                                                ",
"                                                                                                                                ",
"                                                                                                                                ",
"                                                                                                                                ",
"                                                                                                                                ",
"                                                        5.5.6.,.                                                                ",
"                                                      5.8.6.5.0.7.2.                                                            ",
"                                                    3.5.5.8.y.m.b.t.                                                            ",
"                                                    7.0.b.w.p.n.n.t.7.                                                          ",
"                                                  2.8.b.p.I -.`.@.w.0.                                                          ",
"                                                  2.<.8.w.j.g.`.=.a.7.                                                          ",
"                                                    d d 0.&.f.c.@.k f                                                           ",
"                                                    s c b ).&._.:.>                                                             ",
"                                                      Q E ;.=.[.V.w                                                             ",
"                                                      , e | `.Z.W                                                               ",
"                                                        i _ ~ ~ V                                                               ",
"                                                        4 F 1 .                                                                 ",
"                                                    c m J | ' t 5 >                                                             ",
"                                                  W ` q.u.{ =.| L z y                                                           ",
"                                                y -. .J m z.XXJ.z.u.S                                                           ",
"                                                C +.;.( q.o.'.).R.i./                                                           ",
"                                                i ! &.z m o.).$.>.P E                                                           ",
"                                                r | / k m o.).#./ K <                                                           ",
"                                              - ! | q k l O.XX).:.L H ;                                                         ",
"                                          *   X S [ 4 j b :.{.;.-.c ' 8       *   *                                             ",
"                                        $ a - w N.$.o & t ' ).`.&.0 H <     % & & $                                             ",
"                                        3 0 ~ V.}.)   X ! | )._.*.e *.$.E = < q # @                                             ",
"                                      # 3 % G N.Q -   O ! =.).`.B.u %.[.[.%.%.E 2 +                                             ",
"                                        < 2 h u -     ] U.$X2X3X5X|.w W N._.N.h o                                               ",
"                                          X < =       T H.^.^./.=X^.M : - N B 1                                                 ",
"                                                    % R F.R H.=X|.^.U                                                           ",
"                                                    q I.OXq.E.7X4Xj.g.#.                                                        ",
"                                                  s G OXg.4..X7X6Xg.j.|.Y                                                       ",
"                                                  @ X.&X.Xv.8X9X<XT.E.:X X                                                      ",
"                                                    ..2X9X4X6X2X*XW.2X8X$XY                                                     ",
"                                                  D I.3X7X9X7X%XW.+X8X,X<X|.p                                                   ",
"                                                  ! OX3X7X6X;XI.Q.%X%X*X3X<X!                                                   ",
"                                                  K.@X1X2X#XW.D A.oXoX%X9X<XL.                                                  ",
"                                                } *X@X%X3X1XA.- S D.P.-X3X,X+XY                                                 ",
"                                                X.&X%X#X1X>XT     7 S.,X+XOX3X|                                                 ",
"                                                D  X<X3X7X|.;     . X.U.P.;X;X}                                                 ",
"                                                < K.W. XOX..      < X.F A.Q.S.N                                                 ",
"                                                  T P.P.F           9 F D.F <                                                   ",
"                                                  B ^  .!           ; ) ^ w                                                     ",
"                                                + %._.e             B [.{.)                                                     ",
"                                                B )._.y             C Z.Z.V                                                     ",
"                                              a.i.].x.#.            n N.C.`                                                     ",
"                                              g q.M.n.~.          0.p.j.E.n.                                                    ",
"                                              N l.].C               a.c.k.z                                                     ",
"                                              x d.d.e               B V._.$.2 ,                                                 ",
"                                              6 6 Z $               - i ) [ A 4                                                 ",
"                                                                                                                                ",
"                                                                                                                                ",
"                                                                                                                                ",
"                                                                                                                                ",
"                                                                                                                                ",
"                                                                                                                                ",
"                                                                                                                                ",
"                                                                                                                                "
};
