/* XPM */
static char *_ffed01ccfaf4acf8776a14c301aa76eefBzq21ZPXXkAybq[] = {
/* columns rows colors chars-per-pixel */
"64 64 168 2 ",
"   c None",
".  c #020202",
"X  c #0A0304",
"o  c #070806",
"O  c #0C0A06",
"+  c #030309",
"@  c #090209",
"#  c #0B0B0B",
"$  c #070A0B",
"%  c #140402",
"&  c #190705",
"*  c #150A03",
"=  c #1C0903",
"-  c #100809",
";  c #1F0809",
":  c #060C11",
">  c #0C1114",
",  c #0F141A",
"<  c #141413",
"1  c #181715",
"2  c #191916",
"3  c #12161C",
"4  c #1C1B19",
"5  c #200703",
"6  c #250B03",
"7  c #2C0A03",
"8  c #200A08",
"9  c #2D0A0D",
"0  c #330C04",
"q  c #3B0B05",
"w  c #281B07",
"e  c #2C1102",
"r  c #3C1203",
"t  c #3C1408",
"y  c #3D1C04",
"u  c #1A201C",
"i  c #23231E",
"p  c #33201A",
"a  c #121B25",
"s  c #131D28",
"d  c #252522",
"f  c #2B2A27",
"g  c #2D2C29",
"h  c #302F2A",
"j  c #2F302B",
"k  c #33322E",
"l  c #363531",
"z  c #383732",
"x  c #3B3B35",
"c  c #3E3E39",
"v  c #400E06",
"b  c #4A1102",
"n  c #4A1207",
"m  c #551102",
"M  c #5B1503",
"N  c #521A05",
"B  c #5C1A06",
"V  c #641702",
"C  c #6C1701",
"Z  c #6D1C02",
"A  c #60140A",
"S  c #6A160F",
"D  c #68180C",
"F  c #741900",
"G  c #7C1A01",
"H  c #6C2001",
"J  c #772601",
"K  c #7D2206",
"L  c #403F3A",
"P  c #43423D",
"I  c #654827",
"U  c #464541",
"Y  c #484742",
"T  c #474840",
"R  c #4A4944",
"E  c #4D4D4E",
"W  c #4E5345",
"Q  c #53524E",
"!  c #565552",
"~  c #585753",
"^  c #5A5955",
"/  c #5D5D5A",
"(  c #605F5B",
")  c #63625E",
"_  c #656462",
"`  c #686763",
"'  c #6A6A65",
"]  c #6D6C69",
"[  c #706F6B",
"{  c #72726D",
"}  c #78736F",
"|  c #777672",
" . c #7A7571",
".. c #7D7A76",
"X. c #7E7E7E",
"o. c #831B02",
"O. c #8D1E01",
"+. c #8F1B08",
"@. c #841B0A",
"#. c #941F01",
"$. c #991E03",
"%. c #9F1F08",
"&. c #851B10",
"*. c #8A2102",
"=. c #8F240D",
"-. c #932102",
";. c #9B2001",
":. c #972806",
">. c #9E2E01",
",. c #9D2E04",
"<. c #942009",
"1. c #9E2F09",
"2. c #9F3204",
"3. c #A82601",
"4. c #A12E01",
"5. c #A12E00",
"6. c #A12F02",
"7. c #A22D01",
"8. c #A32D02",
"9. c #AC2D03",
"0. c #A12C08",
"q. c #A33104",
"w. c #A33308",
"e. c #B33101",
"r. c #C53702",
"t. c #C53806",
"y. c #CC3B02",
"u. c #CD330D",
"i. c #D53B02",
"p. c #DA3C02",
"a. c #98540A",
"s. c #BE5700",
"d. c #BD5F03",
"f. c #BF6204",
"g. c #B7722F",
"h. c #B67130",
"j. c #B87331",
"k. c #C25F02",
"l. c #807B77",
"z. c #7E8580",
"x. c gray51",
"c. c #8F8F8F",
"v. c #9A9694",
"b. c #A6A5A5",
"n. c #BAB4AF",
"m. c #AEB2B0",
"M. c #BBB6B3",
"N. c #BEB9B6",
"B. c #B6B6B6",
"V. c #C1BDB9",
"C. c gray79",
"Z. c #D0CACF",
"A. c #DBD7D7",
"S. c #DFDFDF",
"D. c #DBDBDB",
"F. c gray83",
"G. c #E4E4E4",
"H. c #E7EFEB",
"J. c gray92",
"K. c #ECECEC",
"L. c #F6F6F6",
"P. c #F5F5F5",
"I. c #F9F9F9",
"U. c #FDFDFD",
"Y. c gray99",
"T. c #FEFEFE",
"R. c white",
"E. c #FEFEFE",
/* pixels */
"                                                            R.# . S.                                                            ",
"                                                          R.g g k h k                                                           ",
"                                                      R.F.i k k L P P k R.                                                      ",
"                                                    R.! k c z f # z z x k .                                                     ",
"                                                R.. ! . P c P o # + c . R ' ^ ! R.                                              ",
"                      l .             . z X.. l ^ ` . P . P c l < l z P c P . ` / . E K.N..           R.. _                     ",
"                      ^ O Q S.R.      _ . ` ' ] # c z Y c z d < < . o . P P c z ' ] ` _ x _         K.! ~ .                     ",
"                      . ] ( ` / R . m.` / ' . + c z Y L . c c c < P P x L c U c c z . | . ] L.. c ^ ) U ` c.                    ",
"                    9 Z.X @ . [ ] ` ( . h k O z P P L P L L Y P . R P # c U c U . c x z + x / _ ] [ . . W P..                   ",
"                    E 3.+ #.. d z k . z k P c . c c P c P c . Y . R . P U x U j P z c L f x . l z o . #.. 9.R.                  ",
"                      @ 5.6 #.#.#.#.#.#.$.#.#.;.#.#.#.-.;.-.#.-.-.#.-.$.#.-.#.#.-.#.-.<.-.#.#.#.#.#.#.@ 6.*.                    ",
"                      1.5.5.X O.K.#.#.$.;.;.;.;.;.#.#.#.#.#.*.#.#.$.#.-.#.#.#.#.#.#.#.-.#.O.#.#.. b . 5.t q.                    ",
"                      Y.5.0.:.. . $.+ R.R.U.R.R.R.#.7 #.#.G.R.R.R.R.R.X #.#.. #.R.R.R.R.R.R.G C . % 8.8 5.R.                    ",
"                        5.X 8.8.O.R.R.R.J.#.#.U.R.R.7 #.I.R.R.. $.4 R.R.P.#.. R.R.U.#.$.I.R.R.U.. ,.8.X 5.                      ",
"                        X ; 0.5.O.R.U.J.7 7.0 #.I.R.7 #.R.R.u * 6.@ . R.R.#.. R.J.A Z 2.*.I.R.R.. 5.q.o .                       ",
"                        I.X 6.5.O.R.R.#.. >.t % > U.7 #.R.R.#.5 2.9 -.R.R.#.. R.% 5.Z ,.r . R.I.. N ,.M R.                      ",
"                          b 8.% O.R.R.z.;.6.J A R.R.7 #.R.R.#.. 5.%.. R.R.#.. R.I.-.H 5.S H.R.Y.. . 7..                         ",
"                            8.0.O.R.R.R.. &.o.P.R.R.7 #.R.R.R.-.#.O.R.R.R.#.. R.R.E $.#.. R.R.Y.. ,.e x.                        ",
"                            @ 6.O.R.R.R.R.R.R.R.R.R.7 -.R.R.R.R.I.R.R.R.R.#.. R.R.R.R.R.R.R.R.Y.. 5.-                           ",
"                            . 5.#.#.#.+.#.+.#.#.-.$.-.-.#.#.#.#.#.#.#.#.#.#.-.;.-.#.#.$.#.#.;.$.O.5..                           ",
"                              . . V V V V V V V V V V V V V V V V V V ;.;.;.;.;.;.;.;.;.$.$.;.$.1.+                             ",
"                              R.Q k k l l l l l z z z k k l z l z z l l k k z l k z z k l z l ~ L R.                            ",
"                            . ^ ] 4 . z z z z z z z z l . x . z c z o . o . 1 x d z x x z z o < ' / 1                           ",
"                    R./ E ^ ' { o . g c P L c c c x c k . c . P U c . . . . 2 P g P L P P x . g o ' ' / . R.                    ",
"          l . . 1 ! ^ ` ] | 2 . k k l L Y P L x L x L z . x . P Y P o . o . 2 P g P P P P P z k l 1 ] | [ ` ^ / . . . j         ",
"          ] / ] ] { | ..| . . k g h x P P P L c L x P z . c . P Y L . . . . 4 P g P P P P L L . z . l . | ..| | ] ] ( `         ",
"        R.] ) / ....| o z o + o z x P P Y P L L P x x z . c . P R P o . o . 4 P g P P Y P P L z l z k c . . | ..... / { I.      ",
"        . . . . . L z c 2 c c z P L P P P P L L x x P z . c . P R L o . o . 4 U g P P P R P L x c x c x c + L z . . . . .       ",
"        R.. $.#.-.+ . + . . z x . < . . . . . . . . . . o # z j . . d g o f z O . . o . . . . . . # j o . 4 f + $.-.-.+ R.      ",
"          . +.$.@ *.#.#.#.-.#.#.#.#.#.#.#.#.#.#.#.-.#.#.-.-.#.#.#.#.#.#.#.#.#.#.#.#.#.#.-.#.-.#.-.#.#.#.#.#.#.-.. -.7 C.        ",
"          0.M #.+ $.#.q O.I.. O.O.I.I.I.O.#.*.-.-.I.I.I.-.#.O.O.L.L.O.O.O.O.P.P.O.+.O.O.O.P.P.P.O.O.#.P.O.O.X -.%.;.. .         ",
"          R.n m #.#.% #.#.R.. #.C R.R.R.-.#.#.#.#.R.R.R.#.. . #.R.Y.#.. -.G R.Y.#.#.#.#.#.R.R.R.-.#.O.R.#.#.X #.$.. 7 R.        ",
"              R.. $.v #.#.#.. G.R.R.R.R.I.. #.Y K.U.Y.Y.c.q . ` _ ) _ b X.C.R.R.G.. #.+ Y.R.R.R.R.) M #.#.#.-.$.. Y.            ",
"                R.f #.#.@ #.. R.R.R.R.R.R.Y.#.. . + . . j.h.h.j.h.h.j.j.h.. + . . . #.R.R.R.R.R.R.R.V #.o.#.$.. R.              ",
"                    $.. #.#.. R.R.R.R.R.R.I.#.O.@ k.o a.# j.h.h.j.h.h.* j.& w y . #.#.R.R.R.R.R.R.R.o.#.-.D -.R.                ",
"                    R.V #.#.. R.R.R.R.R.R.U.#.#.f.. k.f.@ j.p c U I h.j.j.d.s.o @ #.#.R.R.R.R.R.R.R.o.#.#.#.                    ",
"                      R.. . . . . . . . . . . . . . . . . . . . . . . . . . . . . . . . . . . . . . . . . R.                    ",
"                        #.. #.#.#.#.#.#.#.#.. G G G G G G G G G G G G G G G o.G G o.X #.#.#.#.-.#.#.-.. #.                      ",
"                        R.#.. #.-.O.#.#.#.#.*.i.i.i.i.i.i.i.i.i.i.i.i.i.i.i.i.i.i.u.#.#.#.#.-.;.#.#.% $.R.                      ",
"                        R.#.. R.R.J.A.R.R.L.-.F C C C C i.i.i.i.X i.i.i.i.V C C C C #.R.R.R.K.L.R.R.% #.                        ",
"                        R.#.. R.. +.#.m R.L.-.-.#.#.+.*.i.i.i.i.= i.i.i.i.#.#.$.#.+.-.R.R.% <.#.i R.& #.                        ",
"                        R.#.. J.+ + . ; L.L.#.0 3 > 3 . , : o . = . a a . 3 a $ s #.#.R.G.K N + O R.% #.                        ",
"                        R.#.. b.. 7 . . G.L.#.0 . . $ . + > . a 5 . a 3 a O s . . #.-.R._ 1.6.. B I.% #.                        ",
"                          #.. . . & . . A.I.-.A 7 7 q 7 ; & = = 6 i.i.i.p.% X . . & #.R.. <.8.. w.K.% #.                        ",
"                          #.. . + * . + O I.-.G #.o.#.. i.i.. i.7 i.. i.i.. #.. #.O.-.R.#.5.6.+ q.m.% -.                        ",
"                          #.. #.M m m m #.. #.o.#.o.#.. i.i.. i.7 i.. i.i.. #.. -.O.-.+ #.. + . + -.& #.                        ",
"                          #.. . . . . . . . #.% % @.% & 8.9.y.y.e e.9.e.e.. . . . . #.. . . . . . . % #.                        ",
"                          #.. R.R.R.R.R.R.L.#.G #.o.#.. i.i.. i.7 i.. i.i.. #.. #.#.#.R.R.R.R.R.R.R.% #.                        ",
"                        R.#.. R.R.R.R.R.R.L.#.o.#.o.#.. i.i.. i.0 i.. i.i.. #.. -.O.#.R.R.R.R.R.R.R.% #.                        ",
"                        N.#.. R.R.R.R.R.R.I.#.G O.#.O.. i.i.. i.7 i.. i.i.X m m m O.#.R.R.R.R.R.R.R.% #.M.                      ",
"                    R.M.M.#.o G.G.S.S.D.D.A.#.#.O.#.#.O.t.r.. r.5 r.. i.i.#.$.#.$.#.#.P.P.P.P.J.K.K.& #.N.N.I.                  ",
"                  I.M.M.M.#.. #.#.#.#.$.#.#.#.#.#.#.#.#.G F F G F F F C F #.#.#.#.#.#.#.#.#.#.-.#.#.% #.M.M.N.R.                ",
"                Y.n.B.M.M.M.M.N.B.M.N.M.M.M.M.M.M.M.M.M.N.N.N.M.M.V.M.V.V.M.V.M.M.M.N.M.N.N.N.N.V.M.M.M.M.M.M.V.                ",
"              R.M.M.M.M.M.M.M.M.M.M.M.M.M.M.M.M.M.M.M.M.B.M.M.M.M.M.M.M.M.M.M.M.M.M.M.M.M.M.M.M.M.n.M.M.M.n.M.M.N.R.            ",
"            I.M.M.M.M.n.M.M.M.M.M.M.M.M.M.M.M.M.M.M.M.M.M.M.M.M.M.M.M.M.M.M.M.M.M.M.M.M.M.M.M.M.M.M.M.n.M.M.M.n.M.V.R.          ",
"          R.N.M.M.M.M.M.M.M.M.M.M.M.M.M.N.M.M.M.M.M.M.M.M.M.M.M.M.M.M.M.M.M.M.M.M.M.M.M.M.M.M.M.M.M.M.M.M.M.M.M.M.M.N.R.        ",
"        . M.M.M.M.M.M.M.M.M.M.M.M.M.M.M.M.M.n.B.M.M.n.n.M.M.M.n.n.n.M.M.M.M.n.M.M.M.n.M.n.M.n.M.M.M.M.M.M.M.M.M.M.M.N.N.L.      ",
"        ....} }  .{ } } { } } } } } } } n.. n.M.M.M.B.M.n.M.n.N.M.M.M.M.M.M.M.M.M.M.M.M.. } } } } } } } { } } } }  .} ..l.      ",
"        l.} } } } } } } } } } } } } } { n.v.v.v.v.v.v.v.v.M.N.N.V.N.M.V.V.N.N.V.V.V.V.V.M.} } } } } } } } } } } } }  .....      ",
"        l.....} } } } } } } } } } } } 4 l M.M.M.M.M.M.M.M.M.M.N.M.M.M.M.N.M.M.M.M.M.N.M.M.+ } } } } } } } } } } } } }  .l.R.    ",
"        l...} }  .}  . .} } }  .}  .} M.4 o o o o o o o o o o . o o . . . . . . . . . . . M.} } } } } }  .}  . .} }  . ...R.    ",
"        ......}  . . . . . . . . . .. M.M.M.M.M.M.M.M.M.M.M.M.N.M.M.M.M.M.M.M.M.M.M.M.n.M.M.} } } } } .. . . . . . .}  ...R.    ",
"        R.R.R.R.R.R.R.R.R.R.R.R.R.R.N.N.N.M.M.M.M.M.M.M.M.M.M.M.M.M.M.M.M.M.M.M.M.M.M.M.M.. M.R.I.R.I.R.R.I.I.R.R.I.R.I.R.R.    ",
"                                  R.. . . . . . . . . . . . . . . . . . . . . . . . . . . . .                                   "
};
