/* XPM */
static char *cc4cd6ddb4924695a71f12d2edb2732fBOZ6CaJM7hovRzOP[] = {
/* columns rows colors chars-per-pixel */
"64 64 256 2 ",
"   c #040304",
".  c #0B0506",
"X  c #04040A",
"o  c #0A060A",
"O  c #0C090C",
"+  c #0C0907",
"@  c #130505",
"#  c #130A06",
"$  c #1B0A06",
"%  c #130609",
"&  c #1B0609",
"*  c #130B0B",
"=  c #1C0C0C",
"-  c #1A0505",
";  c #1D110C",
":  c #17120D",
">  c #040612",
",  c #0B0A11",
"<  c #060A1B",
"1  c #0A0E1D",
"2  c #050817",
"3  c #130C11",
"4  c #1B0E11",
"5  c #140E1B",
"6  c #0F101E",
"7  c #151213",
"8  c #1C1312",
"9  c #1C1619",
"0  c #230C0B",
"q  c #2B0E0C",
"w  c #270806",
"e  c #330D0B",
"r  c #380A08",
"t  c #23130D",
"y  c #2B130D",
"u  c #2B190E",
"i  c #24190B",
"p  c #33140D",
"a  c #3B140D",
"s  c #34190D",
"d  c #3A1C0B",
"f  c #230F11",
"g  c #2B0F11",
"h  c #241413",
"j  c #2B1512",
"k  c #241A15",
"l  c #2C1B13",
"z  c #2C1B1B",
"x  c #241B19",
"c  c #341412",
"v  c #331C13",
"b  c #3B1C13",
"n  c #381A16",
"m  c #300D10",
"M  c #28221B",
"N  c #352214",
"B  c #3B2314",
"V  c #34231B",
"C  c #3B261B",
"Z  c #3D210E",
"A  c #060A22",
"S  c #090E23",
"D  c #050C2B",
"F  c #0C1124",
"G  c #0D142B",
"H  c #151728",
"J  c #050D33",
"K  c #0C1532",
"L  c #0F1A34",
"P  c #0E1B3B",
"I  c #09133A",
"U  c #111A33",
"Y  c #111D3A",
"T  c #101731",
"R  c #2E1C2A",
"E  c #13213C",
"W  c #292722",
"Q  c #382725",
"!  c #2B3328",
"~  c #363529",
"^  c #1B241B",
"/  c #480C09",
"(  c #550B09",
")  c #43150D",
"_  c #4B150E",
"`  c #4A1B0F",
"'  c #441A0C",
"]  c #57170D",
"[  c #421612",
"{  c #431C13",
"}  c #4C1A13",
"|  c #491614",
" . c #531B12",
".. c #571C15",
"X. c #760D0B",
"o. c #6A180C",
"O. c #77180C",
"+. c #661D12",
"@. c #761A12",
"#. c #62090B",
"$. c #47240D",
"%. c #58230E",
"&. c #432314",
"*. c #4B2314",
"=. c #4B2A15",
"-. c #44251A",
";. c #43291B",
":. c #4B2A1B",
">. c #462717",
",. c #532313",
"<. c #5C2413",
"1. c #542A15",
"2. c #5D2A14",
"3. c #532D1A",
"4. c #5A2A1A",
"5. c #593419",
"6. c #48321B",
"7. c #6B250E",
"8. c #7D240E",
"9. c #77280E",
"0. c #642214",
"q. c #632B14",
"w. c #692816",
"e. c #782514",
"r. c #643B1B",
"t. c #693518",
"y. c #783818",
"u. c #77370F",
"i. c #452921",
"p. c #4B3528",
"a. c #593824",
"s. c #512F29",
"d. c #643B28",
"f. c #733525",
"g. c #334738",
"h. c #3C533B",
"j. c #6C441C",
"k. c #76441A",
"l. c #7B581A",
"z. c #5C4427",
"x. c #5B4835",
"c. c #694527",
"v. c #764628",
"b. c #6B4534",
"n. c #745532",
"m. c #0D1B44",
"M. c #0B1740",
"N. c #111F41",
"B. c #132245",
"V. c #16274B",
"C. c #182B55",
"Z. c #1B305B",
"A. c #3F5845",
"S. c #6C5343",
"D. c #78644B",
"F. c #47654F",
"G. c #88180C",
"H. c #981A0B",
"J. c #89180F",
"K. c #A5190C",
"L. c #A91714",
"P. c #B3120C",
"I. c #83240D",
"U. c #8A290E",
"Y. c #93240D",
"T. c #932C0E",
"R. c #9C270D",
"E. c #98350E",
"W. c #842A12",
"Q. c #882A13",
"!. c #992814",
"~. c #883714",
"^. c #933212",
"/. c #9A3916",
"(. c #88340E",
"). c #A8280D",
"_. c #A7350E",
"`. c #A52612",
"'. c #A83813",
"]. c #B53914",
"[. c #B52C0F",
"{. c #913825",
"}. c #B13723",
"|. c #C63B17",
" X c #D03311",
".X c #E43B19",
"XX c #CA160E",
"oX c #874519",
"OX c #984717",
"+X c #925317",
"@X c #A74814",
"#X c #B94713",
"$X c #A75419",
"%X c #B95714",
"&X c #B6460E",
"*X c #B66619",
"=X c #855424",
"-X c #96582D",
";X c #8F4E2F",
":X c #A84525",
">X c #AF512D",
",X c #966938",
"<X c #966A30",
"1X c #A76529",
"2X c #B77736",
"3X c #B0722F",
"4X c #9B6418",
"5X c #C74915",
"6X c #D74915",
"7X c #C85515",
"8X c #D65414",
"9X c #E94D16",
"0X c #CA6A16",
"qX c #D56716",
"wX c #D27517",
"eX c #CC5229",
"rX c #E95127",
"tX c #CE6E33",
"yX c #EA6E31",
"uX c #885D47",
"iX c #906D4C",
"pX c #A67347",
"aX c #AD6E5C",
"sX c #D46D45",
"dX c #E97044",
"fX c #B78830",
"gX c #A9811D",
"hX c #DB8518",
"jX c #E3A21C",
"kX c #C88A39",
"lX c #CF8E31",
"zX c #E89B2F",
"xX c #B88747",
"cX c #B18C4F",
"vX c #978363",
"bX c #AD936F",
"nX c #A29564",
"mX c #D59546",
"MX c #D0924F",
"NX c #EC934F",
"BX c #D7A853",
"VX c #EDAF53",
"CX c #C99765",
"ZX c #DAB878",
"AX c #CEAC6B",
"SX c #E8B678",
"DX c #E2926D",
"FX c #E5D075",
"GX c #E3C363",
"HX c #BBAC8F",
"JX c #C9B48E",
"KX c #F1BA80",
"LX c #D8C793",
"PX c #E8CE8D",
"IX c #E6D7AD",
"UX c #ECE9C4",
/* pixels */
"X X X X X > X > > > 2 < F 1 F G 1 2 < < 1 1 1 1 1 1 1 1 1 1 1 1 1 1 1 S L L L P Y P K S S S F D S A A A < A A 2 < < D A A D J D ",
"X X X X X > > > > 2 2 2 < F F F G F F F 1 S F S S 1 < 1 1 F U L L Y L Y B.P L L P N.B.N.K G F S A F F D D D D G J J J J J J J D ",
"X X > > > > > > < < A S D D D F G G G L L F F F F F G T L L E L L Y L Y E B.E P Y N.B.E P P P I K m.m.m.m.m.m.m.M.I J J J J D D ",
"X X X X > > > > 2 A A D F G G G G U Y E E P P Y Y Y Y E L U G G G G L G L P L P Y Y Y E P P P P P M.m.m.m.m.m.M.I J I J J D J D ",
"  X X X X X X > > 2 < < 1 1 1 S F G G G G T U T G L P Y Y U F 1 1 L Y B.P P B.E E B.B.B.B.B.B.V.C.Z.C.V.V.m.m.m.M.I I D A > 2 > ",
"        X X   X + > 2 1 1 S S S F G G G Y Y E E B.E B.E 1 , > , > , , F Y E B.B.V.C.C.C.Z.Z.C.C.V.B.B.m.I M.m.I P J < > X X X X ",
"            X X X X X , 1 S S F F H G H H G L T U H , , , , X , , , , , 1 E V.V.V.V.V.B.B.Y E T S 6 F 1 < < S S < > X X X X X X ",
"                X   X X X , 1 1 F F F F F F 6 6 , O O O o o , o o , , , O O F F H U U H 6 6 6 6 1 < 2 , 2 , > O > X X X X X X X ",
"                    X X + X X O , O , , , , , O O , O , , o O > , , , , , , , , , O , 6 6 6 7 < 2 , , , X , , X X X X X   X     ",
"            . X   X X X X O O O X , X , O , , , , , O o O O O , , , , , , , , , , , , O , , , , , , X X X O X X X X   X         ",
"                  +   + X X X O O O O O O O , 7 Q 1 , , , , , O , 2 , , , , , O , , , , , , , O O , , O O O ,   X X X X         ",
"              .     X     X X O O X O O O O X M iX* , o o , O O , + , + O O O O , o 3 3 O 3 * O O O O X X X X   X               ",
"          .   . X . X . + + X + X % O + + o o M pX7 , O o o > o + X o + X O O O O O O * O * O O o O o .   X X   X               ",
"        .   X o o o * * O 3 O O , , 3 = * M * 9 vXW , , 5 6 3 3 , O o + X O O O + + + O O * * * * O + O . . o                   ",
"    . . . . o % O 3 O O 3 O , O 3 3 3 , 3 8 * *   * * O 4 f o 3 + O O O O * O O O * O * % & # = = * = * O + o                   ",
". . . . @ o % > f R O o 3 9 9 H 9 * O 7 7 5 * = 9 8 3 7 * = H H H 7 O * * 3 O O + * # = * = = & = $ = * + . .                   ",
". . @ % % % 3 n ..5 4 * 3 8 9 h 4 3 4 h z V z z x k x k 9 4 7 x 9 3 * 3 3 3 O * % * = = $ 0 0 0 t y = # # . . .     ; #         ",
"X % * = * 3 c @Xf.. 7 7 M a.p.n n h x ~ z a.5.N n -.{ v 0 h z 3 % * = 5 * % % % * & = 0 q q q e q 0 q 0 i $ $ $ + + + +         ",
"@ @ @ - 0 - @.5X_ o 4 3 9 n.D.f.e.8 x Q 8 b d.M f n ;XuXv.n n k 5 = 0 h e g % % & 0 q q e p b [ a q c 0 y = O + . + : + N :     ",
"- w ( X.( r ..eX( O = = ; ; y +.e.} 8 h c.5.M 8 h 4 s.d.d.s.O p a = t s [ ] ] ] ) q ) ] ] O.J.!.J.@...q f.a.+ * %.i ; : C :   + ",
"0.@X>XyXtX{.+.[.m 4 j f ; t ' @.] U.{ l ;.<X3.f g z f f h h 4 m ` p *.` y e +.!.G.O.T.@X[.5XrXeXyX6X`.c <.} j ; $.: : #         ",
"/.>XeXyXeX:XJ.X.* s.p.* ; = _ G.!.J.Q.} z.a.e.0.s.R Q z f = = = = t t.2.m / ( o.o.G.sXVX7XmXVXVXPXyXH.q 0 q = $ #       +       ",
"@.X.L.L.L.L.#.m = S.Q @ = = 0.).H.G.R.u.z.c.0 0.>Xn f * f f 4 4 = = h n g - r ( X.K.yXyX XrXyXrXyX.XP.4 h 4 * O + # .   X       ",
"r / ( ( | X./ 0 h S.C = t = ` !.G.u.q.1.m b n c ..c @.+.5 h f 4 4 h h 4 = & - w r X.J.J.G.J.`.L.K.H.X.,.*.C x ; ; ; u ; : # + + ",
". - - - w 0 0 f R D.n h y ; ) R.@.7.$.,.a c i.m c m { }.J.R g g h j h h h f g m e r ) _ )  .0.w.0.{ c w.1.B i ; ; ; i ; # + .   ",
"@ - - & 0 0 f & R d.a j i 0 a Y.I.]  . .b p m a c g g [ }.}.| j z z z j c g q q m ) | | | } 0.w.f.w.a g h = # * : #             ",
"- w & 0 g m f m n d.4.c y y y @.7.] 7.,.) { c [ [ n f / eXsX{...W.{.>X}.}.Q.w.^.] _ +.<...@.Q./.;X}.Q.s.:.i.l # # +             ",
"#.O.w w c J.m @.e h =.t y y 0 +.(.+XW.+.,.<.{ ] ..a.c g J.}.{.bXsXyXPXyX'.+.J.`.H.@.} f.{.3XZXCXmXrX!.v.,Xb.v +   .   + .       ",
"~.:Xw r [ sX4.X.g z &.v s y c <.e.+X_.7.] ] ` ` | ..>Xn n X.e.aXeXeXKX>X^.0._ K.K.( - n ;X;XDXMXtX9X[.2Xn.j O # + . .           ",
"oXsXK.L.+.sX!.( f -.*.*.d y 4.q.I.U.&X@XO.E.a <.s.| {.,X| m [ f.f.+.uX4.b n p r e = w = m w H.].'. XJ.[ = : = O + + . . + . .   ",
"X.L.XXP.@.L.J.m 0 -.4.t.&.s } ,.W._.6XqX@X%X' ` | { ..{.;Xc g n R n :.i.n j g 0 0 0 & f 0 0 j v a 5.h 4 8 8 : * + . + . . . . . ",
"% r #.( ( ( / g h >.y.=Xb B $.4.9.6X X].@XE.' ' | ..[ e.}.i.g i.a.uXS.p.l h j f f 0 4 = f w 0 0 h N n k M 8 8 * * + + + + # + . ",
"% % & 0 g j j y x l.k.j.v :.4.y.] [.&X).8.T.] ' | [ [ ..!.| y n b C w.i.V j h 0 4 = = = = = 0 t h k h l i 7 ^ 8 : # : : # # # # ",
"% & & = f f n z x 4Xy.2.B >.5.y.%.E.U.@X8.U.O.(  .} _ | e. .j n *.[ iX1Xi.Q l h 0 = 0 = ; = = t h h 8 V l.r.i 8 : : 8 8 ^ M k i ",
"% % & = f f R *.t.3Xk.r.=.B =.y.%./.6X[.R._.#.O.8. .~.q.*.*.b { w.2.4.pX>X3.V z h t 8 = = = 8 8 ; k M 8 ~ cXfX6.8 : 8 M M u l ; ",
"* % = 4 h j s.;X+X<XoX5.C >.B y.0...]. X5X).O.).Y.o.y.4.{ | { *.4.&.1.} ,X;X:.C l h t ; = 8 8 8 k ^ M M ^ ^ vXBXj.# : $ e r ] ' ",
"% 4 & 4 z R uX;X=XfX=X3.u >.&.t.q.1.0.o.@.O.G.G._.[.~.t.` p c b =.4.s.a.} tXMXn C v t = 8 8 9 x M W ^ ! ! g.^ n.5.* . N ZXxXVXBX",
"o f f 4 R Q uXq.gXBXn.5.N B s 1.t.` ] _ o.G.G.G.).&X*Xy.` c y y b.bX=Xd.i.!.tXtX4.V l h ; 8 x W ! ! ! g.g.h.h.! 7 # . s yXyXyX9X",
"o % z h W s.iX$.mXkX:.5.B N B 4.~._  ._ o.G.H.).].#X$XoX,.:.b n &.HXCX3.N 1.'.NXkXq.V M x k ~ g.g.g.h.h.F.F.! : + + # . - U..XE.",
"* 3 f Q W n.pXC fXfX5.;.u v B 5.y.` q.+.X.H.G.H.)._.:Xy.<.t.&.z { HXUXvX3.C 4.).NXmXy.i.V ~ A.F.A.D.S.A.g.^ + # O 3 + # # . i d ",
"% 4 = Q Q iXpX>.nXbX5.C i N N =.2.q.pX`.L. XG.X.G.#XwX+Xt.` &.b &.bXUXIX,X6.B 2.].tXVXj.N ~ Q C C OXt.8 O O 7 3 O # + @ @ @ . @ ",
"4 x 4 k p.aXpXz.AXvX$.C u N l N B t.:X.X[.[.%XR.G.[.E.u.+Xw.b b -.n.HXLXLXn.=.;.q.5XzXk.0 y $.k.r.: 7 7 : 3 3 O + + + . + @ @ . ",
"Q Q R x v CXuXz.AXD.Z C N N i l c 4._..XK.G.E.)._.@XO.o.9.q.{ { -.i.iXLXLXAX=X&.&.y.5X<.t B j.6.8 7 7 7 7 7 * O O O + o . . . . ",
"s.Q b n <.SXD.=.HXn.Z B l l i y v >.e. X].&X8X#X_.(.(.9.8.q.1.&.n } s.HXLXPXCXk.5.-.w.*.0 r.1.* k 8 : 7 7 7 3 O + + + + . . . . ",
"[._ 5.' n ;Xx.p.HXx.N N l N l y c b +.|.eX)._.O.I.9.I.9.OX9.t.b { 3.s.,XCXZXPXZXy.=.&.Z t 4.yXa.7 h 8 8 * 7 * * + O . . .   .   ",
"zXoX) e t i.x.z.LXp.N i l V z y j n | |.rXK.T.O.U.o.8.8.(.U.u.:.*.3.3.d.<XCXZXPXxXj.B s u { -Xa.` M x 8 8 4 * * @ o . . . .   . ",
"NX>Xw y 8 z.z.D.JXC N N l v M h j c { !.rX).Y.T._.E.U.U./.O.q.j.t.4.r.r.r.1XCXZXIXfX&.v u l i l tX3.M x 8 ; = * O + + . . . .   ",
"rX[.q ; N z.z.iXHXs N C k V z y q c { @..X].I.G.E.0XOX@X@X^.(.+XoXt.v.r.q.OXfXBXPXFX<X&.u u C M b.B <.-.z h = = * % . . .   .   ",
"@.#.c g B x.z.vXHXd B u i l N h y c ` +.eX5X*X_.E.@XOXoX9.@X8.7.~.$Xy.c.r.k.-XBXFXPXCX' l N l k = r eX1Xn j h = * * % . o   .   ",
"w w g c 6.n.6.bXnXd C i i k l j -.a.<.] :X>X_.].%XU.@XE.9.w.9.0.9.$XOXv.v.r.OXkXZXPX<X' N s u u l a ].tX-Xw.v h = * @ + + . .   ",
"& 0 = n a.D.5.nXvXd B u N C N Q ;.d.oX .:XtX[.)._.E.%X@XI.8.(.9.9.OX%X=X3Xk.oXlXMXFX-XO.&.d u s l s o.H.yXzX~.b h = * % + .     ",
"* 4 z v b.,X6.gXl.B 6.B C C l v j ;.y.] 9.R.[.[.R._.%X(.8.W.o.7.@X/.@X+XjX3Xj.&X2XcX$XY.q.iXa.l c p d X.|.VXtX(.b h = * % . . . ",
"@ - 0 | d.f.k.fXj.Z 5.B N N M i B =.q. ...K.[.Y._.&X%XE.(.8.9.9._.@X'.0X%XlXfXlX2X2X/.`.u.AX-X$.C s s _ )..XyXmX{.n 9 = * + . . ",
"% = n ..!.;XgXBXj.=.5.>.N i k k B =.t.,.]  X[.8.&X8X_.OXT.(.(.E.E.(.%X7X%XfXGXFXcX#Xy.Q.oXtXmXiX>.N v s O.K.XXMXVX/.j ; = @ . . ",
"& f 3.:XrX>XfXkXl.$.r.$.N u k l :.:.w.*.| `.`.T.8X8X@X8.(.@X9.U.@X%X7X5XjXhXlXFXxX~.w.7.OXlXBXBXu.1.b s ' O.K. XNXy.w.c ; # . . ",
"= n f.KXdX'.lXfXk.$.r.>.u u k l ;.1.t.&.{ @.H.Y._.Y.Y.E.I.T.E.E.(.@XwXqXwXfXfXGX<X*.t.2.(.tXmXtXZXiX$.b p d o. X`.q lXe.a : # @ ",
"f i.>XIXtX%XGX=X7.k.r.Z i i l i N 1.y.&.[ +.8./.&X7X5XqXG._.wX7X%XY.wXjXhX*XlXBXBXj.j.2.2.@XlXkXZXBXk.=.s q p O.O.p >XNXqX,.; # ",
"f Q }.NX:XoXzX=X1X$Xt.s i $ u M N &.1.4.[ *.I.T.7X8X8X[.I.T.@XY._.]._.qX0X+XgX3X<Xc.c.2.Z 2.OXmXkXVXJXd.s s q y r a R.tXcXoX$ # ",
"& R Q.rX].] 3X4XBX>Xr.i $ : u u v b &.q.[ | +.W._.[.Y.hXQ.J._.%XR.%X_.7X@XoXu.+X>.z.v.4.s d %.*XVXMXSX2X$.d q w = y e e $ ; d e ",
"3 g ] rX}.oXlXoX^.OXt.; # * i u l B p.1.) c 0.I.).K.5XjX7XI.Y.%XT.0XjXhX(.7.7.q.N <XxX3.Z s B t.2XpXy.oXs e i w 0 $ w +.!.].BXyX",
"& f w `.@XmXlX+X9.~.5.$ : ; i i h v i.4.| c ..Q.R.[.8X5X'.].).Y./.'.0X0X9.7.%.0.v r.,X5.C c n b d b c { d.,.0 w $ $ w o.R.`.>XNX",
"5 & f | q.3X*XOX7.u.$.# ; B h h l y k 4.<.c | eX6X_.E.R.G.U.E.^.#XqXwX4X7.2.,.&.v v j n y b b -.1.OXtX2XNX$Xp u $ $ $ w q w 0 #X",
"3 - - 0 d 7.*Xu.] %.&.u l h t ; h t u ,...a _ ].5X].9.8.U.Y.T.U.7XqX+X3.b n v v h :.j.r.=X5.a.l.8./.%X0XoXt.p t - % % $ w r e.`.",
"3 . @ g %.3XSXu.' $.d N u ; ; ; ; ; t *...a _ ).qX0X0XO._.8X].5X&X Xy.{ } <.9.0.h y.lXk.1Xr.-.j.` ] b b 0 $ s ' $ $ $ - @ w ] +."
};
