/* XPM */
static char *_01d2fe1265146d5e9ebf9f9c15c7712FieU0HuOOh3169HN[] = {
/* columns rows colors chars-per-pixel */
"102 64 181 2 ",
"   c None",
".  c #020202",
"X  c #0A0403",
"o  c #030902",
"O  c #090906",
"+  c #040309",
"@  c #0A0209",
"#  c #05090E",
"$  c #0B0B0A",
"%  c #140402",
"&  c #1A0502",
"*  c #1C0901",
"=  c #1A0708",
"-  c #100B0B",
";  c #1D0B0A",
":  c #140803",
">  c #11110E",
",  c #070410",
"<  c #0A0D12",
"1  c #0D131B",
"2  c #141413",
"3  c #181716",
"4  c #171815",
"5  c #1A1916",
"6  c #12161D",
"7  c #1C1C1A",
"8  c #12181D",
"9  c #240702",
"0  c #220C03",
"q  c #2C0C03",
"w  c #310C01",
"e  c #3C0C02",
"r  c #3A0E0F",
"t  c #221007",
"y  c #2A150E",
"u  c #3A1103",
"i  c #3F150A",
"p  c #1F201B",
"a  c #22221E",
"s  c #0F1D21",
"d  c #121C26",
"f  c #131E29",
"g  c #262622",
"h  c #2A2A26",
"j  c #2C2E2C",
"k  c #272C2C",
"l  c #302F2B",
"z  c #3A2D2F",
"x  c #33332E",
"c  c #363531",
"v  c #383732",
"b  c #3B3A35",
"n  c #3E3E39",
"m  c #4B0E03",
"M  c #440C09",
"N  c #461206",
"B  c #4C1505",
"V  c #45140A",
"C  c #551102",
"Z  c #5C1402",
"A  c #591509",
"S  c #5B1B07",
"D  c #600E02",
"F  c #641701",
"G  c #6C1701",
"H  c #621A03",
"J  c #6A1A01",
"K  c #611908",
"L  c #751700",
"P  c #7F1607",
"I  c #751901",
"U  c #7C1A01",
"Y  c #7A1D0C",
"T  c #721A0E",
"R  c #502701",
"E  c #583C13",
"W  c #6C2502",
"Q  c #742506",
"!  c #7C2405",
"~  c #64310B",
"^  c #742012",
"/  c #403F3A",
"(  c #43423C",
")  c #423F40",
"_  c #464541",
"`  c #484742",
"'  c #494945",
"]  c #464849",
"[  c #4E4E4C",
"{  c #53524F",
"}  c #555452",
"|  c #585752",
" . c #5A5955",
".. c #5E5D59",
"X. c #605F5B",
"o. c #62615D",
"O. c #656462",
"+. c #686763",
"@. c #6A6A66",
"#. c #6E6D69",
"$. c #706F6B",
"%. c #6F706B",
"&. c #72726D",
"*. c #78736F",
"=. c #767572",
"-. c #7A7571",
";. c #7D7975",
":. c #7E7E7C",
">. c #757C7E",
",. c #851C01",
"<. c #8C1D01",
"1. c #841B0A",
"2. c #8D1C09",
"3. c #941F01",
"4. c #991E02",
"5. c #9A1D09",
"6. c #832303",
"7. c #8D2102",
"8. c #932002",
"9. c #9B2101",
"0. c #9E2E03",
"q. c #93230A",
"w. c #9F2B08",
"e. c #942A07",
"r. c #8E3106",
"t. c #9C3201",
"y. c #923404",
"u. c #A22E02",
"i. c #AB2E01",
"p. c #A42C0A",
"a. c #A33103",
"s. c #A2310D",
"d. c #B33101",
"f. c #BA3609",
"g. c #C53702",
"h. c #C73B02",
"j. c #CD3B02",
"k. c #D53B02",
"l. c #964F07",
"z. c #AB5801",
"x. c #B75400",
"c. c #BC5F02",
"v. c #B75D08",
"b. c #BD6104",
"n. c #B2600C",
"m. c #855524",
"M. c #946432",
"N. c #A5692C",
"B. c #AF732A",
"V. c #B7722E",
"C. c #AB6A31",
"Z. c #B47334",
"A. c #B87330",
"S. c #C15E06",
"D. c #C36102",
"F. c #807B77",
"G. c gray52",
"H. c #888888",
"J. c #938F8C",
"K. c #8C9191",
"L. c #9A9694",
"P. c #ABA9A6",
"I. c #A3A7A8",
"U. c #B8B4AF",
"Y. c #B6B1AD",
"T. c #B2B2B1",
"R. c #BBB6B3",
"E. c #BDB9B5",
"W. c #BBBABA",
"Q. c #C1BDB9",
"!. c #CDCBCB",
"~. c #D5D5D3",
"^. c #DDDDDC",
"/. c #D6D8D9",
"(. c #E1DFDF",
"). c #E4E4E4",
"_. c #ECECED",
"`. c #E6EDEA",
"'. c #F0E7EC",
"]. c #F3F3F3",
"[. c #FEFEFE",
/* pixels */
"                                                                                              [.[.[.. . . [.  3                                                                                             ",
"                                                                                            [.. h j j x x l l X [.                                                                                          ",
"                                                                                        . ~.a h x v x x / / _ / x . ).                                                                                      ",
"                                                                                    [.. { x v b x b . X . v n o b v . { [.                                                                                  ",
"                                                                            [.[.X j  .X.b ( $ / ( n l o . . n / . _ _ . o. .. [.[.[.                                                                        ",
"                                    [ [                     . . v :.v $ . ( | ..o.X.. / _ o / ( n h o o v v 7 O ( / _ ( n . +.o...{ . . W._.W.. .                 [.[.v [ [.                                ",
"                                    ..+. .{ . [.[.           .o.k O.+.+.#.#.#.. / v / _ j / > / . b ( O n . b v . ( n ( _ n b o @.#.#.+.+.+.X.n o.            [._.. { > +.].                                ",
"                                [.  ..*.o.o.+.O.X.| j . . T. .&.. o.#.. c o b b b ( _ / / . / . n . ( O ( / / ( b ( ( / . _ ( . n b n . %.g . ..&.[.).. . { | ..o.$ > o.=.[.                                ",
"                                o + !.} . $ . . =.#.#.+.O.X.[ . . . c n b b 2 / _ . / ( ( / . / _ n ' $ ( ' . _ / / / _ ( ( ( ( $ n b h n a j . c X.o.o.+.+.&.&.. . . z X X..                               ",
"                                  u.0.o U 3.q . o l x b v o x b 7 b ( n / o / ( b / b ( / 5 b ( $ n ' . ( ' . ( ( . _ / . ( n . ( 2 _ n . n v > b x v v 5 v . h o 3.3.o & 0..                               ",
"                                  o i.a.m * <.3.3.3.4.3.4.3.3.3.4.4.3.3.4.3.3.3.4.3.3.4.8.3.3.<.q.3.3.3.3.3.3.3.4.3.8.3.8.3.8.q.3.5.3.3.3.3.q.3.3.3.8.8.8.8.3.3.3.,.@ 0.0.6.[.                              ",
"                                  . N . . u.0.. N 3._.. 3.3.5.4.9.4.9.4.9.9.9.7.3.3.3.3.3.3.3.3.7.3.3.3.3.3.3.3.3.3.3.3.3.3.3.3.3.3.3.3.3.3.<.3.<.3.3.3.X q u.t . u.. q.i.i.                                ",
"                                    2 u.Q p.t.. o . . . q.o [.[.[.[.].[.[.[.[.W.3.3.3.3.8.8.q.[.[.[.[.[.[.[.[.[.. 3.3.3.3.T 3.N [.[.[.[.[.[.[.[.[.`.4.<.. % H W u.u.@ u.a.[.                                ",
"                                    [.S u.@ u.. 0.+ 8._.[.[.[.[.].I 3.3.X [.[.[.[.[.3.3._.[.[.[.[.[.. 3.3.^.[.[.[.].[.3.3.].[.[.[.[.].3.3.<.).[.[.[.[.[.3.o a.; u.u.u.u.[.                                  ",
"                                      [.u.= u.+ u.u.3._.[.[.[.. 8.i.. + * 8.. [.[.[.8.3.`.[.[.[.I.3.p.. u H . /.[.[.[.3.3.].[.[.].B U ; u.. . . [.[.[.[.8.q u.. u.e.p.o [.                                  ",
"                                        i X 0.u.a.u.3.].[.[._.3.. u.. . * . 3.[.[.[.3.3.`.[.[.).3.. u.. e . . 3.[.[.[.3.3.].[.[.. 3.a.* u.. 0.. . [.[.[.8.q u.@ u.X t.[.                                    ",
"                                          q y.u.o 0.3._.[.[.[.. 8.! . + 3.N '.[.[.[.3.8._.[.[.[.3.. r.. u 4.9.~.[.[.[.3.3.].[.[.[.. 3.p.t.. A 6.`.[.[.[.3.q B t.u.. =                                       ",
"                                            . 0.t.q.3._.[.[.[.[.. 1.9.3.q ].[.[.[.[.3.4.`.[.[.[.[.^ 3.3.4.q.].[.[.[.[.3.3.].[.[.[.[.@ 5.4.4.,.[.[.[.[.[.3.q s.t.9 o                                         ",
"                                            . r.u.* 8._.[.[.[.[.[.[.[.[.[.[.[.[.[.[.8.8.).[.[.[.[.[.[.[.[.[.[.[.[.[.[.3.3.].[.[.[.[.[.[.[.[.[.[.[.[.[.[.3.q 0.i.$                                           ",
"                                              X 0.+ q.3.8.3.8.5.3.8.2.3.5.3.8.8.3.8.2.3.5.3.3.8.3.3.3.3.3.3.8.<.8.4.8.4.3.8.4.3.3.4.8.4.3.4.8.4.8.3.4.8.3.<.u.@ .                                           ",
"                                                V K * F F F F F F F F F F F F F F F F F F F F F F F F F F F F F 4.9.9.9.4.9.9.4.4.9.9.4.4.9.9.9.9.9.4.9.3.. 0 [.                                            ",
"                                                [.. |  .x c v x v v c v x v v x b c c c x v v v v b v v x v v v c c c x c c c c c c c c c c c c c c v '  .. [.                                              ",
"                                            H.7 | o.#.. O . j . b . b c v v v b v b v . v a b v . b . b v b b v . v b b v . b c b v . b c / c v v x h h . #.X.} 7 [.[.                                      ",
"                                [.[.7 > {  .o.#.&.2 x l . h v . / . / b ( b n n b / b . ( a / / . / . / n n ( n . / b ( / . / b / / . / b / / ( b v l . o l +.$.#.X.| 7 X [.                                ",
"              `.[ 5 - . . 4 | {  ...+.#.&.=.=.. . 2 x x x c / . ( . _ n ( n / / n ( n . ( g / ( . ( . ( ( ( ( / . / n ( ( . ( b _ / . ( / ( ( ( / / . x O . > a $.;.=.$.#.+... . .$ . . . . o +             ",
"              [.+.+.o +.#.%.&.&.=.;.;.;.=.. b v . x . h . / / . ( . ( n ( n ( / n ( n . ( g / ( . ( . _ ( ( ( / . / / ( ( . ( n / / . ( / _ / ( / 7 v 5 v . b l v h j ;.;.;.;.=.=.%.#.#.O.n o.+.            ",
"            $ [.O.$.[ $.=.;.;.;.=.n . . v . v c n b v b h ( / . ( . ( n ( n / n n ( b . ( g / ( . ( . ( ( ( ( ( . / n _ ( . ( n _ / $ ( b _ / ( / . ( b b . . b c g b 7 3 o =.=.;.;.;.2 ] . $.[.[.          ",
"              8.. . . . . . n g v n b b b n b b n b n n / ( ( . ( . _ n _ n ( / n ( / . ( g / ( . ( . ( ( ( _ n . b b ( ( . ( n / / $ ( / ( / ( / n / b 2 / / . n . n n b b b . b . . X o . . Y .           ",
"              ).. J 9.q.3.3.r . o 3 X o . . . . v O b . > . . x . v . > . o . . o . . n o . . . b . ( . n . 2 . j @ . o . v o . o / b . . o . . . o v . . v . . h 2 . a + o . > @ P 3.8.3.3.9 O [.          ",
"              [.[.K <.3.Y @ X 4.3.8.3.3.3.3.3.3.3.3.3.<.8.8.3.8.8.9.8.8.3.3.3.3.8.3.3.3.3.3.8.3.8.3.3.3.3.3.3.3.8.3.3.8.3.3.3.3.3.3.3.3.3.3.8.8.3.3.3.3.3.3.3.3.3.3.3.3.3.3.3.3.<.X . 2.3.@ o               ",
"                . 4.9 3.3.. 8.3.m 8.. <.4 ].G 3.7.3.. [.[.].[.].8.7.Z <.3.7.8.8.[.].].[.. 3.3.3.<.3.3.].].].3.<.<.<.<.<._.].].. <.<.w <.7.<.<.X ].].].].].,.<.<.3.].'.<.,.3.3.4.3.X 4.8.. 5.8.              ",
"                  [.D . 3.<.3.3.+ 3.. 3.2 [.G 3.3.3.. [.[.[.[.[.3.3.F 3.3.3.3.3.[.[.[.[.. 3.. . . 3.M [.[.].3.4.. . <.3.[.[.[.. 3.3.w 3.3.3.8.. [.[.[.[.[.3.3.8.,.[.[.3.<.3.; 3.4.m 3.A 4.@ [.              ",
"                      [.I.. X 8.q.q.5.3.X 3.,.)./.[.[.[.[.[.[.[.[.@ . 3.3.] _.].[.[.[.[.).G.. e . O.O.O.O.O.o.=.M m G.T.].[.[.[.`.X e 3.4.. ].[.[.[.[.[.[.[.^.] ,.3.3.3.. 5.q 3.,.4.8.[.                    ",
"                          [.2 . 3.. 3.8.. 3.3.[.[.[.[.[.[.[.[.[.[.[.K.3.3.. . . . + . . . Z.Z.A.A.A.A.Z.B.A.Z.A.V.V.A.. . . . . . . & 3.9.[.[.[.[.[.[.[.[.[.[.[.1.3.3.. 3.1.3.3.. [.                        ",
"                                4.F = 3.. 3.3.[.[.[.[.[.[.[.[.[.[.[.j 3.3.3.v.S.b.b.c.. - M.A.C.m.A.A.A.M.A.A.A.O A.A.l.c.D.~ x.. . * 3.9.[.[.[.[.[.[.[.[.[.[.[.3.3.3.3.3.q.e [.[.                          ",
"                                [.>.C 3.. 3.3.[.[.[.[.[.[.[.[.[.[.[.j q.3.3.$ D.O v.t b.v.+ A.A.E x ) _ X N.A.A.A.A.. z.+ c.R v.y . & 3.9.[.[.[.[.[.[.[.[.[.[.[.3.3.3.3.X w [.                              ",
"                                    [.. . . . . . . . . . . . . . . . . . . . . . . . . . . . . . . . . . . . . . . . . . . . . . . . . . . . . . . . . . . . . . . + . [.                                  ",
"                                      3.3.+ 3.3.3.3.3.3.3.3.3.3.3.8.8.@ <.U U U U U U U U U . U U U U U U U U U ,.. U U U U ,.U U U ,.. 3.3.3.3.3.3.3.3.3.3.3.8.3.. 3.3.[.                                  ",
"                                      [.. 3.3.3.3.8.3.3.3.3.3.3.3.3.& 8.L k.k.k.k.k.k.k.k.k.k.k.k.k.k.k.k.k.k.k.k.k.k.k.k.k.k.k.k.k.% 3.q.4.3.9.3.3.3.3.3.3.4.3.* 3.3.[.                                    ",
"                                        . 3.3.[.[.[.[._.).~.[.[.[.[.j 8.,.L G G L J J G . k.k.k.k.k.k.k.k.k.k.k.k.k.. Z G F G G G G % 3.9.[.[.[.[.].. [.[.[.[.[.9 3.3.                                      ",
"                                        . 3.3.[.[._.. 3.* 3.Z . [.[.j 8.3.3.<.3.2.3.2.8.. k.k.k.k.k.k.j.k.k.k.k.k.k.. 3.3.5.5.8.4.3.* 3.9.[.[._.: 9.G 8.i ).[.[.9 3.3.                                      ",
"                                        . 3.3.[.[.3.i % X . = . ).[.j 8.3.. o . # . . o + + 1 + . # d < . . . d d 1 . . 1 f . 6 f f & 3.9.[.[.8.! X + @ . 0 ).[.9 3.3.                                      ",
"                                        . 3.3.[.].. t.w.@ . X u.W.[.j 8.3.. < . . + . . . s . < . . d s 6 . . 6 d . . . d 6 . < . . & 3.9.[.[.. w.u.a.= + e . [.9 3.3.[.                                    ",
"                                        . 3.3.[.).F u.i.. . @ u.o [.k 8.3.A w w w q e q . * * * * * 9 q k.k.k.k.k.k.. % X X . o . . & 3.9.[.[.. Y t.a.+ . Q . [.9 3.3.                                      ",
"                                        . 3.3.[.{ . t.i.@ . . 0.P [.k 3.3.e 3.3.. 3.3.3.. k.k.k.. k.k.k.k.k.k.9 k.k.. w 3.3.. 3.3.<.% 3.9.[.).+ p.0.a.X + K 3.[.9 3.3.                                      ",
"                                        . 3.3.T.7.C C C C C C C 3.% , 3.3.e 3.3.. 3.3.2.. k.k.k.. k.k.j.k.k.k.9 k.k.. w 3.3.. 3.3.<.* 3.9.. 7.+ . . . + . + 3.. 9 3.3.                                      ",
"                                        . 3.3.. . . . . . . . . . . . 3.3.X % % & % % % . i.u.i.j.j.j.h.F d.d.i.d.d.. . . . . . . . * 3.9.. . . . . . + . . . . 9 3.3.[.                                    ",
"                                        . 3.3.[.[.[.[.[.[.[.[.[.[.[.j 3.3.e 8.3.+ 3.3.3.. k.k.k.X k.k.k.k.k.k.q k.k.. q 3.3.. 3.3.<.& 3.9.[.[.[.[.[.[.[.[.[.[.[.9 3.3.                                      ",
"                                        . 3.3.[.[.[.[.[.[.[.[.[.[.[.j 3.3.e 3.3.. 3.3.3.. k.k.k.. k.k.k.k.k.k.q k.k.. w 3.3.. 3.3.<.* 3.4.[.[.[.[.[.[.[.[.[.[.[.9 3.3.[.                                    ",
"                                    [.[ . 3.3.[.[.[.[.[.[.[.[.[.[.[.k 3.3.e 3.2.3.3.<.1.. k.k.k.. k.k.k.k.k.k.9 k.k.. w C C C C C m & 3.9.[.[.[.[.[.[.[.[.[.[.[.9 3.3.T.[.                                  ",
"                                [.. R.R.. 3.3.).(.).).).).(.).(.^.^.h 3.3.3.3.3.3.3.3.3.. g.g.g.. g.g.f.g.g.g.t k.k.. <.4.3.3.4.3.4.q 3.9.].].].].].]._.'._.'.'.9 3.3.R.R.R.[.                              ",
"                              o R.R.R.R.. 3.3.3.3.3.3.3.3.3.3.3.3.8.* 3.3.3.3.3.3.3.3.3.<.U L U U U I L L L U L L L U 3.3.3.3.3.3.3.& 3.9.8.9.8.8.3.8.3.3.3.3.3.9 3.3.R.E.R.E.. [.                          ",
"                          [.J.R.R.R.R.R.R.E.E.E.R.R.R.W.R.E.R.R.E.E.R.R.R.R.W.R.R.R.R.R.R.E.R.R.R.E.E.E.E.R.E.R.R.Q.R.Q.E.E.E.R.E.R.Q.R.E.E.E.E.Q.R.Q.R.Q.U.Q.Q.E.U.E.R.R.R.R.E.E.^.                        ",
"                        . E.R.E.R.T.R.R.R.R.R.R.R.R.R.R.R.R.R.R.R.R.R.R.R.R.R.R.R.R.R.R.R.R.R.R.R.R.R.R.R.R.R.R.R.R.R.R.R.R.R.R.R.R.R.R.R.R.R.R.R.R.R.R.R.R.U.U.R.R.R.R.R.R.R.R.E.E.. [.                    ",
"                    ].R.R.R.R.R.R.R.R.R.R.R.R.R.R.R.R.R.R.R.R.R.R.R.R.E.R.R.R.R.R.R.R.R.R.R.R.R.R.R.R.R.R.R.R.R.R.R.R.R.R.R.R.R.R.R.R.R.R.R.R.R.R.R.R.R.R.U.U.Q.R.R.R.R.R.R.R.R.R.R.E.R..                   ",
"              [.[.l R.U.R.R.R.R.U.R.R.R.R.R.R.R.R.R.R.R.R.R.R.R.R.R.R.R.R.R.R.R.R.R.R.R.R.R.R.R.R.R.R.R.R.R.R.R.R.R.R.R.R.R.R.R.R.R.R.R.R.R.R.R.R.R.R.R.R.Q.R.U.U.R.R.U.R.R.R.R.R.R.R.E.E.R.[.              ",
"            [.O R.E.R.R.R.R.R.R.R.R.R.R.U.R.T.R.R.U.R.R.R.R.T.R.R.R.R.R.R.R.R.R.R.R.R.R.R.R.U.R.U.R.R.R.R.R.R.R.U.R.R.U.R.R.U.R.R.R.R.R.U.R.R.R.R.R.R.T.R.R.R.R.R.R.R.U.R.R.R.R.R.R.R.R.R.E.Q.E.[.          ",
"            ;.;.-.-.*.*.*.*.*.*.*.*.*.*.*.*.*.*.*.*.*.*.*.*.*.*.n R.2 R.R.T.U.R.R.R.T.R.R.T.R.R.R.R.R.R.R.R.R.R.R.R.R.R.R.R.R.R.R.R.R.R.Y.R.R.=.*.*.*.*.*.*.*.*.*.*.*.*.*.*.*.*.*.*.*.-.-.-.-.F.F..         ",
"            F.-.-.-.-.-.*.*.*.*.*.*.*.*.*.*.*.*.*.*.*.*.*.*.*.x R.. L.L.L.L.L.L.L.L.L.L.L.L.E.E.E.E.W.Q.R.E.R.E.Q.Q.Q.Q.Q.Q.Q.Q.Q.Q.Q.E.E.P.R.L.*.*.*.*.*.*.*.*.*.*.*.*.*.*.*.*.*.*.*.*.-.-.-.;.;..         ",
"            F.F.;.-.-.*.*.*.*.*.*.*.*.*.*.*.*.*.*.*.*.*.*.*.*.R.T.. R.R.R.R.R.R.R.R.R.R.R.R.R.R.R.R.R.R.R.R.R.R.R.R.R.R.R.R.R.R.R.R.R.R.R.U.. R.. *.*.*.*.*.*.*.*.*.*.*.*.*.*.*.*.*.*.*.-.-.-.-.;..         ",
"            F.;.;.-.-.-.-.*.-.-.-.-.-.-.-.-.-.-.*.*.-.*.*.-.R.R.8 O O O . X X O O O O o @ o X o O O O o o O O . . . . . . . . . . . . . . o . P.R.*.*.*.*.*.*.*.*.-.*.*.*.*.-.*.*.-.*.*.*.-.-.-.-..         ",
"            ;.F.F.-.;.-.-.-.-.-.-.-.-.-.-.-.-.-.-.-.-.-.-.. R.. R.R.R.R.E.R.R.R.R.R.R.R.R.E.R.R.R.R.E.R.E.R.R.R.R.U.R.R.R.R.R.R.R.R.R.R.R.U.R.R.R.E.*.*.*.*.*.-.-.-.-.*.*.-.-.-.*.*.-.-.*.*.-.*.-..         ",
"            [.[.[.[.[.[.[.[.[.[.[.[.[.[.[.[.[.[.[.[.[.[.[.R.U.[ E.R.R.R.R.R.R.R.R.R.R.R.R.R.R.R.R.R.R.R.R.R.R.R.R.R.R.R.R.R.R.R.R.R.R.R.R.R.R.R.o R.. [.[.[.[.[.[.[.[.[.[.[.[.[.[.[.[.[.[.[.[.[.[.[.        ",
"                                                        . o . . . . . . . . . . . . . . . . . . . . . . . . . . . . . . . . . . . . . . . . . . . . .                                                       "
};
