/* XPM */
static char *b3da4a503ead489e966e1c58e3708aa41nid3HGhnAHlMbMB[] = {
/* columns rows colors chars-per-pixel */
"64 64 147 2 ",
"   c None",
".  c #020403",
"X  c #0B0303",
"o  c #050B07",
"O  c #080A07",
"+  c #040E08",
"@  c #0B0C09",
"#  c #140304",
"$  c #1C0406",
"%  c #110E09",
"&  c #1C0D0B",
"*  c #06140C",
"=  c #0B130C",
"-  c #06190E",
";  c #0C190E",
":  c #12120D",
">  c #1B120D",
",  c #10190E",
"<  c #0F1711",
"1  c #061E11",
"2  c #0A1C11",
"3  c #151A10",
"4  c #1B1F13",
"5  c #230607",
"6  c #2F0407",
"7  c #210807",
"8  c #270708",
"9  c #2C0608",
"0  c #240D0C",
"q  c #290E0C",
"w  c #340307",
"e  c #390307",
"r  c #320508",
"t  c #3D060A",
"y  c #340A0C",
"u  c #3B0B0C",
"i  c #34110E",
"p  c #221310",
"a  c #241F14",
"s  c #062011",
"d  c #0B2213",
"f  c #132314",
"g  c #1E2316",
"h  c #1C2A18",
"j  c #212215",
"k  c #202318",
"l  c #222B19",
"z  c #292F1C",
"x  c #322E1D",
"c  c #2C301C",
"v  c #38341F",
"b  c #3C3521",
"n  c #3C3820",
"m  c #43070C",
"M  c #4C050B",
"N  c #46090D",
"B  c #49090E",
"V  c #53050B",
"C  c #5B040C",
"Z  c #550A0D",
"A  c #5B0A0E",
"S  c #5C0C10",
"D  c #5F1212",
"F  c #591E12",
"G  c #620B0E",
"H  c #62110F",
"J  c #630E10",
"K  c #621513",
"L  c #6E1313",
"P  c #671812",
"I  c #6A1B12",
"U  c #741314",
"Y  c #7A1714",
"T  c #741914",
"R  c #7D1815",
"E  c #761719",
"W  c #721918",
"Q  c #7F1A19",
"!  c #6D2615",
"~  c #6E2814",
"^  c #6F2319",
"/  c #742313",
"(  c #722613",
")  c #702615",
"_  c #732714",
"`  c #702416",
"'  c #742714",
"]  c #772715",
"[  c #782615",
"{  c #752814",
"}  c #772815",
"|  c #782815",
" . c #7B2915",
".. c #7A2916",
"X. c #712E1D",
"o. c #7E3924",
"O. c #841C1C",
"+. c #881D1C",
"@. c #911E1E",
"#. c #981E1F",
"$. c #87201E",
"%. c #8A211F",
"&. c #94261B",
"*. c #94291C",
"=. c #9D2E1E",
"-. c #883D1C",
";. c #A22E1E",
":. c #B7261D",
">. c #BD2B1F",
",. c #BF2B1F",
"<. c #AD1E22",
"1. c #B11F23",
"2. c #8F2020",
"3. c #962120",
"4. c #B22024",
"5. c #A43620",
"6. c #A83321",
"7. c #C02A1F",
"8. c #C62C20",
"9. c #CD3124",
"0. c #DC3325",
"q. c #F33725",
"w. c #83451D",
"e. c #8E481F",
"r. c #90431B",
"t. c #B16624",
"y. c #B46B26",
"u. c #B86D22",
"i. c #B96E22",
"p. c #BA6F23",
"a. c #BA6D23",
"s. c #BA6D24",
"d. c #B97024",
"f. c #BB7024",
"g. c #BE7124",
"h. c #C54826",
"j. c #D25629",
"k. c #D85229",
"l. c #E0582C",
"z. c #E5622C",
"x. c #EA652D",
"c. c #E56C2C",
"v. c #F3752F",
"b. c #F37A2E",
"n. c #F3832F",
"m. c #F18A2F",
"M. c #F29430",
/* pixels */
"                                                                                                                                ",
"                                                                                                                                ",
"                                                                                                                                ",
"                                                                                                                                ",
"                                                                                                                                ",
"                                                                                                                                ",
"                                                                                                                                ",
"                                                                                                                                ",
"                                                                                                                                ",
"                                                                                                                                ",
"                                                                                                                                ",
"                                                                                                                                ",
"                                                                                                                                ",
"                                                                                                                                ",
"                                                                                                                                ",
"                                                                                                                                ",
"                                                                                                                                ",
"                                                                                                                                ",
"                                        2 1 2 s s s s - 1 2 1 1 1 1 2 2 2 d 2 2 d 2 1 h j                                       ",
"                                      ; 1 s s s s s s s s s s s s s s s s s s s s s s h c                                       ",
"                                      ; s s s s s s s s s s s s s s s s s s s s s s s d z g                                     ",
"                                    2 s s s s s s s s s s s s s s s s s s s s s s s s s s l k                                   ",
"                                ; - - - - - - - - - - - - - ; , ; ; - - * * 1 * * = = = @ = j :                                 ",
"                                = : % $ # $ $ $ $ 5 $ $ 5 6 T Y L T r r 6 r 6 r r w w w e r                                     ",
"                                  u Z Z Z Z Z V A A Z A A A 7.0.9.7.A A A A A A C S S A J Z                                     ",
"                                  u e.g.i.i.t.I r.g.d.d.y.) 7.q.q.:...i.i.i.d.-.] s.s.i.s.w.                                    ",
"                                  u I ..] ] ] G I ..{ { | H Y 4.,.U H _ _ _ | I J ) ~ ~ ~ F                                     ",
"                                  p y u m m t u t t t y y y y i i q q 0 0 0 & & > : : : : j 3                                   ",
"                              - 2 2 1 1 2 1 1 1 1 1 1 1 s 1 1 s 1 s s s s s s s s s s s s f l 2 ;                               ",
"          : < 3       ; 2 2 2 s s 1 s s s 1 s s s s 1 s s s s s s 1 s s s s s s s 1 s s s 1 f l f 3 g           = O O           ",
"              * * 2 1 1 2 s s s s s s s s s s s s s s s s s s s s s s s s s s s s s s 1 s s 1 s h z n v b x a o . o             ",
"                o . . * * * - 2 1 1 1 1 1 s 1 1 1 1 1 1 - 1 1 - - - - - * * * * * * * * + * + + o o : > % X . o                 ",
"                  X . . . . . . . . . . . . o . o . . . . . . . . . . . . . . . . . . . . . . . . . . . o .                     ",
"                        $ $ X . . X . X . X . . . # X # # # # # # # $ $ $ $ 5 # . # $ $ $ $ 5 5 X X 6 8                         ",
"                        N V y o t M M M M M m @ $ M V V V Z V A A A D C C C C m O 6 C C V V C V & $ V N                         ",
"                        N C y @ M G C C C C V % 5 C C C G o.A ^ ^ C X.D C C C M O r C C C C C C : $ V m                         ",
"                        N C y @ M G U R L C M = 5 C C A E $.+.+.O.W W K V C C M @ w A L R R G V & $ V t                         ",
"                        N C q @ M &.l.x.6.C M @ 5 C C C %.<.<.<.<.<.<.Q V C C V @ e G h.x.l.U V : & V u                         ",
"                        m C q @ V ;.n.m.5.C M = 5 G C A $.<.<.1.1.<.<.O.A C C M @ e G j.M.c.U M : 5 V t                         ",
"                        N C q @ V ;.v.b.5.C N @ 9 C C C $.<.1.1.1.1.<.O.A C C M @ e G k.b.z.T V = 5 V t                         ",
"                        N C q @ M R ;.=.T C M * 9 C C C +.1.1.1.1.1.1.+.A C C M @ e G &.=.*.J M : 7 M t                         ",
"                        N C q % V C V V C A N = 9 A C A 2.1.1.4.1.1.1.@.A C C M @ m C C V C C V : 7 V N                         ",
"                        B C q % V C C C C C M = 8 C C A 3.<.1.4.4.4.1.#.J C C M @ m C C C C V M : 7 B                           ",
"                                                                                                                                ",
"                                                                                                                                ",
"                                                                                                                                ",
"                                                                                                                                ",
"                                                                                                                                ",
"                                                                                                                                ",
"                                                                                                                                ",
"                                                                                                                                ",
"                                                                                                                                ",
"                                                                                                                                ",
"                                                                                                                                ",
"                                                                                                                                ",
"                                                                                                                                ",
"                                                                                                                                ",
"                                                                                                                                ",
"                                                                                                                                ",
"                                                                                                                                ",
"                                                                                                                                ",
"                                                                                                                                ",
"                                                                                                                                ",
"                                                                                                                                "
};
